<?xml version="1.0" encoding="UTF-8" standalone="no"?>
<!DOCTYPE svg PUBLIC "-//W3C//DTD SVG 1.1//EN"
 "http://www.w3.org/Graphics/SVG/1.1/DTD/svg11.dtd">
<!-- Generated by graphviz version 9.0.0 (20230911.1827)
 -->
<!-- Title: graph_name Pages: 1 -->
<svg width="421pt" height="153pt"
 viewBox="0.00 0.00 421.23 153.37" xmlns="http://www.w3.org/2000/svg" xmlns:xlink="http://www.w3.org/1999/xlink">
<g id="graph0" class="graph" transform="scale(1 1) rotate(0) translate(4 149.37)">
<title>graph_name</title>
<polygon fill="#f2f2f2" stroke="none" points="-4,4 -4,-149.37 417.23,-149.37 417.23,4 -4,4"/>
<!-- 18 -->
<g id="node1" class="node">
<title>18</title>
<ellipse fill="#ffffff" stroke="#000000" cx="159.81" cy="-114.26" rx="159.81" ry="31.11"/>
<text text-anchor="middle" x="159.81" y="-118.96" font-family="Meiryo UI" font-size="14.00">START</text>
<text text-anchor="middle" x="159.81" y="-100.96" font-family="Meiryo UI" font-size="14.00">int64_t __android_log_print()</text>
</g>
<!-- 19 -->
<g id="node2" class="node">
<title>19</title>
<polygon fill="#ffffff" stroke="#000000" points="273.98,-75.14 48.52,-75.14 45.63,-72.25 45.63,-49.14 271.09,-49.14 273.98,-52.03 273.98,-75.14"/>
<polyline fill="none" stroke="#000000" points="271.09,-72.25 45.63,-72.25"/>
<polyline fill="none" stroke="#000000" points="271.09,-72.25 271.09,-49.14"/>
<polyline fill="none" stroke="#000000" points="271.09,-72.25 273.98,-75.14"/>
<text text-anchor="middle" x="159.81" y="-57.84" font-family="Meiryo UI" font-size="14.00">return __android_log_print()</text>
</g>
<!-- 18&#45;&gt;19 -->
<g id="edge1" class="edge">
<title>18&#45;&gt;19</title>
<path fill="none" stroke="#000000" d="M159.81,-82.66C159.81,-82.5 159.81,-82.34 159.81,-82.17"/>
<polygon fill="#000000" stroke="#000000" points="163.31,-86.72 159.81,-76.72 156.31,-86.72 163.31,-86.72"/>
</g>
<!-- 20 -->
<g id="node3" class="node">
<title>20</title>
<ellipse fill="#ffffff" stroke="#000000" cx="159.81" cy="-20.57" rx="72" ry="20.57"/>
<text text-anchor="middle" x="159.81" y="-16.27" font-family="Meiryo UI" font-size="14.00">END</text>
</g>
<!-- 19&#45;&gt;20 -->
<g id="edge2" class="edge">
<title>19&#45;&gt;20</title>
<path fill="none" stroke="#000000" d="M159.81,-49.06C159.81,-48.91 159.81,-48.76 159.81,-48.61"/>
<polygon fill="#000000" stroke="#000000" points="163.31,-53.12 159.81,-43.12 156.31,-53.12 163.31,-53.12"/>
</g>
<!-- 836 -->
<g id="node4" class="node">
<title>836</title>
<polygon fill="#bbccff" stroke="none" points="413.23,-75.14 310.38,-75.14 310.38,-49.14 413.23,-49.14 413.23,-75.14"/>
<text text-anchor="start" x="318.38" y="-57.84" font-family="Meiryo UI" font-size="14.00">tailcall</text>
</g>
<!-- 19&#45;&gt;836 -->
<g id="edge3" class="edge">
<title>19&#45;&gt;836</title>
<path fill="none" stroke="#aaaaff" d="M274.22,-62.14C286.31,-62.14 298.4,-62.14 310.49,-62.14"/>
</g>
</g>
</svg>
