<?xml version="1.0" encoding="UTF-8" standalone="no"?>
<!DOCTYPE svg PUBLIC "-//W3C//DTD SVG 1.1//EN"
 "http://www.w3.org/Graphics/SVG/1.1/DTD/svg11.dtd">
<!-- Generated by graphviz version 9.0.0 (20230911.1827)
 -->
<!-- Title: graph_name Pages: 1 -->
<svg width="318pt" height="153pt"
 viewBox="0.00 0.00 318.40 153.37" xmlns="http://www.w3.org/2000/svg" xmlns:xlink="http://www.w3.org/1999/xlink">
<g id="graph0" class="graph" transform="scale(1 1) rotate(0) translate(4 149.37)">
<title>graph_name</title>
<polygon fill="#f2f2f2" stroke="none" points="-4,4 -4,-149.37 314.4,-149.37 314.4,4 -4,4"/>
<!-- 51 -->
<g id="node1" class="node">
<title>51</title>
<ellipse fill="#ffffff" stroke="#000000" cx="97.97" cy="-114.26" rx="97.97" ry="31.11"/>
<text text-anchor="middle" x="97.97" y="-118.96" font-family="Meiryo UI" font-size="14.00">START</text>
<text text-anchor="middle" x="97.97" y="-100.96" font-family="Meiryo UI" font-size="14.00">int64_t __errno()</text>
</g>
<!-- 52 -->
<g id="node2" class="node">
<title>52</title>
<polygon fill="#ffffff" stroke="#000000" points="172.03,-75.14 26.8,-75.14 23.91,-72.25 23.91,-49.14 169.14,-49.14 172.03,-52.03 172.03,-75.14"/>
<polyline fill="none" stroke="#000000" points="169.14,-72.25 23.91,-72.25"/>
<polyline fill="none" stroke="#000000" points="169.14,-72.25 169.14,-49.14"/>
<polyline fill="none" stroke="#000000" points="169.14,-72.25 172.03,-75.14"/>
<text text-anchor="middle" x="97.97" y="-57.84" font-family="Meiryo UI" font-size="14.00">return __errno()</text>
</g>
<!-- 51&#45;&gt;52 -->
<g id="edge1" class="edge">
<title>51&#45;&gt;52</title>
<path fill="none" stroke="#000000" d="M97.97,-82.66C97.97,-82.5 97.97,-82.34 97.97,-82.17"/>
<polygon fill="#000000" stroke="#000000" points="101.47,-86.72 97.97,-76.72 94.47,-86.72 101.47,-86.72"/>
</g>
<!-- 53 -->
<g id="node3" class="node">
<title>53</title>
<ellipse fill="#ffffff" stroke="#000000" cx="97.97" cy="-20.57" rx="72" ry="20.57"/>
<text text-anchor="middle" x="97.97" y="-16.27" font-family="Meiryo UI" font-size="14.00">END</text>
</g>
<!-- 52&#45;&gt;53 -->
<g id="edge2" class="edge">
<title>52&#45;&gt;53</title>
<path fill="none" stroke="#000000" d="M97.97,-49.06C97.97,-48.91 97.97,-48.76 97.97,-48.61"/>
<polygon fill="#000000" stroke="#000000" points="101.47,-53.12 97.97,-43.12 94.47,-53.12 101.47,-53.12"/>
</g>
<!-- 869 -->
<g id="node4" class="node">
<title>869</title>
<polygon fill="#bbccff" stroke="none" points="310.4,-75.14 207.54,-75.14 207.54,-49.14 310.4,-49.14 310.4,-75.14"/>
<text text-anchor="start" x="215.54" y="-57.84" font-family="Meiryo UI" font-size="14.00">tailcall</text>
</g>
<!-- 52&#45;&gt;869 -->
<g id="edge3" class="edge">
<title>52&#45;&gt;869</title>
<path fill="none" stroke="#aaaaff" d="M172.5,-62.14C184.21,-62.14 195.92,-62.14 207.63,-62.14"/>
</g>
</g>
</svg>
