<?xml version="1.0" encoding="UTF-8" standalone="no"?>
<!DOCTYPE svg PUBLIC "-//W3C//DTD SVG 1.1//EN"
 "http://www.w3.org/Graphics/SVG/1.1/DTD/svg11.dtd">
<!-- Generated by graphviz version 9.0.0 (20230911.1827)
 -->
<!-- Title: graph_name Pages: 1 -->
<svg width="677pt" height="179pt"
 viewBox="0.00 0.00 676.57 178.82" xmlns="http://www.w3.org/2000/svg" xmlns:xlink="http://www.w3.org/1999/xlink">
<g id="graph0" class="graph" transform="scale(1 1) rotate(0) translate(4 174.82)">
<title>graph_name</title>
<polygon fill="#f2f2f2" stroke="none" points="-4,4 -4,-174.82 672.57,-174.82 672.57,4 -4,4"/>
<!-- 159 -->
<g id="node1" class="node">
<title>159</title>
<ellipse fill="#ffffff" stroke="#000000" cx="334.28" cy="-126.98" rx="334.28" ry="43.84"/>
<text text-anchor="middle" x="334.28" y="-140.68" font-family="Meiryo UI" font-size="14.00">START</text>
<text text-anchor="middle" x="334.28" y="-122.68" font-family="Meiryo UI" font-size="14.00">int64_t __poll_chk(struct pollfd* arg1, nfds_t arg2, int32_t arg3,</text>
<text text-anchor="middle" x="334.28" y="-104.68" font-family="Meiryo UI" font-size="14.00"> uint64_t arg4)</text>
</g>
<!-- 160 -->
<g id="node2" class="node">
<title>160</title>
<polygon fill="#ffffff" stroke="#000000" points="491.91,-75.14 179.55,-75.14 176.66,-72.25 176.66,-49.14 489.02,-49.14 491.91,-52.03 491.91,-75.14"/>
<polyline fill="none" stroke="#000000" points="489.02,-72.25 176.66,-72.25"/>
<polyline fill="none" stroke="#000000" points="489.02,-72.25 489.02,-49.14"/>
<polyline fill="none" stroke="#000000" points="489.02,-72.25 491.91,-75.14"/>
<text text-anchor="middle" x="334.28" y="-57.84" font-family="Meiryo UI" font-size="14.00">return __poll_chk(arg1, arg2, arg3, arg4)</text>
</g>
<!-- 159&#45;&gt;160 -->
<g id="edge1" class="edge">
<title>159&#45;&gt;160</title>
<path fill="none" stroke="#000000" d="M334.28,-82.68C334.28,-82.52 334.28,-82.36 334.28,-82.2"/>
<polygon fill="#000000" stroke="#000000" points="337.78,-86.99 334.28,-76.99 330.78,-86.99 337.78,-86.99"/>
</g>
<!-- 161 -->
<g id="node3" class="node">
<title>161</title>
<ellipse fill="#ffffff" stroke="#000000" cx="334.28" cy="-20.57" rx="72" ry="20.57"/>
<text text-anchor="middle" x="334.28" y="-16.27" font-family="Meiryo UI" font-size="14.00">END</text>
</g>
<!-- 160&#45;&gt;161 -->
<g id="edge2" class="edge">
<title>160&#45;&gt;161</title>
<path fill="none" stroke="#000000" d="M334.28,-49.06C334.28,-48.91 334.28,-48.76 334.28,-48.61"/>
<polygon fill="#000000" stroke="#000000" points="337.78,-53.12 334.28,-43.12 330.78,-53.12 337.78,-53.12"/>
</g>
<!-- 977 -->
<g id="node4" class="node">
<title>977</title>
<polygon fill="#bbccff" stroke="none" points="630.71,-75.14 527.86,-75.14 527.86,-49.14 630.71,-49.14 630.71,-75.14"/>
<text text-anchor="start" x="535.86" y="-57.84" font-family="Meiryo UI" font-size="14.00">tailcall</text>
</g>
<!-- 160&#45;&gt;977 -->
<g id="edge3" class="edge">
<title>160&#45;&gt;977</title>
<path fill="none" stroke="#aaaaff" d="M492.19,-62.14C504.1,-62.14 516.01,-62.14 527.92,-62.14"/>
</g>
</g>
</svg>
