<?xml version="1.0" encoding="UTF-8" standalone="no"?>
<!DOCTYPE svg PUBLIC "-//W3C//DTD SVG 1.1//EN"
 "http://www.w3.org/Graphics/SVG/1.1/DTD/svg11.dtd">
<!-- Generated by graphviz version 9.0.0 (20230911.1827)
 -->
<!-- Title: graph_name Pages: 1 -->
<svg width="748pt" height="153pt"
 viewBox="0.00 0.00 747.63 153.37" xmlns="http://www.w3.org/2000/svg" xmlns:xlink="http://www.w3.org/1999/xlink">
<g id="graph0" class="graph" transform="scale(1 1) rotate(0) translate(4 149.37)">
<title>graph_name</title>
<polygon fill="#f2f2f2" stroke="none" points="-4,4 -4,-149.37 743.63,-149.37 743.63,4 -4,4"/>
<!-- 129 -->
<g id="node1" class="node">
<title>129</title>
<ellipse fill="#ffffff" stroke="#000000" cx="369.82" cy="-114.26" rx="369.82" ry="31.11"/>
<text text-anchor="middle" x="369.82" y="-118.96" font-family="Meiryo UI" font-size="14.00">START</text>
<text text-anchor="middle" x="369.82" y="-100.96" font-family="Meiryo UI" font-size="14.00">int64_t __read_chk(int32_t arg1, int64_t arg2, size_t arg3, size_t arg4)</text>
</g>
<!-- 130 -->
<g id="node2" class="node">
<title>130</title>
<polygon fill="#ffffff" stroke="#000000" points="528.19,-75.14 214.33,-75.14 211.44,-72.25 211.44,-49.14 525.3,-49.14 528.19,-52.03 528.19,-75.14"/>
<polyline fill="none" stroke="#000000" points="525.3,-72.25 211.44,-72.25"/>
<polyline fill="none" stroke="#000000" points="525.3,-72.25 525.3,-49.14"/>
<polyline fill="none" stroke="#000000" points="525.3,-72.25 528.19,-75.14"/>
<text text-anchor="middle" x="369.82" y="-57.84" font-family="Meiryo UI" font-size="14.00">return __read_chk(arg1, arg2, arg3, arg4)</text>
</g>
<!-- 129&#45;&gt;130 -->
<g id="edge1" class="edge">
<title>129&#45;&gt;130</title>
<path fill="none" stroke="#000000" d="M369.82,-82.66C369.82,-82.5 369.82,-82.34 369.82,-82.17"/>
<polygon fill="#000000" stroke="#000000" points="373.32,-86.72 369.82,-76.72 366.32,-86.72 373.32,-86.72"/>
</g>
<!-- 131 -->
<g id="node3" class="node">
<title>131</title>
<ellipse fill="#ffffff" stroke="#000000" cx="369.82" cy="-20.57" rx="72" ry="20.57"/>
<text text-anchor="middle" x="369.82" y="-16.27" font-family="Meiryo UI" font-size="14.00">END</text>
</g>
<!-- 130&#45;&gt;131 -->
<g id="edge2" class="edge">
<title>130&#45;&gt;131</title>
<path fill="none" stroke="#000000" d="M369.82,-49.06C369.82,-48.91 369.82,-48.76 369.82,-48.61"/>
<polygon fill="#000000" stroke="#000000" points="373.32,-53.12 369.82,-43.12 366.32,-53.12 373.32,-53.12"/>
</g>
<!-- 947 -->
<g id="node4" class="node">
<title>947</title>
<polygon fill="#bbccff" stroke="none" points="667.25,-75.14 564.39,-75.14 564.39,-49.14 667.25,-49.14 667.25,-75.14"/>
<text text-anchor="start" x="572.39" y="-57.84" font-family="Meiryo UI" font-size="14.00">tailcall</text>
</g>
<!-- 130&#45;&gt;947 -->
<g id="edge3" class="edge">
<title>130&#45;&gt;947</title>
<path fill="none" stroke="#aaaaff" d="M528.37,-62.14C540.44,-62.14 552.51,-62.14 564.58,-62.14"/>
</g>
</g>
</svg>
