<?xml version="1.0" encoding="UTF-8" standalone="no"?>
<!DOCTYPE svg PUBLIC "-//W3C//DTD SVG 1.1//EN"
 "http://www.w3.org/Graphics/SVG/1.1/DTD/svg11.dtd">
<!-- Generated by graphviz version 9.0.0 (20230911.1827)
 -->
<!-- Title: graph_name Pages: 1 -->
<svg width="377pt" height="153pt"
 viewBox="0.00 0.00 376.66 153.37" xmlns="http://www.w3.org/2000/svg" xmlns:xlink="http://www.w3.org/1999/xlink">
<g id="graph0" class="graph" transform="scale(1 1) rotate(0) translate(4 149.37)">
<title>graph_name</title>
<polygon fill="#f2f2f2" stroke="none" points="-4,4 -4,-149.37 372.66,-149.37 372.66,4 -4,4"/>
<!-- 60 -->
<g id="node1" class="node">
<title>60</title>
<ellipse fill="#ffffff" stroke="#000000" cx="132.23" cy="-114.26" rx="132.23" ry="31.11"/>
<text text-anchor="middle" x="132.23" y="-118.96" font-family="Meiryo UI" font-size="14.00">START</text>
<text text-anchor="middle" x="132.23" y="-100.96" font-family="Meiryo UI" font-size="14.00">int64_t __snprintf_chk()</text>
</g>
<!-- 61 -->
<g id="node2" class="node">
<title>61</title>
<polygon fill="#ffffff" stroke="#000000" points="229.69,-75.14 37.66,-75.14 34.77,-72.25 34.77,-49.14 226.8,-49.14 229.69,-52.03 229.69,-75.14"/>
<polyline fill="none" stroke="#000000" points="226.8,-72.25 34.77,-72.25"/>
<polyline fill="none" stroke="#000000" points="226.8,-72.25 226.8,-49.14"/>
<polyline fill="none" stroke="#000000" points="226.8,-72.25 229.69,-75.14"/>
<text text-anchor="middle" x="132.23" y="-57.84" font-family="Meiryo UI" font-size="14.00">return __snprintf_chk()</text>
</g>
<!-- 60&#45;&gt;61 -->
<g id="edge1" class="edge">
<title>60&#45;&gt;61</title>
<path fill="none" stroke="#000000" d="M132.23,-82.66C132.23,-82.5 132.23,-82.34 132.23,-82.17"/>
<polygon fill="#000000" stroke="#000000" points="135.73,-86.72 132.23,-76.72 128.73,-86.72 135.73,-86.72"/>
</g>
<!-- 62 -->
<g id="node3" class="node">
<title>62</title>
<ellipse fill="#ffffff" stroke="#000000" cx="132.23" cy="-20.57" rx="72" ry="20.57"/>
<text text-anchor="middle" x="132.23" y="-16.27" font-family="Meiryo UI" font-size="14.00">END</text>
</g>
<!-- 61&#45;&gt;62 -->
<g id="edge2" class="edge">
<title>61&#45;&gt;62</title>
<path fill="none" stroke="#000000" d="M132.23,-49.06C132.23,-48.91 132.23,-48.76 132.23,-48.61"/>
<polygon fill="#000000" stroke="#000000" points="135.73,-53.12 132.23,-43.12 128.73,-53.12 135.73,-53.12"/>
</g>
<!-- 878 -->
<g id="node4" class="node">
<title>878</title>
<polygon fill="#bbccff" stroke="none" points="368.66,-75.14 265.8,-75.14 265.8,-49.14 368.66,-49.14 368.66,-75.14"/>
<text text-anchor="start" x="273.8" y="-57.84" font-family="Meiryo UI" font-size="14.00">tailcall</text>
</g>
<!-- 61&#45;&gt;878 -->
<g id="edge3" class="edge">
<title>61&#45;&gt;878</title>
<path fill="none" stroke="#aaaaff" d="M230.15,-62.14C242.05,-62.14 253.96,-62.14 265.87,-62.14"/>
</g>
</g>
</svg>
