<?xml version="1.0" encoding="UTF-8" standalone="no"?>
<!DOCTYPE svg PUBLIC "-//W3C//DTD SVG 1.1//EN"
 "http://www.w3.org/Graphics/SVG/1.1/DTD/svg11.dtd">
<!-- Generated by graphviz version 9.0.0 (20230911.1827)
 -->
<!-- Title: graph_name Pages: 1 -->
<svg width="436pt" height="153pt"
 viewBox="0.00 0.00 435.63 153.37" xmlns="http://www.w3.org/2000/svg" xmlns:xlink="http://www.w3.org/1999/xlink">
<g id="graph0" class="graph" transform="scale(1 1) rotate(0) translate(4 149.37)">
<title>graph_name</title>
<polygon fill="#f2f2f2" stroke="none" points="-4,4 -4,-149.37 431.63,-149.37 431.63,4 -4,4"/>
<!-- 27 -->
<g id="node1" class="node">
<title>27</title>
<ellipse fill="#ffffff" stroke="#000000" cx="184.2" cy="-114.26" rx="184.2" ry="31.11"/>
<text text-anchor="middle" x="184.2" y="-118.96" font-family="Meiryo UI" font-size="14.00">START</text>
<text text-anchor="middle" x="184.2" y="-100.96" font-family="Meiryo UI" font-size="14.00">void __stack_chk_fail() __noreturn</text>
</g>
<!-- 28 -->
<g id="node2" class="node">
<title>28</title>
<polygon fill="#ffffff" stroke="#000000" points="288.34,-75.14 82.95,-75.14 80.06,-72.25 80.06,-49.14 285.46,-49.14 288.34,-52.03 288.34,-75.14"/>
<polyline fill="none" stroke="#000000" points="285.46,-72.25 80.06,-72.25"/>
<polyline fill="none" stroke="#000000" points="285.46,-72.25 285.46,-49.14"/>
<polyline fill="none" stroke="#000000" points="285.46,-72.25 288.34,-75.14"/>
<text text-anchor="middle" x="184.2" y="-57.84" font-family="Meiryo UI" font-size="14.00">return __stack_chk_fail()</text>
</g>
<!-- 27&#45;&gt;28 -->
<g id="edge1" class="edge">
<title>27&#45;&gt;28</title>
<path fill="none" stroke="#000000" d="M184.2,-82.66C184.2,-82.5 184.2,-82.34 184.2,-82.17"/>
<polygon fill="#000000" stroke="#000000" points="187.7,-86.72 184.2,-76.72 180.7,-86.72 187.7,-86.72"/>
</g>
<!-- 29 -->
<g id="node3" class="node">
<title>29</title>
<ellipse fill="#ffffff" stroke="#000000" cx="184.2" cy="-20.57" rx="72" ry="20.57"/>
<text text-anchor="middle" x="184.2" y="-16.27" font-family="Meiryo UI" font-size="14.00">END</text>
</g>
<!-- 28&#45;&gt;29 -->
<g id="edge2" class="edge">
<title>28&#45;&gt;29</title>
<path fill="none" stroke="#000000" d="M184.2,-49.06C184.2,-48.91 184.2,-48.76 184.2,-48.61"/>
<polygon fill="#000000" stroke="#000000" points="187.7,-53.12 184.2,-43.12 180.7,-53.12 187.7,-53.12"/>
</g>
<!-- 845 -->
<g id="node4" class="node">
<title>845</title>
<polygon fill="#bbccff" stroke="none" points="427.63,-75.14 324.77,-75.14 324.77,-49.14 427.63,-49.14 427.63,-75.14"/>
<text text-anchor="start" x="332.77" y="-57.84" font-family="Meiryo UI" font-size="14.00">tailcall</text>
</g>
<!-- 28&#45;&gt;845 -->
<g id="edge3" class="edge">
<title>28&#45;&gt;845</title>
<path fill="none" stroke="#aaaaff" d="M288.83,-62.14C300.89,-62.14 312.95,-62.14 325.01,-62.14"/>
</g>
</g>
</svg>
