<?xml version="1.0" encoding="UTF-8" standalone="no"?>
<!DOCTYPE svg PUBLIC "-//W3C//DTD SVG 1.1//EN"
 "http://www.w3.org/Graphics/SVG/1.1/DTD/svg11.dtd">
<!-- Generated by graphviz version 9.0.0 (20230911.1827)
 -->
<!-- Title: graph_name Pages: 1 -->
<svg width="354pt" height="153pt"
 viewBox="0.00 0.00 353.93 153.37" xmlns="http://www.w3.org/2000/svg" xmlns:xlink="http://www.w3.org/1999/xlink">
<g id="graph0" class="graph" transform="scale(1 1) rotate(0) translate(4 149.37)">
<title>graph_name</title>
<polygon fill="#f2f2f2" stroke="none" points="-4,4 -4,-149.37 349.93,-149.37 349.93,4 -4,4"/>
<!-- 21 -->
<g id="node1" class="node">
<title>21</title>
<ellipse fill="#ffffff" stroke="#000000" cx="119.5" cy="-114.26" rx="119.5" ry="31.11"/>
<text text-anchor="middle" x="119.5" y="-118.96" font-family="Meiryo UI" font-size="14.00">START</text>
<text text-anchor="middle" x="119.5" y="-100.96" font-family="Meiryo UI" font-size="14.00">int64_t __write_chk()</text>
</g>
<!-- 22 -->
<g id="node2" class="node">
<title>22</title>
<polygon fill="#ffffff" stroke="#000000" points="206.93,-75.14 34.96,-75.14 32.07,-72.25 32.07,-49.14 204.04,-49.14 206.93,-52.03 206.93,-75.14"/>
<polyline fill="none" stroke="#000000" points="204.04,-72.25 32.07,-72.25"/>
<polyline fill="none" stroke="#000000" points="204.04,-72.25 204.04,-49.14"/>
<polyline fill="none" stroke="#000000" points="204.04,-72.25 206.93,-75.14"/>
<text text-anchor="middle" x="119.5" y="-57.84" font-family="Meiryo UI" font-size="14.00">return __write_chk()</text>
</g>
<!-- 21&#45;&gt;22 -->
<g id="edge1" class="edge">
<title>21&#45;&gt;22</title>
<path fill="none" stroke="#000000" d="M119.5,-82.66C119.5,-82.5 119.5,-82.34 119.5,-82.17"/>
<polygon fill="#000000" stroke="#000000" points="123,-86.72 119.5,-76.72 116,-86.72 123,-86.72"/>
</g>
<!-- 23 -->
<g id="node3" class="node">
<title>23</title>
<ellipse fill="#ffffff" stroke="#000000" cx="119.5" cy="-20.57" rx="72" ry="20.57"/>
<text text-anchor="middle" x="119.5" y="-16.27" font-family="Meiryo UI" font-size="14.00">END</text>
</g>
<!-- 22&#45;&gt;23 -->
<g id="edge2" class="edge">
<title>22&#45;&gt;23</title>
<path fill="none" stroke="#000000" d="M119.5,-49.06C119.5,-48.91 119.5,-48.76 119.5,-48.61"/>
<polygon fill="#000000" stroke="#000000" points="123,-53.12 119.5,-43.12 116,-53.12 123,-53.12"/>
</g>
<!-- 839 -->
<g id="node4" class="node">
<title>839</title>
<polygon fill="#bbccff" stroke="none" points="345.93,-75.14 243.07,-75.14 243.07,-49.14 345.93,-49.14 345.93,-75.14"/>
<text text-anchor="start" x="251.07" y="-57.84" font-family="Meiryo UI" font-size="14.00">tailcall</text>
</g>
<!-- 22&#45;&gt;839 -->
<g id="edge3" class="edge">
<title>22&#45;&gt;839</title>
<path fill="none" stroke="#aaaaff" d="M207.34,-62.14C219.26,-62.14 231.18,-62.14 243.09,-62.14"/>
</g>
</g>
</svg>
