<?xml version="1.0" encoding="UTF-8" standalone="no"?>
<!DOCTYPE svg PUBLIC "-//W3C//DTD SVG 1.1//EN"
 "http://www.w3.org/Graphics/SVG/1.1/DTD/svg11.dtd">
<!-- Generated by graphviz version 9.0.0 (20230911.1827)
 -->
<!-- Title: graph_name Pages: 1 -->
<svg width="390pt" height="153pt"
 viewBox="0.00 0.00 390.45 153.37" xmlns="http://www.w3.org/2000/svg" xmlns:xlink="http://www.w3.org/1999/xlink">
<g id="graph0" class="graph" transform="scale(1 1) rotate(0) translate(4 149.37)">
<title>graph_name</title>
<polygon fill="#f2f2f2" stroke="none" points="-4,4 -4,-149.37 386.45,-149.37 386.45,4 -4,4"/>
<!-- 168 -->
<g id="node1" class="node">
<title>168</title>
<ellipse fill="#ffffff" stroke="#000000" cx="146.02" cy="-114.26" rx="146.02" ry="31.11"/>
<text text-anchor="middle" x="146.02" y="-118.96" font-family="Meiryo UI" font-size="14.00">START</text>
<text text-anchor="middle" x="146.02" y="-100.96" font-family="Meiryo UI" font-size="14.00">int64_t _start() __noreturn</text>
</g>
<!-- 169 -->
<g id="node2" class="node">
<title>169</title>
<polygon fill="#ffffff" stroke="#000000" points="244.02,-75.14 50.91,-75.14 48.02,-72.25 48.02,-49.14 241.13,-49.14 244.02,-52.03 244.02,-75.14"/>
<polyline fill="none" stroke="#000000" points="241.13,-72.25 48.02,-72.25"/>
<polyline fill="none" stroke="#000000" points="241.13,-72.25 241.13,-49.14"/>
<polyline fill="none" stroke="#000000" points="241.13,-72.25 244.02,-75.14"/>
<text text-anchor="middle" x="146.02" y="-57.84" font-family="Meiryo UI" font-size="14.00">return sub_17c8(&amp;arg_0)</text>
</g>
<!-- 168&#45;&gt;169 -->
<g id="edge1" class="edge">
<title>168&#45;&gt;169</title>
<path fill="none" stroke="#000000" d="M146.02,-82.66C146.02,-82.5 146.02,-82.34 146.02,-82.17"/>
<polygon fill="#000000" stroke="#000000" points="149.52,-86.72 146.02,-76.72 142.52,-86.72 149.52,-86.72"/>
</g>
<!-- 170 -->
<g id="node3" class="node">
<title>170</title>
<ellipse fill="#ffffff" stroke="#000000" cx="146.02" cy="-20.57" rx="72" ry="20.57"/>
<text text-anchor="middle" x="146.02" y="-16.27" font-family="Meiryo UI" font-size="14.00">END</text>
</g>
<!-- 169&#45;&gt;170 -->
<g id="edge2" class="edge">
<title>169&#45;&gt;170</title>
<path fill="none" stroke="#000000" d="M146.02,-49.06C146.02,-48.91 146.02,-48.76 146.02,-48.61"/>
<polygon fill="#000000" stroke="#000000" points="149.52,-53.12 146.02,-43.12 142.52,-53.12 149.52,-53.12"/>
</g>
<!-- 986 -->
<g id="node4" class="node">
<title>986</title>
<polygon fill="#bbccff" stroke="none" points="382.45,-75.14 279.59,-75.14 279.59,-49.14 382.45,-49.14 382.45,-75.14"/>
<text text-anchor="start" x="287.59" y="-57.84" font-family="Meiryo UI" font-size="14.00">tailcall</text>
</g>
<!-- 169&#45;&gt;986 -->
<g id="edge3" class="edge">
<title>169&#45;&gt;986</title>
<path fill="none" stroke="#aaaaff" d="M244.3,-62.14C256.15,-62.14 268.01,-62.14 279.87,-62.14"/>
</g>
</g>
</svg>
