<?xml version="1.0" encoding="UTF-8" standalone="no"?>
<!DOCTYPE svg PUBLIC "-//W3C//DTD SVG 1.1//EN"
 "http://www.w3.org/Graphics/SVG/1.1/DTD/svg11.dtd">
<!-- Generated by graphviz version 9.0.0 (20230911.1827)
 -->
<!-- Title: graph_name Pages: 1 -->
<svg width="804pt" height="153pt"
 viewBox="0.00 0.00 803.85 153.37" xmlns="http://www.w3.org/2000/svg" xmlns:xlink="http://www.w3.org/1999/xlink">
<g id="graph0" class="graph" transform="scale(1 1) rotate(0) translate(4 149.37)">
<title>graph_name</title>
<polygon fill="#f2f2f2" stroke="none" points="-4,4 -4,-149.37 799.85,-149.37 799.85,4 -4,4"/>
<!-- 114 -->
<g id="node1" class="node">
<title>114</title>
<ellipse fill="#ffffff" stroke="#000000" cx="397.92" cy="-114.26" rx="397.92" ry="31.11"/>
<text text-anchor="middle" x="397.92" y="-118.96" font-family="Meiryo UI" font-size="14.00">START</text>
<text text-anchor="middle" x="397.92" y="-100.96" font-family="Meiryo UI" font-size="14.00">int64_t accept(int32_t arg1, union __SOCKADDR_ARG arg2, socklen_t* arg3)</text>
</g>
<!-- 115 -->
<g id="node2" class="node">
<title>115</title>
<polygon fill="#ffffff" stroke="#000000" points="522.12,-75.14 276.61,-75.14 273.72,-72.25 273.72,-49.14 519.24,-49.14 522.12,-52.03 522.12,-75.14"/>
<polyline fill="none" stroke="#000000" points="519.24,-72.25 273.72,-72.25"/>
<polyline fill="none" stroke="#000000" points="519.24,-72.25 519.24,-49.14"/>
<polyline fill="none" stroke="#000000" points="519.24,-72.25 522.12,-75.14"/>
<text text-anchor="middle" x="397.92" y="-57.84" font-family="Meiryo UI" font-size="14.00">return accept(arg1, arg2, arg3)</text>
</g>
<!-- 114&#45;&gt;115 -->
<g id="edge1" class="edge">
<title>114&#45;&gt;115</title>
<path fill="none" stroke="#000000" d="M397.92,-82.66C397.92,-82.5 397.92,-82.34 397.92,-82.17"/>
<polygon fill="#000000" stroke="#000000" points="401.42,-86.72 397.92,-76.72 394.42,-86.72 401.42,-86.72"/>
</g>
<!-- 116 -->
<g id="node3" class="node">
<title>116</title>
<ellipse fill="#ffffff" stroke="#000000" cx="397.92" cy="-20.57" rx="72" ry="20.57"/>
<text text-anchor="middle" x="397.92" y="-16.27" font-family="Meiryo UI" font-size="14.00">END</text>
</g>
<!-- 115&#45;&gt;116 -->
<g id="edge2" class="edge">
<title>115&#45;&gt;116</title>
<path fill="none" stroke="#000000" d="M397.92,-49.06C397.92,-48.91 397.92,-48.76 397.92,-48.61"/>
<polygon fill="#000000" stroke="#000000" points="401.42,-53.12 397.92,-43.12 394.42,-53.12 401.42,-53.12"/>
</g>
<!-- 932 -->
<g id="node4" class="node">
<title>932</title>
<polygon fill="#bbccff" stroke="none" points="661.35,-75.14 558.5,-75.14 558.5,-49.14 661.35,-49.14 661.35,-75.14"/>
<text text-anchor="start" x="566.5" y="-57.84" font-family="Meiryo UI" font-size="14.00">tailcall</text>
</g>
<!-- 115&#45;&gt;932 -->
<g id="edge3" class="edge">
<title>115&#45;&gt;932</title>
<path fill="none" stroke="#aaaaff" d="M522.56,-62.14C534.62,-62.14 546.67,-62.14 558.73,-62.14"/>
</g>
</g>
</svg>
