<?xml version="1.0" encoding="UTF-8" standalone="no"?>
<!DOCTYPE svg PUBLIC "-//W3C//DTD SVG 1.1//EN"
 "http://www.w3.org/Graphics/SVG/1.1/DTD/svg11.dtd">
<!-- Generated by graphviz version 9.0.0 (20230911.1827)
 -->
<!-- Title: graph_name Pages: 1 -->
<svg width="760pt" height="179pt"
 viewBox="0.00 0.00 760.36 178.82" xmlns="http://www.w3.org/2000/svg" xmlns:xlink="http://www.w3.org/1999/xlink">
<g id="graph0" class="graph" transform="scale(1 1) rotate(0) translate(4 174.82)">
<title>graph_name</title>
<polygon fill="#f2f2f2" stroke="none" points="-4,4 -4,-174.82 756.36,-174.82 756.36,4 -4,4"/>
<!-- 9 -->
<g id="node1" class="node">
<title>9</title>
<ellipse fill="#ffffff" stroke="#000000" cx="376.18" cy="-126.98" rx="376.18" ry="43.84"/>
<text text-anchor="middle" x="376.18" y="-140.68" font-family="Meiryo UI" font-size="14.00">START</text>
<text text-anchor="middle" x="376.18" y="-122.68" font-family="Meiryo UI" font-size="14.00">int64_t __register_atfork(void (* arg1)(), void (* arg2)(), void (* arg3)(),</text>
<text text-anchor="middle" x="376.18" y="-104.68" font-family="Meiryo UI" font-size="14.00"> int64_t arg4)</text>
</g>
<!-- 10 -->
<g id="node2" class="node">
<title>10</title>
<polygon fill="#ffffff" stroke="#000000" points="557.21,-75.14 198.04,-75.14 195.15,-72.25 195.15,-49.14 554.32,-49.14 557.21,-52.03 557.21,-75.14"/>
<polyline fill="none" stroke="#000000" points="554.32,-72.25 195.15,-72.25"/>
<polyline fill="none" stroke="#000000" points="554.32,-72.25 554.32,-49.14"/>
<polyline fill="none" stroke="#000000" points="554.32,-72.25 557.21,-75.14"/>
<text text-anchor="middle" x="376.18" y="-57.84" font-family="Meiryo UI" font-size="14.00">return __register_atfork(arg1, arg2, arg3, arg4)</text>
</g>
<!-- 9&#45;&gt;10 -->
<g id="edge1" class="edge">
<title>9&#45;&gt;10</title>
<path fill="none" stroke="#000000" d="M376.18,-82.68C376.18,-82.52 376.18,-82.36 376.18,-82.2"/>
<polygon fill="#000000" stroke="#000000" points="379.68,-86.99 376.18,-76.99 372.68,-86.99 379.68,-86.99"/>
</g>
<!-- 11 -->
<g id="node3" class="node">
<title>11</title>
<ellipse fill="#ffffff" stroke="#000000" cx="376.18" cy="-20.57" rx="72" ry="20.57"/>
<text text-anchor="middle" x="376.18" y="-16.27" font-family="Meiryo UI" font-size="14.00">END</text>
</g>
<!-- 10&#45;&gt;11 -->
<g id="edge2" class="edge">
<title>10&#45;&gt;11</title>
<path fill="none" stroke="#000000" d="M376.18,-49.06C376.18,-48.91 376.18,-48.76 376.18,-48.61"/>
<polygon fill="#000000" stroke="#000000" points="379.68,-53.12 376.18,-43.12 372.68,-53.12 379.68,-53.12"/>
</g>
<!-- 827 -->
<g id="node4" class="node">
<title>827</title>
<polygon fill="#bbccff" stroke="none" points="695.61,-75.14 592.75,-75.14 592.75,-49.14 695.61,-49.14 695.61,-75.14"/>
<text text-anchor="start" x="600.75" y="-57.84" font-family="Meiryo UI" font-size="14.00">tailcall</text>
</g>
<!-- 10&#45;&gt;827 -->
<g id="edge3" class="edge">
<title>10&#45;&gt;827</title>
<path fill="none" stroke="#aaaaff" d="M557.55,-62.14C569.4,-62.14 581.24,-62.14 593.08,-62.14"/>
</g>
</g>
</svg>
