<?xml version="1.0" encoding="UTF-8" standalone="no"?>
<!DOCTYPE svg PUBLIC "-//W3C//DTD SVG 1.1//EN"
 "http://www.w3.org/Graphics/SVG/1.1/DTD/svg11.dtd">
<!-- Generated by graphviz version 9.0.0 (20230911.1827)
 -->
<!-- Title: graph_name Pages: 1 -->
<svg width="690pt" height="153pt"
 viewBox="0.00 0.00 690.36 153.37" xmlns="http://www.w3.org/2000/svg" xmlns:xlink="http://www.w3.org/1999/xlink">
<g id="graph0" class="graph" transform="scale(1 1) rotate(0) translate(4 149.37)">
<title>graph_name</title>
<polygon fill="#f2f2f2" stroke="none" points="-4,4 -4,-149.37 686.36,-149.37 686.36,4 -4,4"/>
<!-- 178 -->
<g id="node1" class="node">
<title>178</title>
<ellipse fill="#ffffff" stroke="#000000" cx="341.18" cy="-114.26" rx="341.18" ry="31.11"/>
<text text-anchor="middle" x="341.18" y="-118.96" font-family="Meiryo UI" font-size="14.00">START</text>
<text text-anchor="middle" x="341.18" y="-100.96" font-family="Meiryo UI" font-size="14.00">int64_t sub_1880(void (* arg1)(), void (* arg2)(), void (* arg3)())</text>
</g>
<!-- 179 -->
<g id="node2" class="node">
<title>179</title>
<polygon fill="#ffffff" stroke="#000000" points="545.3,-75.14 139.94,-75.14 137.05,-72.25 137.05,-49.14 542.42,-49.14 545.3,-52.03 545.3,-75.14"/>
<polyline fill="none" stroke="#000000" points="542.42,-72.25 137.05,-72.25"/>
<polyline fill="none" stroke="#000000" points="542.42,-72.25 542.42,-49.14"/>
<polyline fill="none" stroke="#000000" points="542.42,-72.25 545.3,-75.14"/>
<text text-anchor="middle" x="341.18" y="-57.84" font-family="Meiryo UI" font-size="14.00">return __register_atfork(arg1, arg2, arg3, &amp;data_5000)</text>
</g>
<!-- 178&#45;&gt;179 -->
<g id="edge1" class="edge">
<title>178&#45;&gt;179</title>
<path fill="none" stroke="#000000" d="M341.18,-82.66C341.18,-82.5 341.18,-82.34 341.18,-82.17"/>
<polygon fill="#000000" stroke="#000000" points="344.68,-86.72 341.18,-76.72 337.68,-86.72 344.68,-86.72"/>
</g>
<!-- 180 -->
<g id="node3" class="node">
<title>180</title>
<ellipse fill="#ffffff" stroke="#000000" cx="341.18" cy="-20.57" rx="72" ry="20.57"/>
<text text-anchor="middle" x="341.18" y="-16.27" font-family="Meiryo UI" font-size="14.00">END</text>
</g>
<!-- 179&#45;&gt;180 -->
<g id="edge2" class="edge">
<title>179&#45;&gt;180</title>
<path fill="none" stroke="#000000" d="M341.18,-49.06C341.18,-48.91 341.18,-48.76 341.18,-48.61"/>
<polygon fill="#000000" stroke="#000000" points="344.68,-53.12 341.18,-43.12 337.68,-53.12 344.68,-53.12"/>
</g>
</g>
</svg>
