<?xml version="1.0" encoding="UTF-8" standalone="no"?>
<!DOCTYPE svg PUBLIC "-//W3C//DTD SVG 1.1//EN"
 "http://www.w3.org/Graphics/SVG/1.1/DTD/svg11.dtd">
<!-- Generated by graphviz version 9.0.0 (20230911.1827)
 -->
<!-- Title: graph_name Pages: 1 -->
<svg width="467pt" height="153pt"
 viewBox="0.00 0.00 467.45 153.37" xmlns="http://www.w3.org/2000/svg" xmlns:xlink="http://www.w3.org/1999/xlink">
<g id="graph0" class="graph" transform="scale(1 1) rotate(0) translate(4 149.37)">
<title>graph_name</title>
<polygon fill="#f2f2f2" stroke="none" points="-4,4 -4,-149.37 463.45,-149.37 463.45,4 -4,4"/>
<!-- 150 -->
<g id="node1" class="node">
<title>150</title>
<ellipse fill="#ffffff" stroke="#000000" cx="216.02" cy="-114.26" rx="216.02" ry="31.11"/>
<text text-anchor="middle" x="216.02" y="-118.96" font-family="Meiryo UI" font-size="14.00">START</text>
<text text-anchor="middle" x="216.02" y="-100.96" font-family="Meiryo UI" font-size="14.00">int64_t calloc(int64_t arg1, int64_t arg2)</text>
</g>
<!-- 151 -->
<g id="node2" class="node">
<title>151</title>
<polygon fill="#ffffff" stroke="#000000" points="320.16,-75.14 114.77,-75.14 111.88,-72.25 111.88,-49.14 317.28,-49.14 320.16,-52.03 320.16,-75.14"/>
<polyline fill="none" stroke="#000000" points="317.28,-72.25 111.88,-72.25"/>
<polyline fill="none" stroke="#000000" points="317.28,-72.25 317.28,-49.14"/>
<polyline fill="none" stroke="#000000" points="317.28,-72.25 320.16,-75.14"/>
<text text-anchor="middle" x="216.02" y="-57.84" font-family="Meiryo UI" font-size="14.00">return calloc(arg1, arg2)</text>
</g>
<!-- 150&#45;&gt;151 -->
<g id="edge1" class="edge">
<title>150&#45;&gt;151</title>
<path fill="none" stroke="#000000" d="M216.02,-82.66C216.02,-82.5 216.02,-82.34 216.02,-82.17"/>
<polygon fill="#000000" stroke="#000000" points="219.52,-86.72 216.02,-76.72 212.52,-86.72 219.52,-86.72"/>
</g>
<!-- 152 -->
<g id="node3" class="node">
<title>152</title>
<ellipse fill="#ffffff" stroke="#000000" cx="216.02" cy="-20.57" rx="72" ry="20.57"/>
<text text-anchor="middle" x="216.02" y="-16.27" font-family="Meiryo UI" font-size="14.00">END</text>
</g>
<!-- 151&#45;&gt;152 -->
<g id="edge2" class="edge">
<title>151&#45;&gt;152</title>
<path fill="none" stroke="#000000" d="M216.02,-49.06C216.02,-48.91 216.02,-48.76 216.02,-48.61"/>
<polygon fill="#000000" stroke="#000000" points="219.52,-53.12 216.02,-43.12 212.52,-53.12 219.52,-53.12"/>
</g>
<!-- 968 -->
<g id="node4" class="node">
<title>968</title>
<polygon fill="#bbccff" stroke="none" points="459.45,-75.14 356.59,-75.14 356.59,-49.14 459.45,-49.14 459.45,-75.14"/>
<text text-anchor="start" x="364.59" y="-57.84" font-family="Meiryo UI" font-size="14.00">tailcall</text>
</g>
<!-- 151&#45;&gt;968 -->
<g id="edge3" class="edge">
<title>151&#45;&gt;968</title>
<path fill="none" stroke="#aaaaff" d="M320.65,-62.14C332.71,-62.14 344.77,-62.14 356.82,-62.14"/>
</g>
</g>
</svg>
