<?xml version="1.0" encoding="UTF-8" standalone="no"?>
<!DOCTYPE svg PUBLIC "-//W3C//DTD SVG 1.1//EN"
 "http://www.w3.org/Graphics/SVG/1.1/DTD/svg11.dtd">
<!-- Generated by graphviz version 9.0.0 (20230911.1827)
 -->
<!-- Title: graph_name Pages: 1 -->
<svg width="574pt" height="926pt"
 viewBox="0.00 0.00 573.68 925.65" xmlns="http://www.w3.org/2000/svg" xmlns:xlink="http://www.w3.org/1999/xlink">
<g id="graph0" class="graph" transform="scale(1 1) rotate(0) translate(4 921.65)">
<title>graph_name</title>
<polygon fill="#f2f2f2" stroke="none" points="-4,4 -4,-921.65 569.68,-921.65 569.68,4 -4,4"/>
<!-- 275 -->
<g id="node1" class="node">
<title>275</title>
<ellipse fill="#ffffff" stroke="#000000" cx="283.84" cy="-886.54" rx="195.87" ry="31.11"/>
<text text-anchor="middle" x="283.84" y="-891.24" font-family="Meiryo UI" font-size="14.00">START</text>
<text text-anchor="middle" x="283.84" y="-873.24" font-family="Meiryo UI" font-size="14.00">int64_t check_shutdown_or_reboot()</text>
</g>
<!-- 276 -->
<g id="node2" class="node">
<title>276</title>
<polygon fill="#ffffff" stroke="#000000" points="415.21,-838.43 152.46,-838.43 152.46,-812.43 415.21,-812.43 415.21,-838.43"/>
<text text-anchor="middle" x="283.84" y="-821.13" font-family="Meiryo UI" font-size="14.00">int64_t x19 = *__stack_chk_guard</text>
</g>
<!-- 275&#45;&gt;276 -->
<g id="edge1" class="edge">
<title>275&#45;&gt;276</title>
<path fill="none" stroke="#000000" d="M283.84,-854.95C283.84,-853.33 283.84,-851.72 283.84,-850.13"/>
<polygon fill="#000000" stroke="#000000" points="287.34,-850.25 283.84,-840.25 280.34,-850.25 287.34,-850.25"/>
</g>
<!-- 277 -->
<g id="node3" class="node">
<title>277</title>
<polygon fill="#ffffaa" stroke="#000000" points="341.18,-795.43 226.49,-795.43 226.49,-769.43 341.18,-769.43 341.18,-795.43"/>
<text text-anchor="middle" x="283.84" y="-778.13" font-family="Meiryo UI" font-size="14.00">void var_84</text>
</g>
<!-- 276&#45;&gt;277 -->
<g id="edge2" class="edge">
<title>276&#45;&gt;277</title>
<path fill="none" stroke="#000000" d="M283.84,-812.35C283.84,-810.73 283.84,-809.02 283.84,-807.27"/>
<polygon fill="#000000" stroke="#000000" points="287.34,-807.36 283.84,-797.36 280.34,-807.36 287.34,-807.36"/>
</g>
<!-- 278 -->
<g id="node4" class="node">
<title>278</title>
<polygon fill="#ffffff" stroke="#000000" points="386.71,-752.43 183.85,-752.43 180.96,-749.54 180.96,-726.43 383.82,-726.43 386.71,-729.32 386.71,-752.43"/>
<polyline fill="none" stroke="#000000" points="383.82,-749.54 180.96,-749.54"/>
<polyline fill="none" stroke="#000000" points="383.82,-749.54 383.82,-726.43"/>
<polyline fill="none" stroke="#000000" points="383.82,-749.54 386.71,-752.43"/>
<text text-anchor="middle" x="283.84" y="-735.13" font-family="Meiryo UI" font-size="14.00">memset(&amp;var_84, 0, 0x5c)</text>
</g>
<!-- 277&#45;&gt;278 -->
<g id="edge3" class="edge">
<title>277&#45;&gt;278</title>
<path fill="none" stroke="#000000" d="M283.84,-769.35C283.84,-767.73 283.84,-766.02 283.84,-764.27"/>
<polygon fill="#000000" stroke="#000000" points="287.34,-764.36 283.84,-754.36 280.34,-764.36 287.34,-764.36"/>
</g>
<!-- 279 -->
<g id="node5" class="node">
<title>279</title>
<polygon fill="#ffffff" stroke="#000000" points="469.96,-709.43 100.6,-709.43 97.71,-706.54 97.71,-683.43 467.07,-683.43 469.96,-686.32 469.96,-709.43"/>
<polyline fill="none" stroke="#000000" points="467.07,-706.54 97.71,-706.54"/>
<polyline fill="none" stroke="#000000" points="467.07,-706.54 467.07,-683.43"/>
<polyline fill="none" stroke="#000000" points="467.07,-706.54 469.96,-709.43"/>
<text text-anchor="middle" x="283.84" y="-692.13" font-family="Meiryo UI" font-size="14.00">property_get(&quot;sys.powerctl&quot;, &amp;var_84, &quot;no value&quot;)</text>
</g>
<!-- 278&#45;&gt;279 -->
<g id="edge4" class="edge">
<title>278&#45;&gt;279</title>
<path fill="none" stroke="#000000" d="M283.84,-726.35C283.84,-724.73 283.84,-723.02 283.84,-721.27"/>
<polygon fill="#000000" stroke="#000000" points="287.34,-721.36 283.84,-711.36 280.34,-721.36 287.34,-721.36"/>
</g>
<!-- 280 -->
<g id="node6" class="node">
<title>280</title>
<polygon fill="#ffffff" stroke="#000000" points="438.12,-666.43 132.44,-666.43 129.55,-663.54 129.55,-640.43 435.23,-640.43 438.12,-643.32 438.12,-666.43"/>
<polyline fill="none" stroke="#000000" points="435.23,-663.54 129.55,-663.54"/>
<polyline fill="none" stroke="#000000" points="435.23,-663.54 435.23,-640.43"/>
<polyline fill="none" stroke="#000000" points="435.23,-663.54 438.12,-666.43"/>
<text text-anchor="middle" x="283.84" y="-649.13" font-family="Meiryo UI" font-size="14.00">int64_t x0_2 = strstr(&amp;var_84, &quot;reboot&quot;)</text>
</g>
<!-- 279&#45;&gt;280 -->
<g id="edge5" class="edge">
<title>279&#45;&gt;280</title>
<path fill="none" stroke="#000000" d="M283.84,-683.35C283.84,-681.73 283.84,-680.02 283.84,-678.27"/>
<polygon fill="#000000" stroke="#000000" points="287.34,-678.36 283.84,-668.36 280.34,-678.36 287.34,-678.36"/>
</g>
<!-- 281 -->
<g id="node7" class="node">
<title>281</title>
<polygon fill="#ffffaa" stroke="#000000" points="351.21,-623.43 216.47,-623.43 216.47,-597.43 351.21,-597.43 351.21,-623.43"/>
<text text-anchor="middle" x="283.84" y="-606.13" font-family="Meiryo UI" font-size="14.00">int64_t result</text>
</g>
<!-- 280&#45;&gt;281 -->
<g id="edge6" class="edge">
<title>280&#45;&gt;281</title>
<path fill="none" stroke="#000000" d="M283.84,-640.35C283.84,-638.73 283.84,-637.02 283.84,-635.27"/>
<polygon fill="#000000" stroke="#000000" points="287.34,-635.36 283.84,-625.36 280.34,-635.36 287.34,-635.36"/>
</g>
<!-- 282 -->
<g id="node8" class="node">
<title>282</title>
<polygon fill="#ffffff" stroke="#000000" points="283.84,-580.43 155.27,-559.86 283.84,-539.29 412.41,-559.86 283.84,-580.43"/>
<text text-anchor="middle" x="283.84" y="-555.56" font-family="Meiryo UI" font-size="14.00">x0_2 == 0</text>
</g>
<!-- 281&#45;&gt;282 -->
<g id="edge7" class="edge">
<title>281&#45;&gt;282</title>
<path fill="none" stroke="#000000" d="M283.84,-597.17C283.84,-595.63 283.84,-593.99 283.84,-592.31"/>
<polygon fill="#000000" stroke="#000000" points="287.34,-592.37 283.84,-582.37 280.34,-592.37 287.34,-592.37"/>
</g>
<!-- 283 -->
<g id="node9" class="node">
<title>283</title>
<polygon fill="#ffffff" stroke="#000000" points="317.75,-505.29 38.81,-505.29 35.92,-502.4 35.92,-479.29 314.86,-479.29 317.75,-482.17 317.75,-505.29"/>
<polyline fill="none" stroke="#000000" points="314.86,-502.4 35.92,-502.4"/>
<polyline fill="none" stroke="#000000" points="314.86,-502.4 314.86,-479.29"/>
<polyline fill="none" stroke="#000000" points="314.86,-502.4 317.75,-505.29"/>
<text text-anchor="middle" x="176.84" y="-487.99" font-family="Meiryo UI" font-size="14.00">result = strstr(&amp;var_84, &quot;shutdown&quot;)</text>
</g>
<!-- 282&#45;&gt;283 -->
<g id="edge8" class="edge">
<title>282&#45;&gt;283</title>
<path fill="none" stroke="#000000" d="M257.94,-542.98C242.47,-533.5 222.76,-521.43 206.65,-511.55"/>
<polygon fill="#000000" stroke="#000000" points="208.79,-508.76 198.44,-506.52 205.14,-514.73 208.79,-508.76"/>
<text text-anchor="middle" x="248.84" y="-517.99" font-family="Meiryo UI" font-size="14.00">Yes</text>
</g>
<!-- 284 -->
<g id="node10" class="node">
<title>284</title>
<ellipse fill="#000000" stroke="#000000" cx="282.84" cy="-457.14" rx="5.14" ry="5.14"/>
</g>
<!-- 282&#45;&gt;284 -->
<g id="edge9" class="edge">
<title>282&#45;&gt;284</title>
<path fill="none" stroke="#000000" d="M306.92,-542.6C326.93,-526.44 350.56,-501.01 335.84,-479.29 327.76,-467.36 311.76,-462.16 299.44,-459.89"/>
<polygon fill="#000000" stroke="#000000" points="299.94,-456.43 289.57,-458.6 299.03,-463.37 299.94,-456.43"/>
<text text-anchor="middle" x="350.21" y="-487.99" font-family="Meiryo UI" font-size="14.00">No</text>
</g>
<!-- 283&#45;&gt;284 -->
<g id="edge10" class="edge">
<title>283&#45;&gt;284</title>
<path fill="none" stroke="#000000" d="M216.61,-478.85C234.23,-473.34 253.94,-467.18 267.24,-463.02"/>
<polygon fill="#000000" stroke="#000000" points="268.15,-466.4 276.65,-460.08 266.06,-459.72 268.15,-466.4"/>
</g>
<!-- 760 -->
<g id="node11" class="node">
<title>760</title>
<polygon fill="#ffffff" stroke="#000000" points="282.84,-435 0,-414.43 282.84,-393.86 565.68,-414.43 282.84,-435"/>
<text text-anchor="middle" x="282.84" y="-410.13" font-family="Meiryo UI" font-size="14.00">(x0_2 != 0 || (x0_2 == 0 &amp;&amp; result != 0))</text>
</g>
<!-- 284&#45;&gt;760 -->
<g id="edge11" class="edge">
<title>284&#45;&gt;760</title>
<path fill="none" stroke="#000000" d="M282.84,-451.79C282.84,-450.28 282.84,-448.45 282.84,-446.44"/>
<polygon fill="#000000" stroke="#000000" points="286.34,-446.8 282.84,-436.8 279.34,-446.8 286.34,-446.8"/>
</g>
<!-- 285 -->
<g id="node12" class="node">
<title>285</title>
<polygon fill="#ffffff" stroke="#000000" points="280.18,-359.86 168.38,-359.86 165.49,-356.97 165.49,-333.86 277.29,-333.86 280.18,-336.75 280.18,-359.86"/>
<polyline fill="none" stroke="#000000" points="277.29,-356.97 165.49,-356.97"/>
<polyline fill="none" stroke="#000000" points="277.29,-356.97 277.29,-333.86"/>
<polyline fill="none" stroke="#000000" points="277.29,-356.97 280.18,-359.86"/>
<text text-anchor="middle" x="222.84" y="-342.56" font-family="Meiryo UI" font-size="14.00">sub_1b40(1)</text>
</g>
<!-- 760&#45;&gt;285 -->
<g id="edge12" class="edge">
<title>760&#45;&gt;285</title>
<path fill="none" stroke="#000000" d="M265.8,-394.81C258.38,-386.69 249.63,-377.14 241.98,-368.78"/>
<polygon fill="#000000" stroke="#000000" points="244.57,-366.42 235.24,-361.41 239.41,-371.15 244.57,-366.42"/>
<text text-anchor="middle" x="268.84" y="-372.56" font-family="Meiryo UI" font-size="14.00">Yes</text>
</g>
<!-- 287 -->
<g id="node14" class="node">
<title>287</title>
<ellipse fill="#000000" stroke="#000000" cx="270.84" cy="-251.71" rx="5.14" ry="5.14"/>
</g>
<!-- 760&#45;&gt;287 -->
<g id="edge13" class="edge">
<title>760&#45;&gt;287</title>
<path fill="none" stroke="#000000" d="M292.95,-394.5C306.48,-366.37 326.41,-312.67 304.84,-273.86 300.86,-266.7 293.33,-261.65 286.37,-258.28"/>
<polygon fill="#000000" stroke="#000000" points="287.91,-255.13 277.33,-254.7 285.33,-261.63 287.91,-255.13"/>
<text text-anchor="middle" x="324.21" y="-312.56" font-family="Meiryo UI" font-size="14.00">No</text>
</g>
<!-- 286 -->
<g id="node13" class="node">
<title>286</title>
<polygon fill="#ffffff" stroke="#000000" points="287.27,-299.86 115.3,-299.86 112.41,-296.97 112.41,-273.86 284.38,-273.86 287.27,-276.75 287.27,-299.86"/>
<polyline fill="none" stroke="#000000" points="284.38,-296.97 112.41,-296.97"/>
<polyline fill="none" stroke="#000000" points="284.38,-296.97 284.38,-273.86"/>
<polyline fill="none" stroke="#000000" points="284.38,-296.97 287.27,-299.86"/>
<text text-anchor="middle" x="199.84" y="-282.56" font-family="Meiryo UI" font-size="14.00">result = sub_1b40(2)</text>
</g>
<!-- 285&#45;&gt;286 -->
<g id="edge14" class="edge">
<title>285&#45;&gt;286</title>
<path fill="none" stroke="#000000" d="M217.96,-333.56C215.34,-326.94 212.02,-318.57 208.94,-310.81"/>
<polygon fill="#000000" stroke="#000000" points="212.21,-309.55 205.27,-301.55 205.7,-312.13 212.21,-309.55"/>
</g>
<!-- 286&#45;&gt;287 -->
<g id="edge15" class="edge">
<title>286&#45;&gt;287</title>
<path fill="none" stroke="#000000" d="M226.28,-273.52C236.24,-268.87 247.22,-263.74 255.78,-259.74"/>
<polygon fill="#000000" stroke="#000000" points="257.26,-262.91 264.84,-255.51 254.3,-256.57 257.26,-262.91"/>
</g>
<!-- 761 -->
<g id="node15" class="node">
<title>761</title>
<polygon fill="#ffffff" stroke="#000000" points="270.84,-229.57 119.64,-209 270.84,-188.43 422.04,-209 270.84,-229.57"/>
<text text-anchor="middle" x="270.84" y="-204.7" font-family="Meiryo UI" font-size="14.00">(x19 &#45; x19) != 0</text>
</g>
<!-- 287&#45;&gt;761 -->
<g id="edge16" class="edge">
<title>287&#45;&gt;761</title>
<path fill="none" stroke="#000000" d="M270.84,-246.36C270.84,-244.85 270.84,-243.03 270.84,-241.01"/>
<polygon fill="#000000" stroke="#000000" points="274.34,-241.37 270.84,-231.37 267.34,-241.37 274.34,-241.37"/>
</g>
<!-- 288 -->
<g id="node16" class="node">
<title>288</title>
<polygon fill="#ffffff" stroke="#000000" points="274.58,-154.43 115.98,-154.43 113.09,-151.54 113.09,-128.43 271.69,-128.43 274.58,-131.32 274.58,-154.43"/>
<polyline fill="none" stroke="#000000" points="271.69,-151.54 113.09,-151.54"/>
<polyline fill="none" stroke="#000000" points="271.69,-151.54 271.69,-128.43"/>
<polyline fill="none" stroke="#000000" points="271.69,-151.54 274.58,-154.43"/>
<text text-anchor="middle" x="193.84" y="-137.13" font-family="Meiryo UI" font-size="14.00">__stack_chk_fail()</text>
</g>
<!-- 761&#45;&gt;288 -->
<g id="edge17" class="edge">
<title>761&#45;&gt;288</title>
<path fill="none" stroke="#000000" d="M250.61,-190.77C240.16,-181.88 227.39,-171 216.6,-161.81"/>
<polygon fill="#000000" stroke="#000000" points="219.14,-159.37 209.25,-155.56 214.6,-164.7 219.14,-159.37"/>
<text text-anchor="middle" x="249.84" y="-167.13" font-family="Meiryo UI" font-size="14.00">Yes</text>
</g>
<!-- 289 -->
<g id="node17" class="node">
<title>289</title>
<ellipse fill="#000000" stroke="#000000" cx="269.84" cy="-106.29" rx="5.14" ry="5.14"/>
</g>
<!-- 761&#45;&gt;289 -->
<g id="edge18" class="edge">
<title>761&#45;&gt;289</title>
<path fill="none" stroke="#000000" d="M282.76,-189.8C291.95,-173.33 301.71,-148.64 292.84,-128.43 290.74,-123.65 286.97,-119.47 283.08,-116.13"/>
<polygon fill="#000000" stroke="#000000" points="285.44,-113.51 275.28,-110.51 281.35,-119.19 285.44,-113.51"/>
<text text-anchor="middle" x="306.21" y="-137.13" font-family="Meiryo UI" font-size="14.00">No</text>
</g>
<!-- 288&#45;&gt;289 -->
<g id="edge19" class="edge">
<title>288&#45;&gt;289</title>
<path fill="none" stroke="#000000" d="M222.14,-128.09C233.16,-123.28 245.36,-117.96 254.65,-113.91"/>
<polygon fill="#000000" stroke="#000000" points="256,-117.14 263.77,-109.93 253.21,-110.72 256,-117.14"/>
</g>
<!-- 762 -->
<g id="node18" class="node">
<title>762</title>
<polygon fill="#ffffff" stroke="#000000" points="333.87,-84.14 205.81,-84.14 205.81,-58.14 333.87,-58.14 333.87,-84.14"/>
<text text-anchor="middle" x="269.84" y="-66.84" font-family="Meiryo UI" font-size="14.00">return result</text>
</g>
<!-- 289&#45;&gt;762 -->
<g id="edge20" class="edge">
<title>289&#45;&gt;762</title>
<path fill="none" stroke="#000000" d="M269.84,-100.68C269.84,-99.23 269.84,-97.53 269.84,-95.69"/>
<polygon fill="#000000" stroke="#000000" points="273.34,-95.93 269.84,-85.93 266.34,-95.93 273.34,-95.93"/>
</g>
<!-- 290 -->
<g id="node19" class="node">
<title>290</title>
<ellipse fill="#ffffff" stroke="#000000" cx="269.84" cy="-20.57" rx="72" ry="20.57"/>
<text text-anchor="middle" x="269.84" y="-16.27" font-family="Meiryo UI" font-size="14.00">END</text>
</g>
<!-- 762&#45;&gt;290 -->
<g id="edge21" class="edge">
<title>762&#45;&gt;290</title>
<path fill="none" stroke="#000000" d="M269.84,-57.89C269.84,-56.34 269.84,-54.71 269.84,-53.02"/>
<polygon fill="#000000" stroke="#000000" points="273.34,-53.09 269.84,-43.09 266.34,-53.09 273.34,-53.09"/>
</g>
</g>
</svg>
