<?xml version="1.0" encoding="UTF-8" standalone="no"?>
<!DOCTYPE svg PUBLIC "-//W3C//DTD SVG 1.1//EN"
 "http://www.w3.org/Graphics/SVG/1.1/DTD/svg11.dtd">
<!-- Generated by graphviz version 9.0.0 (20230911.1827)
 -->
<!-- Title: graph_name Pages: 1 -->
<svg width="385pt" height="153pt"
 viewBox="0.00 0.00 384.51 153.37" xmlns="http://www.w3.org/2000/svg" xmlns:xlink="http://www.w3.org/1999/xlink">
<g id="graph0" class="graph" transform="scale(1 1) rotate(0) translate(4 149.37)">
<title>graph_name</title>
<polygon fill="#f2f2f2" stroke="none" points="-4,4 -4,-149.37 380.51,-149.37 380.51,4 -4,4"/>
<!-- 147 -->
<g id="node1" class="node">
<title>147</title>
<ellipse fill="#ffffff" stroke="#000000" cx="147.08" cy="-114.26" rx="147.08" ry="31.11"/>
<text text-anchor="middle" x="147.08" y="-118.96" font-family="Meiryo UI" font-size="14.00">START</text>
<text text-anchor="middle" x="147.08" y="-100.96" font-family="Meiryo UI" font-size="14.00">int64_t closedir(DIR* arg1)</text>
</g>
<!-- 148 -->
<g id="node2" class="node">
<title>148</title>
<polygon fill="#ffffff" stroke="#000000" points="237.85,-75.14 59.2,-75.14 56.31,-72.25 56.31,-49.14 234.96,-49.14 237.85,-52.03 237.85,-75.14"/>
<polyline fill="none" stroke="#000000" points="234.96,-72.25 56.31,-72.25"/>
<polyline fill="none" stroke="#000000" points="234.96,-72.25 234.96,-49.14"/>
<polyline fill="none" stroke="#000000" points="234.96,-72.25 237.85,-75.14"/>
<text text-anchor="middle" x="147.08" y="-57.84" font-family="Meiryo UI" font-size="14.00">return closedir(arg1)</text>
</g>
<!-- 147&#45;&gt;148 -->
<g id="edge1" class="edge">
<title>147&#45;&gt;148</title>
<path fill="none" stroke="#000000" d="M147.08,-82.66C147.08,-82.5 147.08,-82.34 147.08,-82.17"/>
<polygon fill="#000000" stroke="#000000" points="150.58,-86.72 147.08,-76.72 143.58,-86.72 150.58,-86.72"/>
</g>
<!-- 149 -->
<g id="node3" class="node">
<title>149</title>
<ellipse fill="#ffffff" stroke="#000000" cx="147.08" cy="-20.57" rx="72" ry="20.57"/>
<text text-anchor="middle" x="147.08" y="-16.27" font-family="Meiryo UI" font-size="14.00">END</text>
</g>
<!-- 148&#45;&gt;149 -->
<g id="edge2" class="edge">
<title>148&#45;&gt;149</title>
<path fill="none" stroke="#000000" d="M147.08,-49.06C147.08,-48.91 147.08,-48.76 147.08,-48.61"/>
<polygon fill="#000000" stroke="#000000" points="150.58,-53.12 147.08,-43.12 143.58,-53.12 150.58,-53.12"/>
</g>
<!-- 965 -->
<g id="node4" class="node">
<title>965</title>
<polygon fill="#bbccff" stroke="none" points="376.51,-75.14 273.65,-75.14 273.65,-49.14 376.51,-49.14 376.51,-75.14"/>
<text text-anchor="start" x="281.65" y="-57.84" font-family="Meiryo UI" font-size="14.00">tailcall</text>
</g>
<!-- 148&#45;&gt;965 -->
<g id="edge3" class="edge">
<title>148&#45;&gt;965</title>
<path fill="none" stroke="#aaaaff" d="M238.16,-62.14C250.05,-62.14 261.93,-62.14 273.81,-62.14"/>
</g>
</g>
</svg>
