<?xml version="1.0" encoding="UTF-8" standalone="no"?>
<!DOCTYPE svg PUBLIC "-//W3C//DTD SVG 1.1//EN"
 "http://www.w3.org/Graphics/SVG/1.1/DTD/svg11.dtd">
<!-- Generated by graphviz version 9.0.0 (20230911.1827)
 -->
<!-- Title: graph_name Pages: 1 -->
<svg width="372pt" height="153pt"
 viewBox="0.00 0.00 371.86 153.37" xmlns="http://www.w3.org/2000/svg" xmlns:xlink="http://www.w3.org/1999/xlink">
<g id="graph0" class="graph" transform="scale(1 1) rotate(0) translate(4 149.37)">
<title>graph_name</title>
<polygon fill="#f2f2f2" stroke="none" points="-4,4 -4,-149.37 367.86,-149.37 367.86,4 -4,4"/>
<!-- 24 -->
<g id="node1" class="node">
<title>24</title>
<ellipse fill="#ffffff" stroke="#000000" cx="144.43" cy="-114.26" rx="144.43" ry="31.11"/>
<text text-anchor="middle" x="144.43" y="-118.96" font-family="Meiryo UI" font-size="14.00">START</text>
<text text-anchor="middle" x="144.43" y="-100.96" font-family="Meiryo UI" font-size="14.00">int64_t close(int32_t arg1)</text>
</g>
<!-- 25 -->
<g id="node2" class="node">
<title>25</title>
<polygon fill="#ffffff" stroke="#000000" points="225.17,-75.14 66.57,-75.14 63.68,-72.25 63.68,-49.14 222.28,-49.14 225.17,-52.03 225.17,-75.14"/>
<polyline fill="none" stroke="#000000" points="222.28,-72.25 63.68,-72.25"/>
<polyline fill="none" stroke="#000000" points="222.28,-72.25 222.28,-49.14"/>
<polyline fill="none" stroke="#000000" points="222.28,-72.25 225.17,-75.14"/>
<text text-anchor="middle" x="144.43" y="-57.84" font-family="Meiryo UI" font-size="14.00">return close(arg1)</text>
</g>
<!-- 24&#45;&gt;25 -->
<g id="edge1" class="edge">
<title>24&#45;&gt;25</title>
<path fill="none" stroke="#000000" d="M144.43,-82.66C144.43,-82.5 144.43,-82.34 144.43,-82.17"/>
<polygon fill="#000000" stroke="#000000" points="147.93,-86.72 144.43,-76.72 140.93,-86.72 147.93,-86.72"/>
</g>
<!-- 26 -->
<g id="node3" class="node">
<title>26</title>
<ellipse fill="#ffffff" stroke="#000000" cx="144.43" cy="-20.57" rx="72" ry="20.57"/>
<text text-anchor="middle" x="144.43" y="-16.27" font-family="Meiryo UI" font-size="14.00">END</text>
</g>
<!-- 25&#45;&gt;26 -->
<g id="edge2" class="edge">
<title>25&#45;&gt;26</title>
<path fill="none" stroke="#000000" d="M144.43,-49.06C144.43,-48.91 144.43,-48.76 144.43,-48.61"/>
<polygon fill="#000000" stroke="#000000" points="147.93,-53.12 144.43,-43.12 140.93,-53.12 147.93,-53.12"/>
</g>
<!-- 842 -->
<g id="node4" class="node">
<title>842</title>
<polygon fill="#bbccff" stroke="none" points="363.86,-75.14 261,-75.14 261,-49.14 363.86,-49.14 363.86,-75.14"/>
<text text-anchor="start" x="269" y="-57.84" font-family="Meiryo UI" font-size="14.00">tailcall</text>
</g>
<!-- 25&#45;&gt;842 -->
<g id="edge3" class="edge">
<title>25&#45;&gt;842</title>
<path fill="none" stroke="#aaaaff" d="M225.47,-62.14C237.36,-62.14 249.25,-62.14 261.14,-62.14"/>
</g>
</g>
</svg>
