<?xml version="1.0" encoding="UTF-8" standalone="no"?>
<!DOCTYPE svg PUBLIC "-//W3C//DTD SVG 1.1//EN"
 "http://www.w3.org/Graphics/SVG/1.1/DTD/svg11.dtd">
<!-- Generated by graphviz version 9.0.0 (20230911.1827)
 -->
<!-- Title: graph_name Pages: 1 -->
<svg width="372pt" height="153pt"
 viewBox="0.00 0.00 372.14 153.37" xmlns="http://www.w3.org/2000/svg" xmlns:xlink="http://www.w3.org/1999/xlink">
<g id="graph0" class="graph" transform="scale(1 1) rotate(0) translate(4 149.37)">
<title>graph_name</title>
<polygon fill="#f2f2f2" stroke="none" points="-4,4 -4,-149.37 368.14,-149.37 368.14,4 -4,4"/>
<!-- 36 -->
<g id="node1" class="node">
<title>36</title>
<ellipse fill="#ffffff" stroke="#000000" cx="140.71" cy="-114.26" rx="140.71" ry="31.11"/>
<text text-anchor="middle" x="140.71" y="-118.96" font-family="Meiryo UI" font-size="14.00">START</text>
<text text-anchor="middle" x="140.71" y="-100.96" font-family="Meiryo UI" font-size="14.00">int64_t fclose(FILE* arg1)</text>
</g>
<!-- 37 -->
<g id="node2" class="node">
<title>37</title>
<polygon fill="#ffffff" stroke="#000000" points="224.8,-75.14 59.52,-75.14 56.63,-72.25 56.63,-49.14 221.91,-49.14 224.8,-52.03 224.8,-75.14"/>
<polyline fill="none" stroke="#000000" points="221.91,-72.25 56.63,-72.25"/>
<polyline fill="none" stroke="#000000" points="221.91,-72.25 221.91,-49.14"/>
<polyline fill="none" stroke="#000000" points="221.91,-72.25 224.8,-75.14"/>
<text text-anchor="middle" x="140.71" y="-57.84" font-family="Meiryo UI" font-size="14.00">return fclose(arg1)</text>
</g>
<!-- 36&#45;&gt;37 -->
<g id="edge1" class="edge">
<title>36&#45;&gt;37</title>
<path fill="none" stroke="#000000" d="M140.71,-82.66C140.71,-82.5 140.71,-82.34 140.71,-82.17"/>
<polygon fill="#000000" stroke="#000000" points="144.21,-86.72 140.71,-76.72 137.21,-86.72 144.21,-86.72"/>
</g>
<!-- 38 -->
<g id="node3" class="node">
<title>38</title>
<ellipse fill="#ffffff" stroke="#000000" cx="140.71" cy="-20.57" rx="72" ry="20.57"/>
<text text-anchor="middle" x="140.71" y="-16.27" font-family="Meiryo UI" font-size="14.00">END</text>
</g>
<!-- 37&#45;&gt;38 -->
<g id="edge2" class="edge">
<title>37&#45;&gt;38</title>
<path fill="none" stroke="#000000" d="M140.71,-49.06C140.71,-48.91 140.71,-48.76 140.71,-48.61"/>
<polygon fill="#000000" stroke="#000000" points="144.21,-53.12 140.71,-43.12 137.21,-53.12 144.21,-53.12"/>
</g>
<!-- 854 -->
<g id="node4" class="node">
<title>854</title>
<polygon fill="#bbccff" stroke="none" points="364.14,-75.14 261.29,-75.14 261.29,-49.14 364.14,-49.14 364.14,-75.14"/>
<text text-anchor="start" x="269.29" y="-57.84" font-family="Meiryo UI" font-size="14.00">tailcall</text>
</g>
<!-- 37&#45;&gt;854 -->
<g id="edge3" class="edge">
<title>37&#45;&gt;854</title>
<path fill="none" stroke="#aaaaff" d="M225.03,-62.14C237.14,-62.14 249.24,-62.14 261.34,-62.14"/>
</g>
</g>
</svg>
