<?xml version="1.0" encoding="UTF-8" standalone="no"?>
<!DOCTYPE svg PUBLIC "-//W3C//DTD SVG 1.1//EN"
 "http://www.w3.org/Graphics/SVG/1.1/DTD/svg11.dtd">
<!-- Generated by graphviz version 9.0.0 (20230911.1827)
 -->
<!-- Title: graph_name Pages: 1 -->
<svg width="449pt" height="153pt"
 viewBox="0.00 0.00 448.60 153.37" xmlns="http://www.w3.org/2000/svg" xmlns:xlink="http://www.w3.org/1999/xlink">
<g id="graph0" class="graph" transform="scale(1 1) rotate(0) translate(4 149.37)">
<title>graph_name</title>
<polygon fill="#f2f2f2" stroke="none" points="-4,4 -4,-149.37 444.6,-149.37 444.6,4 -4,4"/>
<!-- 30 -->
<g id="node1" class="node">
<title>30</title>
<ellipse fill="#ffffff" stroke="#000000" cx="201.17" cy="-114.26" rx="201.17" ry="31.11"/>
<text text-anchor="middle" x="201.17" y="-118.96" font-family="Meiryo UI" font-size="14.00">START</text>
<text text-anchor="middle" x="201.17" y="-100.96" font-family="Meiryo UI" font-size="14.00">int64_t fopen(char* arg1, char* arg2)</text>
</g>
<!-- 31 -->
<g id="node2" class="node">
<title>31</title>
<polygon fill="#ffffff" stroke="#000000" points="301.97,-75.14 103.26,-75.14 100.37,-72.25 100.37,-49.14 299.08,-49.14 301.97,-52.03 301.97,-75.14"/>
<polyline fill="none" stroke="#000000" points="299.08,-72.25 100.37,-72.25"/>
<polyline fill="none" stroke="#000000" points="299.08,-72.25 299.08,-49.14"/>
<polyline fill="none" stroke="#000000" points="299.08,-72.25 301.97,-75.14"/>
<text text-anchor="middle" x="201.17" y="-57.84" font-family="Meiryo UI" font-size="14.00">return fopen(arg1, arg2)</text>
</g>
<!-- 30&#45;&gt;31 -->
<g id="edge1" class="edge">
<title>30&#45;&gt;31</title>
<path fill="none" stroke="#000000" d="M201.17,-82.66C201.17,-82.5 201.17,-82.34 201.17,-82.17"/>
<polygon fill="#000000" stroke="#000000" points="204.67,-86.72 201.17,-76.72 197.67,-86.72 204.67,-86.72"/>
</g>
<!-- 32 -->
<g id="node3" class="node">
<title>32</title>
<ellipse fill="#ffffff" stroke="#000000" cx="201.17" cy="-20.57" rx="72" ry="20.57"/>
<text text-anchor="middle" x="201.17" y="-16.27" font-family="Meiryo UI" font-size="14.00">END</text>
</g>
<!-- 31&#45;&gt;32 -->
<g id="edge2" class="edge">
<title>31&#45;&gt;32</title>
<path fill="none" stroke="#000000" d="M201.17,-49.06C201.17,-48.91 201.17,-48.76 201.17,-48.61"/>
<polygon fill="#000000" stroke="#000000" points="204.67,-53.12 201.17,-43.12 197.67,-53.12 204.67,-53.12"/>
</g>
<!-- 848 -->
<g id="node4" class="node">
<title>848</title>
<polygon fill="#bbccff" stroke="none" points="440.6,-75.14 337.74,-75.14 337.74,-49.14 440.6,-49.14 440.6,-75.14"/>
<text text-anchor="start" x="345.74" y="-57.84" font-family="Meiryo UI" font-size="14.00">tailcall</text>
</g>
<!-- 31&#45;&gt;848 -->
<g id="edge3" class="edge">
<title>31&#45;&gt;848</title>
<path fill="none" stroke="#aaaaff" d="M302.15,-62.14C314.05,-62.14 325.94,-62.14 337.84,-62.14"/>
</g>
</g>
</svg>
