<?xml version="1.0" encoding="UTF-8" standalone="no"?>
<!DOCTYPE svg PUBLIC "-//W3C//DTD SVG 1.1//EN"
 "http://www.w3.org/Graphics/SVG/1.1/DTD/svg11.dtd">
<!-- Generated by graphviz version 9.0.0 (20230911.1827)
 -->
<!-- Title: graph_name Pages: 1 -->
<svg width="364pt" height="153pt"
 viewBox="0.00 0.00 363.55 153.37" xmlns="http://www.w3.org/2000/svg" xmlns:xlink="http://www.w3.org/1999/xlink">
<g id="graph0" class="graph" transform="scale(1 1) rotate(0) translate(4 149.37)">
<title>graph_name</title>
<polygon fill="#f2f2f2" stroke="none" points="-4,4 -4,-149.37 359.55,-149.37 359.55,4 -4,4"/>
<!-- 102 -->
<g id="node1" class="node">
<title>102</title>
<ellipse fill="#ffffff" stroke="#000000" cx="139.12" cy="-114.26" rx="139.12" ry="31.11"/>
<text text-anchor="middle" x="139.12" y="-118.96" font-family="Meiryo UI" font-size="14.00">START</text>
<text text-anchor="middle" x="139.12" y="-100.96" font-family="Meiryo UI" font-size="14.00">int64_t free(int64_t arg1)</text>
</g>
<!-- 103 -->
<g id="node2" class="node">
<title>103</title>
<polygon fill="#ffffff" stroke="#000000" points="216.52,-75.14 64.61,-75.14 61.72,-72.25 61.72,-49.14 213.63,-49.14 216.52,-52.03 216.52,-75.14"/>
<polyline fill="none" stroke="#000000" points="213.63,-72.25 61.72,-72.25"/>
<polyline fill="none" stroke="#000000" points="213.63,-72.25 213.63,-49.14"/>
<polyline fill="none" stroke="#000000" points="213.63,-72.25 216.52,-75.14"/>
<text text-anchor="middle" x="139.12" y="-57.84" font-family="Meiryo UI" font-size="14.00">return free(arg1)</text>
</g>
<!-- 102&#45;&gt;103 -->
<g id="edge1" class="edge">
<title>102&#45;&gt;103</title>
<path fill="none" stroke="#000000" d="M139.12,-82.66C139.12,-82.5 139.12,-82.34 139.12,-82.17"/>
<polygon fill="#000000" stroke="#000000" points="142.62,-86.72 139.12,-76.72 135.62,-86.72 142.62,-86.72"/>
</g>
<!-- 104 -->
<g id="node3" class="node">
<title>104</title>
<ellipse fill="#ffffff" stroke="#000000" cx="139.12" cy="-20.57" rx="72" ry="20.57"/>
<text text-anchor="middle" x="139.12" y="-16.27" font-family="Meiryo UI" font-size="14.00">END</text>
</g>
<!-- 103&#45;&gt;104 -->
<g id="edge2" class="edge">
<title>103&#45;&gt;104</title>
<path fill="none" stroke="#000000" d="M139.12,-49.06C139.12,-48.91 139.12,-48.76 139.12,-48.61"/>
<polygon fill="#000000" stroke="#000000" points="142.62,-53.12 139.12,-43.12 135.62,-53.12 142.62,-53.12"/>
</g>
<!-- 920 -->
<g id="node4" class="node">
<title>920</title>
<polygon fill="#bbccff" stroke="none" points="355.55,-75.14 252.69,-75.14 252.69,-49.14 355.55,-49.14 355.55,-75.14"/>
<text text-anchor="start" x="260.69" y="-57.84" font-family="Meiryo UI" font-size="14.00">tailcall</text>
</g>
<!-- 103&#45;&gt;920 -->
<g id="edge3" class="edge">
<title>103&#45;&gt;920</title>
<path fill="none" stroke="#aaaaff" d="M216.79,-62.14C228.84,-62.14 240.9,-62.14 252.95,-62.14"/>
</g>
</g>
</svg>
