<?xml version="1.0" encoding="UTF-8" standalone="no"?>
<!DOCTYPE svg PUBLIC "-//W3C//DTD SVG 1.1//EN"
 "http://www.w3.org/Graphics/SVG/1.1/DTD/svg11.dtd">
<!-- Generated by graphviz version 9.0.0 (20230911.1827)
 -->
<!-- Title: graph_name Pages: 1 -->
<svg width="744pt" height="153pt"
 viewBox="0.00 0.00 744.45 153.37" xmlns="http://www.w3.org/2000/svg" xmlns:xlink="http://www.w3.org/1999/xlink">
<g id="graph0" class="graph" transform="scale(1 1) rotate(0) translate(4 149.37)">
<title>graph_name</title>
<polygon fill="#f2f2f2" stroke="none" points="-4,4 -4,-149.37 740.45,-149.37 740.45,4 -4,4"/>
<!-- 6 -->
<g id="node1" class="node">
<title>6</title>
<ellipse fill="#ffffff" stroke="#000000" cx="368.23" cy="-114.26" rx="368.23" ry="31.11"/>
<text text-anchor="middle" x="368.23" y="-118.96" font-family="Meiryo UI" font-size="14.00">START</text>
<text text-anchor="middle" x="368.23" y="-100.96" font-family="Meiryo UI" font-size="14.00">int32_t __cxa_atexit(void (* func)(void*), void* arg, void* dso_handle)</text>
</g>
<!-- 7 -->
<g id="node2" class="node">
<title>7</title>
<polygon fill="#ffffff" stroke="#000000" points="529.2,-75.14 210.14,-75.14 207.25,-72.25 207.25,-49.14 526.31,-49.14 529.2,-52.03 529.2,-75.14"/>
<polyline fill="none" stroke="#000000" points="526.31,-72.25 207.25,-72.25"/>
<polyline fill="none" stroke="#000000" points="526.31,-72.25 526.31,-49.14"/>
<polyline fill="none" stroke="#000000" points="526.31,-72.25 529.2,-75.14"/>
<text text-anchor="middle" x="368.23" y="-57.84" font-family="Meiryo UI" font-size="14.00">return __cxa_atexit(func, arg, dso_handle)</text>
</g>
<!-- 6&#45;&gt;7 -->
<g id="edge1" class="edge">
<title>6&#45;&gt;7</title>
<path fill="none" stroke="#000000" d="M368.23,-82.66C368.23,-82.5 368.23,-82.34 368.23,-82.17"/>
<polygon fill="#000000" stroke="#000000" points="371.73,-86.72 368.23,-76.72 364.73,-86.72 371.73,-86.72"/>
</g>
<!-- 8 -->
<g id="node3" class="node">
<title>8</title>
<ellipse fill="#ffffff" stroke="#000000" cx="368.23" cy="-20.57" rx="72" ry="20.57"/>
<text text-anchor="middle" x="368.23" y="-16.27" font-family="Meiryo UI" font-size="14.00">END</text>
</g>
<!-- 7&#45;&gt;8 -->
<g id="edge2" class="edge">
<title>7&#45;&gt;8</title>
<path fill="none" stroke="#000000" d="M368.23,-49.06C368.23,-48.91 368.23,-48.76 368.23,-48.61"/>
<polygon fill="#000000" stroke="#000000" points="371.73,-53.12 368.23,-43.12 364.73,-53.12 371.73,-53.12"/>
</g>
<!-- 824 -->
<g id="node4" class="node">
<title>824</title>
<polygon fill="#bbccff" stroke="none" points="667.65,-75.14 564.8,-75.14 564.8,-49.14 667.65,-49.14 667.65,-75.14"/>
<text text-anchor="start" x="572.8" y="-57.84" font-family="Meiryo UI" font-size="14.00">tailcall</text>
</g>
<!-- 7&#45;&gt;824 -->
<g id="edge3" class="edge">
<title>7&#45;&gt;824</title>
<path fill="none" stroke="#aaaaff" d="M529.52,-62.14C541.38,-62.14 553.23,-62.14 565.08,-62.14"/>
</g>
</g>
</svg>
