<?xml version="1.0" encoding="UTF-8" standalone="no"?>
<!DOCTYPE svg PUBLIC "-//W3C//DTD SVG 1.1//EN"
 "http://www.w3.org/Graphics/SVG/1.1/DTD/svg11.dtd">
<!-- Generated by graphviz version 9.0.0 (20230911.1827)
 -->
<!-- Title: graph_name Pages: 1 -->
<svg width="280pt" height="274pt"
 viewBox="0.00 0.00 280.00 273.80" xmlns="http://www.w3.org/2000/svg" xmlns:xlink="http://www.w3.org/1999/xlink">
<g id="graph0" class="graph" transform="scale(1 1) rotate(0) translate(4 269.8)">
<title>graph_name</title>
<polygon fill="#f2f2f2" stroke="none" points="-4,4 -4,-269.8 276,-269.8 276,4 -4,4"/>
<!-- 171 -->
<g id="node1" class="node">
<title>171</title>
<ellipse fill="#ffffff" stroke="#000000" cx="143.43" cy="-234.68" rx="117.91" ry="31.11"/>
<text text-anchor="middle" x="143.43" y="-239.38" font-family="Meiryo UI" font-size="14.00">START</text>
<text text-anchor="middle" x="143.43" y="-221.38" font-family="Meiryo UI" font-size="14.00">void func(void* arg1)</text>
</g>
<!-- 172 -->
<g id="node2" class="node">
<title>172</title>
<polygon fill="#ffffff" stroke="#000000" points="143.43,-186.57 14.86,-166 143.43,-145.43 272,-166 143.43,-186.57"/>
<text text-anchor="middle" x="143.43" y="-161.7" font-family="Meiryo UI" font-size="14.00">arg1 != 0</text>
</g>
<!-- 171&#45;&gt;172 -->
<g id="edge1" class="edge">
<title>171&#45;&gt;172</title>
<path fill="none" stroke="#000000" d="M143.43,-203.07C143.43,-201.53 143.43,-199.99 143.43,-198.44"/>
<polygon fill="#000000" stroke="#000000" points="146.93,-198.45 143.43,-188.45 139.93,-198.45 146.93,-198.45"/>
</g>
<!-- 173 -->
<g id="node3" class="node">
<title>173</title>
<polygon fill="#ffffff" stroke="#000000" points="102.86,-111.43 2.89,-111.43 0,-108.54 0,-85.43 99.97,-85.43 102.86,-88.32 102.86,-111.43"/>
<polyline fill="none" stroke="#000000" points="99.97,-108.54 0,-108.54"/>
<polyline fill="none" stroke="#000000" points="99.97,-108.54 99.97,-85.43"/>
<polyline fill="none" stroke="#000000" points="99.97,-108.54 102.86,-111.43"/>
<text text-anchor="middle" x="51.43" y="-94.13" font-family="Meiryo UI" font-size="14.00">arg1()</text>
</g>
<!-- 172&#45;&gt;173 -->
<g id="edge2" class="edge">
<title>172&#45;&gt;173</title>
<path fill="none" stroke="#000000" d="M120.69,-148.79C107.76,-139.57 91.5,-127.99 77.98,-118.35"/>
<polygon fill="#000000" stroke="#000000" points="80.12,-115.58 69.95,-112.63 76.06,-121.28 80.12,-115.58"/>
<text text-anchor="middle" x="115.43" y="-124.13" font-family="Meiryo UI" font-size="14.00">Yes</text>
</g>
<!-- 174 -->
<g id="node4" class="node">
<title>174</title>
<ellipse fill="#000000" stroke="#000000" cx="112.43" cy="-63.29" rx="5.14" ry="5.14"/>
</g>
<!-- 172&#45;&gt;174 -->
<g id="edge3" class="edge">
<title>172&#45;&gt;174</title>
<path fill="none" stroke="#000000" d="M141.52,-145.24C140.45,-137.14 138.83,-127.73 136.43,-119.43 132.26,-105 125.19,-89.37 119.81,-78.45"/>
<polygon fill="#000000" stroke="#000000" points="123.04,-77.09 115.37,-69.78 116.81,-80.28 123.04,-77.09"/>
<text text-anchor="middle" x="142.8" y="-94.13" font-family="Meiryo UI" font-size="14.00">No</text>
</g>
<!-- 173&#45;&gt;174 -->
<g id="edge4" class="edge">
<title>173&#45;&gt;174</title>
<path fill="none" stroke="#000000" d="M74.14,-85.09C82.13,-80.75 90.88,-76 97.99,-72.13"/>
<polygon fill="#000000" stroke="#000000" points="99.56,-75.26 106.67,-67.41 96.22,-69.11 99.56,-75.26"/>
</g>
<!-- 748 -->
<g id="node5" class="node">
<title>748</title>
<ellipse fill="#ffffff" stroke="#000000" cx="112.43" cy="-20.57" rx="72" ry="20.57"/>
<text text-anchor="middle" x="112.43" y="-16.27" font-family="Meiryo UI" font-size="14.00">END</text>
</g>
<!-- 174&#45;&gt;748 -->
<g id="edge5" class="edge">
<title>174&#45;&gt;748</title>
<path fill="none" stroke="#000000" d="M112.43,-57.93C112.43,-56.42 112.43,-54.6 112.43,-52.58"/>
<polygon fill="#000000" stroke="#000000" points="115.93,-52.94 112.43,-42.94 108.93,-52.94 115.93,-52.94"/>
</g>
</g>
</svg>
