<?xml version="1.0" encoding="UTF-8" standalone="no"?>
<!DOCTYPE svg PUBLIC "-//W3C//DTD SVG 1.1//EN"
 "http://www.w3.org/Graphics/SVG/1.1/DTD/svg11.dtd">
<!-- Generated by graphviz version 9.0.0 (20230911.1827)
 -->
<!-- Title: graph_name Pages: 1 -->
<svg width="378pt" height="153pt"
 viewBox="0.00 0.00 377.98 153.37" xmlns="http://www.w3.org/2000/svg" xmlns:xlink="http://www.w3.org/1999/xlink">
<g id="graph0" class="graph" transform="scale(1 1) rotate(0) translate(4 149.37)">
<title>graph_name</title>
<polygon fill="#f2f2f2" stroke="none" points="-4,4 -4,-149.37 373.98,-149.37 373.98,4 -4,4"/>
<!-- 105 -->
<g id="node1" class="node">
<title>105</title>
<ellipse fill="#ffffff" stroke="#000000" cx="146.55" cy="-114.26" rx="146.55" ry="31.11"/>
<text text-anchor="middle" x="146.55" y="-118.96" font-family="Meiryo UI" font-size="14.00">START</text>
<text text-anchor="middle" x="146.55" y="-100.96" font-family="Meiryo UI" font-size="14.00">int64_t getenv(char* arg1)</text>
</g>
<!-- 106 -->
<g id="node2" class="node">
<title>106</title>
<polygon fill="#ffffff" stroke="#000000" points="230.63,-75.14 65.35,-75.14 62.46,-72.25 62.46,-49.14 227.74,-49.14 230.63,-52.03 230.63,-75.14"/>
<polyline fill="none" stroke="#000000" points="227.74,-72.25 62.46,-72.25"/>
<polyline fill="none" stroke="#000000" points="227.74,-72.25 227.74,-49.14"/>
<polyline fill="none" stroke="#000000" points="227.74,-72.25 230.63,-75.14"/>
<text text-anchor="middle" x="146.55" y="-57.84" font-family="Meiryo UI" font-size="14.00">return getenv(arg1)</text>
</g>
<!-- 105&#45;&gt;106 -->
<g id="edge1" class="edge">
<title>105&#45;&gt;106</title>
<path fill="none" stroke="#000000" d="M146.55,-82.66C146.55,-82.5 146.55,-82.34 146.55,-82.17"/>
<polygon fill="#000000" stroke="#000000" points="150.05,-86.72 146.55,-76.72 143.05,-86.72 150.05,-86.72"/>
</g>
<!-- 107 -->
<g id="node3" class="node">
<title>107</title>
<ellipse fill="#ffffff" stroke="#000000" cx="146.55" cy="-20.57" rx="72" ry="20.57"/>
<text text-anchor="middle" x="146.55" y="-16.27" font-family="Meiryo UI" font-size="14.00">END</text>
</g>
<!-- 106&#45;&gt;107 -->
<g id="edge2" class="edge">
<title>106&#45;&gt;107</title>
<path fill="none" stroke="#000000" d="M146.55,-49.06C146.55,-48.91 146.55,-48.76 146.55,-48.61"/>
<polygon fill="#000000" stroke="#000000" points="150.05,-53.12 146.55,-43.12 143.05,-53.12 150.05,-53.12"/>
</g>
<!-- 923 -->
<g id="node4" class="node">
<title>923</title>
<polygon fill="#bbccff" stroke="none" points="369.98,-75.14 267.12,-75.14 267.12,-49.14 369.98,-49.14 369.98,-75.14"/>
<text text-anchor="start" x="275.12" y="-57.84" font-family="Meiryo UI" font-size="14.00">tailcall</text>
</g>
<!-- 106&#45;&gt;923 -->
<g id="edge3" class="edge">
<title>106&#45;&gt;923</title>
<path fill="none" stroke="#aaaaff" d="M230.87,-62.14C242.97,-62.14 255.07,-62.14 267.17,-62.14"/>
</g>
</g>
</svg>
