<?xml version="1.0" encoding="UTF-8" standalone="no"?>
<!DOCTYPE svg PUBLIC "-//W3C//DTD SVG 1.1//EN"
 "http://www.w3.org/Graphics/SVG/1.1/DTD/svg11.dtd">
<!-- Generated by graphviz version 9.0.0 (20230911.1827)
 -->
<!-- Title: graph_name Pages: 1 -->
<svg width="2484pt" height="1828pt"
 viewBox="0.00 0.00 2483.76 1827.51" xmlns="http://www.w3.org/2000/svg" xmlns:xlink="http://www.w3.org/1999/xlink">
<g id="graph0" class="graph" transform="scale(1 1) rotate(0) translate(4 1823.51)">
<title>graph_name</title>
<polygon fill="#f2f2f2" stroke="none" points="-4,4 -4,-1823.51 2479.76,-1823.51 2479.76,4 -4,4"/>
<!-- 342 -->
<g id="node1" class="node">
<title>342</title>
<ellipse fill="#ffffff" stroke="#000000" cx="2273.89" cy="-1788.4" rx="176.78" ry="31.11"/>
<text text-anchor="middle" x="2273.89" y="-1793.1" font-family="Meiryo UI" font-size="14.00">START</text>
<text text-anchor="middle" x="2273.89" y="-1775.1" font-family="Meiryo UI" font-size="14.00">uint64_t init_keyevent_socket()()</text>
</g>
<!-- 343 -->
<g id="node2" class="node">
<title>343</title>
<polygon fill="#ffffff" stroke="#000000" points="2405.26,-1740.29 2142.51,-1740.29 2142.51,-1714.29 2405.26,-1714.29 2405.26,-1740.29"/>
<text text-anchor="middle" x="2273.89" y="-1722.99" font-family="Meiryo UI" font-size="14.00">int64_t x22 = *__stack_chk_guard</text>
</g>
<!-- 342&#45;&gt;343 -->
<g id="edge1" class="edge">
<title>342&#45;&gt;343</title>
<path fill="none" stroke="#000000" d="M2273.89,-1756.8C2273.89,-1755.19 2273.89,-1753.57 2273.89,-1751.99"/>
<polygon fill="#000000" stroke="#000000" points="2277.39,-1752.1 2273.89,-1742.1 2270.39,-1752.1 2277.39,-1752.1"/>
</g>
<!-- 344 -->
<g id="node3" class="node">
<title>344</title>
<polygon fill="#ffffff" stroke="#000000" points="2475.76,-1697.29 2074.9,-1697.29 2072.01,-1694.4 2072.01,-1671.29 2472.87,-1671.29 2475.76,-1674.17 2475.76,-1697.29"/>
<polyline fill="none" stroke="#000000" points="2472.87,-1694.4 2072.01,-1694.4"/>
<polyline fill="none" stroke="#000000" points="2472.87,-1694.4 2472.87,-1671.29"/>
<polyline fill="none" stroke="#000000" points="2472.87,-1694.4 2475.76,-1697.29"/>
<text text-anchor="middle" x="2273.89" y="-1679.99" font-family="Meiryo UI" font-size="14.00">__android_log_print(3, &quot;KeyEvent&quot;, &quot;broadcast_init()&quot;)</text>
</g>
<!-- 343&#45;&gt;344 -->
<g id="edge2" class="edge">
<title>343&#45;&gt;344</title>
<path fill="none" stroke="#000000" d="M2273.89,-1714.21C2273.89,-1712.58 2273.89,-1710.87 2273.89,-1709.13"/>
<polygon fill="#000000" stroke="#000000" points="2277.39,-1709.22 2273.89,-1699.22 2270.39,-1709.22 2277.39,-1709.22"/>
</g>
<!-- 345 -->
<g id="node4" class="node">
<title>345</title>
<polygon fill="#ffffff" stroke="#000000" points="2325.31,-1654.29 2222.46,-1654.29 2222.46,-1628.29 2325.31,-1628.29 2325.31,-1654.29"/>
<text text-anchor="middle" x="2273.89" y="-1636.99" font-family="Meiryo UI" font-size="14.00">data_5008</text>
</g>
<!-- 344&#45;&gt;345 -->
<g id="edge3" class="edge">
<title>344&#45;&gt;345</title>
<path fill="none" stroke="#000000" d="M2273.89,-1671.21C2273.89,-1669.58 2273.89,-1667.87 2273.89,-1666.13"/>
<polygon fill="#000000" stroke="#000000" points="2277.39,-1666.22 2273.89,-1656.22 2270.39,-1666.22 2277.39,-1666.22"/>
</g>
<!-- 346 -->
<g id="node5" class="node">
<title>346</title>
<polygon fill="#ffffff" stroke="#000000" points="2347.94,-1611.29 2202.72,-1611.29 2199.83,-1608.4 2199.83,-1585.29 2345.05,-1585.29 2347.94,-1588.17 2347.94,-1611.29"/>
<polyline fill="none" stroke="#000000" points="2345.05,-1608.4 2199.83,-1608.4"/>
<polyline fill="none" stroke="#000000" points="2345.05,-1608.4 2345.05,-1585.29"/>
<polyline fill="none" stroke="#000000" points="2345.05,-1608.4 2347.94,-1611.29"/>
<text text-anchor="middle" x="2273.89" y="-1593.99" font-family="Meiryo UI" font-size="14.00">__snprintf_chk()</text>
</g>
<!-- 345&#45;&gt;346 -->
<g id="edge4" class="edge">
<title>345&#45;&gt;346</title>
<path fill="none" stroke="#000000" d="M2273.89,-1628.21C2273.89,-1626.58 2273.89,-1624.87 2273.89,-1623.13"/>
<polygon fill="#000000" stroke="#000000" points="2277.39,-1623.22 2273.89,-1613.22 2270.39,-1623.22 2277.39,-1623.22"/>
</g>
<!-- 347 -->
<g id="node6" class="node">
<title>347</title>
<polygon fill="#ffffaa" stroke="#000000" points="2331.23,-1568.29 2216.54,-1568.29 2216.54,-1542.29 2331.23,-1542.29 2331.23,-1568.29"/>
<text text-anchor="middle" x="2273.89" y="-1550.99" font-family="Meiryo UI" font-size="14.00">void var_88</text>
</g>
<!-- 346&#45;&gt;347 -->
<g id="edge5" class="edge">
<title>346&#45;&gt;347</title>
<path fill="none" stroke="#000000" d="M2273.89,-1585.21C2273.89,-1583.58 2273.89,-1581.87 2273.89,-1580.13"/>
<polygon fill="#000000" stroke="#000000" points="2277.39,-1580.22 2273.89,-1570.22 2270.39,-1580.22 2277.39,-1580.22"/>
</g>
<!-- 348 -->
<g id="node7" class="node">
<title>348</title>
<polygon fill="#ffffff" stroke="#000000" points="2391.76,-1525.29 2158.9,-1525.29 2156.01,-1522.4 2156.01,-1499.29 2388.87,-1499.29 2391.76,-1502.17 2391.76,-1525.29"/>
<polyline fill="none" stroke="#000000" points="2388.87,-1522.4 2156.01,-1522.4"/>
<polyline fill="none" stroke="#000000" points="2388.87,-1522.4 2388.87,-1499.29"/>
<polyline fill="none" stroke="#000000" points="2388.87,-1522.4 2391.76,-1525.29"/>
<text text-anchor="middle" x="2273.89" y="-1507.99" font-family="Meiryo UI" font-size="14.00">char* x0_1 = getenv(&amp;var_88)</text>
</g>
<!-- 347&#45;&gt;348 -->
<g id="edge6" class="edge">
<title>347&#45;&gt;348</title>
<path fill="none" stroke="#000000" d="M2273.89,-1542.21C2273.89,-1540.58 2273.89,-1538.87 2273.89,-1537.13"/>
<polygon fill="#000000" stroke="#000000" points="2277.39,-1537.22 2273.89,-1527.22 2270.39,-1537.22 2277.39,-1537.22"/>
</g>
<!-- 349 -->
<g id="node8" class="node">
<title>349</title>
<polygon fill="#ffffaa" stroke="#000000" points="2364.66,-1482.29 2183.11,-1482.29 2183.11,-1456.29 2364.66,-1456.29 2364.66,-1482.29"/>
<text text-anchor="middle" x="2273.89" y="-1464.99" font-family="Meiryo UI" font-size="14.00">int32_t* error_number</text>
</g>
<!-- 348&#45;&gt;349 -->
<g id="edge7" class="edge">
<title>348&#45;&gt;349</title>
<path fill="none" stroke="#000000" d="M2273.89,-1499.21C2273.89,-1497.58 2273.89,-1495.87 2273.89,-1494.13"/>
<polygon fill="#000000" stroke="#000000" points="2277.39,-1494.22 2273.89,-1484.22 2270.39,-1494.22 2277.39,-1494.22"/>
</g>
<!-- 350 -->
<g id="node9" class="node">
<title>350</title>
<polygon fill="#ffffaa" stroke="#000000" points="2334.57,-1439.29 2213.2,-1439.29 2213.2,-1413.29 2334.57,-1413.29 2334.57,-1439.29"/>
<text text-anchor="middle" x="2273.89" y="-1421.99" font-family="Meiryo UI" font-size="14.00">int32_t x0_4</text>
</g>
<!-- 349&#45;&gt;350 -->
<g id="edge8" class="edge">
<title>349&#45;&gt;350</title>
<path fill="none" stroke="#000000" d="M2273.89,-1456.21C2273.89,-1454.58 2273.89,-1452.87 2273.89,-1451.13"/>
<polygon fill="#000000" stroke="#000000" points="2277.39,-1451.22 2273.89,-1441.22 2270.39,-1451.22 2277.39,-1451.22"/>
</g>
<!-- 351 -->
<g id="node10" class="node">
<title>351</title>
<polygon fill="#ffffaa" stroke="#000000" points="2378.03,-1396.29 2169.74,-1396.29 2169.74,-1370.29 2378.03,-1370.29 2378.03,-1396.29"/>
<text text-anchor="middle" x="2273.89" y="-1378.99" font-family="Meiryo UI" font-size="14.00">void* const error_message</text>
</g>
<!-- 350&#45;&gt;351 -->
<g id="edge9" class="edge">
<title>350&#45;&gt;351</title>
<path fill="none" stroke="#000000" d="M2273.89,-1413.21C2273.89,-1411.58 2273.89,-1409.87 2273.89,-1408.13"/>
<polygon fill="#000000" stroke="#000000" points="2277.39,-1408.22 2273.89,-1398.22 2270.39,-1408.22 2277.39,-1408.22"/>
</g>
<!-- 352 -->
<g id="node11" class="node">
<title>352</title>
<polygon fill="#ffffaa" stroke="#000000" points="2341.26,-1353.29 2206.51,-1353.29 2206.51,-1327.29 2341.26,-1327.29 2341.26,-1353.29"/>
<text text-anchor="middle" x="2273.89" y="-1335.99" font-family="Meiryo UI" font-size="14.00">int32_t result</text>
</g>
<!-- 351&#45;&gt;352 -->
<g id="edge10" class="edge">
<title>351&#45;&gt;352</title>
<path fill="none" stroke="#000000" d="M2273.89,-1370.21C2273.89,-1368.58 2273.89,-1366.87 2273.89,-1365.13"/>
<polygon fill="#000000" stroke="#000000" points="2277.39,-1365.22 2273.89,-1355.22 2270.39,-1365.22 2277.39,-1365.22"/>
</g>
<!-- 353 -->
<g id="node12" class="node">
<title>353</title>
<polygon fill="#ffffff" stroke="#000000" points="2273.89,-1310.29 2145.31,-1289.71 2273.89,-1269.14 2402.46,-1289.71 2273.89,-1310.29"/>
<text text-anchor="middle" x="2273.89" y="-1285.41" font-family="Meiryo UI" font-size="14.00">x0_1 != 0</text>
</g>
<!-- 352&#45;&gt;353 -->
<g id="edge11" class="edge">
<title>352&#45;&gt;353</title>
<path fill="none" stroke="#000000" d="M2273.89,-1327.03C2273.89,-1325.48 2273.89,-1323.85 2273.89,-1322.17"/>
<polygon fill="#000000" stroke="#000000" points="2277.39,-1322.23 2273.89,-1312.23 2270.39,-1322.23 2277.39,-1322.23"/>
</g>
<!-- 354 -->
<g id="node13" class="node">
<title>354</title>
<polygon fill="#ffffff" stroke="#000000" points="2289.89,-1235.14 2090.77,-1235.14 2087.89,-1232.25 2087.89,-1209.14 2287,-1209.14 2289.89,-1212.03 2289.89,-1235.14"/>
<polyline fill="none" stroke="#000000" points="2287,-1232.25 2087.89,-1232.25"/>
<polyline fill="none" stroke="#000000" points="2287,-1232.25 2287,-1209.14"/>
<polyline fill="none" stroke="#000000" points="2287,-1232.25 2289.89,-1235.14"/>
<text text-anchor="middle" x="2188.89" y="-1217.84" font-family="Meiryo UI" font-size="14.00">error_number = __errno()</text>
</g>
<!-- 353&#45;&gt;354 -->
<g id="edge12" class="edge">
<title>353&#45;&gt;354</title>
<path fill="none" stroke="#000000" d="M2252.44,-1272.17C2240.68,-1263.1 2226.05,-1251.81 2213.79,-1242.35"/>
<polygon fill="#000000" stroke="#000000" points="2216.22,-1239.81 2206.16,-1236.47 2211.94,-1245.35 2216.22,-1239.81"/>
<text text-anchor="middle" x="2247.89" y="-1247.84" font-family="Meiryo UI" font-size="14.00">Yes</text>
</g>
<!-- 373 -->
<g id="node31" class="node">
<title>373</title>
<ellipse fill="#000000" stroke="#000000" cx="1209.89" cy="-578.43" rx="5.14" ry="5.14"/>
</g>
<!-- 353&#45;&gt;373 -->
<g id="edge13" class="edge">
<title>353&#45;&gt;373</title>
<path fill="none" stroke="#000000" d="M2309.69,-1274.62C2330.19,-1263.95 2351.89,-1247.03 2351.89,-1223.14 2351.89,-1223.14 2351.89,-1223.14 2351.89,-637.57 2351.89,-578.55 1366.24,-579.01 1226.33,-579.37"/>
<polygon fill="#000000" stroke="#000000" points="1226.73,-575.87 1216.74,-579.4 1226.76,-582.87 1226.73,-575.87"/>
<text text-anchor="middle" x="2361.26" y="-938.56" font-family="Meiryo UI" font-size="14.00">No</text>
</g>
<!-- 355 -->
<g id="node14" class="node">
<title>355</title>
<polygon fill="#ffffff" stroke="#000000" points="1951.29,-1192.14 1796.49,-1192.14 1796.49,-1166.14 1951.29,-1166.14 1951.29,-1192.14"/>
<text text-anchor="middle" x="1873.89" y="-1174.84" font-family="Meiryo UI" font-size="14.00">*error_number = 0</text>
</g>
<!-- 354&#45;&gt;355 -->
<g id="edge14" class="edge">
<title>354&#45;&gt;355</title>
<path fill="none" stroke="#000000" d="M2093.09,-1208.67C2051.65,-1203.28 2003.43,-1197 1962.79,-1191.71"/>
<polygon fill="#000000" stroke="#000000" points="1963.41,-1188.27 1953.04,-1190.45 1962.5,-1195.21 1963.41,-1188.27"/>
</g>
<!-- 356 -->
<g id="node15" class="node">
<title>356</title>
<polygon fill="#ffffff" stroke="#000000" points="1917.77,-1149.14 1658.89,-1149.14 1656,-1146.25 1656,-1123.14 1914.88,-1123.14 1917.77,-1126.03 1917.77,-1149.14"/>
<polyline fill="none" stroke="#000000" points="1914.88,-1146.25 1656,-1146.25"/>
<polyline fill="none" stroke="#000000" points="1914.88,-1146.25 1914.88,-1123.14"/>
<polyline fill="none" stroke="#000000" points="1914.88,-1146.25 1917.77,-1149.14"/>
<text text-anchor="middle" x="1786.89" y="-1131.84" font-family="Meiryo UI" font-size="14.00">x0_4 = strtol(x0_1, nullptr, 0xa)</text>
</g>
<!-- 355&#45;&gt;356 -->
<g id="edge15" class="edge">
<title>355&#45;&gt;356</title>
<path fill="none" stroke="#000000" d="M1847.78,-1165.84C1840.2,-1162.27 1831.76,-1158.29 1823.65,-1154.47"/>
<polygon fill="#000000" stroke="#000000" points="1825.18,-1151.32 1814.64,-1150.22 1822.19,-1157.65 1825.18,-1151.32"/>
</g>
<!-- 357 -->
<g id="node16" class="node">
<title>357</title>
<polygon fill="#ffffff" stroke="#000000" points="1528.89,-1106.14 1161.88,-1085.57 1528.89,-1065 1895.89,-1085.57 1528.89,-1106.14"/>
<text text-anchor="middle" x="1528.89" y="-1081.27" font-family="Meiryo UI" font-size="14.00">(*error_number == 0 &amp;&amp; (x0_4 &amp; 0x80000000) == 0)</text>
</g>
<!-- 356&#45;&gt;357 -->
<g id="edge16" class="edge">
<title>356&#45;&gt;357</title>
<path fill="none" stroke="#000000" d="M1720.78,-1122.7C1690.73,-1117.04 1654.66,-1110.25 1621.94,-1104.09"/>
<polygon fill="#000000" stroke="#000000" points="1622.95,-1100.72 1612.47,-1102.31 1621.65,-1107.6 1622.95,-1100.72"/>
</g>
<!-- 358 -->
<g id="node17" class="node">
<title>358</title>
<polygon fill="#ffffff" stroke="#000000" points="1528.89,-1031 1354.29,-1010.43 1528.89,-989.86 1703.49,-1010.43 1528.89,-1031"/>
<text text-anchor="middle" x="1528.89" y="-1006.13" font-family="Meiryo UI" font-size="14.00">listen(x0_4, 0x80) != 0</text>
</g>
<!-- 357&#45;&gt;358 -->
<g id="edge17" class="edge">
<title>357&#45;&gt;358</title>
<path fill="none" stroke="#000000" d="M1528.89,-1064.58C1528.89,-1057.81 1528.89,-1050.08 1528.89,-1042.64"/>
<polygon fill="#000000" stroke="#000000" points="1532.39,-1042.9 1528.89,-1032.9 1525.39,-1042.9 1532.39,-1042.9"/>
<text text-anchor="middle" x="1540.89" y="-1043.7" font-family="Meiryo UI" font-size="14.00">Yes</text>
</g>
<!-- 357&#45;&gt;373 -->
<g id="edge18" class="edge">
<title>357&#45;&gt;373</title>
<path fill="none" stroke="#000000" d="M1349.88,-1074.56C1272.3,-1065.14 1198.89,-1046.86 1198.89,-1011.43 1198.89,-1011.43 1198.89,-1011.43 1198.89,-637.57 1198.89,-622.8 1202.35,-606.29 1205.4,-594.64"/>
<polygon fill="#000000" stroke="#000000" points="1208.75,-595.64 1208.12,-585.06 1202.02,-593.72 1208.75,-595.64"/>
<text text-anchor="middle" x="1208.26" y="-852.56" font-family="Meiryo UI" font-size="14.00">No</text>
</g>
<!-- 359 -->
<g id="node18" class="node">
<title>359</title>
<polygon fill="#ffffff" stroke="#000000" points="2279.89,-955.86 1486.77,-955.86 1483.89,-952.97 1483.89,-929.86 2277,-929.86 2279.89,-932.75 2279.89,-955.86"/>
<polyline fill="none" stroke="#000000" points="2277,-952.97 1483.89,-952.97"/>
<polyline fill="none" stroke="#000000" points="2277,-952.97 2277,-929.86"/>
<polyline fill="none" stroke="#000000" points="2277,-952.97 2279.89,-955.86"/>
<text text-anchor="middle" x="1881.89" y="-938.56" font-family="Meiryo UI" font-size="14.00">__android_log_print(6, &quot;KeyEvent&quot;, &quot;listen() failed &#45; errno:%d, %s&quot;, *error_number, strerror(*error_number))</text>
</g>
<!-- 358&#45;&gt;359 -->
<g id="edge19" class="edge">
<title>358&#45;&gt;359</title>
<path fill="none" stroke="#000000" d="M1594.87,-997.17C1654.07,-986.17 1741.04,-970.02 1803.71,-958.38"/>
<polygon fill="#000000" stroke="#000000" points="1804.05,-961.88 1813.24,-956.61 1802.77,-954.99 1804.05,-961.88"/>
<text text-anchor="middle" x="1778.89" y="-968.56" font-family="Meiryo UI" font-size="14.00">Yes</text>
</g>
<!-- 363 -->
<g id="node21" class="node">
<title>363</title>
<polygon fill="#ffffff" stroke="#000000" points="1448.34,-955.86 1253.43,-955.86 1253.43,-929.86 1448.34,-929.86 1448.34,-955.86"/>
<text text-anchor="middle" x="1350.89" y="-938.56" font-family="Meiryo UI" font-size="14.00">socklen_t var_fc = 0x6e</text>
</g>
<!-- 358&#45;&gt;363 -->
<g id="edge20" class="edge">
<title>358&#45;&gt;363</title>
<path fill="none" stroke="#000000" d="M1487.6,-994.22C1460.04,-984.07 1423.81,-970.72 1395.57,-960.32"/>
<polygon fill="#000000" stroke="#000000" points="1396.8,-957.04 1386.21,-956.87 1394.38,-963.61 1396.8,-957.04"/>
<text text-anchor="middle" x="1459.26" y="-968.56" font-family="Meiryo UI" font-size="14.00">No</text>
</g>
<!-- 360 -->
<g id="node19" class="node">
<title>360</title>
<polygon fill="#ffffff" stroke="#000000" points="1770.23,-912.86 1658.43,-912.86 1655.54,-909.97 1655.54,-886.86 1767.34,-886.86 1770.23,-889.75 1770.23,-912.86"/>
<polyline fill="none" stroke="#000000" points="1767.34,-909.97 1655.54,-909.97"/>
<polyline fill="none" stroke="#000000" points="1767.34,-909.97 1767.34,-886.86"/>
<polyline fill="none" stroke="#000000" points="1767.34,-909.97 1770.23,-912.86"/>
<text text-anchor="middle" x="1712.89" y="-895.56" font-family="Meiryo UI" font-size="14.00">close(x0_4)</text>
</g>
<!-- 359&#45;&gt;360 -->
<g id="edge21" class="edge">
<title>359&#45;&gt;360</title>
<path fill="none" stroke="#000000" d="M1830.72,-929.44C1813.26,-925.21 1793.54,-920.43 1775.3,-916"/>
<polygon fill="#000000" stroke="#000000" points="1776.18,-912.61 1765.64,-913.66 1774.53,-919.41 1776.18,-912.61"/>
</g>
<!-- 361 -->
<g id="node20" class="node">
<title>361</title>
<polygon fill="#ffffff" stroke="#000000" points="1469.23,-835.86 1354.54,-835.86 1354.54,-809.86 1469.23,-809.86 1469.23,-835.86"/>
<text text-anchor="middle" x="1411.89" y="-818.56" font-family="Meiryo UI" font-size="14.00">result = &#45;1</text>
</g>
<!-- 360&#45;&gt;361 -->
<g id="edge22" class="edge">
<title>360&#45;&gt;361</title>
<path fill="none" stroke="#000000" d="M1687.16,-886.38C1659.74,-873.63 1614.75,-854.28 1573.89,-843.86 1543.83,-836.19 1509.85,-831.42 1480.81,-828.48"/>
<polygon fill="#000000" stroke="#000000" points="1481.32,-825.01 1471.03,-827.54 1480.65,-831.98 1481.32,-825.01"/>
</g>
<!-- 361&#45;&gt;373 -->
<g id="edge23" class="edge">
<title>361&#45;&gt;373</title>
<path fill="none" stroke="#000000" d="M1390.05,-809.58C1369.84,-796.41 1342.89,-773.46 1342.89,-744.71 1342.89,-744.71 1342.89,-744.71 1342.89,-637.57 1342.89,-587.29 1262.1,-580.07 1226.46,-579.33"/>
<polygon fill="#000000" stroke="#000000" points="1226.79,-575.83 1216.78,-579.29 1226.76,-582.83 1226.79,-575.83"/>
</g>
<!-- 364 -->
<g id="node22" class="node">
<title>364</title>
<polygon fill="#ffffaa" stroke="#000000" points="1442.23,-912.86 1327.54,-912.86 1327.54,-886.86 1442.23,-886.86 1442.23,-912.86"/>
<text text-anchor="middle" x="1384.89" y="-895.56" font-family="Meiryo UI" font-size="14.00">void var_f8</text>
</g>
<!-- 363&#45;&gt;364 -->
<g id="edge24" class="edge">
<title>363&#45;&gt;364</title>
<path fill="none" stroke="#000000" d="M1360.9,-929.78C1362.92,-927.34 1365.1,-924.71 1367.29,-922.07"/>
<polygon fill="#000000" stroke="#000000" points="1369.93,-924.37 1373.62,-914.44 1364.54,-919.91 1369.93,-924.37"/>
</g>
<!-- 365 -->
<g id="node23" class="node">
<title>365</title>
<polygon fill="#ffffff" stroke="#000000" points="1555.83,-869.86 1256.83,-869.86 1253.94,-866.97 1253.94,-843.86 1552.94,-843.86 1555.83,-846.75 1555.83,-869.86"/>
<polyline fill="none" stroke="#000000" points="1552.94,-866.97 1253.94,-866.97"/>
<polyline fill="none" stroke="#000000" points="1552.94,-866.97 1552.94,-843.86"/>
<polyline fill="none" stroke="#000000" points="1552.94,-866.97 1555.83,-869.86"/>
<text text-anchor="middle" x="1404.89" y="-852.56" font-family="Meiryo UI" font-size="14.00">result = accept(x0_4, &amp;var_f8, &amp;var_fc)</text>
</g>
<!-- 364&#45;&gt;365 -->
<g id="edge25" class="edge">
<title>364&#45;&gt;365</title>
<path fill="none" stroke="#000000" d="M1390.78,-886.78C1391.77,-884.75 1392.82,-882.58 1393.89,-880.39"/>
<polygon fill="#000000" stroke="#000000" points="1396.93,-882.16 1398.16,-871.64 1390.63,-879.09 1396.93,-882.16"/>
</g>
<!-- 366 -->
<g id="node24" class="node">
<title>366</title>
<polygon fill="#ffffff" stroke="#000000" points="720.89,-801.86 529.06,-781.29 720.89,-760.71 912.71,-781.29 720.89,-801.86"/>
<text text-anchor="middle" x="720.89" y="-776.99" font-family="Meiryo UI" font-size="14.00">(result &amp; 0x80000000) != 0</text>
</g>
<!-- 365&#45;&gt;366 -->
<g id="edge26" class="edge">
<title>365&#45;&gt;366</title>
<path fill="none" stroke="#000000" d="M1288.85,-843.38C1158.9,-829.4 950.15,-806.95 825.18,-793.5"/>
<polygon fill="#000000" stroke="#000000" points="825.92,-790.06 815.6,-792.47 825.17,-797.02 825.92,-790.06"/>
</g>
<!-- 367 -->
<g id="node25" class="node">
<title>367</title>
<polygon fill="#ffffff" stroke="#000000" points="261.77,-719.14 2.89,-719.14 0,-716.25 0,-693.14 258.88,-693.14 261.77,-696.03 261.77,-719.14"/>
<polyline fill="none" stroke="#000000" points="258.88,-716.25 0,-716.25"/>
<polyline fill="none" stroke="#000000" points="258.88,-716.25 258.88,-693.14"/>
<polyline fill="none" stroke="#000000" points="258.88,-716.25 261.77,-719.14"/>
<text text-anchor="middle" x="130.89" y="-701.84" font-family="Meiryo UI" font-size="14.00">error_message = &quot;accept() failed&quot;</text>
</g>
<!-- 366&#45;&gt;367 -->
<g id="edge27" class="edge">
<title>366&#45;&gt;367</title>
<path fill="none" stroke="#000000" d="M632.16,-769.76C543.09,-759.14 401.93,-742.14 279.89,-726.71 265.65,-724.92 250.66,-722.99 235.89,-721.07"/>
<polygon fill="#000000" stroke="#000000" points="236.53,-717.62 226.16,-719.8 235.62,-724.56 236.53,-717.62"/>
<text text-anchor="middle" x="497.89" y="-739.41" font-family="Meiryo UI" font-size="14.00">Yes</text>
</g>
<!-- 369 -->
<g id="node27" class="node">
<title>369</title>
<polygon fill="#ffffff" stroke="#000000" points="720.89,-726.71 297.77,-706.14 720.89,-685.57 1144,-706.14 720.89,-726.71"/>
<text text-anchor="middle" x="720.89" y="-701.84" font-family="Meiryo UI" font-size="14.00">(pthread_mutex_init(&amp;data_5048, nullptr) &amp; 0x80000000) != 0</text>
</g>
<!-- 366&#45;&gt;369 -->
<g id="edge28" class="edge">
<title>366&#45;&gt;369</title>
<path fill="none" stroke="#000000" d="M720.89,-760.3C720.89,-753.53 720.89,-745.79 720.89,-738.36"/>
<polygon fill="#000000" stroke="#000000" points="724.39,-738.62 720.89,-728.62 717.39,-738.62 724.39,-738.62"/>
<text text-anchor="middle" x="730.26" y="-739.41" font-family="Meiryo UI" font-size="14.00">No</text>
</g>
<!-- 368 -->
<g id="node26" class="node">
<title>368</title>
<polygon fill="#ffffff" stroke="#ff0000" points="317.6,-617.57 176.17,-617.57 176.17,-591.57 317.6,-591.57 317.6,-617.57"/>
<text text-anchor="middle" x="246.89" y="-600.27" font-family="Meiryo UI" font-size="14.00">goto label_2064</text>
</g>
<!-- 367&#45;&gt;368 -->
<g id="edge29" class="edge">
<title>367&#45;&gt;368</title>
<path fill="none" stroke="#000000" d="M145.11,-692.93C164.76,-676.06 200.45,-645.43 223.91,-625.29"/>
<polygon fill="#000000" stroke="#000000" points="226.09,-628.04 231.4,-618.87 221.53,-622.72 226.09,-628.04"/>
</g>
<!-- 375 -->
<g id="node34" class="node">
<title>375</title>
<ellipse fill="#000000" stroke="#000000" cx="338.89" cy="-408" rx="5.14" ry="5.14"/>
</g>
<!-- 368&#45;&gt;375 -->
<g id="edge30" class="edge">
<title>368&#45;&gt;375</title>
<path fill="none" stroke="#000000" d="M246.89,-591.17C246.89,-580.99 246.89,-566.21 246.89,-553.29 246.89,-553.29 246.89,-553.29 246.89,-442.14 246.89,-426.24 296.16,-415.86 322.59,-411.44"/>
<polygon fill="#000000" stroke="#000000" points="322.84,-414.94 332.18,-409.95 321.76,-408.03 322.84,-414.94"/>
</g>
<!-- 370 -->
<g id="node28" class="node">
<title>370</title>
<polygon fill="#ffffff" stroke="#000000" points="613.26,-651.57 269.4,-651.57 266.51,-648.68 266.51,-625.57 610.37,-625.57 613.26,-628.46 613.26,-651.57"/>
<polyline fill="none" stroke="#000000" points="610.37,-648.68 266.51,-648.68"/>
<polyline fill="none" stroke="#000000" points="610.37,-648.68 610.37,-625.57"/>
<polyline fill="none" stroke="#000000" points="610.37,-648.68 613.26,-651.57"/>
<text text-anchor="middle" x="439.89" y="-634.27" font-family="Meiryo UI" font-size="14.00">error_message = &quot;pthread_mutex_init() failed&quot;</text>
</g>
<!-- 369&#45;&gt;370 -->
<g id="edge31" class="edge">
<title>369&#45;&gt;370</title>
<path fill="none" stroke="#000000" d="M649.98,-688.6C605.11,-678.13 547.57,-664.7 504.06,-654.55"/>
<polygon fill="#000000" stroke="#000000" points="505.04,-651.18 494.5,-652.32 503.45,-658 505.04,-651.18"/>
<text text-anchor="middle" x="609.89" y="-664.27" font-family="Meiryo UI" font-size="14.00">Yes</text>
</g>
<!-- 372 -->
<g id="node30" class="node">
<title>372</title>
<polygon fill="#ffffff" stroke="#000000" points="1122.14,-651.57 696.52,-651.57 693.64,-648.68 693.64,-625.57 1119.25,-625.57 1122.14,-628.46 1122.14,-651.57"/>
<polyline fill="none" stroke="#000000" points="1119.25,-648.68 693.64,-648.68"/>
<polyline fill="none" stroke="#000000" points="1119.25,-648.68 1119.25,-625.57"/>
<polyline fill="none" stroke="#000000" points="1119.25,-648.68 1122.14,-651.57"/>
<text text-anchor="middle" x="907.89" y="-634.27" font-family="Meiryo UI" font-size="14.00">__android_log_print(3, &quot;KeyEvent&quot;, &quot;broadcast_init() OK&quot;)</text>
</g>
<!-- 369&#45;&gt;372 -->
<g id="edge32" class="edge">
<title>369&#45;&gt;372</title>
<path fill="none" stroke="#000000" d="M771,-687.57C799.27,-677.66 834.34,-665.36 861.9,-655.69"/>
<polygon fill="#000000" stroke="#000000" points="862.74,-659.11 871.02,-652.5 860.43,-652.5 862.74,-659.11"/>
<text text-anchor="middle" x="857.26" y="-664.27" font-family="Meiryo UI" font-size="14.00">No</text>
</g>
<!-- 371 -->
<g id="node29" class="node">
<title>371</title>
<polygon fill="#ffffff" stroke="#ff0000" points="456.6,-565.29 315.17,-565.29 315.17,-539.29 456.6,-539.29 456.6,-565.29"/>
<text text-anchor="middle" x="385.89" y="-547.99" font-family="Meiryo UI" font-size="14.00">goto label_2064</text>
</g>
<!-- 370&#45;&gt;371 -->
<g id="edge33" class="edge">
<title>370&#45;&gt;371</title>
<path fill="none" stroke="#000000" d="M431.92,-625.13C423.54,-612.06 410.2,-591.23 400.03,-575.36"/>
<polygon fill="#000000" stroke="#000000" points="403.04,-573.58 394.7,-567.05 397.15,-577.36 403.04,-573.58"/>
</g>
<!-- 371&#45;&gt;375 -->
<g id="edge34" class="edge">
<title>371&#45;&gt;375</title>
<path fill="none" stroke="#000000" d="M373.04,-538.88C371.09,-536.51 369.27,-533.93 367.89,-531.29 349.42,-496.07 342.55,-449.02 340.12,-424.84"/>
<polygon fill="#000000" stroke="#000000" points="343.62,-424.67 339.28,-415.01 336.65,-425.27 343.62,-424.67"/>
</g>
<!-- 372&#45;&gt;373 -->
<g id="edge35" class="edge">
<title>372&#45;&gt;373</title>
<path fill="none" stroke="#000000" d="M972.67,-625.1C1043.68,-611.43 1152.93,-590.39 1193.76,-582.53"/>
<polygon fill="#000000" stroke="#000000" points="1194.19,-586.02 1203.34,-580.69 1192.86,-579.14 1194.19,-586.02"/>
</g>
<!-- 767 -->
<g id="node32" class="node">
<title>767</title>
<polygon fill="#ffffff" stroke="#000000" points="1209.89,-531.29 385.78,-510.71 1209.89,-490.14 2033.99,-510.71 1209.89,-531.29"/>
<text text-anchor="middle" x="1209.89" y="-506.41" font-family="Meiryo UI" font-size="14.00">((x0_1 == 0 || (x0_1 != 0 &amp;&amp; *error_number != 0)) || ((x0_1 != 0 &amp;&amp; *error_number == 0) &amp;&amp; (x0_4 &amp; 0x80000000) != 0))</text>
</g>
<!-- 373&#45;&gt;767 -->
<g id="edge36" class="edge">
<title>373&#45;&gt;767</title>
<path fill="none" stroke="#000000" d="M1209.89,-573.12C1209.89,-566.91 1209.89,-554.89 1209.89,-543.12"/>
<polygon fill="#000000" stroke="#000000" points="1213.39,-543.18 1209.89,-533.18 1206.39,-543.18 1213.39,-543.18"/>
</g>
<!-- 374 -->
<g id="node33" class="node">
<title>374</title>
<polygon fill="#ffffff" stroke="#000000" points="967.64,-456.14 575.02,-456.14 572.14,-453.25 572.14,-430.14 964.75,-430.14 967.64,-433.03 967.64,-456.14"/>
<polyline fill="none" stroke="#000000" points="964.75,-453.25 572.14,-453.25"/>
<polyline fill="none" stroke="#000000" points="964.75,-453.25 964.75,-430.14"/>
<polyline fill="none" stroke="#000000" points="964.75,-453.25 967.64,-456.14"/>
<text text-anchor="middle" x="769.89" y="-438.84" font-family="Meiryo UI" font-size="14.00">error_message = &quot;android_get_control_socket() fai…&quot;</text>
</g>
<!-- 767&#45;&gt;374 -->
<g id="edge37" class="edge">
<title>767&#45;&gt;374</title>
<path fill="none" stroke="#000000" d="M1094.57,-492.53C1022.93,-481.85 931.99,-468.3 864.59,-458.26"/>
<polygon fill="#000000" stroke="#000000" points="865.46,-454.85 855.05,-456.83 864.43,-461.77 865.46,-454.85"/>
<text text-anchor="middle" x="1028.89" y="-468.84" font-family="Meiryo UI" font-size="14.00">Yes</text>
</g>
<!-- 378 -->
<g id="node38" class="node">
<title>378</title>
<ellipse fill="#000000" stroke="#000000" cx="1059.89" cy="-251.71" rx="5.14" ry="5.14"/>
</g>
<!-- 767&#45;&gt;378 -->
<g id="edge38" class="edge">
<title>767&#45;&gt;378</title>
<path fill="none" stroke="#000000" d="M1152.5,-491.14C1132.93,-480.94 1115.89,-465.83 1115.89,-444.14 1115.89,-444.14 1115.89,-444.14 1115.89,-285.86 1115.89,-267.32 1092.87,-258.93 1076.35,-255.29"/>
<polygon fill="#000000" stroke="#000000" points="1077,-251.85 1066.54,-253.56 1075.78,-258.75 1077,-251.85"/>
<text text-anchor="middle" x="1125.26" y="-368.56" font-family="Meiryo UI" font-size="14.00">No</text>
</g>
<!-- 374&#45;&gt;375 -->
<g id="edge39" class="edge">
<title>374&#45;&gt;375</title>
<path fill="none" stroke="#000000" d="M607.56,-429.66C510.22,-422.18 397.46,-413.5 355.62,-410.29"/>
<polygon fill="#000000" stroke="#000000" points="356.03,-406.81 345.79,-409.53 355.49,-413.79 356.03,-406.81"/>
</g>
<!-- 768 -->
<g id="node35" class="node">
<title>768</title>
<polygon fill="#ffffff" stroke="#ff0000" points="590.23,-385.86 475.54,-385.86 475.54,-359.86 590.23,-359.86 590.23,-385.86"/>
<text text-anchor="middle" x="532.89" y="-368.56" font-family="Meiryo UI" font-size="14.00">label_2064:</text>
</g>
<!-- 375&#45;&gt;768 -->
<g id="edge40" class="edge">
<title>375&#45;&gt;768</title>
<path fill="none" stroke="#000000" d="M344.07,-406.11C361.16,-403.19 417.26,-393.61 463.9,-385.64"/>
<polygon fill="#000000" stroke="#000000" points="464.46,-389.1 473.72,-383.96 463.28,-382.2 464.46,-389.1"/>
</g>
<!-- 376 -->
<g id="node36" class="node">
<title>376</title>
<polygon fill="#ffffff" stroke="#000000" points="1044.64,-342.86 664.02,-342.86 661.14,-339.97 661.14,-316.86 1041.75,-316.86 1044.64,-319.75 1044.64,-342.86"/>
<polyline fill="none" stroke="#000000" points="1041.75,-339.97 661.14,-339.97"/>
<polyline fill="none" stroke="#000000" points="1041.75,-339.97 1041.75,-316.86"/>
<polyline fill="none" stroke="#000000" points="1041.75,-339.97 1044.64,-342.86"/>
<text text-anchor="middle" x="852.89" y="-325.56" font-family="Meiryo UI" font-size="14.00">__android_log_print(6, &quot;KeyEvent&quot;, error_message)</text>
</g>
<!-- 768&#45;&gt;376 -->
<g id="edge41" class="edge">
<title>768&#45;&gt;376</title>
<path fill="none" stroke="#000000" d="M590.46,-364.48C633.21,-359 692.79,-351.37 744.37,-344.76"/>
<polygon fill="#000000" stroke="#000000" points="744.61,-348.26 754.09,-343.52 743.72,-341.31 744.61,-348.26"/>
</g>
<!-- 377 -->
<g id="node37" class="node">
<title>377</title>
<polygon fill="#ffffff" stroke="#000000" points="1027.23,-299.86 912.54,-299.86 912.54,-273.86 1027.23,-273.86 1027.23,-299.86"/>
<text text-anchor="middle" x="969.89" y="-282.56" font-family="Meiryo UI" font-size="14.00">result = &#45;1</text>
</g>
<!-- 376&#45;&gt;377 -->
<g id="edge42" class="edge">
<title>376&#45;&gt;377</title>
<path fill="none" stroke="#000000" d="M888.31,-316.44C899.53,-312.51 912.11,-308.1 923.96,-303.95"/>
<polygon fill="#000000" stroke="#000000" points="924.88,-307.34 933.16,-300.73 922.56,-300.73 924.88,-307.34"/>
</g>
<!-- 377&#45;&gt;378 -->
<g id="edge43" class="edge">
<title>377&#45;&gt;378</title>
<path fill="none" stroke="#000000" d="M1003.65,-273.42C1017.72,-268.24 1033.34,-262.49 1044.54,-258.36"/>
<polygon fill="#000000" stroke="#000000" points="1045.4,-261.78 1053.57,-255.04 1042.98,-255.21 1045.4,-261.78"/>
</g>
<!-- 769 -->
<g id="node39" class="node">
<title>769</title>
<polygon fill="#ffffff" stroke="#000000" points="1059.89,-229.57 908.69,-209 1059.89,-188.43 1211.09,-209 1059.89,-229.57"/>
<text text-anchor="middle" x="1059.89" y="-204.7" font-family="Meiryo UI" font-size="14.00">(x22 &#45; x22) != 0</text>
</g>
<!-- 378&#45;&gt;769 -->
<g id="edge44" class="edge">
<title>378&#45;&gt;769</title>
<path fill="none" stroke="#000000" d="M1059.89,-246.36C1059.89,-244.85 1059.89,-243.03 1059.89,-241.01"/>
<polygon fill="#000000" stroke="#000000" points="1063.39,-241.37 1059.89,-231.37 1056.39,-241.37 1063.39,-241.37"/>
</g>
<!-- 379 -->
<g id="node40" class="node">
<title>379</title>
<polygon fill="#ffffff" stroke="#000000" points="1026.63,-154.43 868.03,-154.43 865.14,-151.54 865.14,-128.43 1023.74,-128.43 1026.63,-131.32 1026.63,-154.43"/>
<polyline fill="none" stroke="#000000" points="1023.74,-151.54 865.14,-151.54"/>
<polyline fill="none" stroke="#000000" points="1023.74,-151.54 1023.74,-128.43"/>
<polyline fill="none" stroke="#000000" points="1023.74,-151.54 1026.63,-154.43"/>
<text text-anchor="middle" x="945.89" y="-137.13" font-family="Meiryo UI" font-size="14.00">__stack_chk_fail()</text>
</g>
<!-- 769&#45;&gt;379 -->
<g id="edge45" class="edge">
<title>769&#45;&gt;379</title>
<path fill="none" stroke="#000000" d="M1031.71,-191.79C1015.06,-182.22 993.97,-170.08 976.86,-160.24"/>
<polygon fill="#000000" stroke="#000000" points="979.03,-157.46 968.62,-155.5 975.54,-163.52 979.03,-157.46"/>
<text text-anchor="middle" x="1021.89" y="-167.13" font-family="Meiryo UI" font-size="14.00">Yes</text>
</g>
<!-- 380 -->
<g id="node41" class="node">
<title>380</title>
<ellipse fill="#000000" stroke="#000000" cx="1021.89" cy="-106.29" rx="5.14" ry="5.14"/>
</g>
<!-- 769&#45;&gt;380 -->
<g id="edge46" class="edge">
<title>769&#45;&gt;380</title>
<path fill="none" stroke="#000000" d="M1059.59,-188.19C1058.56,-171.34 1055.19,-146.99 1044.89,-128.43 1042.42,-123.99 1038.69,-119.98 1034.95,-116.67"/>
<polygon fill="#000000" stroke="#000000" points="1037.14,-113.94 1027.07,-110.66 1032.9,-119.51 1037.14,-113.94"/>
<text text-anchor="middle" x="1064.26" y="-137.13" font-family="Meiryo UI" font-size="14.00">No</text>
</g>
<!-- 379&#45;&gt;380 -->
<g id="edge47" class="edge">
<title>379&#45;&gt;380</title>
<path fill="none" stroke="#000000" d="M974.19,-128.09C985.21,-123.28 997.4,-117.96 1006.7,-113.91"/>
<polygon fill="#000000" stroke="#000000" points="1008.05,-117.14 1015.82,-109.93 1005.25,-110.72 1008.05,-117.14"/>
</g>
<!-- 770 -->
<g id="node42" class="node">
<title>770</title>
<polygon fill="#ffffff" stroke="#000000" points="1085.91,-84.14 957.86,-84.14 957.86,-58.14 1085.91,-58.14 1085.91,-84.14"/>
<text text-anchor="middle" x="1021.89" y="-66.84" font-family="Meiryo UI" font-size="14.00">return result</text>
</g>
<!-- 380&#45;&gt;770 -->
<g id="edge48" class="edge">
<title>380&#45;&gt;770</title>
<path fill="none" stroke="#000000" d="M1021.89,-100.68C1021.89,-99.23 1021.89,-97.53 1021.89,-95.69"/>
<polygon fill="#000000" stroke="#000000" points="1025.39,-95.93 1021.89,-85.93 1018.39,-95.93 1025.39,-95.93"/>
</g>
<!-- 381 -->
<g id="node43" class="node">
<title>381</title>
<ellipse fill="#ffffff" stroke="#000000" cx="1021.89" cy="-20.57" rx="72" ry="20.57"/>
<text text-anchor="middle" x="1021.89" y="-16.27" font-family="Meiryo UI" font-size="14.00">END</text>
</g>
<!-- 770&#45;&gt;381 -->
<g id="edge49" class="edge">
<title>770&#45;&gt;381</title>
<path fill="none" stroke="#000000" d="M1021.89,-57.89C1021.89,-56.34 1021.89,-54.71 1021.89,-53.02"/>
<polygon fill="#000000" stroke="#000000" points="1025.39,-53.09 1021.89,-43.09 1018.39,-53.09 1025.39,-53.09"/>
</g>
</g>
</svg>
