<?xml version="1.0" encoding="UTF-8" standalone="no"?>
<!DOCTYPE svg PUBLIC "-//W3C//DTD SVG 1.1//EN"
 "http://www.w3.org/Graphics/SVG/1.1/DTD/svg11.dtd">
<!-- Generated by graphviz version 9.0.0 (20230911.1827)
 -->
<!-- Title: graph_name Pages: 1 -->
<svg width="404pt" height="153pt"
 viewBox="0.00 0.00 404.16 153.37" xmlns="http://www.w3.org/2000/svg" xmlns:xlink="http://www.w3.org/1999/xlink">
<g id="graph0" class="graph" transform="scale(1 1) rotate(0) translate(4 149.37)">
<title>graph_name</title>
<polygon fill="#f2f2f2" stroke="none" points="-4,4 -4,-149.37 400.16,-149.37 400.16,4 -4,4"/>
<!-- 156 -->
<g id="node1" class="node">
<title>156</title>
<ellipse fill="#ffffff" stroke="#000000" cx="149.73" cy="-114.26" rx="149.73" ry="31.11"/>
<text text-anchor="middle" x="149.73" y="-118.96" font-family="Meiryo UI" font-size="14.00">START</text>
<text text-anchor="middle" x="149.73" y="-100.96" font-family="Meiryo UI" font-size="14.00">int64_t inotify_add_watch()</text>
</g>
<!-- 157 -->
<g id="node2" class="node">
<title>157</title>
<polygon fill="#ffffff" stroke="#000000" points="257.22,-75.14 45.13,-75.14 42.24,-72.25 42.24,-49.14 254.33,-49.14 257.22,-52.03 257.22,-75.14"/>
<polyline fill="none" stroke="#000000" points="254.33,-72.25 42.24,-72.25"/>
<polyline fill="none" stroke="#000000" points="254.33,-72.25 254.33,-49.14"/>
<polyline fill="none" stroke="#000000" points="254.33,-72.25 257.22,-75.14"/>
<text text-anchor="middle" x="149.73" y="-57.84" font-family="Meiryo UI" font-size="14.00">return inotify_add_watch()</text>
</g>
<!-- 156&#45;&gt;157 -->
<g id="edge1" class="edge">
<title>156&#45;&gt;157</title>
<path fill="none" stroke="#000000" d="M149.73,-82.66C149.73,-82.5 149.73,-82.34 149.73,-82.17"/>
<polygon fill="#000000" stroke="#000000" points="153.23,-86.72 149.73,-76.72 146.23,-86.72 153.23,-86.72"/>
</g>
<!-- 158 -->
<g id="node3" class="node">
<title>158</title>
<ellipse fill="#ffffff" stroke="#000000" cx="149.73" cy="-20.57" rx="72" ry="20.57"/>
<text text-anchor="middle" x="149.73" y="-16.27" font-family="Meiryo UI" font-size="14.00">END</text>
</g>
<!-- 157&#45;&gt;158 -->
<g id="edge2" class="edge">
<title>157&#45;&gt;158</title>
<path fill="none" stroke="#000000" d="M149.73,-49.06C149.73,-48.91 149.73,-48.76 149.73,-48.61"/>
<polygon fill="#000000" stroke="#000000" points="153.23,-53.12 149.73,-43.12 146.23,-53.12 153.23,-53.12"/>
</g>
<!-- 974 -->
<g id="node4" class="node">
<title>974</title>
<polygon fill="#bbccff" stroke="none" points="396.16,-75.14 293.3,-75.14 293.3,-49.14 396.16,-49.14 396.16,-75.14"/>
<text text-anchor="start" x="301.3" y="-57.84" font-family="Meiryo UI" font-size="14.00">tailcall</text>
</g>
<!-- 157&#45;&gt;974 -->
<g id="edge3" class="edge">
<title>157&#45;&gt;974</title>
<path fill="none" stroke="#aaaaff" d="M257.51,-62.14C269.55,-62.14 281.59,-62.14 293.63,-62.14"/>
</g>
</g>
</svg>
