<?xml version="1.0" encoding="UTF-8" standalone="no"?>
<!DOCTYPE svg PUBLIC "-//W3C//DTD SVG 1.1//EN"
 "http://www.w3.org/Graphics/SVG/1.1/DTD/svg11.dtd">
<!-- Generated by graphviz version 9.0.0 (20230911.1827)
 -->
<!-- Title: graph_name Pages: 1 -->
<svg width="352pt" height="153pt"
 viewBox="0.00 0.00 352.11 153.37" xmlns="http://www.w3.org/2000/svg" xmlns:xlink="http://www.w3.org/1999/xlink">
<g id="graph0" class="graph" transform="scale(1 1) rotate(0) translate(4 149.37)">
<title>graph_name</title>
<polygon fill="#f2f2f2" stroke="none" points="-4,4 -4,-149.37 348.11,-149.37 348.11,4 -4,4"/>
<!-- 153 -->
<g id="node1" class="node">
<title>153</title>
<ellipse fill="#ffffff" stroke="#000000" cx="114.69" cy="-114.26" rx="114.69" ry="31.11"/>
<text text-anchor="middle" x="114.69" y="-118.96" font-family="Meiryo UI" font-size="14.00">START</text>
<text text-anchor="middle" x="114.69" y="-100.96" font-family="Meiryo UI" font-size="14.00">int64_t inotify_init()</text>
</g>
<!-- 154 -->
<g id="node2" class="node">
<title>154</title>
<polygon fill="#ffffff" stroke="#000000" points="205.46,-75.14 26.8,-75.14 23.91,-72.25 23.91,-49.14 202.57,-49.14 205.46,-52.03 205.46,-75.14"/>
<polyline fill="none" stroke="#000000" points="202.57,-72.25 23.91,-72.25"/>
<polyline fill="none" stroke="#000000" points="202.57,-72.25 202.57,-49.14"/>
<polyline fill="none" stroke="#000000" points="202.57,-72.25 205.46,-75.14"/>
<text text-anchor="middle" x="114.69" y="-57.84" font-family="Meiryo UI" font-size="14.00">return inotify_init()</text>
</g>
<!-- 153&#45;&gt;154 -->
<g id="edge1" class="edge">
<title>153&#45;&gt;154</title>
<path fill="none" stroke="#000000" d="M114.69,-82.66C114.69,-82.5 114.69,-82.34 114.69,-82.17"/>
<polygon fill="#000000" stroke="#000000" points="118.19,-86.72 114.69,-76.72 111.19,-86.72 118.19,-86.72"/>
</g>
<!-- 155 -->
<g id="node3" class="node">
<title>155</title>
<ellipse fill="#ffffff" stroke="#000000" cx="114.69" cy="-20.57" rx="72" ry="20.57"/>
<text text-anchor="middle" x="114.69" y="-16.27" font-family="Meiryo UI" font-size="14.00">END</text>
</g>
<!-- 154&#45;&gt;155 -->
<g id="edge2" class="edge">
<title>154&#45;&gt;155</title>
<path fill="none" stroke="#000000" d="M114.69,-49.06C114.69,-48.91 114.69,-48.76 114.69,-48.61"/>
<polygon fill="#000000" stroke="#000000" points="118.19,-53.12 114.69,-43.12 111.19,-53.12 118.19,-53.12"/>
</g>
<!-- 971 -->
<g id="node4" class="node">
<title>971</title>
<polygon fill="#bbccff" stroke="none" points="344.11,-75.14 241.26,-75.14 241.26,-49.14 344.11,-49.14 344.11,-75.14"/>
<text text-anchor="start" x="249.26" y="-57.84" font-family="Meiryo UI" font-size="14.00">tailcall</text>
</g>
<!-- 154&#45;&gt;971 -->
<g id="edge3" class="edge">
<title>154&#45;&gt;971</title>
<path fill="none" stroke="#aaaaff" d="M205.77,-62.14C217.65,-62.14 229.54,-62.14 241.42,-62.14"/>
</g>
</g>
</svg>
