<?xml version="1.0" encoding="UTF-8" standalone="no"?>
<!DOCTYPE svg PUBLIC "-//W3C//DTD SVG 1.1//EN"
 "http://www.w3.org/Graphics/SVG/1.1/DTD/svg11.dtd">
<!-- Generated by graphviz version 9.0.0 (20230911.1827)
 -->
<!-- Title: graph_name Pages: 1 -->
<svg width="306pt" height="153pt"
 viewBox="0.00 0.00 305.71 153.37" xmlns="http://www.w3.org/2000/svg" xmlns:xlink="http://www.w3.org/1999/xlink">
<g id="graph0" class="graph" transform="scale(1 1) rotate(0) translate(4 149.37)">
<title>graph_name</title>
<polygon fill="#f2f2f2" stroke="none" points="-4,4 -4,-149.37 301.71,-149.37 301.71,4 -4,4"/>
<!-- 120 -->
<g id="node1" class="node">
<title>120</title>
<ellipse fill="#ffffff" stroke="#000000" cx="91.29" cy="-114.26" rx="91.29" ry="31.11"/>
<text text-anchor="middle" x="91.29" y="-118.96" font-family="Meiryo UI" font-size="14.00">START</text>
<text text-anchor="middle" x="91.29" y="-100.96" font-family="Meiryo UI" font-size="14.00">int64_t ioctl()</text>
</g>
<!-- 121 -->
<g id="node2" class="node">
<title>121</title>
<polygon fill="#ffffff" stroke="#000000" points="158.66,-75.14 26.8,-75.14 23.91,-72.25 23.91,-49.14 155.77,-49.14 158.66,-52.03 158.66,-75.14"/>
<polyline fill="none" stroke="#000000" points="155.77,-72.25 23.91,-72.25"/>
<polyline fill="none" stroke="#000000" points="155.77,-72.25 155.77,-49.14"/>
<polyline fill="none" stroke="#000000" points="155.77,-72.25 158.66,-75.14"/>
<text text-anchor="middle" x="91.29" y="-57.84" font-family="Meiryo UI" font-size="14.00">return ioctl()</text>
</g>
<!-- 120&#45;&gt;121 -->
<g id="edge1" class="edge">
<title>120&#45;&gt;121</title>
<path fill="none" stroke="#000000" d="M91.29,-82.66C91.29,-82.5 91.29,-82.34 91.29,-82.17"/>
<polygon fill="#000000" stroke="#000000" points="94.79,-86.72 91.29,-76.72 87.79,-86.72 94.79,-86.72"/>
</g>
<!-- 122 -->
<g id="node3" class="node">
<title>122</title>
<ellipse fill="#ffffff" stroke="#000000" cx="91.29" cy="-20.57" rx="72" ry="20.57"/>
<text text-anchor="middle" x="91.29" y="-16.27" font-family="Meiryo UI" font-size="14.00">END</text>
</g>
<!-- 121&#45;&gt;122 -->
<g id="edge2" class="edge">
<title>121&#45;&gt;122</title>
<path fill="none" stroke="#000000" d="M91.29,-49.06C91.29,-48.91 91.29,-48.76 91.29,-48.61"/>
<polygon fill="#000000" stroke="#000000" points="94.79,-53.12 91.29,-43.12 87.79,-53.12 94.79,-53.12"/>
</g>
<!-- 938 -->
<g id="node4" class="node">
<title>938</title>
<polygon fill="#bbccff" stroke="none" points="297.71,-75.14 194.86,-75.14 194.86,-49.14 297.71,-49.14 297.71,-75.14"/>
<text text-anchor="start" x="202.86" y="-57.84" font-family="Meiryo UI" font-size="14.00">tailcall</text>
</g>
<!-- 121&#45;&gt;938 -->
<g id="edge3" class="edge">
<title>121&#45;&gt;938</title>
<path fill="none" stroke="#aaaaff" d="M159.1,-62.14C171.02,-62.14 182.94,-62.14 194.86,-62.14"/>
</g>
</g>
</svg>
