<?xml version="1.0" encoding="UTF-8" standalone="no"?>
<!DOCTYPE svg PUBLIC "-//W3C//DTD SVG 1.1//EN"
 "http://www.w3.org/Graphics/SVG/1.1/DTD/svg11.dtd">
<!-- Generated by graphviz version 9.0.0 (20230911.1827)
 -->
<!-- Title: graph_name Pages: 1 -->
<svg width="612pt" height="153pt"
 viewBox="0.00 0.00 611.87 153.37" xmlns="http://www.w3.org/2000/svg" xmlns:xlink="http://www.w3.org/1999/xlink">
<g id="graph0" class="graph" transform="scale(1 1) rotate(0) translate(4 149.37)">
<title>graph_name</title>
<polygon fill="#f2f2f2" stroke="none" points="-4,4 -4,-149.37 607.87,-149.37 607.87,4 -4,4"/>
<!-- 138 -->
<g id="node1" class="node">
<title>138</title>
<ellipse fill="#ffffff" stroke="#000000" cx="301.93" cy="-114.26" rx="301.93" ry="31.11"/>
<text text-anchor="middle" x="301.93" y="-118.96" font-family="Meiryo UI" font-size="14.00">START</text>
<text text-anchor="middle" x="301.93" y="-100.96" font-family="Meiryo UI" font-size="14.00">int64_t memmove(int64_t arg1, int64_t arg2, size_t arg3)</text>
</g>
<!-- 139 -->
<g id="node2" class="node">
<title>139</title>
<polygon fill="#ffffff" stroke="#000000" points="434.81,-75.14 171.95,-75.14 169.06,-72.25 169.06,-49.14 431.92,-49.14 434.81,-52.03 434.81,-75.14"/>
<polyline fill="none" stroke="#000000" points="431.92,-72.25 169.06,-72.25"/>
<polyline fill="none" stroke="#000000" points="431.92,-72.25 431.92,-49.14"/>
<polyline fill="none" stroke="#000000" points="431.92,-72.25 434.81,-75.14"/>
<text text-anchor="middle" x="301.93" y="-57.84" font-family="Meiryo UI" font-size="14.00">return memmove(arg1, arg2, arg3)</text>
</g>
<!-- 138&#45;&gt;139 -->
<g id="edge1" class="edge">
<title>138&#45;&gt;139</title>
<path fill="none" stroke="#000000" d="M301.93,-82.66C301.93,-82.5 301.93,-82.34 301.93,-82.17"/>
<polygon fill="#000000" stroke="#000000" points="305.43,-86.72 301.93,-76.72 298.43,-86.72 305.43,-86.72"/>
</g>
<!-- 140 -->
<g id="node3" class="node">
<title>140</title>
<ellipse fill="#ffffff" stroke="#000000" cx="301.93" cy="-20.57" rx="72" ry="20.57"/>
<text text-anchor="middle" x="301.93" y="-16.27" font-family="Meiryo UI" font-size="14.00">END</text>
</g>
<!-- 139&#45;&gt;140 -->
<g id="edge2" class="edge">
<title>139&#45;&gt;140</title>
<path fill="none" stroke="#000000" d="M301.93,-49.06C301.93,-48.91 301.93,-48.76 301.93,-48.61"/>
<polygon fill="#000000" stroke="#000000" points="305.43,-53.12 301.93,-43.12 298.43,-53.12 305.43,-53.12"/>
</g>
<!-- 956 -->
<g id="node4" class="node">
<title>956</title>
<polygon fill="#bbccff" stroke="none" points="573.36,-75.14 470.51,-75.14 470.51,-49.14 573.36,-49.14 573.36,-75.14"/>
<text text-anchor="start" x="478.51" y="-57.84" font-family="Meiryo UI" font-size="14.00">tailcall</text>
</g>
<!-- 139&#45;&gt;956 -->
<g id="edge3" class="edge">
<title>139&#45;&gt;956</title>
<path fill="none" stroke="#aaaaff" d="M435.14,-62.14C447,-62.14 458.87,-62.14 470.74,-62.14"/>
</g>
</g>
</svg>
