<?xml version="1.0" encoding="UTF-8" standalone="no"?>
<!DOCTYPE svg PUBLIC "-//W3C//DTD SVG 1.1//EN"
 "http://www.w3.org/Graphics/SVG/1.1/DTD/svg11.dtd">
<!-- Generated by graphviz version 9.0.0 (20230911.1827)
 -->
<!-- Title: graph_name Pages: 1 -->
<svg width="586pt" height="153pt"
 viewBox="0.00 0.00 586.41 153.37" xmlns="http://www.w3.org/2000/svg" xmlns:xlink="http://www.w3.org/1999/xlink">
<g id="graph0" class="graph" transform="scale(1 1) rotate(0) translate(4 149.37)">
<title>graph_name</title>
<polygon fill="#f2f2f2" stroke="none" points="-4,4 -4,-149.37 582.41,-149.37 582.41,4 -4,4"/>
<!-- 78 -->
<g id="node1" class="node">
<title>78</title>
<ellipse fill="#ffffff" stroke="#000000" cx="289.21" cy="-114.26" rx="289.21" ry="31.11"/>
<text text-anchor="middle" x="289.21" y="-118.96" font-family="Meiryo UI" font-size="14.00">START</text>
<text text-anchor="middle" x="289.21" y="-100.96" font-family="Meiryo UI" font-size="14.00">int64_t memset(int64_t arg1, int32_t arg2, size_t arg3)</text>
</g>
<!-- 79 -->
<g id="node2" class="node">
<title>79</title>
<polygon fill="#ffffff" stroke="#000000" points="413.41,-75.14 167.9,-75.14 165.01,-72.25 165.01,-49.14 410.52,-49.14 413.41,-52.03 413.41,-75.14"/>
<polyline fill="none" stroke="#000000" points="410.52,-72.25 165.01,-72.25"/>
<polyline fill="none" stroke="#000000" points="410.52,-72.25 410.52,-49.14"/>
<polyline fill="none" stroke="#000000" points="410.52,-72.25 413.41,-75.14"/>
<text text-anchor="middle" x="289.21" y="-57.84" font-family="Meiryo UI" font-size="14.00">return memset(arg1, arg2, arg3)</text>
</g>
<!-- 78&#45;&gt;79 -->
<g id="edge1" class="edge">
<title>78&#45;&gt;79</title>
<path fill="none" stroke="#000000" d="M289.21,-82.66C289.21,-82.5 289.21,-82.34 289.21,-82.17"/>
<polygon fill="#000000" stroke="#000000" points="292.71,-86.72 289.21,-76.72 285.71,-86.72 292.71,-86.72"/>
</g>
<!-- 80 -->
<g id="node3" class="node">
<title>80</title>
<ellipse fill="#ffffff" stroke="#000000" cx="289.21" cy="-20.57" rx="72" ry="20.57"/>
<text text-anchor="middle" x="289.21" y="-16.27" font-family="Meiryo UI" font-size="14.00">END</text>
</g>
<!-- 79&#45;&gt;80 -->
<g id="edge2" class="edge">
<title>79&#45;&gt;80</title>
<path fill="none" stroke="#000000" d="M289.21,-49.06C289.21,-48.91 289.21,-48.76 289.21,-48.61"/>
<polygon fill="#000000" stroke="#000000" points="292.71,-53.12 289.21,-43.12 285.71,-53.12 292.71,-53.12"/>
</g>
<!-- 896 -->
<g id="node4" class="node">
<title>896</title>
<polygon fill="#bbccff" stroke="none" points="552.64,-75.14 449.78,-75.14 449.78,-49.14 552.64,-49.14 552.64,-75.14"/>
<text text-anchor="start" x="457.78" y="-57.84" font-family="Meiryo UI" font-size="14.00">tailcall</text>
</g>
<!-- 79&#45;&gt;896 -->
<g id="edge3" class="edge">
<title>79&#45;&gt;896</title>
<path fill="none" stroke="#aaaaff" d="M413.84,-62.14C425.9,-62.14 437.96,-62.14 450.01,-62.14"/>
</g>
</g>
</svg>
