<?xml version="1.0" encoding="UTF-8" standalone="no"?>
<!DOCTYPE svg PUBLIC "-//W3C//DTD SVG 1.1//EN"
 "http://www.w3.org/Graphics/SVG/1.1/DTD/svg11.dtd">
<!-- Generated by graphviz version 9.0.0 (20230911.1827)
 -->
<!-- Title: graph_name Pages: 1 -->
<svg width="352pt" height="153pt"
 viewBox="0.00 0.00 351.81 153.37" xmlns="http://www.w3.org/2000/svg" xmlns:xlink="http://www.w3.org/1999/xlink">
<g id="graph0" class="graph" transform="scale(1 1) rotate(0) translate(4 149.37)">
<title>graph_name</title>
<polygon fill="#f2f2f2" stroke="none" points="-4,4 -4,-149.37 347.81,-149.37 347.81,4 -4,4"/>
<!-- 75 -->
<g id="node1" class="node">
<title>75</title>
<ellipse fill="#ffffff" stroke="#000000" cx="117.38" cy="-114.26" rx="117.38" ry="31.11"/>
<text text-anchor="middle" x="117.38" y="-118.96" font-family="Meiryo UI" font-size="14.00">START</text>
<text text-anchor="middle" x="117.38" y="-100.96" font-family="Meiryo UI" font-size="14.00">int64_t mixer_close()</text>
</g>
<!-- 76 -->
<g id="node2" class="node">
<title>76</title>
<polygon fill="#ffffff" stroke="#000000" points="204.81,-75.14 32.84,-75.14 29.95,-72.25 29.95,-49.14 201.92,-49.14 204.81,-52.03 204.81,-75.14"/>
<polyline fill="none" stroke="#000000" points="201.92,-72.25 29.95,-72.25"/>
<polyline fill="none" stroke="#000000" points="201.92,-72.25 201.92,-49.14"/>
<polyline fill="none" stroke="#000000" points="201.92,-72.25 204.81,-75.14"/>
<text text-anchor="middle" x="117.38" y="-57.84" font-family="Meiryo UI" font-size="14.00">return mixer_close()</text>
</g>
<!-- 75&#45;&gt;76 -->
<g id="edge1" class="edge">
<title>75&#45;&gt;76</title>
<path fill="none" stroke="#000000" d="M117.38,-82.66C117.38,-82.5 117.38,-82.34 117.38,-82.17"/>
<polygon fill="#000000" stroke="#000000" points="120.88,-86.72 117.38,-76.72 113.88,-86.72 120.88,-86.72"/>
</g>
<!-- 77 -->
<g id="node3" class="node">
<title>77</title>
<ellipse fill="#ffffff" stroke="#000000" cx="117.38" cy="-20.57" rx="72" ry="20.57"/>
<text text-anchor="middle" x="117.38" y="-16.27" font-family="Meiryo UI" font-size="14.00">END</text>
</g>
<!-- 76&#45;&gt;77 -->
<g id="edge2" class="edge">
<title>76&#45;&gt;77</title>
<path fill="none" stroke="#000000" d="M117.38,-49.06C117.38,-48.91 117.38,-48.76 117.38,-48.61"/>
<polygon fill="#000000" stroke="#000000" points="120.88,-53.12 117.38,-43.12 113.88,-53.12 120.88,-53.12"/>
</g>
<!-- 893 -->
<g id="node4" class="node">
<title>893</title>
<polygon fill="#bbccff" stroke="none" points="343.81,-75.14 240.95,-75.14 240.95,-49.14 343.81,-49.14 343.81,-75.14"/>
<text text-anchor="start" x="248.95" y="-57.84" font-family="Meiryo UI" font-size="14.00">tailcall</text>
</g>
<!-- 76&#45;&gt;893 -->
<g id="edge3" class="edge">
<title>76&#45;&gt;893</title>
<path fill="none" stroke="#aaaaff" d="M205.22,-62.14C217.14,-62.14 229.05,-62.14 240.97,-62.14"/>
</g>
</g>
</svg>
