<?xml version="1.0" encoding="UTF-8" standalone="no"?>
<!DOCTYPE svg PUBLIC "-//W3C//DTD SVG 1.1//EN"
 "http://www.w3.org/Graphics/SVG/1.1/DTD/svg11.dtd">
<!-- Generated by graphviz version 9.0.0 (20230911.1827)
 -->
<!-- Title: graph_name Pages: 1 -->
<svg width="420pt" height="153pt"
 viewBox="0.00 0.00 419.64 153.37" xmlns="http://www.w3.org/2000/svg" xmlns:xlink="http://www.w3.org/1999/xlink">
<g id="graph0" class="graph" transform="scale(1 1) rotate(0) translate(4 149.37)">
<title>graph_name</title>
<polygon fill="#f2f2f2" stroke="none" points="-4,4 -4,-149.37 415.64,-149.37 415.64,4 -4,4"/>
<!-- 72 -->
<g id="node1" class="node">
<title>72</title>
<ellipse fill="#ffffff" stroke="#000000" cx="158.22" cy="-114.26" rx="158.22" ry="31.11"/>
<text text-anchor="middle" x="158.22" y="-118.96" font-family="Meiryo UI" font-size="14.00">START</text>
<text text-anchor="middle" x="158.22" y="-100.96" font-family="Meiryo UI" font-size="14.00">int64_t mixer_ctl_set_value()</text>
</g>
<!-- 73 -->
<g id="node2" class="node">
<title>73</title>
<polygon fill="#ffffff" stroke="#000000" points="272.39,-75.14 46.93,-75.14 44.04,-72.25 44.04,-49.14 269.5,-49.14 272.39,-52.03 272.39,-75.14"/>
<polyline fill="none" stroke="#000000" points="269.5,-72.25 44.04,-72.25"/>
<polyline fill="none" stroke="#000000" points="269.5,-72.25 269.5,-49.14"/>
<polyline fill="none" stroke="#000000" points="269.5,-72.25 272.39,-75.14"/>
<text text-anchor="middle" x="158.22" y="-57.84" font-family="Meiryo UI" font-size="14.00">return mixer_ctl_set_value()</text>
</g>
<!-- 72&#45;&gt;73 -->
<g id="edge1" class="edge">
<title>72&#45;&gt;73</title>
<path fill="none" stroke="#000000" d="M158.22,-82.66C158.22,-82.5 158.22,-82.34 158.22,-82.17"/>
<polygon fill="#000000" stroke="#000000" points="161.72,-86.72 158.22,-76.72 154.72,-86.72 161.72,-86.72"/>
</g>
<!-- 74 -->
<g id="node3" class="node">
<title>74</title>
<ellipse fill="#ffffff" stroke="#000000" cx="158.22" cy="-20.57" rx="72" ry="20.57"/>
<text text-anchor="middle" x="158.22" y="-16.27" font-family="Meiryo UI" font-size="14.00">END</text>
</g>
<!-- 73&#45;&gt;74 -->
<g id="edge2" class="edge">
<title>73&#45;&gt;74</title>
<path fill="none" stroke="#000000" d="M158.22,-49.06C158.22,-48.91 158.22,-48.76 158.22,-48.61"/>
<polygon fill="#000000" stroke="#000000" points="161.72,-53.12 158.22,-43.12 154.72,-53.12 161.72,-53.12"/>
</g>
<!-- 890 -->
<g id="node4" class="node">
<title>890</title>
<polygon fill="#bbccff" stroke="none" points="411.64,-75.14 308.79,-75.14 308.79,-49.14 411.64,-49.14 411.64,-75.14"/>
<text text-anchor="start" x="316.79" y="-57.84" font-family="Meiryo UI" font-size="14.00">tailcall</text>
</g>
<!-- 73&#45;&gt;890 -->
<g id="edge3" class="edge">
<title>73&#45;&gt;890</title>
<path fill="none" stroke="#aaaaff" d="M272.63,-62.14C284.72,-62.14 296.81,-62.14 308.9,-62.14"/>
</g>
</g>
</svg>
