<?xml version="1.0" encoding="UTF-8" standalone="no"?>
<!DOCTYPE svg PUBLIC "-//W3C//DTD SVG 1.1//EN"
 "http://www.w3.org/Graphics/SVG/1.1/DTD/svg11.dtd">
<!-- Generated by graphviz version 9.0.0 (20230911.1827)
 -->
<!-- Title: graph_name Pages: 1 -->
<svg width="450pt" height="153pt"
 viewBox="0.00 0.00 449.86 153.37" xmlns="http://www.w3.org/2000/svg" xmlns:xlink="http://www.w3.org/1999/xlink">
<g id="graph0" class="graph" transform="scale(1 1) rotate(0) translate(4 149.37)">
<title>graph_name</title>
<polygon fill="#f2f2f2" stroke="none" points="-4,4 -4,-149.37 445.86,-149.37 445.86,4 -4,4"/>
<!-- 69 -->
<g id="node1" class="node">
<title>69</title>
<ellipse fill="#ffffff" stroke="#000000" cx="179.43" cy="-114.26" rx="179.43" ry="31.11"/>
<text text-anchor="middle" x="179.43" y="-118.96" font-family="Meiryo UI" font-size="14.00">START</text>
<text text-anchor="middle" x="179.43" y="-100.96" font-family="Meiryo UI" font-size="14.00">int64_t mixer_get_ctl_by_name()</text>
</g>
<!-- 70 -->
<g id="node2" class="node">
<title>70</title>
<polygon fill="#ffffff" stroke="#000000" points="302.93,-75.14 58.82,-75.14 55.93,-72.25 55.93,-49.14 300.04,-49.14 302.93,-52.03 302.93,-75.14"/>
<polyline fill="none" stroke="#000000" points="300.04,-72.25 55.93,-72.25"/>
<polyline fill="none" stroke="#000000" points="300.04,-72.25 300.04,-49.14"/>
<polyline fill="none" stroke="#000000" points="300.04,-72.25 302.93,-75.14"/>
<text text-anchor="middle" x="179.43" y="-57.84" font-family="Meiryo UI" font-size="14.00">return mixer_get_ctl_by_name()</text>
</g>
<!-- 69&#45;&gt;70 -->
<g id="edge1" class="edge">
<title>69&#45;&gt;70</title>
<path fill="none" stroke="#000000" d="M179.43,-82.66C179.43,-82.5 179.43,-82.34 179.43,-82.17"/>
<polygon fill="#000000" stroke="#000000" points="182.93,-86.72 179.43,-76.72 175.93,-86.72 182.93,-86.72"/>
</g>
<!-- 71 -->
<g id="node3" class="node">
<title>71</title>
<ellipse fill="#ffffff" stroke="#000000" cx="179.43" cy="-20.57" rx="72" ry="20.57"/>
<text text-anchor="middle" x="179.43" y="-16.27" font-family="Meiryo UI" font-size="14.00">END</text>
</g>
<!-- 70&#45;&gt;71 -->
<g id="edge2" class="edge">
<title>70&#45;&gt;71</title>
<path fill="none" stroke="#000000" d="M179.43,-49.06C179.43,-48.91 179.43,-48.76 179.43,-48.61"/>
<polygon fill="#000000" stroke="#000000" points="182.93,-53.12 179.43,-43.12 175.93,-53.12 182.93,-53.12"/>
</g>
<!-- 887 -->
<g id="node4" class="node">
<title>887</title>
<polygon fill="#bbccff" stroke="none" points="441.86,-75.14 339,-75.14 339,-49.14 441.86,-49.14 441.86,-75.14"/>
<text text-anchor="start" x="347" y="-57.84" font-family="Meiryo UI" font-size="14.00">tailcall</text>
</g>
<!-- 70&#45;&gt;887 -->
<g id="edge3" class="edge">
<title>70&#45;&gt;887</title>
<path fill="none" stroke="#aaaaff" d="M303.06,-62.14C315.12,-62.14 327.18,-62.14 339.24,-62.14"/>
</g>
</g>
</svg>
