<?xml version="1.0" encoding="UTF-8" standalone="no"?>
<!DOCTYPE svg PUBLIC "-//W3C//DTD SVG 1.1//EN"
 "http://www.w3.org/Graphics/SVG/1.1/DTD/svg11.dtd">
<!-- Generated by graphviz version 9.0.0 (20230911.1827)
 -->
<!-- Title: graph_name Pages: 1 -->
<svg width="349pt" height="153pt"
 viewBox="0.00 0.00 348.81 153.37" xmlns="http://www.w3.org/2000/svg" xmlns:xlink="http://www.w3.org/1999/xlink">
<g id="graph0" class="graph" transform="scale(1 1) rotate(0) translate(4 149.37)">
<title>graph_name</title>
<polygon fill="#f2f2f2" stroke="none" points="-4,4 -4,-149.37 344.81,-149.37 344.81,4 -4,4"/>
<!-- 63 -->
<g id="node1" class="node">
<title>63</title>
<ellipse fill="#ffffff" stroke="#000000" cx="117.38" cy="-114.26" rx="117.38" ry="31.11"/>
<text text-anchor="middle" x="117.38" y="-118.96" font-family="Meiryo UI" font-size="14.00">START</text>
<text text-anchor="middle" x="117.38" y="-100.96" font-family="Meiryo UI" font-size="14.00">int64_t mixer_open()</text>
</g>
<!-- 64 -->
<g id="node2" class="node">
<title>64</title>
<polygon fill="#ffffff" stroke="#000000" points="201.47,-75.14 36.18,-75.14 33.29,-72.25 33.29,-49.14 198.58,-49.14 201.47,-52.03 201.47,-75.14"/>
<polyline fill="none" stroke="#000000" points="198.58,-72.25 33.29,-72.25"/>
<polyline fill="none" stroke="#000000" points="198.58,-72.25 198.58,-49.14"/>
<polyline fill="none" stroke="#000000" points="198.58,-72.25 201.47,-75.14"/>
<text text-anchor="middle" x="117.38" y="-57.84" font-family="Meiryo UI" font-size="14.00">return mixer_open()</text>
</g>
<!-- 63&#45;&gt;64 -->
<g id="edge1" class="edge">
<title>63&#45;&gt;64</title>
<path fill="none" stroke="#000000" d="M117.38,-82.66C117.38,-82.5 117.38,-82.34 117.38,-82.17"/>
<polygon fill="#000000" stroke="#000000" points="120.88,-86.72 117.38,-76.72 113.88,-86.72 120.88,-86.72"/>
</g>
<!-- 65 -->
<g id="node3" class="node">
<title>65</title>
<ellipse fill="#ffffff" stroke="#000000" cx="117.38" cy="-20.57" rx="72" ry="20.57"/>
<text text-anchor="middle" x="117.38" y="-16.27" font-family="Meiryo UI" font-size="14.00">END</text>
</g>
<!-- 64&#45;&gt;65 -->
<g id="edge2" class="edge">
<title>64&#45;&gt;65</title>
<path fill="none" stroke="#000000" d="M117.38,-49.06C117.38,-48.91 117.38,-48.76 117.38,-48.61"/>
<polygon fill="#000000" stroke="#000000" points="120.88,-53.12 117.38,-43.12 113.88,-53.12 120.88,-53.12"/>
</g>
<!-- 881 -->
<g id="node4" class="node">
<title>881</title>
<polygon fill="#bbccff" stroke="none" points="340.81,-75.14 237.95,-75.14 237.95,-49.14 340.81,-49.14 340.81,-75.14"/>
<text text-anchor="start" x="245.95" y="-57.84" font-family="Meiryo UI" font-size="14.00">tailcall</text>
</g>
<!-- 64&#45;&gt;881 -->
<g id="edge3" class="edge">
<title>64&#45;&gt;881</title>
<path fill="none" stroke="#aaaaff" d="M201.7,-62.14C213.8,-62.14 225.9,-62.14 238,-62.14"/>
</g>
</g>
</svg>
