<?xml version="1.0" encoding="UTF-8" standalone="no"?>
<!DOCTYPE svg PUBLIC "-//W3C//DTD SVG 1.1//EN"
 "http://www.w3.org/Graphics/SVG/1.1/DTD/svg11.dtd">
<!-- Generated by graphviz version 9.0.0 (20230911.1827)
 -->
<!-- Title: graph_name Pages: 1 -->
<svg width="1402pt" height="923pt"
 viewBox="0.00 0.00 1401.54 923.37" xmlns="http://www.w3.org/2000/svg" xmlns:xlink="http://www.w3.org/1999/xlink">
<g id="graph0" class="graph" transform="scale(1 1) rotate(0) translate(4 919.37)">
<title>graph_name</title>
<polygon fill="#f2f2f2" stroke="none" points="-4,4 -4,-919.37 1397.54,-919.37 1397.54,4 -4,4"/>
<!-- 306 -->
<g id="node1" class="node">
<title>306</title>
<ellipse fill="#ffffff" stroke="#000000" cx="991.38" cy="-884.26" rx="402.17" ry="31.11"/>
<text text-anchor="middle" x="991.38" y="-888.96" font-family="Meiryo UI" font-size="14.00">START</text>
<text text-anchor="middle" x="991.38" y="-870.96" font-family="Meiryo UI" font-size="14.00">int64_t notify_keyevent_client_cmd(int32_t* arg1, int32_t arg2, int32_t arg3)</text>
</g>
<!-- 307 -->
<g id="node2" class="node">
<title>307</title>
<polygon fill="#ffffff" stroke="#000000" points="1102.2,-836.14 880.55,-836.14 880.55,-810.14 1102.2,-810.14 1102.2,-836.14"/>
<text text-anchor="middle" x="991.38" y="-818.84" font-family="Meiryo UI" font-size="14.00">int64_t result = 0xffffffff</text>
</g>
<!-- 306&#45;&gt;307 -->
<g id="edge1" class="edge">
<title>306&#45;&gt;307</title>
<path fill="none" stroke="#000000" d="M991.38,-852.66C991.38,-851.04 991.38,-849.43 991.38,-847.84"/>
<polygon fill="#000000" stroke="#000000" points="994.88,-847.96 991.38,-837.96 987.88,-847.96 994.88,-847.96"/>
</g>
<!-- 308 -->
<g id="node3" class="node">
<title>308</title>
<polygon fill="#ffffff" stroke="#000000" points="991.38,-793.14 813.43,-772.57 991.37,-752 1169.32,-772.57 991.38,-793.14"/>
<text text-anchor="middle" x="991.38" y="-768.27" font-family="Meiryo UI" font-size="14.00">(arg1 != 0 &amp;&amp; arg2 != 0)</text>
</g>
<!-- 307&#45;&gt;308 -->
<g id="edge2" class="edge">
<title>307&#45;&gt;308</title>
<path fill="none" stroke="#000000" d="M991.38,-809.89C991.38,-808.34 991.38,-806.71 991.38,-805.02"/>
<polygon fill="#000000" stroke="#000000" points="994.88,-805.09 991.38,-795.09 987.88,-805.09 994.88,-805.09"/>
</g>
<!-- 309 -->
<g id="node4" class="node">
<title>309</title>
<polygon fill="#ffffaa" stroke="#000000" points="982.09,-718 840.66,-718 840.66,-692 982.09,-692 982.09,-718"/>
<text text-anchor="middle" x="911.38" y="-700.7" font-family="Meiryo UI" font-size="14.00">void* const cmd</text>
</g>
<!-- 308&#45;&gt;309 -->
<g id="edge3" class="edge">
<title>308&#45;&gt;309</title>
<path fill="none" stroke="#000000" d="M969.94,-754C959.23,-745.23 946.25,-734.59 935.23,-725.56"/>
<polygon fill="#000000" stroke="#000000" points="937.66,-723.02 927.7,-719.38 933.22,-728.43 937.66,-723.02"/>
<text text-anchor="middle" x="967.38" y="-730.7" font-family="Meiryo UI" font-size="14.00">Yes</text>
</g>
<!-- 325 -->
<g id="node19" class="node">
<title>325</title>
<ellipse fill="#000000" stroke="#000000" cx="797.38" cy="-106.29" rx="5.14" ry="5.14"/>
</g>
<!-- 308&#45;&gt;325 -->
<g id="edge4" class="edge">
<title>308&#45;&gt;325</title>
<path fill="none" stroke="#000000" d="M1021.4,-754.99C1037.63,-743.62 1054.38,-726.84 1054.38,-706 1054.38,-706 1054.38,-706 1054.38,-140.43 1054.38,-116.12 871.12,-109.23 814.1,-107.68"/>
<polygon fill="#000000" stroke="#000000" points="814.34,-104.18 804.26,-107.43 814.17,-111.18 814.34,-104.18"/>
<text text-anchor="middle" x="1063.75" y="-439.27" font-family="Meiryo UI" font-size="14.00">No</text>
</g>
<!-- 310 -->
<g id="node5" class="node">
<title>310</title>
<polygon fill="#ffffff" stroke="#000000" points="858.38,-675 717.2,-654.43 858.38,-633.86 999.55,-654.43 858.38,-675"/>
<text text-anchor="middle" x="858.38" y="-650.13" font-family="Meiryo UI" font-size="14.00">*arg1 == 0x65</text>
</g>
<!-- 309&#45;&gt;310 -->
<g id="edge5" class="edge">
<title>309&#45;&gt;310</title>
<path fill="none" stroke="#000000" d="M898,-691.74C894.11,-688.18 889.72,-684.16 885.32,-680.12"/>
<polygon fill="#000000" stroke="#000000" points="887.8,-677.65 878.06,-673.47 883.07,-682.81 887.8,-677.65"/>
</g>
<!-- 311 -->
<g id="node6" class="node">
<title>311</title>
<polygon fill="#ffffff" stroke="#000000" points="775.38,-599.86 561.38,-599.86 561.38,-573.86 775.38,-573.86 775.38,-599.86"/>
<text text-anchor="middle" x="668.38" y="-582.56" font-family="Meiryo UI" font-size="14.00">cmd = &quot;CMD_DEMO_MODE&quot;</text>
</g>
<!-- 310&#45;&gt;311 -->
<g id="edge6" class="edge">
<title>310&#45;&gt;311</title>
<path fill="none" stroke="#000000" d="M817.62,-639.36C787.57,-628.99 746.65,-614.87 715.25,-604.03"/>
<polygon fill="#000000" stroke="#000000" points="716.6,-600.8 706.01,-600.84 714.32,-607.42 716.6,-600.8"/>
<text text-anchor="middle" x="787.38" y="-612.56" font-family="Meiryo UI" font-size="14.00">Yes</text>
</g>
<!-- 313 -->
<g id="node7" class="node">
<title>313</title>
<polygon fill="#ffffff" stroke="#000000" points="939.4,-599.86 811.35,-599.86 811.35,-573.86 939.4,-573.86 939.4,-599.86"/>
<text text-anchor="middle" x="875.38" y="-582.56" font-family="Meiryo UI" font-size="14.00">cmd = nullptr</text>
</g>
<!-- 310&#45;&gt;313 -->
<g id="edge7" class="edge">
<title>310&#45;&gt;313</title>
<path fill="none" stroke="#000000" d="M863.38,-634.11C865.26,-626.87 867.41,-618.57 869.37,-611.02"/>
<polygon fill="#000000" stroke="#000000" points="872.72,-612.05 871.84,-601.49 865.94,-610.29 872.72,-612.05"/>
<text text-anchor="middle" x="878.75" y="-612.56" font-family="Meiryo UI" font-size="14.00">No</text>
</g>
<!-- 314 -->
<g id="node8" class="node">
<title>314</title>
<ellipse fill="#000000" stroke="#000000" cx="734.38" cy="-551.71" rx="5.14" ry="5.14"/>
</g>
<!-- 311&#45;&gt;314 -->
<g id="edge8" class="edge">
<title>311&#45;&gt;314</title>
<path fill="none" stroke="#000000" d="M692.95,-573.52C701.99,-568.97 711.94,-563.98 719.82,-560.02"/>
<polygon fill="#000000" stroke="#000000" points="721.36,-563.17 728.72,-555.55 718.22,-556.91 721.36,-563.17"/>
</g>
<!-- 313&#45;&gt;314 -->
<g id="edge9" class="edge">
<title>313&#45;&gt;314</title>
<path fill="none" stroke="#000000" d="M822.47,-573.42C796.94,-567.42 768.12,-560.65 750.61,-556.53"/>
<polygon fill="#000000" stroke="#000000" points="751.47,-553.14 740.93,-554.26 749.87,-559.95 751.47,-553.14"/>
</g>
<!-- 764 -->
<g id="node9" class="node">
<title>764</title>
<polygon fill="#ffffff" stroke="#000000" points="993.25,-529.57 478.39,-529.57 475.5,-526.68 475.5,-503.57 990.36,-503.57 993.25,-506.46 993.25,-529.57"/>
<polyline fill="none" stroke="#000000" points="990.36,-526.68 475.5,-526.68"/>
<polyline fill="none" stroke="#000000" points="990.36,-526.68 990.36,-503.57"/>
<polyline fill="none" stroke="#000000" points="990.36,-526.68 993.25,-529.57"/>
<text text-anchor="middle" x="734.38" y="-512.27" font-family="Meiryo UI" font-size="14.00">__android_log_print(4, &quot;KeyEvent&quot;, &quot;notify to client: cmd:%s\n&quot;, cmd)</text>
</g>
<!-- 314&#45;&gt;764 -->
<g id="edge10" class="edge">
<title>314&#45;&gt;764</title>
<path fill="none" stroke="#000000" d="M734.38,-546.11C734.38,-544.66 734.38,-542.96 734.38,-541.12"/>
<polygon fill="#000000" stroke="#000000" points="737.88,-541.36 734.38,-531.36 730.88,-541.36 737.88,-541.36"/>
</g>
<!-- 315 -->
<g id="node10" class="node">
<title>315</title>
<polygon fill="#ffffff" stroke="#000000" points="863.5,-486.57 608.14,-486.57 605.25,-483.68 605.25,-460.57 860.61,-460.57 863.5,-463.46 863.5,-486.57"/>
<polyline fill="none" stroke="#000000" points="860.61,-483.68 605.25,-483.68"/>
<polyline fill="none" stroke="#000000" points="860.61,-483.68 860.61,-460.57"/>
<polyline fill="none" stroke="#000000" points="860.61,-483.68 863.5,-486.57"/>
<text text-anchor="middle" x="734.38" y="-469.27" font-family="Meiryo UI" font-size="14.00">pthread_mutex_lock(&amp;data_5048)</text>
</g>
<!-- 764&#45;&gt;315 -->
<g id="edge11" class="edge">
<title>764&#45;&gt;315</title>
<path fill="none" stroke="#000000" d="M734.38,-503.49C734.38,-501.87 734.38,-500.16 734.38,-498.42"/>
<polygon fill="#000000" stroke="#000000" points="737.88,-498.5 734.38,-488.5 730.88,-498.5 737.88,-498.5"/>
</g>
<!-- 316 -->
<g id="node11" class="node">
<title>316</title>
<polygon fill="#ffffff" stroke="#000000" points="902.03,-426.57 569.61,-426.57 566.72,-423.68 566.72,-400.57 899.14,-400.57 902.03,-403.46 902.03,-426.57"/>
<polyline fill="none" stroke="#000000" points="899.14,-423.68 566.72,-423.68"/>
<polyline fill="none" stroke="#000000" points="899.14,-423.68 899.14,-400.57"/>
<polyline fill="none" stroke="#000000" points="899.14,-423.68 902.03,-426.57"/>
<text text-anchor="middle" x="734.38" y="-409.27" font-family="Meiryo UI" font-size="14.00">int32_t send_result = send(arg3, arg1, 4, 0)</text>
</g>
<!-- 315&#45;&gt;316 -->
<g id="edge12" class="edge">
<title>315&#45;&gt;316</title>
<path fill="none" stroke="#000000" d="M734.38,-460.27C734.38,-453.89 734.38,-445.87 734.38,-438.34"/>
<polygon fill="#000000" stroke="#000000" points="737.88,-438.37 734.38,-428.37 730.88,-438.37 737.88,-438.37"/>
</g>
<!-- 317 -->
<g id="node12" class="node">
<title>317</title>
<polygon fill="#ffffff" stroke="#000000" points="872.5,-383.57 599.14,-383.57 596.25,-380.68 596.25,-357.57 869.61,-357.57 872.5,-360.46 872.5,-383.57"/>
<polyline fill="none" stroke="#000000" points="869.61,-380.68 596.25,-380.68"/>
<polyline fill="none" stroke="#000000" points="869.61,-380.68 869.61,-357.57"/>
<polyline fill="none" stroke="#000000" points="869.61,-380.68 872.5,-383.57"/>
<text text-anchor="middle" x="734.38" y="-366.27" font-family="Meiryo UI" font-size="14.00">pthread_mutex_unlock(&amp;data_5048)</text>
</g>
<!-- 316&#45;&gt;317 -->
<g id="edge13" class="edge">
<title>316&#45;&gt;317</title>
<path fill="none" stroke="#000000" d="M734.38,-400.49C734.38,-398.87 734.38,-397.16 734.38,-395.42"/>
<polygon fill="#000000" stroke="#000000" points="737.88,-395.5 734.38,-385.5 730.88,-395.5 737.88,-395.5"/>
</g>
<!-- 318 -->
<g id="node13" class="node">
<title>318</title>
<polygon fill="#ffffff" stroke="#000000" points="734.38,-340.57 504.23,-320 734.37,-299.43 964.52,-320 734.38,-340.57"/>
<text text-anchor="middle" x="734.38" y="-315.7" font-family="Meiryo UI" font-size="14.00">(send_result &amp; 0x80000000) != 0</text>
</g>
<!-- 317&#45;&gt;318 -->
<g id="edge14" class="edge">
<title>317&#45;&gt;318</title>
<path fill="none" stroke="#000000" d="M734.38,-357.31C734.38,-355.77 734.38,-354.14 734.38,-352.45"/>
<polygon fill="#000000" stroke="#000000" points="737.88,-352.51 734.38,-342.51 730.88,-352.51 737.88,-352.51"/>
</g>
<!-- 319 -->
<g id="node14" class="node">
<title>319</title>
<polygon fill="#ffffff" stroke="#000000" points="475.52,-265.43 270.12,-265.43 267.23,-262.54 267.23,-239.43 472.63,-239.43 475.52,-242.32 475.52,-265.43"/>
<polyline fill="none" stroke="#000000" points="472.63,-262.54 267.23,-262.54"/>
<polyline fill="none" stroke="#000000" points="472.63,-262.54 472.63,-239.43"/>
<polyline fill="none" stroke="#000000" points="472.63,-262.54 475.52,-265.43"/>
<text text-anchor="middle" x="371.38" y="-248.13" font-family="Meiryo UI" font-size="14.00">int32_t* x0_3 = __errno()</text>
</g>
<!-- 318&#45;&gt;319 -->
<g id="edge15" class="edge">
<title>318&#45;&gt;319</title>
<path fill="none" stroke="#000000" d="M660.04,-305.57C599.28,-294.6 513.57,-279.11 451.33,-267.87"/>
<polygon fill="#000000" stroke="#000000" points="452.34,-264.5 441.88,-266.16 451.1,-271.39 452.34,-264.5"/>
<text text-anchor="middle" x="587.38" y="-278.13" font-family="Meiryo UI" font-size="14.00">Yes</text>
</g>
<!-- 323 -->
<g id="node17" class="node">
<title>323</title>
<polygon fill="#ffffff" stroke="#000000" points="998.88,-265.43 514.76,-265.43 511.88,-262.54 511.88,-239.43 995.99,-239.43 998.88,-242.32 998.88,-265.43"/>
<polyline fill="none" stroke="#000000" points="995.99,-262.54 511.88,-262.54"/>
<polyline fill="none" stroke="#000000" points="995.99,-262.54 995.99,-239.43"/>
<polyline fill="none" stroke="#000000" points="995.99,-262.54 998.88,-265.43"/>
<text text-anchor="middle" x="755.38" y="-248.13" font-family="Meiryo UI" font-size="14.00">__android_log_print(4, &quot;KeyEvent&quot;, &quot;notify to sock[%d] OK&quot;, arg3)</text>
</g>
<!-- 318&#45;&gt;323 -->
<g id="edge16" class="edge">
<title>318&#45;&gt;323</title>
<path fill="none" stroke="#000000" d="M740.56,-299.68C742.91,-292.36 745.6,-283.95 748.04,-276.32"/>
<polygon fill="#000000" stroke="#000000" points="751.3,-277.63 751.02,-267.04 744.63,-275.5 751.3,-277.63"/>
<text text-anchor="middle" x="758.75" y="-278.13" font-family="Meiryo UI" font-size="14.00">No</text>
</g>
<!-- 320 -->
<g id="node15" class="node">
<title>320</title>
<polygon fill="#ffffff" stroke="#000000" points="742.75,-222.43 2.89,-222.43 0,-219.54 0,-196.43 739.86,-196.43 742.75,-199.32 742.75,-222.43"/>
<polyline fill="none" stroke="#000000" points="739.86,-219.54 0,-219.54"/>
<polyline fill="none" stroke="#000000" points="739.86,-219.54 739.86,-196.43"/>
<polyline fill="none" stroke="#000000" points="739.86,-219.54 742.75,-222.43"/>
<text text-anchor="middle" x="371.38" y="-205.13" font-family="Meiryo UI" font-size="14.00">__android_log_print(6, &quot;KeyEvent&quot;, &quot;send failed %d &#45;&#45; errno=%d (%s)&quot;, arg3, *x0_3, strerror(*x0_3))</text>
</g>
<!-- 319&#45;&gt;320 -->
<g id="edge17" class="edge">
<title>319&#45;&gt;320</title>
<path fill="none" stroke="#000000" d="M371.38,-239.35C371.38,-237.73 371.38,-236.02 371.38,-234.27"/>
<polygon fill="#000000" stroke="#000000" points="374.88,-234.36 371.38,-224.36 367.88,-234.36 374.88,-234.36"/>
</g>
<!-- 321 -->
<g id="node16" class="node">
<title>321</title>
<polygon fill="#ffffff" stroke="#000000" points="667.09,-154.43 525.66,-154.43 525.66,-128.43 667.09,-128.43 667.09,-154.43"/>
<text text-anchor="middle" x="596.38" y="-137.13" font-family="Meiryo UI" font-size="14.00">x0 = 0xffffffff</text>
</g>
<!-- 320&#45;&gt;321 -->
<g id="edge18" class="edge">
<title>320&#45;&gt;321</title>
<path fill="none" stroke="#000000" d="M413.96,-195.94C450.56,-185.2 503.53,-169.66 542.97,-158.09"/>
<polygon fill="#000000" stroke="#000000" points="543.9,-161.47 552.51,-155.3 541.93,-154.75 543.9,-161.47"/>
</g>
<!-- 321&#45;&gt;325 -->
<g id="edge19" class="edge">
<title>321&#45;&gt;325</title>
<path fill="none" stroke="#000000" d="M667.52,-128.7C708.5,-121.94 756.6,-114.01 781.16,-109.96"/>
<polygon fill="#000000" stroke="#000000" points="781.4,-113.47 790.69,-108.39 780.26,-106.56 781.4,-113.47"/>
</g>
<!-- 324 -->
<g id="node18" class="node">
<title>324</title>
<polygon fill="#ffffff" stroke="#000000" points="851.38,-188.43 743.38,-188.43 743.38,-162.43 851.38,-162.43 851.38,-188.43"/>
<text text-anchor="middle" x="797.38" y="-171.13" font-family="Meiryo UI" font-size="14.00">result = 0</text>
</g>
<!-- 323&#45;&gt;324 -->
<g id="edge20" class="edge">
<title>323&#45;&gt;324</title>
<path fill="none" stroke="#000000" d="M762.31,-239.04C768.45,-228.08 777.56,-211.81 784.96,-198.61"/>
<polygon fill="#000000" stroke="#000000" points="787.86,-200.59 789.69,-190.15 781.75,-197.17 787.86,-200.59"/>
</g>
<!-- 324&#45;&gt;325 -->
<g id="edge21" class="edge">
<title>324&#45;&gt;325</title>
<path fill="none" stroke="#000000" d="M797.38,-162.11C797.38,-151.11 797.38,-134.93 797.38,-123"/>
<polygon fill="#000000" stroke="#000000" points="800.88,-123.35 797.38,-113.35 793.88,-123.35 800.88,-123.35"/>
</g>
<!-- 765 -->
<g id="node20" class="node">
<title>765</title>
<polygon fill="#ffffff" stroke="#000000" points="861.4,-84.14 733.35,-84.14 733.35,-58.14 861.4,-58.14 861.4,-84.14"/>
<text text-anchor="middle" x="797.38" y="-66.84" font-family="Meiryo UI" font-size="14.00">return result</text>
</g>
<!-- 325&#45;&gt;765 -->
<g id="edge22" class="edge">
<title>325&#45;&gt;765</title>
<path fill="none" stroke="#000000" d="M797.38,-100.68C797.38,-99.23 797.38,-97.53 797.38,-95.69"/>
<polygon fill="#000000" stroke="#000000" points="800.88,-95.93 797.38,-85.93 793.88,-95.93 800.88,-95.93"/>
</g>
<!-- 326 -->
<g id="node21" class="node">
<title>326</title>
<ellipse fill="#ffffff" stroke="#000000" cx="797.38" cy="-20.57" rx="72" ry="20.57"/>
<text text-anchor="middle" x="797.38" y="-16.27" font-family="Meiryo UI" font-size="14.00">END</text>
</g>
<!-- 765&#45;&gt;326 -->
<g id="edge23" class="edge">
<title>765&#45;&gt;326</title>
<path fill="none" stroke="#000000" d="M797.38,-57.89C797.38,-56.34 797.38,-54.71 797.38,-53.02"/>
<polygon fill="#000000" stroke="#000000" points="800.88,-53.09 797.38,-43.09 793.88,-53.09 800.88,-53.09"/>
</g>
</g>
</svg>
