<?xml version="1.0" encoding="UTF-8" standalone="no"?>
<!DOCTYPE svg PUBLIC "-//W3C//DTD SVG 1.1//EN"
 "http://www.w3.org/Graphics/SVG/1.1/DTD/svg11.dtd">
<!-- Generated by graphviz version 9.0.0 (20230911.1827)
 -->
<!-- Title: graph_name Pages: 1 -->
<svg width="648pt" height="204pt"
 viewBox="0.00 0.00 648.48 204.28" xmlns="http://www.w3.org/2000/svg" xmlns:xlink="http://www.w3.org/1999/xlink">
<g id="graph0" class="graph" transform="scale(1 1) rotate(0) translate(4 200.28)">
<title>graph_name</title>
<polygon fill="#f2f2f2" stroke="none" points="-4,4 -4,-200.28 644.48,-200.28 644.48,4 -4,4"/>
<!-- 3 -->
<g id="node1" class="node">
<title>3</title>
<ellipse fill="#ffffff" stroke="#000000" cx="304.06" cy="-139.71" rx="304.06" ry="56.57"/>
<text text-anchor="middle" x="304.06" y="-162.41" font-family="Meiryo UI" font-size="14.00">START</text>
<text text-anchor="middle" x="304.06" y="-144.41" font-family="Meiryo UI" font-size="14.00">void __libc_init(void* raw_args, void (* onexit)(),</text>
<text text-anchor="middle" x="304.06" y="-126.41" font-family="Meiryo UI" font-size="14.00"> int32_t (* main)(int32_t argc, char** argv, char** envp),</text>
<text text-anchor="middle" x="304.06" y="-108.41" font-family="Meiryo UI" font-size="14.00"> void const* structors) __noreturn</text>
</g>
<!-- 4 -->
<g id="node2" class="node">
<title>4</title>
<polygon fill="#ffffff" stroke="#000000" points="501.8,-75.14 109.2,-75.14 106.31,-72.25 106.31,-49.14 498.91,-49.14 501.8,-52.03 501.8,-75.14"/>
<polyline fill="none" stroke="#000000" points="498.91,-72.25 106.31,-72.25"/>
<polyline fill="none" stroke="#000000" points="498.91,-72.25 498.91,-49.14"/>
<polyline fill="none" stroke="#000000" points="498.91,-72.25 501.8,-75.14"/>
<text text-anchor="middle" x="304.06" y="-57.84" font-family="Meiryo UI" font-size="14.00">return __libc_init(raw_args, onexit, main, structors)</text>
</g>
<!-- 3&#45;&gt;4 -->
<g id="edge1" class="edge">
<title>3&#45;&gt;4</title>
<path fill="none" stroke="#000000" d="M304.06,-83C304.06,-82.83 304.06,-82.67 304.06,-82.5"/>
<polygon fill="#000000" stroke="#000000" points="307.56,-87.08 304.06,-77.08 300.56,-87.08 307.56,-87.08"/>
</g>
<!-- 5 -->
<g id="node3" class="node">
<title>5</title>
<ellipse fill="#ffffff" stroke="#000000" cx="304.06" cy="-20.57" rx="72" ry="20.57"/>
<text text-anchor="middle" x="304.06" y="-16.27" font-family="Meiryo UI" font-size="14.00">END</text>
</g>
<!-- 4&#45;&gt;5 -->
<g id="edge2" class="edge">
<title>4&#45;&gt;5</title>
<path fill="none" stroke="#000000" d="M304.06,-49.06C304.06,-48.91 304.06,-48.76 304.06,-48.61"/>
<polygon fill="#000000" stroke="#000000" points="307.56,-53.12 304.06,-43.12 300.56,-53.12 307.56,-53.12"/>
</g>
<!-- 821 -->
<g id="node4" class="node">
<title>821</title>
<polygon fill="#bbccff" stroke="none" points="640.48,-75.14 537.63,-75.14 537.63,-49.14 640.48,-49.14 640.48,-75.14"/>
<text text-anchor="start" x="545.63" y="-57.84" font-family="Meiryo UI" font-size="14.00">tailcall</text>
</g>
<!-- 4&#45;&gt;821 -->
<g id="edge3" class="edge">
<title>4&#45;&gt;821</title>
<path fill="none" stroke="#aaaaff" d="M502.22,-62.14C514.09,-62.14 525.96,-62.14 537.84,-62.14"/>
</g>
</g>
</svg>
