<?xml version="1.0" encoding="UTF-8" standalone="no"?>
<!DOCTYPE svg PUBLIC "-//W3C//DTD SVG 1.1//EN"
 "http://www.w3.org/Graphics/SVG/1.1/DTD/svg11.dtd">
<!-- Generated by graphviz version 9.0.0 (20230911.1827)
 -->
<!-- Title: graph_name Pages: 1 -->
<svg width="932pt" height="1774pt"
 viewBox="0.00 0.00 932.49 1773.51" xmlns="http://www.w3.org/2000/svg" xmlns:xlink="http://www.w3.org/1999/xlink">
<g id="graph0" class="graph" transform="scale(1 1) rotate(0) translate(4 1769.51)">
<title>graph_name</title>
<polygon fill="#f2f2f2" stroke="none" points="-4,4 -4,-1769.51 928.49,-1769.51 928.49,4 -4,4"/>
<!-- 597 -->
<g id="node1" class="node">
<title>597</title>
<ellipse fill="#ffffff" stroke="#000000" cx="218.74" cy="-1734.4" rx="156.62" ry="31.11"/>
<text text-anchor="middle" x="218.74" y="-1739.1" font-family="Meiryo UI" font-size="14.00">START</text>
<text text-anchor="middle" x="218.74" y="-1721.1" font-family="Meiryo UI" font-size="14.00">int64_t open_dir(char* arg1)</text>
</g>
<!-- 598 -->
<g id="node2" class="node">
<title>598</title>
<polygon fill="#ffffff" stroke="#000000" points="350.12,-1686.29 87.37,-1686.29 87.37,-1660.29 350.12,-1660.29 350.12,-1686.29"/>
<text text-anchor="middle" x="218.74" y="-1668.99" font-family="Meiryo UI" font-size="14.00">int64_t x22 = *__stack_chk_guard</text>
</g>
<!-- 597&#45;&gt;598 -->
<g id="edge1" class="edge">
<title>597&#45;&gt;598</title>
<path fill="none" stroke="#000000" d="M218.74,-1702.8C218.74,-1701.19 218.74,-1699.57 218.74,-1697.99"/>
<polygon fill="#000000" stroke="#000000" points="222.24,-1698.1 218.74,-1688.1 215.24,-1698.1 222.24,-1698.1"/>
</g>
<!-- 599 -->
<g id="node3" class="node">
<title>599</title>
<polygon fill="#ffffff" stroke="#000000" points="316.2,-1643.29 124.17,-1643.29 121.29,-1640.4 121.29,-1617.29 313.31,-1617.29 316.2,-1620.17 316.2,-1643.29"/>
<polyline fill="none" stroke="#000000" points="313.31,-1640.4 121.29,-1640.4"/>
<polyline fill="none" stroke="#000000" points="313.31,-1640.4 313.31,-1617.29"/>
<polyline fill="none" stroke="#000000" points="313.31,-1640.4 316.2,-1643.29"/>
<text text-anchor="middle" x="218.74" y="-1625.99" font-family="Meiryo UI" font-size="14.00">DIR* x0 = opendir(arg1)</text>
</g>
<!-- 598&#45;&gt;599 -->
<g id="edge2" class="edge">
<title>598&#45;&gt;599</title>
<path fill="none" stroke="#000000" d="M218.74,-1660.21C218.74,-1658.58 218.74,-1656.87 218.74,-1655.13"/>
<polygon fill="#000000" stroke="#000000" points="222.24,-1655.22 218.74,-1645.22 215.24,-1655.22 222.24,-1655.22"/>
</g>
<!-- 600 -->
<g id="node4" class="node">
<title>600</title>
<polygon fill="#ffffaa" stroke="#000000" points="286.11,-1600.29 151.37,-1600.29 151.37,-1574.29 286.11,-1574.29 286.11,-1600.29"/>
<text text-anchor="middle" x="218.74" y="-1582.99" font-family="Meiryo UI" font-size="14.00">int64_t result</text>
</g>
<!-- 599&#45;&gt;600 -->
<g id="edge3" class="edge">
<title>599&#45;&gt;600</title>
<path fill="none" stroke="#000000" d="M218.74,-1617.21C218.74,-1615.58 218.74,-1613.87 218.74,-1612.13"/>
<polygon fill="#000000" stroke="#000000" points="222.24,-1612.22 218.74,-1602.22 215.24,-1612.22 222.24,-1612.22"/>
</g>
<!-- 601 -->
<g id="node5" class="node">
<title>601</title>
<polygon fill="#ffffff" stroke="#000000" points="218.74,-1557.29 90.17,-1536.71 218.74,-1516.14 347.31,-1536.71 218.74,-1557.29"/>
<text text-anchor="middle" x="218.74" y="-1532.41" font-family="Meiryo UI" font-size="14.00">x0 == 0</text>
</g>
<!-- 600&#45;&gt;601 -->
<g id="edge4" class="edge">
<title>600&#45;&gt;601</title>
<path fill="none" stroke="#000000" d="M218.74,-1574.03C218.74,-1572.48 218.74,-1570.85 218.74,-1569.17"/>
<polygon fill="#000000" stroke="#000000" points="222.24,-1569.23 218.74,-1559.23 215.24,-1569.23 222.24,-1569.23"/>
</g>
<!-- 602 -->
<g id="node6" class="node">
<title>602</title>
<polygon fill="#ffffff" stroke="#000000" points="253.83,-1448.14 85.66,-1448.14 85.66,-1422.14 253.83,-1422.14 253.83,-1448.14"/>
<text text-anchor="middle" x="169.74" y="-1430.84" font-family="Meiryo UI" font-size="14.00">result = 0xffffffff</text>
</g>
<!-- 601&#45;&gt;602 -->
<g id="edge5" class="edge">
<title>601&#45;&gt;602</title>
<path fill="none" stroke="#000000" d="M209.76,-1517.45C201.65,-1500.98 189.69,-1476.68 180.96,-1458.94"/>
<polygon fill="#000000" stroke="#000000" points="184.11,-1457.41 176.55,-1449.98 177.83,-1460.5 184.11,-1457.41"/>
<text text-anchor="middle" x="216.74" y="-1494.84" font-family="Meiryo UI" font-size="14.00">Yes</text>
</g>
<!-- 604 -->
<g id="node7" class="node">
<title>604</title>
<polygon fill="#ffffaa" stroke="#000000" points="377.77,-1482.14 249.71,-1482.14 249.71,-1456.14 377.77,-1456.14 377.77,-1482.14"/>
<text text-anchor="middle" x="313.74" y="-1464.84" font-family="Meiryo UI" font-size="14.00">void var_1048</text>
</g>
<!-- 601&#45;&gt;604 -->
<g id="edge6" class="edge">
<title>601&#45;&gt;604</title>
<path fill="none" stroke="#000000" d="M242.23,-1519.51C255.71,-1510.2 272.69,-1498.48 286.73,-1488.79"/>
<polygon fill="#000000" stroke="#000000" points="288.41,-1491.88 294.65,-1483.32 284.43,-1486.12 288.41,-1491.88"/>
<text text-anchor="middle" x="293.12" y="-1494.84" font-family="Meiryo UI" font-size="14.00">No</text>
</g>
<!-- 628 -->
<g id="node33" class="node">
<title>628</title>
<ellipse fill="#000000" stroke="#000000" cx="157.74" cy="-251.71" rx="5.14" ry="5.14"/>
</g>
<!-- 602&#45;&gt;628 -->
<g id="edge7" class="edge">
<title>602&#45;&gt;628</title>
<path fill="none" stroke="#000000" d="M156.7,-1421.69C147.48,-1411.49 136.74,-1396.18 136.74,-1380.14 136.74,-1380.14 136.74,-1380.14 136.74,-285.86 136.74,-277.65 141.39,-269.83 146.31,-263.85"/>
<polygon fill="#000000" stroke="#000000" points="148.62,-266.5 153.04,-256.87 143.58,-261.64 148.62,-266.5"/>
</g>
<!-- 605 -->
<g id="node8" class="node">
<title>605</title>
<polygon fill="#ffffff" stroke="#000000" points="497.12,-1414.14 237.26,-1414.14 234.37,-1411.25 234.37,-1388.14 494.23,-1388.14 497.12,-1391.03 497.12,-1414.14"/>
<polyline fill="none" stroke="#000000" points="494.23,-1411.25 234.37,-1411.25"/>
<polyline fill="none" stroke="#000000" points="494.23,-1411.25 494.23,-1388.14"/>
<polyline fill="none" stroke="#000000" points="494.23,-1411.25 497.12,-1414.14"/>
<text text-anchor="middle" x="365.74" y="-1396.84" font-family="Meiryo UI" font-size="14.00">strncpy(&amp;var_1048, arg1, 0x1000)</text>
</g>
<!-- 604&#45;&gt;605 -->
<g id="edge8" class="edge">
<title>604&#45;&gt;605</title>
<path fill="none" stroke="#000000" d="M323.52,-1455.73C330.71,-1446.6 340.66,-1433.98 349.09,-1423.28"/>
<polygon fill="#000000" stroke="#000000" points="351.63,-1425.71 355.07,-1415.69 346.13,-1421.38 351.63,-1425.71"/>
</g>
<!-- 606 -->
<g id="node9" class="node">
<title>606</title>
<polygon fill="#ffffff" stroke="#000000" points="716.99,-1371.14 285.38,-1371.14 282.49,-1368.25 282.49,-1345.14 714.1,-1345.14 716.99,-1348.03 716.99,-1371.14"/>
<polyline fill="none" stroke="#000000" points="714.1,-1368.25 282.49,-1368.25"/>
<polyline fill="none" stroke="#000000" points="714.1,-1368.25 714.1,-1345.14"/>
<polyline fill="none" stroke="#000000" points="714.1,-1368.25 716.99,-1371.14"/>
<text text-anchor="middle" x="499.74" y="-1353.84" font-family="Meiryo UI" font-size="14.00">void* x20_1 = (&amp;var_1048 + strnlen(&amp;var_1048, 0x1000))</text>
</g>
<!-- 605&#45;&gt;606 -->
<g id="edge9" class="edge">
<title>605&#45;&gt;606</title>
<path fill="none" stroke="#000000" d="M406.31,-1387.73C419.56,-1383.68 434.45,-1379.12 448.39,-1374.86"/>
<polygon fill="#000000" stroke="#000000" points="449.33,-1378.23 457.87,-1371.96 447.28,-1371.54 449.33,-1378.23"/>
</g>
<!-- 607 -->
<g id="node10" class="node">
<title>607</title>
<polygon fill="#ffffff" stroke="#000000" points="609.77,-1328.14 481.71,-1328.14 481.71,-1302.14 609.77,-1302.14 609.77,-1328.14"/>
<text text-anchor="middle" x="545.74" y="-1310.84" font-family="Meiryo UI" font-size="14.00">*x20_1 = 0x2f</text>
</g>
<!-- 606&#45;&gt;607 -->
<g id="edge10" class="edge">
<title>606&#45;&gt;607</title>
<path fill="none" stroke="#000000" d="M513.3,-1345.06C516.48,-1342.22 519.97,-1339.12 523.43,-1336.03"/>
<polygon fill="#000000" stroke="#000000" points="525.54,-1338.84 530.68,-1329.57 520.88,-1333.61 525.54,-1338.84"/>
</g>
<!-- 608 -->
<g id="node11" class="node">
<title>608</title>
<polygon fill="#ffffff" stroke="#000000" points="673.12,-1285.14 464.37,-1285.14 464.37,-1259.14 673.12,-1259.14 673.12,-1285.14"/>
<text text-anchor="middle" x="568.74" y="-1267.84" font-family="Meiryo UI" font-size="14.00">void* x20_2 = (x20_1 + 1)</text>
</g>
<!-- 607&#45;&gt;608 -->
<g id="edge11" class="edge">
<title>607&#45;&gt;608</title>
<path fill="none" stroke="#000000" d="M552.52,-1302.06C553.7,-1299.95 554.97,-1297.7 556.25,-1295.41"/>
<polygon fill="#000000" stroke="#000000" points="559.2,-1297.32 561.04,-1286.88 553.09,-1293.89 559.2,-1297.32"/>
</g>
<!-- 609 -->
<g id="node12" class="node">
<title>609</title>
<polygon fill="#ffffff" stroke="#000000" points="675.54,-1242.14 476.83,-1242.14 473.94,-1239.25 473.94,-1216.14 672.65,-1216.14 675.54,-1219.03 675.54,-1242.14"/>
<polyline fill="none" stroke="#000000" points="672.65,-1239.25 473.94,-1239.25"/>
<polyline fill="none" stroke="#000000" points="672.65,-1239.25 672.65,-1216.14"/>
<polyline fill="none" stroke="#000000" points="672.65,-1239.25 675.54,-1242.14"/>
<text text-anchor="middle" x="574.74" y="-1224.84" font-family="Meiryo UI" font-size="14.00">void* x0_5 = readdir(x0)</text>
</g>
<!-- 608&#45;&gt;609 -->
<g id="edge12" class="edge">
<title>608&#45;&gt;609</title>
<path fill="none" stroke="#000000" d="M570.51,-1259.06C570.76,-1257.36 571.02,-1255.56 571.29,-1253.73"/>
<polygon fill="#000000" stroke="#000000" points="574.72,-1254.46 572.71,-1244.06 567.8,-1253.45 574.72,-1254.46"/>
</g>
<!-- 610 -->
<g id="node13" class="node">
<title>610</title>
<polygon fill="#ffffff" stroke="#000000" points="586.74,-1199.14 458.17,-1178.57 586.74,-1158 715.31,-1178.57 586.74,-1199.14"/>
<text text-anchor="middle" x="586.74" y="-1174.27" font-family="Meiryo UI" font-size="14.00">x0_5 != 0</text>
</g>
<!-- 609&#45;&gt;610 -->
<g id="edge13" class="edge">
<title>609&#45;&gt;610</title>
<path fill="none" stroke="#000000" d="M577.77,-1215.89C578.23,-1214.03 578.72,-1212.04 579.23,-1210"/>
<polygon fill="#000000" stroke="#000000" points="582.62,-1210.84 581.62,-1200.29 575.83,-1209.16 582.62,-1210.84"/>
</g>
<!-- 611 -->
<g id="node14" class="node">
<title>611</title>
<polygon fill="#d0c0ff" stroke="#000000" points="774.35,-1124 399.14,-1124 370.74,-1100 802.74,-1100 774.35,-1124"/>
<text text-anchor="middle" x="586.74" y="-1107.7" font-family="Meiryo UI" font-size="14.00">do</text>
</g>
<!-- 610&#45;&gt;611 -->
<g id="edge14" class="edge">
<title>610&#45;&gt;611</title>
<path fill="none" stroke="#000000" d="M586.74,-1157.49C586.74,-1150.56 586.74,-1142.74 586.74,-1135.62"/>
<polygon fill="#000000" stroke="#000000" points="590.24,-1135.74 586.74,-1125.74 583.24,-1135.74 590.24,-1135.74"/>
<text text-anchor="middle" x="598.74" y="-1136.7" font-family="Meiryo UI" font-size="14.00">Yes</text>
</g>
<!-- 626 -->
<g id="node30" class="node">
<title>626</title>
<ellipse fill="#000000" stroke="#000000" cx="634.74" cy="-365" rx="5.14" ry="5.14"/>
</g>
<!-- 610&#45;&gt;626 -->
<g id="edge15" class="edge">
<title>610&#45;&gt;626</title>
<path fill="none" stroke="#000000" d="M699.66,-1175.64C791.43,-1170.9 905.74,-1156.3 905.74,-1113 905.74,-1113 905.74,-1113 905.74,-398.14 905.74,-372.37 710.02,-367.19 651.24,-366.21"/>
<polygon fill="#000000" stroke="#000000" points="651.48,-362.72 641.43,-366.07 651.38,-369.72 651.48,-362.72"/>
<text text-anchor="middle" x="915.12" y="-671.13" font-family="Meiryo UI" font-size="14.00">No</text>
</g>
<!-- 612 -->
<g id="node15" class="node">
<title>612</title>
<polygon fill="#ffffff" stroke="#000000" points="700.49,-1083 472.99,-1083 472.99,-1057 700.49,-1057 700.49,-1083"/>
<text text-anchor="middle" x="586.74" y="-1065.7" font-family="Meiryo UI" font-size="14.00">char* x21_2 = (x0_5 + 0x13)</text>
</g>
<!-- 611&#45;&gt;612 -->
<g id="edge16" class="edge">
<title>611&#45;&gt;612</title>
<path fill="none" stroke="#000000" d="M586.74,-1099.64C586.74,-1098.06 586.74,-1096.38 586.74,-1094.66"/>
<polygon fill="#000000" stroke="#000000" points="590.24,-1094.88 586.74,-1084.88 583.24,-1094.88 590.24,-1094.88"/>
</g>
<!-- 613 -->
<g id="node16" class="node">
<title>613</title>
<polygon fill="#ffffff" stroke="#000000" points="586.74,-1040 442.23,-1019.43 586.74,-998.86 731.26,-1019.43 586.74,-1040"/>
<text text-anchor="middle" x="586.74" y="-1015.13" font-family="Meiryo UI" font-size="14.00">*x21_2 != 0x2e</text>
</g>
<!-- 612&#45;&gt;613 -->
<g id="edge17" class="edge">
<title>612&#45;&gt;613</title>
<path fill="none" stroke="#000000" d="M586.74,-1056.74C586.74,-1055.2 586.74,-1053.57 586.74,-1051.88"/>
<polygon fill="#000000" stroke="#000000" points="590.24,-1051.94 586.74,-1041.94 583.24,-1051.94 590.24,-1051.94"/>
</g>
<!-- 614 -->
<g id="node17" class="node">
<title>614</title>
<ellipse fill="#000000" stroke="#000000" cx="409.74" cy="-636.43" rx="5.14" ry="5.14"/>
</g>
<!-- 613&#45;&gt;614 -->
<g id="edge18" class="edge">
<title>613&#45;&gt;614</title>
<path fill="none" stroke="#000000" d="M483.23,-1013.14C404.19,-1006.17 308.74,-990.05 308.74,-952.86 308.74,-952.86 308.74,-952.86 308.74,-674.43 308.74,-656.61 364.84,-644.8 393.42,-639.94"/>
<polygon fill="#000000" stroke="#000000" points="393.78,-643.43 403.1,-638.4 392.67,-636.52 393.78,-643.43"/>
<text text-anchor="middle" x="320.74" y="-821.84" font-family="Meiryo UI" font-size="14.00">Yes</text>
</g>
<!-- 618 -->
<g id="node21" class="node">
<title>618</title>
<polygon fill="#ffffff" stroke="#000000" points="715.24,-964.86 468.24,-964.86 468.24,-938.86 715.24,-938.86 715.24,-964.86"/>
<text text-anchor="middle" x="591.74" y="-947.56" font-family="Meiryo UI" font-size="14.00">uint32_t x8_2 = *(x0_5 + 0x14)</text>
</g>
<!-- 613&#45;&gt;618 -->
<g id="edge19" class="edge">
<title>613&#45;&gt;618</title>
<path fill="none" stroke="#000000" d="M588.24,-998.75C588.77,-991.79 589.38,-983.89 589.93,-976.63"/>
<polygon fill="#000000" stroke="#000000" points="593.41,-977.03 590.68,-966.8 586.43,-976.5 593.41,-977.03"/>
<text text-anchor="middle" x="599.12" y="-977.56" font-family="Meiryo UI" font-size="14.00">No</text>
</g>
<!-- 800 -->
<g id="node18" class="node">
<title>800</title>
<polygon fill="#ffffff" stroke="#ff0000" points="469.09,-610.43 354.4,-610.43 354.4,-584.43 469.09,-584.43 469.09,-610.43"/>
<text text-anchor="middle" x="411.74" y="-593.13" font-family="Meiryo UI" font-size="14.00">label_29cc:</text>
</g>
<!-- 614&#45;&gt;800 -->
<g id="edge20" class="edge">
<title>614&#45;&gt;800</title>
<path fill="none" stroke="#000000" d="M409.99,-630.89C410.12,-628.46 410.29,-625.26 410.48,-621.82"/>
<polygon fill="#000000" stroke="#000000" points="413.96,-622.32 411,-612.14 406.97,-621.94 413.96,-622.32"/>
</g>
<!-- 615 -->
<g id="node19" class="node">
<title>615</title>
<polygon fill="#ffffff" stroke="#000000" points="661.24,-567.43 195.13,-567.43 192.24,-564.54 192.24,-541.43 658.35,-541.43 661.24,-544.32 661.24,-567.43"/>
<polyline fill="none" stroke="#000000" points="658.35,-564.54 192.24,-564.54"/>
<polyline fill="none" stroke="#000000" points="658.35,-564.54 658.35,-541.43"/>
<polyline fill="none" stroke="#000000" points="658.35,-564.54 661.24,-567.43"/>
<text text-anchor="middle" x="426.74" y="-550.13" font-family="Meiryo UI" font-size="14.00">strncpy(x20_2, x21_2, (0x1000 &#45; strnlen(&amp;var_1048, 0x1000)))</text>
</g>
<!-- 800&#45;&gt;615 -->
<g id="edge21" class="edge">
<title>800&#45;&gt;615</title>
<path fill="none" stroke="#000000" d="M416.16,-584.35C416.85,-582.48 417.57,-580.5 418.31,-578.49"/>
<polygon fill="#000000" stroke="#000000" points="421.53,-579.86 421.68,-569.27 414.96,-577.46 421.53,-579.86"/>
</g>
<!-- 616 -->
<g id="node20" class="node">
<title>616</title>
<polygon fill="#ffffff" stroke="#000000" points="629.74,-524.43 418.63,-524.43 415.74,-521.54 415.74,-498.43 626.85,-498.43 629.74,-501.32 629.74,-524.43"/>
<polyline fill="none" stroke="#000000" points="626.85,-521.54 415.74,-521.54"/>
<polyline fill="none" stroke="#000000" points="626.85,-521.54 626.85,-498.43"/>
<polyline fill="none" stroke="#000000" points="626.85,-521.54 629.74,-524.43"/>
<text text-anchor="middle" x="522.74" y="-507.13" font-family="Meiryo UI" font-size="14.00">open_keyboard(&amp;var_1048)</text>
</g>
<!-- 615&#45;&gt;616 -->
<g id="edge22" class="edge">
<title>615&#45;&gt;616</title>
<path fill="none" stroke="#000000" d="M455.81,-541.02C464.45,-537.32 474.08,-533.21 483.27,-529.29"/>
<polygon fill="#000000" stroke="#000000" points="484.56,-532.54 492.39,-525.39 481.81,-526.1 484.56,-532.54"/>
</g>
<!-- 624 -->
<g id="node27" class="node">
<title>624</title>
<ellipse fill="#000000" stroke="#000000" cx="675.74" cy="-476.29" rx="5.14" ry="5.14"/>
</g>
<!-- 616&#45;&gt;624 -->
<g id="edge23" class="edge">
<title>616&#45;&gt;624</title>
<path fill="none" stroke="#000000" d="M580.15,-497.99C608.53,-491.84 640.67,-484.88 659.51,-480.8"/>
<polygon fill="#000000" stroke="#000000" points="660.13,-484.25 669.16,-478.71 658.65,-477.41 660.13,-484.25"/>
</g>
<!-- 619 -->
<g id="node22" class="node">
<title>619</title>
<polygon fill="#ffffff" stroke="#000000" points="593.74,-921.86 465.17,-901.29 593.74,-880.71 722.31,-901.29 593.74,-921.86"/>
<text text-anchor="middle" x="593.74" y="-896.99" font-family="Meiryo UI" font-size="14.00">x8_2 != 0</text>
</g>
<!-- 618&#45;&gt;619 -->
<g id="edge24" class="edge">
<title>618&#45;&gt;619</title>
<path fill="none" stroke="#000000" d="M592.25,-938.6C592.32,-936.94 592.39,-935.18 592.46,-933.37"/>
<polygon fill="#000000" stroke="#000000" points="595.96,-933.56 592.87,-923.42 588.96,-933.27 595.96,-933.56"/>
</g>
<!-- 620 -->
<g id="node23" class="node">
<title>620</title>
<polygon fill="#ffffff" stroke="#000000" points="593.74,-846.71 455.91,-826.14 593.74,-805.57 731.57,-826.14 593.74,-846.71"/>
<text text-anchor="middle" x="593.74" y="-821.84" font-family="Meiryo UI" font-size="14.00">x8_2 != 0x2e</text>
</g>
<!-- 619&#45;&gt;620 -->
<g id="edge25" class="edge">
<title>619&#45;&gt;620</title>
<path fill="none" stroke="#000000" d="M593.74,-880.3C593.74,-873.53 593.74,-865.79 593.74,-858.36"/>
<polygon fill="#000000" stroke="#000000" points="597.24,-858.62 593.74,-848.62 590.24,-858.62 597.24,-858.62"/>
<text text-anchor="middle" x="605.74" y="-859.41" font-family="Meiryo UI" font-size="14.00">Yes</text>
</g>
<!-- 619&#45;&gt;624 -->
<g id="edge26" class="edge">
<title>619&#45;&gt;624</title>
<path fill="none" stroke="#000000" d="M661.55,-891.13C726.52,-880.41 814.74,-859.83 814.74,-827.14 814.74,-827.14 814.74,-827.14 814.74,-510.43 814.74,-485.46 728.81,-479.27 692.08,-477.76"/>
<polygon fill="#000000" stroke="#000000" points="692.65,-474.28 682.53,-477.44 692.41,-481.27 692.65,-474.28"/>
<text text-anchor="middle" x="824.12" y="-632.13" font-family="Meiryo UI" font-size="14.00">No</text>
</g>
<!-- 621 -->
<g id="node24" class="node">
<title>621</title>
<polygon fill="#ffffff" stroke="#ff0000" points="475.46,-722.43 334.03,-722.43 334.03,-696.43 475.46,-696.43 475.46,-722.43"/>
<text text-anchor="middle" x="404.74" y="-705.13" font-family="Meiryo UI" font-size="14.00">goto label_29cc</text>
</g>
<!-- 620&#45;&gt;621 -->
<g id="edge27" class="edge">
<title>620&#45;&gt;621</title>
<path fill="none" stroke="#000000" d="M511.79,-817.42C479.08,-810.31 443.6,-796.86 419.74,-771.57 410.31,-761.57 406.52,-746.63 405.11,-734.03"/>
<polygon fill="#000000" stroke="#000000" points="408.63,-734.15 404.48,-724.4 401.64,-734.61 408.63,-734.15"/>
<text text-anchor="middle" x="464.74" y="-784.27" font-family="Meiryo UI" font-size="14.00">Yes</text>
</g>
<!-- 622 -->
<g id="node25" class="node">
<title>622</title>
<polygon fill="#ffffff" stroke="#000000" points="598.74,-771.57 437.51,-751 598.74,-730.43 759.97,-751 598.74,-771.57"/>
<text text-anchor="middle" x="598.74" y="-746.7" font-family="Meiryo UI" font-size="14.00">*(x0_5 + 0x15) != 0</text>
</g>
<!-- 620&#45;&gt;622 -->
<g id="edge28" class="edge">
<title>620&#45;&gt;622</title>
<path fill="none" stroke="#000000" d="M595.08,-805.54C595.55,-798.65 596.09,-790.74 596.61,-783.14"/>
<polygon fill="#000000" stroke="#000000" points="600.11,-783.38 597.3,-773.17 593.12,-782.9 600.11,-783.38"/>
<text text-anchor="middle" x="606.12" y="-784.27" font-family="Meiryo UI" font-size="14.00">No</text>
</g>
<!-- 621&#45;&gt;614 -->
<g id="edge29" class="edge">
<title>621&#45;&gt;614</title>
<path fill="none" stroke="#000000" d="M405.61,-696.06C406.45,-684.15 407.73,-666.08 408.64,-653.15"/>
<polygon fill="#000000" stroke="#000000" points="412.1,-653.74 409.31,-643.52 405.12,-653.25 412.1,-653.74"/>
</g>
<!-- 623 -->
<g id="node26" class="node">
<title>623</title>
<polygon fill="#ffffff" stroke="#ff0000" points="628.46,-688.43 487.03,-688.43 487.03,-662.43 628.46,-662.43 628.46,-688.43"/>
<text text-anchor="middle" x="557.74" y="-671.13" font-family="Meiryo UI" font-size="14.00">goto label_29cc</text>
</g>
<!-- 622&#45;&gt;623 -->
<g id="edge30" class="edge">
<title>622&#45;&gt;623</title>
<path fill="none" stroke="#000000" d="M588.4,-731.43C582.77,-721.35 575.79,-708.81 569.91,-698.26"/>
<polygon fill="#000000" stroke="#000000" points="573.15,-696.88 565.22,-689.85 567.03,-700.29 573.15,-696.88"/>
<text text-anchor="middle" x="594.74" y="-705.13" font-family="Meiryo UI" font-size="14.00">Yes</text>
</g>
<!-- 622&#45;&gt;624 -->
<g id="edge31" class="edge">
<title>622&#45;&gt;624</title>
<path fill="none" stroke="#000000" d="M655.32,-737.25C685.61,-726.72 716.74,-708.18 716.74,-676.43 716.74,-676.43 716.74,-676.43 716.74,-510.43 716.74,-496.84 702.96,-487.87 691.37,-482.73"/>
<polygon fill="#000000" stroke="#000000" points="692.78,-479.52 682.19,-479.26 690.3,-486.06 692.78,-479.52"/>
<text text-anchor="middle" x="726.12" y="-593.13" font-family="Meiryo UI" font-size="14.00">No</text>
</g>
<!-- 623&#45;&gt;614 -->
<g id="edge32" class="edge">
<title>623&#45;&gt;614</title>
<path fill="none" stroke="#000000" d="M508.05,-662.01C479.39,-654.84 445.27,-646.31 425.69,-641.42"/>
<polygon fill="#000000" stroke="#000000" points="426.73,-638.07 416.18,-639.04 425.03,-644.86 426.73,-638.07"/>
</g>
<!-- 801 -->
<g id="node28" class="node">
<title>801</title>
<polygon fill="#ffffff" stroke="#000000" points="730.49,-454.14 571.89,-454.14 569,-451.25 569,-428.14 727.6,-428.14 730.49,-431.03 730.49,-454.14"/>
<polyline fill="none" stroke="#000000" points="727.6,-451.25 569,-451.25"/>
<polyline fill="none" stroke="#000000" points="727.6,-451.25 727.6,-428.14"/>
<polyline fill="none" stroke="#000000" points="727.6,-451.25 730.49,-454.14"/>
<text text-anchor="middle" x="649.74" y="-436.84" font-family="Meiryo UI" font-size="14.00">x0_5 = readdir(x0)</text>
</g>
<!-- 624&#45;&gt;801 -->
<g id="edge33" class="edge">
<title>624&#45;&gt;801</title>
<path fill="none" stroke="#000000" d="M672.96,-471.74C671.31,-469.64 669.07,-466.78 666.63,-463.67"/>
<polygon fill="#000000" stroke="#000000" points="669.4,-461.53 660.47,-455.82 663.89,-465.85 669.4,-461.53"/>
</g>
<!-- 625 -->
<g id="node29" class="node">
<title>625</title>
<polygon fill="#d0c0ff" stroke="#000000" points="850.74,-411.14 418.74,-411.14 447.14,-387.14 822.35,-387.14 850.74,-411.14"/>
<text text-anchor="middle" x="634.74" y="-394.84" font-family="Meiryo UI" font-size="14.00">while (x0_5 != 0)</text>
</g>
<!-- 801&#45;&gt;625 -->
<g id="edge34" class="edge">
<title>801&#45;&gt;625</title>
<path fill="none" stroke="#000000" d="M645.16,-427.92C644.45,-426.04 643.71,-424.05 642.95,-422.03"/>
<polygon fill="#000000" stroke="#000000" points="646.31,-421.02 639.52,-412.89 639.76,-423.48 646.31,-421.02"/>
</g>
<!-- 625&#45;&gt;626 -->
<g id="edge35" class="edge">
<title>625&#45;&gt;626</title>
<path fill="none" stroke="#000000" d="M634.74,-386.9C634.74,-385.31 634.74,-383.65 634.74,-382"/>
<polygon fill="#000000" stroke="#000000" points="638.24,-382 634.74,-372 631.24,-382 638.24,-382"/>
</g>
<!-- 802 -->
<g id="node31" class="node">
<title>802</title>
<polygon fill="#ffffff" stroke="#000000" points="504.43,-342.86 385.95,-342.86 383.06,-339.97 383.06,-316.86 501.54,-316.86 504.43,-319.75 504.43,-342.86"/>
<polyline fill="none" stroke="#000000" points="501.54,-339.97 383.06,-339.97"/>
<polyline fill="none" stroke="#000000" points="501.54,-339.97 501.54,-316.86"/>
<polyline fill="none" stroke="#000000" points="501.54,-339.97 504.43,-342.86"/>
<text text-anchor="middle" x="443.74" y="-325.56" font-family="Meiryo UI" font-size="14.00">closedir(x0)</text>
</g>
<!-- 626&#45;&gt;802 -->
<g id="edge36" class="edge">
<title>626&#45;&gt;802</title>
<path fill="none" stroke="#000000" d="M629.63,-363.11C613.34,-360.29 561.01,-351.21 516.01,-343.4"/>
<polygon fill="#000000" stroke="#000000" points="516.7,-339.96 506.25,-341.7 515.5,-346.86 516.7,-339.96"/>
</g>
<!-- 627 -->
<g id="node32" class="node">
<title>627</title>
<polygon fill="#ffffff" stroke="#000000" points="398.74,-299.86 290.74,-299.86 290.74,-273.86 398.74,-273.86 398.74,-299.86"/>
<text text-anchor="middle" x="344.74" y="-282.56" font-family="Meiryo UI" font-size="14.00">result = 0</text>
</g>
<!-- 802&#45;&gt;627 -->
<g id="edge37" class="edge">
<title>802&#45;&gt;627</title>
<path fill="none" stroke="#000000" d="M413.77,-316.44C404.76,-312.71 394.71,-308.55 385.14,-304.59"/>
<polygon fill="#000000" stroke="#000000" points="386.59,-301.4 376.01,-300.81 383.91,-307.87 386.59,-301.4"/>
</g>
<!-- 627&#45;&gt;628 -->
<g id="edge38" class="edge">
<title>627&#45;&gt;628</title>
<path fill="none" stroke="#000000" d="M290.4,-276.23C250.92,-269.23 200.05,-260.21 174.28,-255.65"/>
<polygon fill="#000000" stroke="#000000" points="174.98,-252.22 164.53,-253.92 173.76,-259.11 174.98,-252.22"/>
</g>
<!-- 803 -->
<g id="node34" class="node">
<title>803</title>
<polygon fill="#ffffff" stroke="#000000" points="157.74,-229.57 6.54,-209 157.74,-188.43 308.94,-209 157.74,-229.57"/>
<text text-anchor="middle" x="157.74" y="-204.7" font-family="Meiryo UI" font-size="14.00">(x22 &#45; x22) != 0</text>
</g>
<!-- 628&#45;&gt;803 -->
<g id="edge39" class="edge">
<title>628&#45;&gt;803</title>
<path fill="none" stroke="#000000" d="M157.74,-246.36C157.74,-244.85 157.74,-243.03 157.74,-241.01"/>
<polygon fill="#000000" stroke="#000000" points="161.24,-241.37 157.74,-231.37 154.24,-241.37 161.24,-241.37"/>
</g>
<!-- 629 -->
<g id="node35" class="node">
<title>629</title>
<polygon fill="#ffffff" stroke="#000000" points="161.49,-154.43 2.89,-154.43 0,-151.54 0,-128.43 158.6,-128.43 161.49,-131.32 161.49,-154.43"/>
<polyline fill="none" stroke="#000000" points="158.6,-151.54 0,-151.54"/>
<polyline fill="none" stroke="#000000" points="158.6,-151.54 158.6,-128.43"/>
<polyline fill="none" stroke="#000000" points="158.6,-151.54 161.49,-154.43"/>
<text text-anchor="middle" x="80.74" y="-137.13" font-family="Meiryo UI" font-size="14.00">__stack_chk_fail()</text>
</g>
<!-- 803&#45;&gt;629 -->
<g id="edge40" class="edge">
<title>803&#45;&gt;629</title>
<path fill="none" stroke="#000000" d="M137.51,-190.77C127.07,-181.88 114.29,-171 103.5,-161.81"/>
<polygon fill="#000000" stroke="#000000" points="106.04,-159.37 96.16,-155.56 101.5,-164.7 106.04,-159.37"/>
<text text-anchor="middle" x="136.74" y="-167.13" font-family="Meiryo UI" font-size="14.00">Yes</text>
</g>
<!-- 630 -->
<g id="node36" class="node">
<title>630</title>
<ellipse fill="#000000" stroke="#000000" cx="156.74" cy="-106.29" rx="5.14" ry="5.14"/>
</g>
<!-- 803&#45;&gt;630 -->
<g id="edge41" class="edge">
<title>803&#45;&gt;630</title>
<path fill="none" stroke="#000000" d="M169.66,-189.8C178.85,-173.33 188.62,-148.64 179.74,-128.43 177.64,-123.65 173.87,-119.47 169.98,-116.13"/>
<polygon fill="#000000" stroke="#000000" points="172.34,-113.51 162.18,-110.51 168.25,-119.19 172.34,-113.51"/>
<text text-anchor="middle" x="193.12" y="-137.13" font-family="Meiryo UI" font-size="14.00">No</text>
</g>
<!-- 629&#45;&gt;630 -->
<g id="edge42" class="edge">
<title>629&#45;&gt;630</title>
<path fill="none" stroke="#000000" d="M109.04,-128.09C120.07,-123.28 132.26,-117.96 141.56,-113.91"/>
<polygon fill="#000000" stroke="#000000" points="142.91,-117.14 150.68,-109.93 140.11,-110.72 142.91,-117.14"/>
</g>
<!-- 804 -->
<g id="node37" class="node">
<title>804</title>
<polygon fill="#ffffff" stroke="#000000" points="220.77,-84.14 92.71,-84.14 92.71,-58.14 220.77,-58.14 220.77,-84.14"/>
<text text-anchor="middle" x="156.74" y="-66.84" font-family="Meiryo UI" font-size="14.00">return result</text>
</g>
<!-- 630&#45;&gt;804 -->
<g id="edge43" class="edge">
<title>630&#45;&gt;804</title>
<path fill="none" stroke="#000000" d="M156.74,-100.68C156.74,-99.23 156.74,-97.53 156.74,-95.69"/>
<polygon fill="#000000" stroke="#000000" points="160.24,-95.93 156.74,-85.93 153.24,-95.93 160.24,-95.93"/>
</g>
<!-- 631 -->
<g id="node38" class="node">
<title>631</title>
<ellipse fill="#ffffff" stroke="#000000" cx="156.74" cy="-20.57" rx="72" ry="20.57"/>
<text text-anchor="middle" x="156.74" y="-16.27" font-family="Meiryo UI" font-size="14.00">END</text>
</g>
<!-- 804&#45;&gt;631 -->
<g id="edge44" class="edge">
<title>804&#45;&gt;631</title>
<path fill="none" stroke="#000000" d="M156.74,-57.89C156.74,-56.34 156.74,-54.71 156.74,-53.02"/>
<polygon fill="#000000" stroke="#000000" points="160.24,-53.09 156.74,-43.09 153.24,-53.09 160.24,-53.09"/>
</g>
</g>
</svg>
