<?xml version="1.0" encoding="UTF-8" standalone="no"?>
<!DOCTYPE svg PUBLIC "-//W3C//DTD SVG 1.1//EN"
 "http://www.w3.org/Graphics/SVG/1.1/DTD/svg11.dtd">
<!-- Generated by graphviz version 9.0.0 (20230911.1827)
 -->
<!-- Title: graph_name Pages: 1 -->
<svg width="385pt" height="153pt"
 viewBox="0.00 0.00 384.69 153.37" xmlns="http://www.w3.org/2000/svg" xmlns:xlink="http://www.w3.org/1999/xlink">
<g id="graph0" class="graph" transform="scale(1 1) rotate(0) translate(4 149.37)">
<title>graph_name</title>
<polygon fill="#f2f2f2" stroke="none" points="-4,4 -4,-149.37 380.69,-149.37 380.69,4 -4,4"/>
<!-- 141 -->
<g id="node1" class="node">
<title>141</title>
<ellipse fill="#ffffff" stroke="#000000" cx="150.26" cy="-114.26" rx="150.26" ry="31.11"/>
<text text-anchor="middle" x="150.26" y="-118.96" font-family="Meiryo UI" font-size="14.00">START</text>
<text text-anchor="middle" x="150.26" y="-100.96" font-family="Meiryo UI" font-size="14.00">int64_t opendir(char* arg1)</text>
</g>
<!-- 142 -->
<g id="node2" class="node">
<title>142</title>
<polygon fill="#ffffff" stroke="#000000" points="237.69,-75.14 65.72,-75.14 62.83,-72.25 62.83,-49.14 234.8,-49.14 237.69,-52.03 237.69,-75.14"/>
<polyline fill="none" stroke="#000000" points="234.8,-72.25 62.83,-72.25"/>
<polyline fill="none" stroke="#000000" points="234.8,-72.25 234.8,-49.14"/>
<polyline fill="none" stroke="#000000" points="234.8,-72.25 237.69,-75.14"/>
<text text-anchor="middle" x="150.26" y="-57.84" font-family="Meiryo UI" font-size="14.00">return opendir(arg1)</text>
</g>
<!-- 141&#45;&gt;142 -->
<g id="edge1" class="edge">
<title>141&#45;&gt;142</title>
<path fill="none" stroke="#000000" d="M150.26,-82.66C150.26,-82.5 150.26,-82.34 150.26,-82.17"/>
<polygon fill="#000000" stroke="#000000" points="153.76,-86.72 150.26,-76.72 146.76,-86.72 153.76,-86.72"/>
</g>
<!-- 143 -->
<g id="node3" class="node">
<title>143</title>
<ellipse fill="#ffffff" stroke="#000000" cx="150.26" cy="-20.57" rx="72" ry="20.57"/>
<text text-anchor="middle" x="150.26" y="-16.27" font-family="Meiryo UI" font-size="14.00">END</text>
</g>
<!-- 142&#45;&gt;143 -->
<g id="edge2" class="edge">
<title>142&#45;&gt;143</title>
<path fill="none" stroke="#000000" d="M150.26,-49.06C150.26,-48.91 150.26,-48.76 150.26,-48.61"/>
<polygon fill="#000000" stroke="#000000" points="153.76,-53.12 150.26,-43.12 146.76,-53.12 153.76,-53.12"/>
</g>
<!-- 959 -->
<g id="node4" class="node">
<title>959</title>
<polygon fill="#bbccff" stroke="none" points="376.69,-75.14 273.83,-75.14 273.83,-49.14 376.69,-49.14 376.69,-75.14"/>
<text text-anchor="start" x="281.83" y="-57.84" font-family="Meiryo UI" font-size="14.00">tailcall</text>
</g>
<!-- 142&#45;&gt;959 -->
<g id="edge3" class="edge">
<title>142&#45;&gt;959</title>
<path fill="none" stroke="#aaaaff" d="M238.1,-62.14C250.02,-62.14 261.93,-62.14 273.85,-62.14"/>
</g>
</g>
</svg>
