<?xml version="1.0" encoding="UTF-8" standalone="no"?>
<!DOCTYPE svg PUBLIC "-//W3C//DTD SVG 1.1//EN"
 "http://www.w3.org/Graphics/SVG/1.1/DTD/svg11.dtd">
<!-- Generated by graphviz version 9.0.0 (20230911.1827)
 -->
<!-- Title: graph_name Pages: 1 -->
<svg width="359pt" height="153pt"
 viewBox="0.00 0.00 359.05 153.37" xmlns="http://www.w3.org/2000/svg" xmlns:xlink="http://www.w3.org/1999/xlink">
<g id="graph0" class="graph" transform="scale(1 1) rotate(0) translate(4 149.37)">
<title>graph_name</title>
<polygon fill="#f2f2f2" stroke="none" points="-4,4 -4,-149.37 355.05,-149.37 355.05,4 -4,4"/>
<!-- 42 -->
<g id="node1" class="node">
<title>42</title>
<ellipse fill="#ffffff" stroke="#000000" cx="121.62" cy="-114.26" rx="121.62" ry="31.11"/>
<text text-anchor="middle" x="121.62" y="-118.96" font-family="Meiryo UI" font-size="14.00">START</text>
<text text-anchor="middle" x="121.62" y="-100.96" font-family="Meiryo UI" font-size="14.00">int64_t property_set()</text>
</g>
<!-- 43 -->
<g id="node2" class="node">
<title>43</title>
<polygon fill="#ffffff" stroke="#000000" points="212.39,-75.14 33.74,-75.14 30.85,-72.25 30.85,-49.14 209.5,-49.14 212.39,-52.03 212.39,-75.14"/>
<polyline fill="none" stroke="#000000" points="209.5,-72.25 30.85,-72.25"/>
<polyline fill="none" stroke="#000000" points="209.5,-72.25 209.5,-49.14"/>
<polyline fill="none" stroke="#000000" points="209.5,-72.25 212.39,-75.14"/>
<text text-anchor="middle" x="121.62" y="-57.84" font-family="Meiryo UI" font-size="14.00">return property_set()</text>
</g>
<!-- 42&#45;&gt;43 -->
<g id="edge1" class="edge">
<title>42&#45;&gt;43</title>
<path fill="none" stroke="#000000" d="M121.62,-82.66C121.62,-82.5 121.62,-82.34 121.62,-82.17"/>
<polygon fill="#000000" stroke="#000000" points="125.12,-86.72 121.62,-76.72 118.12,-86.72 125.12,-86.72"/>
</g>
<!-- 44 -->
<g id="node3" class="node">
<title>44</title>
<ellipse fill="#ffffff" stroke="#000000" cx="121.62" cy="-20.57" rx="72" ry="20.57"/>
<text text-anchor="middle" x="121.62" y="-16.27" font-family="Meiryo UI" font-size="14.00">END</text>
</g>
<!-- 43&#45;&gt;44 -->
<g id="edge2" class="edge">
<title>43&#45;&gt;44</title>
<path fill="none" stroke="#000000" d="M121.62,-49.06C121.62,-48.91 121.62,-48.76 121.62,-48.61"/>
<polygon fill="#000000" stroke="#000000" points="125.12,-53.12 121.62,-43.12 118.12,-53.12 125.12,-53.12"/>
</g>
<!-- 860 -->
<g id="node4" class="node">
<title>860</title>
<polygon fill="#bbccff" stroke="none" points="351.05,-75.14 248.19,-75.14 248.19,-49.14 351.05,-49.14 351.05,-75.14"/>
<text text-anchor="start" x="256.19" y="-57.84" font-family="Meiryo UI" font-size="14.00">tailcall</text>
</g>
<!-- 43&#45;&gt;860 -->
<g id="edge3" class="edge">
<title>43&#45;&gt;860</title>
<path fill="none" stroke="#aaaaff" d="M212.71,-62.14C224.59,-62.14 236.47,-62.14 248.36,-62.14"/>
</g>
</g>
</svg>
