<?xml version="1.0" encoding="UTF-8" standalone="no"?>
<!DOCTYPE svg PUBLIC "-//W3C//DTD SVG 1.1//EN"
 "http://www.w3.org/Graphics/SVG/1.1/DTD/svg11.dtd">
<!-- Generated by graphviz version 9.0.0 (20230911.1827)
 -->
<!-- Title: graph_name Pages: 1 -->
<svg width="361pt" height="153pt"
 viewBox="0.00 0.00 360.64 153.37" xmlns="http://www.w3.org/2000/svg" xmlns:xlink="http://www.w3.org/1999/xlink">
<g id="graph0" class="graph" transform="scale(1 1) rotate(0) translate(4 149.37)">
<title>graph_name</title>
<polygon fill="#f2f2f2" stroke="none" points="-4,4 -4,-149.37 356.64,-149.37 356.64,4 -4,4"/>
<!-- 45 -->
<g id="node1" class="node">
<title>45</title>
<ellipse fill="#ffffff" stroke="#000000" cx="123.21" cy="-114.26" rx="123.21" ry="31.11"/>
<text text-anchor="middle" x="123.21" y="-118.96" font-family="Meiryo UI" font-size="14.00">START</text>
<text text-anchor="middle" x="123.21" y="-100.96" font-family="Meiryo UI" font-size="14.00">int64_t property_get()</text>
</g>
<!-- 46 -->
<g id="node2" class="node">
<title>46</title>
<polygon fill="#ffffff" stroke="#000000" points="213.98,-75.14 35.33,-75.14 32.44,-72.25 32.44,-49.14 211.1,-49.14 213.98,-52.03 213.98,-75.14"/>
<polyline fill="none" stroke="#000000" points="211.1,-72.25 32.44,-72.25"/>
<polyline fill="none" stroke="#000000" points="211.1,-72.25 211.1,-49.14"/>
<polyline fill="none" stroke="#000000" points="211.1,-72.25 213.98,-75.14"/>
<text text-anchor="middle" x="123.21" y="-57.84" font-family="Meiryo UI" font-size="14.00">return property_get()</text>
</g>
<!-- 45&#45;&gt;46 -->
<g id="edge1" class="edge">
<title>45&#45;&gt;46</title>
<path fill="none" stroke="#000000" d="M123.21,-82.66C123.21,-82.5 123.21,-82.34 123.21,-82.17"/>
<polygon fill="#000000" stroke="#000000" points="126.71,-86.72 123.21,-76.72 119.71,-86.72 126.71,-86.72"/>
</g>
<!-- 47 -->
<g id="node3" class="node">
<title>47</title>
<ellipse fill="#ffffff" stroke="#000000" cx="123.21" cy="-20.57" rx="72" ry="20.57"/>
<text text-anchor="middle" x="123.21" y="-16.27" font-family="Meiryo UI" font-size="14.00">END</text>
</g>
<!-- 46&#45;&gt;47 -->
<g id="edge2" class="edge">
<title>46&#45;&gt;47</title>
<path fill="none" stroke="#000000" d="M123.21,-49.06C123.21,-48.91 123.21,-48.76 123.21,-48.61"/>
<polygon fill="#000000" stroke="#000000" points="126.71,-53.12 123.21,-43.12 119.71,-53.12 126.71,-53.12"/>
</g>
<!-- 863 -->
<g id="node4" class="node">
<title>863</title>
<polygon fill="#bbccff" stroke="none" points="352.64,-75.14 249.78,-75.14 249.78,-49.14 352.64,-49.14 352.64,-75.14"/>
<text text-anchor="start" x="257.78" y="-57.84" font-family="Meiryo UI" font-size="14.00">tailcall</text>
</g>
<!-- 46&#45;&gt;863 -->
<g id="edge3" class="edge">
<title>46&#45;&gt;863</title>
<path fill="none" stroke="#aaaaff" d="M214.3,-62.14C226.18,-62.14 238.06,-62.14 249.95,-62.14"/>
</g>
</g>
</svg>
