<?xml version="1.0" encoding="UTF-8" standalone="no"?>
<!DOCTYPE svg PUBLIC "-//W3C//DTD SVG 1.1//EN"
 "http://www.w3.org/Graphics/SVG/1.1/DTD/svg11.dtd">
<!-- Generated by graphviz version 9.0.0 (20230911.1827)
 -->
<!-- Title: graph_name Pages: 1 -->
<svg width="653pt" height="153pt"
 viewBox="0.00 0.00 653.23 153.37" xmlns="http://www.w3.org/2000/svg" xmlns:xlink="http://www.w3.org/1999/xlink">
<g id="graph0" class="graph" transform="scale(1 1) rotate(0) translate(4 149.37)">
<title>graph_name</title>
<polygon fill="#f2f2f2" stroke="none" points="-4,4 -4,-149.37 649.23,-149.37 649.23,4 -4,4"/>
<!-- 96 -->
<g id="node1" class="node">
<title>96</title>
<ellipse fill="#ffffff" stroke="#000000" cx="322.62" cy="-114.26" rx="322.62" ry="31.11"/>
<text text-anchor="middle" x="322.62" y="-118.96" font-family="Meiryo UI" font-size="14.00">START</text>
<text text-anchor="middle" x="322.62" y="-100.96" font-family="Meiryo UI" font-size="14.00">int64_t pthread_mutex_unlock(union pthread_mutex_t* arg1)</text>
</g>
<!-- 97 -->
<g id="node2" class="node">
<title>97</title>
<polygon fill="#ffffff" stroke="#000000" points="457.74,-75.14 190.38,-75.14 187.49,-72.25 187.49,-49.14 454.85,-49.14 457.74,-52.03 457.74,-75.14"/>
<polyline fill="none" stroke="#000000" points="454.85,-72.25 187.49,-72.25"/>
<polyline fill="none" stroke="#000000" points="454.85,-72.25 454.85,-49.14"/>
<polyline fill="none" stroke="#000000" points="454.85,-72.25 457.74,-75.14"/>
<text text-anchor="middle" x="322.62" y="-57.84" font-family="Meiryo UI" font-size="14.00">return pthread_mutex_unlock(arg1)</text>
</g>
<!-- 96&#45;&gt;97 -->
<g id="edge1" class="edge">
<title>96&#45;&gt;97</title>
<path fill="none" stroke="#000000" d="M322.62,-82.66C322.62,-82.5 322.62,-82.34 322.62,-82.17"/>
<polygon fill="#000000" stroke="#000000" points="326.12,-86.72 322.62,-76.72 319.12,-86.72 326.12,-86.72"/>
</g>
<!-- 98 -->
<g id="node3" class="node">
<title>98</title>
<ellipse fill="#ffffff" stroke="#000000" cx="322.62" cy="-20.57" rx="72" ry="20.57"/>
<text text-anchor="middle" x="322.62" y="-16.27" font-family="Meiryo UI" font-size="14.00">END</text>
</g>
<!-- 97&#45;&gt;98 -->
<g id="edge2" class="edge">
<title>97&#45;&gt;98</title>
<path fill="none" stroke="#000000" d="M322.62,-49.06C322.62,-48.91 322.62,-48.76 322.62,-48.61"/>
<polygon fill="#000000" stroke="#000000" points="326.12,-53.12 322.62,-43.12 319.12,-53.12 326.12,-53.12"/>
</g>
<!-- 914 -->
<g id="node4" class="node">
<title>914</title>
<polygon fill="#bbccff" stroke="none" points="597.05,-75.14 494.19,-75.14 494.19,-49.14 597.05,-49.14 597.05,-75.14"/>
<text text-anchor="start" x="502.19" y="-57.84" font-family="Meiryo UI" font-size="14.00">tailcall</text>
</g>
<!-- 97&#45;&gt;914 -->
<g id="edge3" class="edge">
<title>97&#45;&gt;914</title>
<path fill="none" stroke="#aaaaff" d="M458.07,-62.14C470.16,-62.14 482.24,-62.14 494.32,-62.14"/>
</g>
</g>
</svg>
