<?xml version="1.0" encoding="UTF-8" standalone="no"?>
<!DOCTYPE svg PUBLIC "-//W3C//DTD SVG 1.1//EN"
 "http://www.w3.org/Graphics/SVG/1.1/DTD/svg11.dtd">
<!-- Generated by graphviz version 9.0.0 (20230911.1827)
 -->
<!-- Title: graph_name Pages: 1 -->
<svg width="628pt" height="153pt"
 viewBox="0.00 0.00 627.78 153.37" xmlns="http://www.w3.org/2000/svg" xmlns:xlink="http://www.w3.org/1999/xlink">
<g id="graph0" class="graph" transform="scale(1 1) rotate(0) translate(4 149.37)">
<title>graph_name</title>
<polygon fill="#f2f2f2" stroke="none" points="-4,4 -4,-149.37 623.78,-149.37 623.78,4 -4,4"/>
<!-- 90 -->
<g id="node1" class="node">
<title>90</title>
<ellipse fill="#ffffff" stroke="#000000" cx="309.89" cy="-114.26" rx="309.89" ry="31.11"/>
<text text-anchor="middle" x="309.89" y="-118.96" font-family="Meiryo UI" font-size="14.00">START</text>
<text text-anchor="middle" x="309.89" y="-100.96" font-family="Meiryo UI" font-size="14.00">int64_t pthread_mutex_lock(union pthread_mutex_t* arg1)</text>
</g>
<!-- 91 -->
<g id="node2" class="node">
<title>91</title>
<polygon fill="#ffffff" stroke="#000000" points="436.01,-75.14 186.65,-75.14 183.76,-72.25 183.76,-49.14 433.13,-49.14 436.01,-52.03 436.01,-75.14"/>
<polyline fill="none" stroke="#000000" points="433.13,-72.25 183.76,-72.25"/>
<polyline fill="none" stroke="#000000" points="433.13,-72.25 433.13,-49.14"/>
<polyline fill="none" stroke="#000000" points="433.13,-72.25 436.01,-75.14"/>
<text text-anchor="middle" x="309.89" y="-57.84" font-family="Meiryo UI" font-size="14.00">return pthread_mutex_lock(arg1)</text>
</g>
<!-- 90&#45;&gt;91 -->
<g id="edge1" class="edge">
<title>90&#45;&gt;91</title>
<path fill="none" stroke="#000000" d="M309.89,-82.66C309.89,-82.5 309.89,-82.34 309.89,-82.17"/>
<polygon fill="#000000" stroke="#000000" points="313.39,-86.72 309.89,-76.72 306.39,-86.72 313.39,-86.72"/>
</g>
<!-- 92 -->
<g id="node3" class="node">
<title>92</title>
<ellipse fill="#ffffff" stroke="#000000" cx="309.89" cy="-20.57" rx="72" ry="20.57"/>
<text text-anchor="middle" x="309.89" y="-16.27" font-family="Meiryo UI" font-size="14.00">END</text>
</g>
<!-- 91&#45;&gt;92 -->
<g id="edge2" class="edge">
<title>91&#45;&gt;92</title>
<path fill="none" stroke="#000000" d="M309.89,-49.06C309.89,-48.91 309.89,-48.76 309.89,-48.61"/>
<polygon fill="#000000" stroke="#000000" points="313.39,-53.12 309.89,-43.12 306.39,-53.12 313.39,-53.12"/>
</g>
<!-- 908 -->
<g id="node4" class="node">
<title>908</title>
<polygon fill="#bbccff" stroke="none" points="575.32,-75.14 472.46,-75.14 472.46,-49.14 575.32,-49.14 575.32,-75.14"/>
<text text-anchor="start" x="480.46" y="-57.84" font-family="Meiryo UI" font-size="14.00">tailcall</text>
</g>
<!-- 91&#45;&gt;908 -->
<g id="edge3" class="edge">
<title>91&#45;&gt;908</title>
<path fill="none" stroke="#aaaaff" d="M436.12,-62.14C448.34,-62.14 460.57,-62.14 472.8,-62.14"/>
</g>
</g>
</svg>
