<?xml version="1.0" encoding="UTF-8" standalone="no"?>
<!DOCTYPE svg PUBLIC "-//W3C//DTD SVG 1.1//EN"
 "http://www.w3.org/Graphics/SVG/1.1/DTD/svg11.dtd">
<!-- Generated by graphviz version 9.0.0 (20230911.1827)
 -->
<!-- Title: graph_name Pages: 1 -->
<svg width="619pt" height="179pt"
 viewBox="0.00 0.00 619.29 178.82" xmlns="http://www.w3.org/2000/svg" xmlns:xlink="http://www.w3.org/1999/xlink">
<g id="graph0" class="graph" transform="scale(1 1) rotate(0) translate(4 174.82)">
<title>graph_name</title>
<polygon fill="#f2f2f2" stroke="none" points="-4,4 -4,-174.82 615.29,-174.82 615.29,4 -4,4"/>
<!-- 117 -->
<g id="node1" class="node">
<title>117</title>
<ellipse fill="#ffffff" stroke="#000000" cx="305.65" cy="-126.98" rx="305.65" ry="43.84"/>
<text text-anchor="middle" x="305.65" y="-140.68" font-family="Meiryo UI" font-size="14.00">START</text>
<text text-anchor="middle" x="305.65" y="-122.68" font-family="Meiryo UI" font-size="14.00">int64_t pthread_mutex_init(union pthread_mutex_t* arg1,</text>
<text text-anchor="middle" x="305.65" y="-104.68" font-family="Meiryo UI" font-size="14.00"> union pthread_mutexattr_t* arg2)</text>
</g>
<!-- 118 -->
<g id="node2" class="node">
<title>118</title>
<polygon fill="#ffffff" stroke="#000000" points="450.15,-75.14 164.04,-75.14 161.15,-72.25 161.15,-49.14 447.26,-49.14 450.15,-52.03 450.15,-75.14"/>
<polyline fill="none" stroke="#000000" points="447.26,-72.25 161.15,-72.25"/>
<polyline fill="none" stroke="#000000" points="447.26,-72.25 447.26,-49.14"/>
<polyline fill="none" stroke="#000000" points="447.26,-72.25 450.15,-75.14"/>
<text text-anchor="middle" x="305.65" y="-57.84" font-family="Meiryo UI" font-size="14.00">return pthread_mutex_init(arg1, arg2)</text>
</g>
<!-- 117&#45;&gt;118 -->
<g id="edge1" class="edge">
<title>117&#45;&gt;118</title>
<path fill="none" stroke="#000000" d="M305.65,-82.68C305.65,-82.52 305.65,-82.36 305.65,-82.2"/>
<polygon fill="#000000" stroke="#000000" points="309.15,-86.99 305.65,-76.99 302.15,-86.99 309.15,-86.99"/>
</g>
<!-- 119 -->
<g id="node3" class="node">
<title>119</title>
<ellipse fill="#ffffff" stroke="#000000" cx="305.65" cy="-20.57" rx="72" ry="20.57"/>
<text text-anchor="middle" x="305.65" y="-16.27" font-family="Meiryo UI" font-size="14.00">END</text>
</g>
<!-- 118&#45;&gt;119 -->
<g id="edge2" class="edge">
<title>118&#45;&gt;119</title>
<path fill="none" stroke="#000000" d="M305.65,-49.06C305.65,-48.91 305.65,-48.76 305.65,-48.61"/>
<polygon fill="#000000" stroke="#000000" points="309.15,-53.12 305.65,-43.12 302.15,-53.12 309.15,-53.12"/>
</g>
<!-- 935 -->
<g id="node4" class="node">
<title>935</title>
<polygon fill="#bbccff" stroke="none" points="589.08,-75.14 486.22,-75.14 486.22,-49.14 589.08,-49.14 589.08,-75.14"/>
<text text-anchor="start" x="494.22" y="-57.84" font-family="Meiryo UI" font-size="14.00">tailcall</text>
</g>
<!-- 118&#45;&gt;935 -->
<g id="edge3" class="edge">
<title>118&#45;&gt;935</title>
<path fill="none" stroke="#aaaaff" d="M450.65,-62.14C462.54,-62.14 474.44,-62.14 486.33,-62.14"/>
</g>
</g>
</svg>
