<?xml version="1.0" encoding="UTF-8" standalone="no"?>
<!DOCTYPE svg PUBLIC "-//W3C//DTD SVG 1.1//EN"
 "http://www.w3.org/Graphics/SVG/1.1/DTD/svg11.dtd">
<!-- Generated by graphviz version 9.0.0 (20230911.1827)
 -->
<!-- Title: graph_name Pages: 1 -->
<svg width="379pt" height="153pt"
 viewBox="0.00 0.00 379.39 153.37" xmlns="http://www.w3.org/2000/svg" xmlns:xlink="http://www.w3.org/1999/xlink">
<g id="graph0" class="graph" transform="scale(1 1) rotate(0) translate(4 149.37)">
<title>graph_name</title>
<polygon fill="#f2f2f2" stroke="none" points="-4,4 -4,-149.37 375.39,-149.37 375.39,4 -4,4"/>
<!-- 144 -->
<g id="node1" class="node">
<title>144</title>
<ellipse fill="#ffffff" stroke="#000000" cx="144.96" cy="-114.26" rx="144.96" ry="31.11"/>
<text text-anchor="middle" x="144.96" y="-118.96" font-family="Meiryo UI" font-size="14.00">START</text>
<text text-anchor="middle" x="144.96" y="-100.96" font-family="Meiryo UI" font-size="14.00">int64_t readdir(DIR* arg1)</text>
</g>
<!-- 145 -->
<g id="node2" class="node">
<title>145</title>
<polygon fill="#ffffff" stroke="#000000" points="232.39,-75.14 60.42,-75.14 57.53,-72.25 57.53,-49.14 229.5,-49.14 232.39,-52.03 232.39,-75.14"/>
<polyline fill="none" stroke="#000000" points="229.5,-72.25 57.53,-72.25"/>
<polyline fill="none" stroke="#000000" points="229.5,-72.25 229.5,-49.14"/>
<polyline fill="none" stroke="#000000" points="229.5,-72.25 232.39,-75.14"/>
<text text-anchor="middle" x="144.96" y="-57.84" font-family="Meiryo UI" font-size="14.00">return readdir(arg1)</text>
</g>
<!-- 144&#45;&gt;145 -->
<g id="edge1" class="edge">
<title>144&#45;&gt;145</title>
<path fill="none" stroke="#000000" d="M144.96,-82.66C144.96,-82.5 144.96,-82.34 144.96,-82.17"/>
<polygon fill="#000000" stroke="#000000" points="148.46,-86.72 144.96,-76.72 141.46,-86.72 148.46,-86.72"/>
</g>
<!-- 146 -->
<g id="node3" class="node">
<title>146</title>
<ellipse fill="#ffffff" stroke="#000000" cx="144.96" cy="-20.57" rx="72" ry="20.57"/>
<text text-anchor="middle" x="144.96" y="-16.27" font-family="Meiryo UI" font-size="14.00">END</text>
</g>
<!-- 145&#45;&gt;146 -->
<g id="edge2" class="edge">
<title>145&#45;&gt;146</title>
<path fill="none" stroke="#000000" d="M144.96,-49.06C144.96,-48.91 144.96,-48.76 144.96,-48.61"/>
<polygon fill="#000000" stroke="#000000" points="148.46,-53.12 144.96,-43.12 141.46,-53.12 148.46,-53.12"/>
</g>
<!-- 962 -->
<g id="node4" class="node">
<title>962</title>
<polygon fill="#bbccff" stroke="none" points="371.39,-75.14 268.53,-75.14 268.53,-49.14 371.39,-49.14 371.39,-75.14"/>
<text text-anchor="start" x="276.53" y="-57.84" font-family="Meiryo UI" font-size="14.00">tailcall</text>
</g>
<!-- 145&#45;&gt;962 -->
<g id="edge3" class="edge">
<title>145&#45;&gt;962</title>
<path fill="none" stroke="#aaaaff" d="M232.8,-62.14C244.71,-62.14 256.63,-62.14 268.55,-62.14"/>
</g>
</g>
</svg>
