<?xml version="1.0" encoding="UTF-8" standalone="no"?>
<!DOCTYPE svg PUBLIC "-//W3C//DTD SVG 1.1//EN"
 "http://www.w3.org/Graphics/SVG/1.1/DTD/svg11.dtd">
<!-- Generated by graphviz version 9.0.0 (20230911.1827)
 -->
<!-- Title: graph_name Pages: 1 -->
<svg width="1399pt" height="2292pt"
 viewBox="0.00 0.00 1399.00 2292.23" xmlns="http://www.w3.org/2000/svg" xmlns:xlink="http://www.w3.org/1999/xlink">
<g id="graph0" class="graph" transform="scale(1 1) rotate(0) translate(4 2288.23)">
<title>graph_name</title>
<polygon fill="#f2f2f2" stroke="none" points="-4,4 -4,-2288.23 1395,-2288.23 1395,4 -4,4"/>
<!-- 543 -->
<g id="node1" class="node">
<title>543</title>
<ellipse fill="#ffffff" stroke="#000000" cx="916" cy="-2253.11" rx="293.98" ry="31.11"/>
<text text-anchor="middle" x="916" y="-2257.81" font-family="Meiryo UI" font-size="14.00">START</text>
<text text-anchor="middle" x="916" y="-2239.81" font-family="Meiryo UI" font-size="14.00">int64_t read_keyboard_events(char* arg1, int32_t arg2)</text>
</g>
<!-- 544 -->
<g id="node2" class="node">
<title>544</title>
<polygon fill="#ffffff" stroke="#000000" points="1047.38,-2205 784.62,-2205 784.62,-2179 1047.38,-2179 1047.38,-2205"/>
<text text-anchor="middle" x="916" y="-2187.7" font-family="Meiryo UI" font-size="14.00">int64_t x21 = *__stack_chk_guard</text>
</g>
<!-- 543&#45;&gt;544 -->
<g id="edge1" class="edge">
<title>543&#45;&gt;544</title>
<path fill="none" stroke="#000000" d="M916,-2221.52C916,-2219.9 916,-2218.29 916,-2216.7"/>
<polygon fill="#000000" stroke="#000000" points="919.5,-2216.82 916,-2206.82 912.5,-2216.82 919.5,-2216.82"/>
</g>
<!-- 545 -->
<g id="node3" class="node">
<title>545</title>
<polygon fill="#ffffff" stroke="#000000" points="1003.43,-2162 828.57,-2162 828.57,-2136 1003.43,-2136 1003.43,-2162"/>
<text text-anchor="middle" x="916" y="-2144.7" font-family="Meiryo UI" font-size="14.00">int64_t var_68 = x21</text>
</g>
<!-- 544&#45;&gt;545 -->
<g id="edge2" class="edge">
<title>544&#45;&gt;545</title>
<path fill="none" stroke="#000000" d="M916,-2178.92C916,-2177.3 916,-2175.59 916,-2173.84"/>
<polygon fill="#000000" stroke="#000000" points="919.5,-2173.93 916,-2163.93 912.5,-2173.93 919.5,-2173.93"/>
</g>
<!-- 546 -->
<g id="node4" class="node">
<title>546</title>
<polygon fill="#ffffaa" stroke="#000000" points="980.03,-2119 851.97,-2119 851.97,-2093 980.03,-2093 980.03,-2119"/>
<text text-anchor="middle" x="916" y="-2101.7" font-family="Meiryo UI" font-size="14.00">void var_1268</text>
</g>
<!-- 545&#45;&gt;546 -->
<g id="edge3" class="edge">
<title>545&#45;&gt;546</title>
<path fill="none" stroke="#000000" d="M916,-2135.92C916,-2134.3 916,-2132.59 916,-2130.84"/>
<polygon fill="#000000" stroke="#000000" points="919.5,-2130.93 916,-2120.93 912.5,-2130.93 919.5,-2130.93"/>
</g>
<!-- 547 -->
<g id="node5" class="node">
<title>547</title>
<polygon fill="#ffffff" stroke="#000000" points="1135.88,-2076 699.01,-2076 696.12,-2073.11 696.12,-2050 1132.99,-2050 1135.88,-2052.89 1135.88,-2076"/>
<polyline fill="none" stroke="#000000" points="1132.99,-2073.11 696.12,-2073.11"/>
<polyline fill="none" stroke="#000000" points="1132.99,-2073.11 1132.99,-2050"/>
<polyline fill="none" stroke="#000000" points="1132.99,-2073.11 1135.88,-2076"/>
<text text-anchor="middle" x="916" y="-2058.7" font-family="Meiryo UI" font-size="14.00">int32_t x19 = __read_chk(arg2, &amp;var_1268, 0x200, 0x200)</text>
</g>
<!-- 546&#45;&gt;547 -->
<g id="edge4" class="edge">
<title>546&#45;&gt;547</title>
<path fill="none" stroke="#000000" d="M916,-2092.92C916,-2091.3 916,-2089.59 916,-2087.84"/>
<polygon fill="#000000" stroke="#000000" points="919.5,-2087.93 916,-2077.93 912.5,-2087.93 919.5,-2087.93"/>
</g>
<!-- 548 -->
<g id="node6" class="node">
<title>548</title>
<polygon fill="#ffffaa" stroke="#000000" points="983.37,-2033 848.63,-2033 848.63,-2007 983.37,-2007 983.37,-2033"/>
<text text-anchor="middle" x="916" y="-2015.7" font-family="Meiryo UI" font-size="14.00">int64_t result</text>
</g>
<!-- 547&#45;&gt;548 -->
<g id="edge5" class="edge">
<title>547&#45;&gt;548</title>
<path fill="none" stroke="#000000" d="M916,-2049.92C916,-2048.3 916,-2046.59 916,-2044.84"/>
<polygon fill="#000000" stroke="#000000" points="919.5,-2044.93 916,-2034.93 912.5,-2044.93 919.5,-2044.93"/>
</g>
<!-- 549 -->
<g id="node7" class="node">
<title>549</title>
<polygon fill="#ffffff" stroke="#000000" points="916,-1990 787.43,-1969.43 916,-1948.86 1044.57,-1969.43 916,-1990"/>
<text text-anchor="middle" x="916" y="-1965.13" font-family="Meiryo UI" font-size="14.00">x19 &gt; 0xf</text>
</g>
<!-- 548&#45;&gt;549 -->
<g id="edge6" class="edge">
<title>548&#45;&gt;549</title>
<path fill="none" stroke="#000000" d="M916,-2006.74C916,-2005.2 916,-2003.57 916,-2001.88"/>
<polygon fill="#000000" stroke="#000000" points="919.5,-2001.94 916,-1991.94 912.5,-2001.94 919.5,-2001.94"/>
</g>
<!-- 550 -->
<g id="node8" class="node">
<title>550</title>
<polygon fill="#ffffaa" stroke="#000000" points="912.03,-1914.86 783.97,-1914.86 783.97,-1888.86 912.03,-1888.86 912.03,-1914.86"/>
<text text-anchor="middle" x="848" y="-1897.56" font-family="Meiryo UI" font-size="14.00">void var_1068</text>
</g>
<!-- 549&#45;&gt;550 -->
<g id="edge7" class="edge">
<title>549&#45;&gt;550</title>
<path fill="none" stroke="#000000" d="M898.49,-1951.54C889.45,-1942.83 878.36,-1932.13 868.88,-1922.99"/>
<polygon fill="#000000" stroke="#000000" points="871.45,-1920.6 861.82,-1916.18 866.59,-1925.64 871.45,-1920.6"/>
<text text-anchor="middle" x="898" y="-1927.56" font-family="Meiryo UI" font-size="14.00">Yes</text>
</g>
<!-- 587 -->
<g id="node44" class="node">
<title>587</title>
<polygon fill="#ffffff" stroke="#000000" points="1125.88,-1880.86 863.01,-1880.86 860.12,-1877.97 860.12,-1854.86 1122.99,-1854.86 1125.88,-1857.75 1125.88,-1880.86"/>
<polyline fill="none" stroke="#000000" points="1122.99,-1877.97 860.12,-1877.97"/>
<polyline fill="none" stroke="#000000" points="1122.99,-1877.97 1122.99,-1854.86"/>
<polyline fill="none" stroke="#000000" points="1122.99,-1877.97 1125.88,-1880.86"/>
<text text-anchor="middle" x="993" y="-1863.56" font-family="Meiryo UI" font-size="14.00">int32_t* error_number = __errno()</text>
</g>
<!-- 549&#45;&gt;587 -->
<g id="edge8" class="edge">
<title>549&#45;&gt;587</title>
<path fill="none" stroke="#000000" d="M929.77,-1950.63C942.95,-1933.57 962.86,-1907.84 976.8,-1889.81"/>
<polygon fill="#000000" stroke="#000000" points="979.21,-1892.41 982.56,-1882.36 973.67,-1888.13 979.21,-1892.41"/>
<text text-anchor="middle" x="960.38" y="-1927.56" font-family="Meiryo UI" font-size="14.00">No</text>
</g>
<!-- 551 -->
<g id="node9" class="node">
<title>551</title>
<polygon fill="#ffffff" stroke="#000000" points="946.38,-1846.86 686.51,-1846.86 683.62,-1843.97 683.62,-1820.86 943.49,-1820.86 946.38,-1823.75 946.38,-1846.86"/>
<polyline fill="none" stroke="#000000" points="943.49,-1843.97 683.62,-1843.97"/>
<polyline fill="none" stroke="#000000" points="943.49,-1843.97 943.49,-1820.86"/>
<polyline fill="none" stroke="#000000" points="943.49,-1843.97 946.38,-1846.86"/>
<text text-anchor="middle" x="815" y="-1829.56" font-family="Meiryo UI" font-size="14.00">strncpy(&amp;var_1068, arg1, 0x1000)</text>
</g>
<!-- 550&#45;&gt;551 -->
<g id="edge9" class="edge">
<title>550&#45;&gt;551</title>
<path fill="none" stroke="#000000" d="M841.79,-1888.44C837.41,-1879.69 831.43,-1867.71 826.22,-1857.3"/>
<polygon fill="#000000" stroke="#000000" points="829.46,-1855.95 821.86,-1848.57 823.2,-1859.08 829.46,-1855.95"/>
</g>
<!-- 552 -->
<g id="node10" class="node">
<title>552</title>
<polygon fill="#ffffff" stroke="#000000" points="967.25,-1803.86 535.64,-1803.86 532.75,-1800.97 532.75,-1777.86 964.36,-1777.86 967.25,-1780.75 967.25,-1803.86"/>
<polyline fill="none" stroke="#000000" points="964.36,-1800.97 532.75,-1800.97"/>
<polyline fill="none" stroke="#000000" points="964.36,-1800.97 964.36,-1777.86"/>
<polyline fill="none" stroke="#000000" points="964.36,-1800.97 967.25,-1803.86"/>
<text text-anchor="middle" x="750" y="-1786.56" font-family="Meiryo UI" font-size="14.00">void* x20_1 = (&amp;var_1068 + strnlen(&amp;var_1068, 0x1000))</text>
</g>
<!-- 551&#45;&gt;552 -->
<g id="edge10" class="edge">
<title>551&#45;&gt;552</title>
<path fill="none" stroke="#000000" d="M795.5,-1820.56C790.36,-1817.31 784.69,-1813.74 779.16,-1810.25"/>
<polygon fill="#000000" stroke="#000000" points="781.09,-1807.33 770.77,-1804.96 777.36,-1813.25 781.09,-1807.33"/>
</g>
<!-- 553 -->
<g id="node11" class="node">
<title>553</title>
<polygon fill="#ffffff" stroke="#000000" points="827.4,-1760.86 672.6,-1760.86 672.6,-1734.86 827.4,-1734.86 827.4,-1760.86"/>
<text text-anchor="middle" x="750" y="-1743.56" font-family="Meiryo UI" font-size="14.00">int32_t x25_1 = 0</text>
</g>
<!-- 552&#45;&gt;553 -->
<g id="edge11" class="edge">
<title>552&#45;&gt;553</title>
<path fill="none" stroke="#000000" d="M750,-1777.78C750,-1776.15 750,-1774.44 750,-1772.7"/>
<polygon fill="#000000" stroke="#000000" points="753.5,-1772.79 750,-1762.79 746.5,-1772.79 753.5,-1772.79"/>
</g>
<!-- 554 -->
<g id="node12" class="node">
<title>554</title>
<polygon fill="#ffffff" stroke="#000000" points="814.03,-1717.86 685.97,-1717.86 685.97,-1691.86 814.03,-1691.86 814.03,-1717.86"/>
<text text-anchor="middle" x="750" y="-1700.56" font-family="Meiryo UI" font-size="14.00">*x20_1 = 0x2f</text>
</g>
<!-- 553&#45;&gt;554 -->
<g id="edge12" class="edge">
<title>553&#45;&gt;554</title>
<path fill="none" stroke="#000000" d="M750,-1734.78C750,-1733.15 750,-1731.44 750,-1729.7"/>
<polygon fill="#000000" stroke="#000000" points="753.5,-1729.79 750,-1719.79 746.5,-1729.79 753.5,-1729.79"/>
</g>
<!-- 555 -->
<g id="node13" class="node">
<title>555</title>
<polygon fill="#ffffff" stroke="#000000" points="854.38,-1674.86 645.62,-1674.86 645.62,-1648.86 854.38,-1648.86 854.38,-1674.86"/>
<text text-anchor="middle" x="750" y="-1657.56" font-family="Meiryo UI" font-size="14.00">void* x20_2 = (x20_1 + 1)</text>
</g>
<!-- 554&#45;&gt;555 -->
<g id="edge13" class="edge">
<title>554&#45;&gt;555</title>
<path fill="none" stroke="#000000" d="M750,-1691.78C750,-1690.15 750,-1688.44 750,-1686.7"/>
<polygon fill="#000000" stroke="#000000" points="753.5,-1686.79 750,-1676.79 746.5,-1686.79 753.5,-1686.79"/>
</g>
<!-- 556 -->
<g id="node14" class="node">
<title>556</title>
<polygon fill="#a0f0bf" stroke="#000000" points="937.6,-1631.86 562.4,-1631.86 534,-1607.86 966,-1607.86 937.6,-1631.86"/>
<text text-anchor="middle" x="750" y="-1615.56" font-family="Meiryo UI" font-size="14.00">do</text>
</g>
<!-- 555&#45;&gt;556 -->
<g id="edge14" class="edge">
<title>555&#45;&gt;556</title>
<path fill="none" stroke="#000000" d="M750,-1648.64C750,-1647 750,-1645.28 750,-1643.53"/>
<polygon fill="#000000" stroke="#000000" points="753.5,-1643.7 750,-1633.7 746.5,-1643.7 753.5,-1643.7"/>
</g>
<!-- 557 -->
<g id="node15" class="node">
<title>557</title>
<polygon fill="#ffffff" stroke="#000000" points="888.88,-1590.86 611.12,-1590.86 611.12,-1564.86 888.88,-1564.86 888.88,-1590.86"/>
<text text-anchor="middle" x="750" y="-1573.56" font-family="Meiryo UI" font-size="14.00">void* x28_1 = (&amp;var_1268 + x25_1)</text>
</g>
<!-- 556&#45;&gt;557 -->
<g id="edge15" class="edge">
<title>556&#45;&gt;557</title>
<path fill="none" stroke="#000000" d="M750,-1607.5C750,-1605.91 750,-1604.24 750,-1602.52"/>
<polygon fill="#000000" stroke="#000000" points="753.5,-1602.74 750,-1592.74 746.5,-1602.74 753.5,-1602.74"/>
</g>
<!-- 558 -->
<g id="node16" class="node">
<title>558</title>
<polygon fill="#ffffff" stroke="#000000" points="750,-1547.86 588.77,-1527.29 750,-1506.71 911.23,-1527.29 750,-1547.86"/>
<text text-anchor="middle" x="750" y="-1522.99" font-family="Meiryo UI" font-size="14.00">*(x28_1 + 0xc) != 0</text>
</g>
<!-- 557&#45;&gt;558 -->
<g id="edge16" class="edge">
<title>557&#45;&gt;558</title>
<path fill="none" stroke="#000000" d="M750,-1564.6C750,-1563.05 750,-1561.42 750,-1559.74"/>
<polygon fill="#000000" stroke="#000000" points="753.5,-1559.8 750,-1549.8 746.5,-1559.8 753.5,-1559.8"/>
</g>
<!-- 559 -->
<g id="node17" class="node">
<title>559</title>
<polygon fill="#ffffff" stroke="#000000" points="694.25,-1472.71 160.64,-1472.71 157.75,-1469.83 157.75,-1446.71 691.36,-1446.71 694.25,-1449.6 694.25,-1472.71"/>
<polyline fill="none" stroke="#000000" points="691.36,-1469.83 157.75,-1469.83"/>
<polyline fill="none" stroke="#000000" points="691.36,-1469.83 691.36,-1446.71"/>
<polyline fill="none" stroke="#000000" points="691.36,-1469.83 694.25,-1472.71"/>
<text text-anchor="middle" x="426" y="-1455.41" font-family="Meiryo UI" font-size="14.00">strncpy(x20_2, (x28_1 + 0x10), (0x1000 &#45; strnlen(&amp;var_1068, 0x1000)))</text>
</g>
<!-- 558&#45;&gt;559 -->
<g id="edge17" class="edge">
<title>558&#45;&gt;559</title>
<path fill="none" stroke="#000000" d="M689.44,-1514.03C635.43,-1503.1 556.27,-1487.08 498.83,-1475.45"/>
<polygon fill="#000000" stroke="#000000" points="499.62,-1472.04 489.12,-1473.49 498.23,-1478.9 499.62,-1472.04"/>
<text text-anchor="middle" x="619" y="-1485.41" font-family="Meiryo UI" font-size="14.00">Yes</text>
</g>
<!-- 581 -->
<g id="node38" class="node">
<title>581</title>
<ellipse fill="#000000" stroke="#000000" cx="603" cy="-551.14" rx="5.14" ry="5.14"/>
</g>
<!-- 558&#45;&gt;581 -->
<g id="edge18" class="edge">
<title>558&#45;&gt;581</title>
<path fill="none" stroke="#000000" d="M750.46,-1506.49C750.72,-1493.48 751,-1476.08 751,-1460.71 751,-1460.71 751,-1460.71 751,-585.29 751,-558.61 658.29,-553.4 619.62,-552.39"/>
<polygon fill="#000000" stroke="#000000" points="619.84,-548.89 609.78,-552.2 619.71,-555.89 619.84,-548.89"/>
<text text-anchor="middle" x="760.38" y="-978.99" font-family="Meiryo UI" font-size="14.00">No</text>
</g>
<!-- 560 -->
<g id="node18" class="node">
<title>560</title>
<polygon fill="#ffffff" stroke="#000000" points="414,-1429.71 239.4,-1409.14 414,-1388.57 588.6,-1409.14 414,-1429.71"/>
<text text-anchor="middle" x="414" y="-1404.84" font-family="Meiryo UI" font-size="14.00">(*(x28_1 + 5) &amp; 1) != 0</text>
</g>
<!-- 559&#45;&gt;560 -->
<g id="edge19" class="edge">
<title>559&#45;&gt;560</title>
<path fill="none" stroke="#000000" d="M422.97,-1446.46C422.51,-1444.6 422.02,-1442.62 421.52,-1440.57"/>
<polygon fill="#000000" stroke="#000000" points="424.92,-1439.73 419.12,-1430.86 418.12,-1441.41 424.92,-1439.73"/>
</g>
<!-- 561 -->
<g id="node19" class="node">
<title>561</title>
<polygon fill="#ffffff" stroke="#000000" points="214,-1320.57 2.89,-1320.57 0,-1317.68 0,-1294.57 211.11,-1294.57 214,-1297.46 214,-1320.57"/>
<polyline fill="none" stroke="#000000" points="211.11,-1317.68 0,-1317.68"/>
<polyline fill="none" stroke="#000000" points="211.11,-1317.68 211.11,-1294.57"/>
<polyline fill="none" stroke="#000000" points="211.11,-1317.68 214,-1320.57"/>
<text text-anchor="middle" x="107" y="-1303.27" font-family="Meiryo UI" font-size="14.00">open_keyboard(&amp;var_1068)</text>
</g>
<!-- 560&#45;&gt;561 -->
<g id="edge20" class="edge">
<title>560&#45;&gt;561</title>
<path fill="none" stroke="#000000" d="M368.7,-1393.45C311.82,-1375 214.61,-1343.47 156.03,-1324.47"/>
<polygon fill="#000000" stroke="#000000" points="157.24,-1321.19 146.65,-1321.43 155.08,-1327.85 157.24,-1321.19"/>
<text text-anchor="middle" x="337" y="-1367.27" font-family="Meiryo UI" font-size="14.00">Yes</text>
</g>
<!-- 563 -->
<g id="node20" class="node">
<title>563</title>
<polygon fill="#ffffff" stroke="#000000" points="519.5,-1354.57 308.5,-1354.57 308.5,-1328.57 519.5,-1328.57 519.5,-1354.57"/>
<text text-anchor="middle" x="414" y="-1337.27" font-family="Meiryo UI" font-size="14.00">int64_t x22_1 = data_5038</text>
</g>
<!-- 560&#45;&gt;563 -->
<g id="edge21" class="edge">
<title>560&#45;&gt;563</title>
<path fill="none" stroke="#000000" d="M414,-1388.11C414,-1381.25 414,-1373.5 414,-1366.37"/>
<polygon fill="#000000" stroke="#000000" points="417.5,-1366.38 414,-1356.38 410.5,-1366.38 417.5,-1366.38"/>
<text text-anchor="middle" x="423.38" y="-1367.27" font-family="Meiryo UI" font-size="14.00">No</text>
</g>
<!-- 561&#45;&gt;581 -->
<g id="edge22" class="edge">
<title>561&#45;&gt;581</title>
<path fill="none" stroke="#000000" d="M94.51,-1294.16C81.5,-1279.86 63,-1255.02 63,-1229.43 63,-1229.43 63,-1229.43 63,-585.29 63,-558.4 495.09,-553.09 586.24,-552.27"/>
<polygon fill="#000000" stroke="#000000" points="586.17,-555.77 596.14,-552.19 586.11,-548.77 586.17,-555.77"/>
</g>
<!-- 564 -->
<g id="node21" class="node">
<title>564</title>
<polygon fill="#ffffff" stroke="#000000" points="414,-1286.57 282.86,-1266 414,-1245.43 545.14,-1266 414,-1286.57"/>
<text text-anchor="middle" x="414" y="-1261.7" font-family="Meiryo UI" font-size="14.00">x22_1 &gt;= 2</text>
</g>
<!-- 563&#45;&gt;564 -->
<g id="edge23" class="edge">
<title>563&#45;&gt;564</title>
<path fill="none" stroke="#000000" d="M414,-1328.09C414,-1319.93 414,-1308.88 414,-1298.42"/>
<polygon fill="#000000" stroke="#000000" points="417.5,-1298.56 414,-1288.56 410.5,-1298.56 417.5,-1298.56"/>
</g>
<!-- 565 -->
<g id="node22" class="node">
<title>565</title>
<polygon fill="#ffffff" stroke="#000000" points="518.5,-1211.43 307.5,-1211.43 307.5,-1185.43 518.5,-1185.43 518.5,-1211.43"/>
<text text-anchor="middle" x="413" y="-1194.13" font-family="Meiryo UI" font-size="14.00">int64_t x26_1 = data_5040</text>
</g>
<!-- 564&#45;&gt;565 -->
<g id="edge24" class="edge">
<title>564&#45;&gt;565</title>
<path fill="none" stroke="#000000" d="M413.7,-1245.33C413.59,-1238.37 413.47,-1230.46 413.36,-1223.2"/>
<polygon fill="#000000" stroke="#000000" points="416.86,-1223.32 413.21,-1213.37 409.87,-1223.42 416.86,-1223.32"/>
<text text-anchor="middle" x="426" y="-1224.13" font-family="Meiryo UI" font-size="14.00">Yes</text>
</g>
<!-- 564&#45;&gt;581 -->
<g id="edge25" class="edge">
<title>564&#45;&gt;581</title>
<path fill="none" stroke="#000000" d="M505.62,-1259.36C581.52,-1252.08 677,-1235.72 677,-1199.43 677,-1199.43 677,-1199.43 677,-585.29 677,-560.34 641.54,-554.05 619.71,-552.54"/>
<polygon fill="#000000" stroke="#000000" points="619.96,-549.05 609.83,-552.15 619.69,-556.04 619.96,-549.05"/>
<text text-anchor="middle" x="686.38" y="-872.99" font-family="Meiryo UI" font-size="14.00">No</text>
</g>
<!-- 566 -->
<g id="node23" class="node">
<title>566</title>
<polygon fill="#ffffff" stroke="#000000" points="473.4,-1168.43 318.6,-1168.43 318.6,-1142.43 473.4,-1142.43 473.4,-1168.43"/>
<text text-anchor="middle" x="396" y="-1151.13" font-family="Meiryo UI" font-size="14.00">int64_t x27_1 = 1</text>
</g>
<!-- 565&#45;&gt;566 -->
<g id="edge26" class="edge">
<title>565&#45;&gt;566</title>
<path fill="none" stroke="#000000" d="M407.99,-1185.35C407.18,-1183.4 406.32,-1181.33 405.45,-1179.22"/>
<polygon fill="#000000" stroke="#000000" points="408.79,-1178.14 401.73,-1170.25 402.33,-1180.82 408.79,-1178.14"/>
</g>
<!-- 567 -->
<g id="node24" class="node">
<title>567</title>
<polygon fill="#cceef0" stroke="#000000" points="582.6,-1125.43 207.4,-1125.43 179,-1101.43 611,-1101.43 582.6,-1125.43"/>
<text text-anchor="middle" x="395" y="-1109.13" font-family="Meiryo UI" font-size="14.00">do</text>
</g>
<!-- 566&#45;&gt;567 -->
<g id="edge27" class="edge">
<title>566&#45;&gt;567</title>
<path fill="none" stroke="#000000" d="M395.69,-1142.21C395.65,-1140.57 395.61,-1138.85 395.57,-1137.11"/>
<polygon fill="#000000" stroke="#000000" points="399.07,-1137.18 395.32,-1127.27 392.07,-1137.35 399.07,-1137.18"/>
</g>
<!-- 568 -->
<g id="node25" class="node">
<title>568</title>
<polygon fill="#ffffff" stroke="#000000" points="553.75,-1084.43 236.25,-1084.43 236.25,-1058.43 553.75,-1058.43 553.75,-1084.43"/>
<text text-anchor="middle" x="395" y="-1067.13" font-family="Meiryo UI" font-size="14.00">int64_t x21_2 = *(x26_1 + (x27_1 &lt;&lt; 3))</text>
</g>
<!-- 567&#45;&gt;568 -->
<g id="edge28" class="edge">
<title>567&#45;&gt;568</title>
<path fill="none" stroke="#000000" d="M395,-1101.07C395,-1099.49 395,-1097.81 395,-1096.09"/>
<polygon fill="#000000" stroke="#000000" points="398.5,-1096.31 395,-1086.31 391.5,-1096.31 398.5,-1096.31"/>
</g>
<!-- 569 -->
<g id="node26" class="node">
<title>569</title>
<polygon fill="#ffffff" stroke="#000000" points="395,-1041.43 168.27,-1020.86 395,-1000.29 621.73,-1020.86 395,-1041.43"/>
<text text-anchor="middle" x="395" y="-1016.56" font-family="Meiryo UI" font-size="14.00">strcmp(x21_2, &amp;var_1068) == 0</text>
</g>
<!-- 568&#45;&gt;569 -->
<g id="edge29" class="edge">
<title>568&#45;&gt;569</title>
<path fill="none" stroke="#000000" d="M395,-1058.17C395,-1056.63 395,-1054.99 395,-1053.31"/>
<polygon fill="#000000" stroke="#000000" points="398.5,-1053.37 395,-1043.37 391.5,-1053.37 398.5,-1053.37"/>
</g>
<!-- 570 -->
<g id="node27" class="node">
<title>570</title>
<polygon fill="#ffffff" stroke="#000000" points="294.34,-966.29 182.55,-966.29 179.66,-963.4 179.66,-940.29 291.45,-940.29 294.34,-943.17 294.34,-966.29"/>
<polyline fill="none" stroke="#000000" points="291.45,-963.4 179.66,-963.4"/>
<polyline fill="none" stroke="#000000" points="291.45,-963.4 291.45,-940.29"/>
<polyline fill="none" stroke="#000000" points="291.45,-963.4 294.34,-966.29"/>
<text text-anchor="middle" x="237" y="-948.99" font-family="Meiryo UI" font-size="14.00">free(x21_2)</text>
</g>
<!-- 569&#45;&gt;570 -->
<g id="edge30" class="edge">
<title>569&#45;&gt;570</title>
<path fill="none" stroke="#000000" d="M355.54,-1003.48C331.76,-993.61 301.54,-981.07 277.57,-971.12"/>
<polygon fill="#000000" stroke="#000000" points="279.01,-967.93 268.43,-967.33 276.33,-974.4 279.01,-967.93"/>
<text text-anchor="middle" x="338" y="-978.99" font-family="Meiryo UI" font-size="14.00">Yes</text>
</g>
<!-- 579 -->
<g id="node36" class="node">
<title>579</title>
<polygon fill="#ffffff" stroke="#000000" points="502.09,-966.29 333.91,-966.29 333.91,-940.29 502.09,-940.29 502.09,-966.29"/>
<text text-anchor="middle" x="418" y="-948.99" font-family="Meiryo UI" font-size="14.00">x27_1 = (x27_1 + 1)</text>
</g>
<!-- 569&#45;&gt;579 -->
<g id="edge31" class="edge">
<title>569&#45;&gt;579</title>
<path fill="none" stroke="#000000" d="M401.78,-1000.54C404.35,-993.21 407.3,-984.8 409.97,-977.18"/>
<polygon fill="#000000" stroke="#000000" points="413.22,-978.48 413.23,-967.88 406.62,-976.16 413.22,-978.48"/>
<text text-anchor="middle" x="420.38" y="-978.99" font-family="Meiryo UI" font-size="14.00">No</text>
</g>
<!-- 571 -->
<g id="node28" class="node">
<title>571</title>
<polygon fill="#ffffff" stroke="#000000" points="351,-923.29 119,-923.29 119,-897.29 351,-897.29 351,-923.29"/>
<text text-anchor="middle" x="235" y="-905.99" font-family="Meiryo UI" font-size="14.00">int64_t x26_2 = (x27_1 &lt;&lt; 3)</text>
</g>
<!-- 570&#45;&gt;571 -->
<g id="edge32" class="edge">
<title>570&#45;&gt;571</title>
<path fill="none" stroke="#000000" d="M236.41,-940.21C236.33,-938.58 236.25,-936.87 236.16,-935.13"/>
<polygon fill="#000000" stroke="#000000" points="239.66,-935.03 235.68,-925.22 232.67,-935.38 239.66,-935.03"/>
</g>
<!-- 572 -->
<g id="node29" class="node">
<title>572</title>
<polygon fill="#ffffff" stroke="#000000" points="548.38,-857.29 117.62,-857.29 117.62,-831.29 548.38,-831.29 548.38,-857.29"/>
<text text-anchor="middle" x="333" y="-839.99" font-family="Meiryo UI" font-size="14.00">int64_t x21_3 = (((x22_1 + (!x27_1)) &lt;&lt; 0x20) &gt;&gt; 0x1d)</text>
</g>
<!-- 571&#45;&gt;572 -->
<g id="edge33" class="edge">
<title>571&#45;&gt;572</title>
<path fill="none" stroke="#000000" d="M209.27,-896.84C206.78,-894.66 204.59,-892.15 203,-889.29 197.83,-879.96 196.05,-873.38 203,-865.29 203.63,-864.55 204.37,-863.84 205.19,-863.16"/>
<polygon fill="#000000" stroke="#000000" points="206.64,-866.36 213.65,-858.41 203.22,-860.25 206.64,-866.36"/>
</g>
<!-- 573 -->
<g id="node30" class="node">
<title>573</title>
<polygon fill="#ffffff" stroke="#000000" points="526.75,-814.29 239.25,-814.29 239.25,-788.29 526.75,-788.29 526.75,-814.29"/>
<text text-anchor="middle" x="383" y="-796.99" font-family="Meiryo UI" font-size="14.00">int64_t x0_14 = (data_5040 + x26_2)</text>
</g>
<!-- 572&#45;&gt;573 -->
<g id="edge34" class="edge">
<title>572&#45;&gt;573</title>
<path fill="none" stroke="#000000" d="M348,-830.98C351.56,-828.07 355.44,-824.88 359.29,-821.73"/>
<polygon fill="#000000" stroke="#000000" points="361.33,-824.59 366.84,-815.54 356.89,-819.17 361.33,-824.59"/>
</g>
<!-- 574 -->
<g id="node31" class="node">
<title>574</title>
<polygon fill="#ffffff" stroke="#000000" points="532.5,-771.29 240.39,-771.29 237.5,-768.4 237.5,-745.29 529.61,-745.29 532.5,-748.17 532.5,-771.29"/>
<polyline fill="none" stroke="#000000" points="529.61,-768.4 237.5,-768.4"/>
<polyline fill="none" stroke="#000000" points="529.61,-768.4 529.61,-745.29"/>
<polyline fill="none" stroke="#000000" points="529.61,-768.4 532.5,-771.29"/>
<text text-anchor="middle" x="385" y="-753.99" font-family="Meiryo UI" font-size="14.00">memmove(x0_14, (x0_14 + 8), x21_3)</text>
</g>
<!-- 573&#45;&gt;574 -->
<g id="edge35" class="edge">
<title>573&#45;&gt;574</title>
<path fill="none" stroke="#000000" d="M383.59,-788.21C383.67,-786.58 383.75,-784.87 383.84,-783.13"/>
<polygon fill="#000000" stroke="#000000" points="387.33,-783.38 384.32,-773.22 380.34,-783.03 387.33,-783.38"/>
</g>
<!-- 575 -->
<g id="node32" class="node">
<title>575</title>
<polygon fill="#ffffff" stroke="#000000" points="538.75,-728.29 251.25,-728.29 251.25,-702.29 538.75,-702.29 538.75,-728.29"/>
<text text-anchor="middle" x="395" y="-710.99" font-family="Meiryo UI" font-size="14.00">int64_t x0_15 = (data_5030 + x26_2)</text>
</g>
<!-- 574&#45;&gt;575 -->
<g id="edge36" class="edge">
<title>574&#45;&gt;575</title>
<path fill="none" stroke="#000000" d="M387.95,-745.21C388.36,-743.5 388.8,-741.7 389.25,-739.87"/>
<polygon fill="#000000" stroke="#000000" points="392.64,-740.72 391.61,-730.18 385.84,-739.06 392.64,-740.72"/>
</g>
<!-- 576 -->
<g id="node33" class="node">
<title>576</title>
<polygon fill="#ffffff" stroke="#000000" points="546.5,-685.29 254.39,-685.29 251.5,-682.4 251.5,-659.29 543.61,-659.29 546.5,-662.17 546.5,-685.29"/>
<polyline fill="none" stroke="#000000" points="543.61,-682.4 251.5,-682.4"/>
<polyline fill="none" stroke="#000000" points="543.61,-682.4 543.61,-659.29"/>
<polyline fill="none" stroke="#000000" points="543.61,-682.4 546.5,-685.29"/>
<text text-anchor="middle" x="399" y="-667.99" font-family="Meiryo UI" font-size="14.00">memmove(x0_15, (x0_15 + 8), x21_3)</text>
</g>
<!-- 575&#45;&gt;576 -->
<g id="edge37" class="edge">
<title>575&#45;&gt;576</title>
<path fill="none" stroke="#000000" d="M396.18,-702.21C396.34,-700.58 396.5,-698.87 396.67,-697.13"/>
<polygon fill="#000000" stroke="#000000" points="400.15,-697.5 397.64,-687.21 393.19,-696.82 400.15,-697.5"/>
</g>
<!-- 577 -->
<g id="node34" class="node">
<title>577</title>
<polygon fill="#ffffff" stroke="#000000" points="537.88,-642.29 314.12,-642.29 314.12,-616.29 537.88,-616.29 537.88,-642.29"/>
<text text-anchor="middle" x="426" y="-624.99" font-family="Meiryo UI" font-size="14.00">data_5038 = (data_5038 &#45; 1)</text>
</g>
<!-- 576&#45;&gt;577 -->
<g id="edge38" class="edge">
<title>576&#45;&gt;577</title>
<path fill="none" stroke="#000000" d="M406.95,-659.21C408.4,-657.01 409.94,-654.67 411.51,-652.29"/>
<polygon fill="#000000" stroke="#000000" points="414.41,-654.25 416.99,-643.97 408.57,-650.4 414.41,-654.25"/>
</g>
<!-- 578 -->
<g id="node35" class="node">
<title>578</title>
<polygon fill="#ffffff" stroke="#000000" points="508.43,-599.29 405.57,-599.29 405.57,-573.29 508.43,-573.29 508.43,-599.29"/>
<text text-anchor="middle" x="457" y="-581.99" font-family="Meiryo UI" font-size="14.00">break</text>
</g>
<!-- 577&#45;&gt;578 -->
<g id="edge39" class="edge">
<title>577&#45;&gt;578</title>
<path fill="none" stroke="#000000" d="M435.13,-616.21C436.91,-613.85 438.83,-611.32 440.76,-608.76"/>
<polygon fill="#000000" stroke="#000000" points="443.46,-611 446.7,-600.91 437.87,-606.78 443.46,-611"/>
</g>
<!-- 578&#45;&gt;581 -->
<g id="edge40" class="edge">
<title>578&#45;&gt;581</title>
<path fill="none" stroke="#000000" d="M508.89,-573.51C536.32,-567.28 568.11,-560.06 586.84,-555.81"/>
<polygon fill="#000000" stroke="#000000" points="587.46,-559.26 596.43,-553.63 585.91,-552.43 587.46,-559.26"/>
</g>
<!-- 580 -->
<g id="node37" class="node">
<title>580</title>
<polygon fill="#cceef0" stroke="#000000" points="636,-889.29 204,-889.29 232.4,-865.29 607.6,-865.29 636,-889.29"/>
<text text-anchor="middle" x="420" y="-872.99" font-family="Meiryo UI" font-size="14.00">while (x22_1 &gt; x27_1)</text>
</g>
<!-- 579&#45;&gt;580 -->
<g id="edge41" class="edge">
<title>579&#45;&gt;580</title>
<path fill="none" stroke="#000000" d="M418.33,-940.07C418.62,-929.36 419.05,-913.54 419.4,-900.59"/>
<polygon fill="#000000" stroke="#000000" points="422.89,-900.92 419.66,-890.83 415.89,-900.73 422.89,-900.92"/>
</g>
<!-- 580&#45;&gt;581 -->
<g id="edge42" class="edge">
<title>580&#45;&gt;581</title>
<path fill="none" stroke="#000000" d="M538.24,-864.79C550.01,-862.64 559.86,-860.15 566,-857.29 586.24,-847.85 603,-845.62 603,-823.29 603,-823.29 603,-823.29 603,-585.29 603,-579.62 603,-573.41 603,-567.92"/>
<polygon fill="#000000" stroke="#000000" points="606.5,-567.95 603,-557.95 599.5,-567.95 606.5,-567.95"/>
</g>
<!-- 797 -->
<g id="node39" class="node">
<title>797</title>
<polygon fill="#ffffff" stroke="#000000" points="749.75,-529 456.25,-529 456.25,-503 749.75,-503 749.75,-529"/>
<text text-anchor="middle" x="603" y="-511.7" font-family="Meiryo UI" font-size="14.00">x19 = (x19 &#45; (*(x28_1 + 0xc) + 0x10))</text>
</g>
<!-- 581&#45;&gt;797 -->
<g id="edge43" class="edge">
<title>581&#45;&gt;797</title>
<path fill="none" stroke="#000000" d="M603,-545.53C603,-544.09 603,-542.39 603,-540.55"/>
<polygon fill="#000000" stroke="#000000" points="606.5,-540.79 603,-530.79 599.5,-540.79 606.5,-540.79"/>
</g>
<!-- 582 -->
<g id="node40" class="node">
<title>582</title>
<polygon fill="#ffffff" stroke="#000000" points="770.38,-486 435.62,-486 435.62,-460 770.38,-460 770.38,-486"/>
<text text-anchor="middle" x="603" y="-468.7" font-family="Meiryo UI" font-size="14.00">x25_1 = ((*(x28_1 + 0xc) + 0x10) + x25_1)</text>
</g>
<!-- 797&#45;&gt;582 -->
<g id="edge44" class="edge">
<title>797&#45;&gt;582</title>
<path fill="none" stroke="#000000" d="M603,-502.92C603,-501.3 603,-499.59 603,-497.84"/>
<polygon fill="#000000" stroke="#000000" points="606.5,-497.93 603,-487.93 599.5,-497.93 606.5,-497.93"/>
</g>
<!-- 583 -->
<g id="node41" class="node">
<title>583</title>
<polygon fill="#a0f0bf" stroke="#000000" points="819,-434.43 387,-434.43 415.4,-410.43 790.6,-410.43 819,-434.43"/>
<text text-anchor="middle" x="603" y="-418.13" font-family="Meiryo UI" font-size="14.00">while (x19 &gt; 0xf)</text>
</g>
<!-- 582&#45;&gt;583 -->
<g id="edge45" class="edge">
<title>582&#45;&gt;583</title>
<path fill="none" stroke="#000000" d="M603,-459.74C603,-455.56 603,-450.75 603,-446.02"/>
<polygon fill="#000000" stroke="#000000" points="606.5,-446.36 603,-436.36 599.5,-446.36 606.5,-446.36"/>
</g>
<!-- 584 -->
<g id="node42" class="node">
<title>584</title>
<polygon fill="#ffffff" stroke="#000000" points="657,-367.86 549,-367.86 549,-341.86 657,-341.86 657,-367.86"/>
<text text-anchor="middle" x="603" y="-350.56" font-family="Meiryo UI" font-size="14.00">result = 0</text>
</g>
<!-- 583&#45;&gt;584 -->
<g id="edge46" class="edge">
<title>583&#45;&gt;584</title>
<path fill="none" stroke="#000000" d="M603,-410.01C603,-401.57 603,-389.78 603,-379.36"/>
<polygon fill="#000000" stroke="#000000" points="606.5,-379.55 603,-369.55 599.5,-379.55 606.5,-379.55"/>
</g>
<!-- 585 -->
<g id="node43" class="node">
<title>585</title>
<polygon fill="#ffffff" stroke="#000000" points="876,-299.86 668,-299.86 668,-273.86 876,-273.86 876,-299.86"/>
<text text-anchor="middle" x="772" y="-282.56" font-family="Meiryo UI" font-size="14.00">x21 = *__stack_chk_guard</text>
</g>
<!-- 584&#45;&gt;585 -->
<g id="edge47" class="edge">
<title>584&#45;&gt;585</title>
<path fill="none" stroke="#000000" d="M634.79,-341.44C661.61,-330.97 700.24,-315.88 729.68,-304.39"/>
<polygon fill="#000000" stroke="#000000" points="730.62,-307.78 738.66,-300.88 728.07,-301.26 730.62,-307.78"/>
</g>
<!-- 593 -->
<g id="node49" class="node">
<title>593</title>
<ellipse fill="#000000" stroke="#000000" cx="1022" cy="-251.71" rx="5.14" ry="5.14"/>
</g>
<!-- 585&#45;&gt;593 -->
<g id="edge48" class="edge">
<title>585&#45;&gt;593</title>
<path fill="none" stroke="#000000" d="M866.16,-273.37C918.02,-266.5 977.44,-258.62 1005.58,-254.89"/>
<polygon fill="#000000" stroke="#000000" points="1005.75,-258.4 1015.21,-253.61 1004.83,-251.46 1005.75,-258.4"/>
</g>
<!-- 588 -->
<g id="node45" class="node">
<title>588</title>
<polygon fill="#ffffff" stroke="#000000" points="1022,-443 864.11,-422.43 1022,-401.86 1179.89,-422.43 1022,-443"/>
<text text-anchor="middle" x="1022" y="-418.13" font-family="Meiryo UI" font-size="14.00">*error_number != 4</text>
</g>
<!-- 587&#45;&gt;588 -->
<g id="edge49" class="edge">
<title>587&#45;&gt;588</title>
<path fill="none" stroke="#000000" d="M1004.13,-1854.54C1012.31,-1844.19 1022,-1828.61 1022,-1812.86 1022,-1812.86 1022,-1812.86 1022,-472 1022,-466.39 1022,-460.42 1022,-454.65"/>
<polygon fill="#000000" stroke="#000000" points="1025.5,-454.79 1022,-444.79 1018.5,-454.79 1025.5,-454.79"/>
</g>
<!-- 589 -->
<g id="node46" class="node">
<title>589</title>
<polygon fill="#ffffff" stroke="#000000" points="1351.38,-367.86 695.51,-367.86 692.62,-364.97 692.62,-341.86 1348.49,-341.86 1351.38,-344.75 1351.38,-367.86"/>
<polyline fill="none" stroke="#000000" points="1348.49,-364.97 692.62,-364.97"/>
<polyline fill="none" stroke="#000000" points="1348.49,-364.97 1348.49,-341.86"/>
<polyline fill="none" stroke="#000000" points="1348.49,-364.97 1351.38,-367.86"/>
<text text-anchor="middle" x="1022" y="-350.56" font-family="Meiryo UI" font-size="14.00">__android_log_print(6, &quot;KeyEvent&quot;, &quot;could not get event, %s\n&quot;, strerror(*error_number))</text>
</g>
<!-- 588&#45;&gt;589 -->
<g id="edge50" class="edge">
<title>588&#45;&gt;589</title>
<path fill="none" stroke="#000000" d="M1022,-401.4C1022,-394.53 1022,-386.79 1022,-379.65"/>
<polygon fill="#000000" stroke="#000000" points="1025.5,-379.67 1022,-369.67 1018.5,-379.67 1025.5,-379.67"/>
<text text-anchor="middle" x="1034" y="-380.56" font-family="Meiryo UI" font-size="14.00">Yes</text>
</g>
<!-- 592 -->
<g id="node48" class="node">
<title>592</title>
<polygon fill="#ffffff" stroke="#000000" points="1391,-333.86 1283,-333.86 1283,-307.86 1391,-307.86 1391,-333.86"/>
<text text-anchor="middle" x="1337" y="-316.56" font-family="Meiryo UI" font-size="14.00">result = 0</text>
</g>
<!-- 588&#45;&gt;592 -->
<g id="edge51" class="edge">
<title>588&#45;&gt;592</title>
<path fill="none" stroke="#000000" d="M1152.68,-418.43C1238.96,-413.37 1341.08,-400.42 1369,-367.86 1374.99,-360.87 1374.99,-354.93 1368.74,-343.86"/>
<polygon fill="#000000" stroke="#000000" points="1371.82,-342.19 1363.54,-335.58 1365.89,-345.91 1371.82,-342.19"/>
<text text-anchor="middle" x="1366.38" y="-380.56" font-family="Meiryo UI" font-size="14.00">No</text>
</g>
<!-- 590 -->
<g id="node47" class="node">
<title>590</title>
<polygon fill="#ffffff" stroke="#000000" points="1076,-299.86 968,-299.86 968,-273.86 1076,-273.86 1076,-299.86"/>
<text text-anchor="middle" x="1022" y="-282.56" font-family="Meiryo UI" font-size="14.00">result = 1</text>
</g>
<!-- 589&#45;&gt;590 -->
<g id="edge52" class="edge">
<title>589&#45;&gt;590</title>
<path fill="none" stroke="#000000" d="M1022,-341.44C1022,-333.05 1022,-321.71 1022,-311.62"/>
<polygon fill="#000000" stroke="#000000" points="1025.5,-311.73 1022,-301.73 1018.5,-311.73 1025.5,-311.73"/>
</g>
<!-- 590&#45;&gt;593 -->
<g id="edge53" class="edge">
<title>590&#45;&gt;593</title>
<path fill="none" stroke="#000000" d="M1022,-273.52C1022,-271.9 1022,-270.23 1022,-268.57"/>
<polygon fill="#000000" stroke="#000000" points="1025.5,-268.64 1022,-258.64 1018.5,-268.64 1025.5,-268.64"/>
</g>
<!-- 592&#45;&gt;593 -->
<g id="edge54" class="edge">
<title>592&#45;&gt;593</title>
<path fill="none" stroke="#000000" d="M1282.85,-308.31C1209.52,-292.68 1082.67,-265.65 1038.07,-256.14"/>
<polygon fill="#000000" stroke="#000000" points="1039.01,-252.76 1028.5,-254.1 1037.55,-259.61 1039.01,-252.76"/>
</g>
<!-- 798 -->
<g id="node50" class="node">
<title>798</title>
<polygon fill="#ffffff" stroke="#000000" points="1022,-229.57 860.77,-209 1022,-188.43 1183.23,-209 1022,-229.57"/>
<text text-anchor="middle" x="1022" y="-204.7" font-family="Meiryo UI" font-size="14.00">(x21 &#45; var_68) != 0</text>
</g>
<!-- 593&#45;&gt;798 -->
<g id="edge55" class="edge">
<title>593&#45;&gt;798</title>
<path fill="none" stroke="#000000" d="M1022,-246.36C1022,-244.85 1022,-243.03 1022,-241.01"/>
<polygon fill="#000000" stroke="#000000" points="1025.5,-241.37 1022,-231.37 1018.5,-241.37 1025.5,-241.37"/>
</g>
<!-- 594 -->
<g id="node51" class="node">
<title>594</title>
<polygon fill="#ffffff" stroke="#000000" points="1025.74,-154.43 867.15,-154.43 864.26,-151.54 864.26,-128.43 1022.85,-128.43 1025.74,-131.32 1025.74,-154.43"/>
<polyline fill="none" stroke="#000000" points="1022.85,-151.54 864.26,-151.54"/>
<polyline fill="none" stroke="#000000" points="1022.85,-151.54 1022.85,-128.43"/>
<polyline fill="none" stroke="#000000" points="1022.85,-151.54 1025.74,-154.43"/>
<text text-anchor="middle" x="945" y="-137.13" font-family="Meiryo UI" font-size="14.00">__stack_chk_fail()</text>
</g>
<!-- 798&#45;&gt;594 -->
<g id="edge56" class="edge">
<title>798&#45;&gt;594</title>
<path fill="none" stroke="#000000" d="M1001.77,-190.77C991.33,-181.88 978.55,-171 967.76,-161.81"/>
<polygon fill="#000000" stroke="#000000" points="970.3,-159.37 960.42,-155.56 965.76,-164.7 970.3,-159.37"/>
<text text-anchor="middle" x="1000" y="-167.13" font-family="Meiryo UI" font-size="14.00">Yes</text>
</g>
<!-- 595 -->
<g id="node52" class="node">
<title>595</title>
<ellipse fill="#000000" stroke="#000000" cx="1049" cy="-106.29" rx="5.14" ry="5.14"/>
</g>
<!-- 798&#45;&gt;595 -->
<g id="edge57" class="edge">
<title>798&#45;&gt;595</title>
<path fill="none" stroke="#000000" d="M1031.08,-189.6C1035.69,-179.46 1040.94,-166.52 1044,-154.43 1046.6,-144.14 1047.85,-132.25 1048.45,-122.98"/>
<polygon fill="#000000" stroke="#000000" points="1051.93,-123.44 1048.88,-113.29 1044.94,-123.13 1051.93,-123.44"/>
<text text-anchor="middle" x="1056.38" y="-137.13" font-family="Meiryo UI" font-size="14.00">No</text>
</g>
<!-- 594&#45;&gt;595 -->
<g id="edge58" class="edge">
<title>594&#45;&gt;595</title>
<path fill="none" stroke="#000000" d="M984.02,-127.99C1001.14,-122.54 1020.26,-116.44 1033.3,-112.29"/>
<polygon fill="#000000" stroke="#000000" points="1034.11,-115.7 1042.58,-109.33 1031.99,-109.03 1034.11,-115.7"/>
</g>
<!-- 799 -->
<g id="node53" class="node">
<title>799</title>
<polygon fill="#ffffff" stroke="#000000" points="1113.03,-84.14 984.97,-84.14 984.97,-58.14 1113.03,-58.14 1113.03,-84.14"/>
<text text-anchor="middle" x="1049" y="-66.84" font-family="Meiryo UI" font-size="14.00">return result</text>
</g>
<!-- 595&#45;&gt;799 -->
<g id="edge59" class="edge">
<title>595&#45;&gt;799</title>
<path fill="none" stroke="#000000" d="M1049,-100.68C1049,-99.23 1049,-97.53 1049,-95.69"/>
<polygon fill="#000000" stroke="#000000" points="1052.5,-95.93 1049,-85.93 1045.5,-95.93 1052.5,-95.93"/>
</g>
<!-- 596 -->
<g id="node54" class="node">
<title>596</title>
<ellipse fill="#ffffff" stroke="#000000" cx="1049" cy="-20.57" rx="72" ry="20.57"/>
<text text-anchor="middle" x="1049" y="-16.27" font-family="Meiryo UI" font-size="14.00">END</text>
</g>
<!-- 799&#45;&gt;596 -->
<g id="edge60" class="edge">
<title>799&#45;&gt;596</title>
<path fill="none" stroke="#000000" d="M1049,-57.89C1049,-56.34 1049,-54.71 1049,-53.02"/>
<polygon fill="#000000" stroke="#000000" points="1052.5,-53.09 1049,-43.09 1045.5,-53.09 1052.5,-53.09"/>
</g>
</g>
</svg>
