<?xml version="1.0" encoding="UTF-8" standalone="no"?>
<!DOCTYPE svg PUBLIC "-//W3C//DTD SVG 1.1//EN"
 "http://www.w3.org/Graphics/SVG/1.1/DTD/svg11.dtd">
<!-- Generated by graphviz version 9.0.0 (20230911.1827)
 -->
<!-- Title: graph_name Pages: 1 -->
<svg width="468pt" height="153pt"
 viewBox="0.00 0.00 468.33 153.37" xmlns="http://www.w3.org/2000/svg" xmlns:xlink="http://www.w3.org/1999/xlink">
<g id="graph0" class="graph" transform="scale(1 1) rotate(0) translate(4 149.37)">
<title>graph_name</title>
<polygon fill="#f2f2f2" stroke="none" points="-4,4 -4,-149.37 464.33,-149.37 464.33,4 -4,4"/>
<!-- 123 -->
<g id="node1" class="node">
<title>123</title>
<ellipse fill="#ffffff" stroke="#000000" cx="213.9" cy="-114.26" rx="213.9" ry="31.11"/>
<text text-anchor="middle" x="213.9" y="-118.96" font-family="Meiryo UI" font-size="14.00">START</text>
<text text-anchor="middle" x="213.9" y="-100.96" font-family="Meiryo UI" font-size="14.00">int64_t realloc(int64_t arg1, size_t arg2)</text>
</g>
<!-- 124 -->
<g id="node2" class="node">
<title>124</title>
<polygon fill="#ffffff" stroke="#000000" points="321.39,-75.14 109.3,-75.14 106.41,-72.25 106.41,-49.14 318.5,-49.14 321.39,-52.03 321.39,-75.14"/>
<polyline fill="none" stroke="#000000" points="318.5,-72.25 106.41,-72.25"/>
<polyline fill="none" stroke="#000000" points="318.5,-72.25 318.5,-49.14"/>
<polyline fill="none" stroke="#000000" points="318.5,-72.25 321.39,-75.14"/>
<text text-anchor="middle" x="213.9" y="-57.84" font-family="Meiryo UI" font-size="14.00">return realloc(arg1, arg2)</text>
</g>
<!-- 123&#45;&gt;124 -->
<g id="edge1" class="edge">
<title>123&#45;&gt;124</title>
<path fill="none" stroke="#000000" d="M213.9,-82.66C213.9,-82.5 213.9,-82.34 213.9,-82.17"/>
<polygon fill="#000000" stroke="#000000" points="217.4,-86.72 213.9,-76.72 210.4,-86.72 217.4,-86.72"/>
</g>
<!-- 125 -->
<g id="node3" class="node">
<title>125</title>
<ellipse fill="#ffffff" stroke="#000000" cx="213.9" cy="-20.57" rx="72" ry="20.57"/>
<text text-anchor="middle" x="213.9" y="-16.27" font-family="Meiryo UI" font-size="14.00">END</text>
</g>
<!-- 124&#45;&gt;125 -->
<g id="edge2" class="edge">
<title>124&#45;&gt;125</title>
<path fill="none" stroke="#000000" d="M213.9,-49.06C213.9,-48.91 213.9,-48.76 213.9,-48.61"/>
<polygon fill="#000000" stroke="#000000" points="217.4,-53.12 213.9,-43.12 210.4,-53.12 217.4,-53.12"/>
</g>
<!-- 941 -->
<g id="node4" class="node">
<title>941</title>
<polygon fill="#bbccff" stroke="none" points="460.33,-75.14 357.47,-75.14 357.47,-49.14 460.33,-49.14 460.33,-75.14"/>
<text text-anchor="start" x="365.47" y="-57.84" font-family="Meiryo UI" font-size="14.00">tailcall</text>
</g>
<!-- 124&#45;&gt;941 -->
<g id="edge3" class="edge">
<title>124&#45;&gt;941</title>
<path fill="none" stroke="#aaaaff" d="M321.68,-62.14C333.72,-62.14 345.76,-62.14 357.8,-62.14"/>
</g>
</g>
</svg>
