<?xml version="1.0" encoding="UTF-8" standalone="no"?>
<!DOCTYPE svg PUBLIC "-//W3C//DTD SVG 1.1//EN"
 "http://www.w3.org/Graphics/SVG/1.1/DTD/svg11.dtd">
<!-- Generated by graphviz version 9.0.0 (20230911.1827)
 -->
<!-- Title: graph_name Pages: 1 -->
<svg width="1424pt" height="1440pt"
 viewBox="0.00 0.00 1424.36 1440.08" xmlns="http://www.w3.org/2000/svg" xmlns:xlink="http://www.w3.org/1999/xlink">
<g id="graph0" class="graph" transform="scale(1 1) rotate(0) translate(4 1436.08)">
<title>graph_name</title>
<polygon fill="#f2f2f2" stroke="none" points="-4,4 -4,-1436.08 1420.36,-1436.08 1420.36,4 -4,4"/>
<!-- 211 -->
<g id="node1" class="node">
<title>211</title>
<ellipse fill="#ffffff" stroke="#000000" cx="616.5" cy="-1400.97" rx="146.55" ry="31.11"/>
<text text-anchor="middle" x="616.5" y="-1405.67" font-family="Meiryo UI" font-size="14.00">START</text>
<text text-anchor="middle" x="616.5" y="-1387.67" font-family="Meiryo UI" font-size="14.00">int64_t run_factory_reset()</text>
</g>
<!-- 212 -->
<g id="node2" class="node">
<title>212</title>
<polygon fill="#ffffff" stroke="#000000" points="747.88,-1352.86 485.12,-1352.86 485.12,-1326.86 747.88,-1326.86 747.88,-1352.86"/>
<text text-anchor="middle" x="616.5" y="-1335.56" font-family="Meiryo UI" font-size="14.00">int64_t x21 = *__stack_chk_guard</text>
</g>
<!-- 211&#45;&gt;212 -->
<g id="edge1" class="edge">
<title>211&#45;&gt;212</title>
<path fill="none" stroke="#000000" d="M616.5,-1369.37C616.5,-1367.76 616.5,-1366.15 616.5,-1364.56"/>
<polygon fill="#000000" stroke="#000000" points="620,-1364.67 616.5,-1354.67 613,-1364.68 620,-1364.67"/>
</g>
<!-- 213 -->
<g id="node3" class="node">
<title>213</title>
<polygon fill="#ffffff" stroke="#000000" points="879.5,-1309.86 356.39,-1309.86 353.5,-1306.97 353.5,-1283.86 876.61,-1283.86 879.5,-1286.75 879.5,-1309.86"/>
<polyline fill="none" stroke="#000000" points="876.61,-1306.97 353.5,-1306.97"/>
<polyline fill="none" stroke="#000000" points="876.61,-1306.97 876.61,-1283.86"/>
<polyline fill="none" stroke="#000000" points="876.61,-1306.97 879.5,-1309.86"/>
<text text-anchor="middle" x="616.5" y="-1292.56" font-family="Meiryo UI" font-size="14.00">FILE* recovery_cmd = fopen(&quot;/cache/recovery/command&quot;, &amp;data_2f4c)</text>
</g>
<!-- 212&#45;&gt;213 -->
<g id="edge2" class="edge">
<title>212&#45;&gt;213</title>
<path fill="none" stroke="#000000" d="M616.5,-1326.78C616.5,-1325.15 616.5,-1323.44 616.5,-1321.7"/>
<polygon fill="#000000" stroke="#000000" points="620,-1321.79 616.5,-1311.79 613,-1321.79 620,-1321.79"/>
</g>
<!-- 214 -->
<g id="node4" class="node">
<title>214</title>
<polygon fill="#ffffaa" stroke="#000000" points="683.87,-1266.86 549.13,-1266.86 549.13,-1240.86 683.87,-1240.86 683.87,-1266.86"/>
<text text-anchor="middle" x="616.5" y="-1249.56" font-family="Meiryo UI" font-size="14.00">int64_t result</text>
</g>
<!-- 213&#45;&gt;214 -->
<g id="edge3" class="edge">
<title>213&#45;&gt;214</title>
<path fill="none" stroke="#000000" d="M616.5,-1283.78C616.5,-1282.15 616.5,-1280.44 616.5,-1278.7"/>
<polygon fill="#000000" stroke="#000000" points="620,-1278.79 616.5,-1268.79 613,-1278.79 620,-1278.79"/>
</g>
<!-- 215 -->
<g id="node5" class="node">
<title>215</title>
<polygon fill="#ffffff" stroke="#000000" points="616.5,-1223.86 461.96,-1203.29 616.5,-1182.71 771.04,-1203.29 616.5,-1223.86"/>
<text text-anchor="middle" x="616.5" y="-1198.99" font-family="Meiryo UI" font-size="14.00">recovery_cmd == 0</text>
</g>
<!-- 214&#45;&gt;215 -->
<g id="edge4" class="edge">
<title>214&#45;&gt;215</title>
<path fill="none" stroke="#000000" d="M616.5,-1240.6C616.5,-1239.05 616.5,-1237.42 616.5,-1235.74"/>
<polygon fill="#000000" stroke="#000000" points="620,-1235.8 616.5,-1225.8 613,-1235.8 620,-1235.8"/>
</g>
<!-- 216 -->
<g id="node6" class="node">
<title>216</title>
<polygon fill="#ffffff" stroke="#000000" points="625.64,-1148.71 420.25,-1148.71 417.36,-1145.83 417.36,-1122.71 622.75,-1122.71 625.64,-1125.6 625.64,-1148.71"/>
<polyline fill="none" stroke="#000000" points="622.75,-1145.83 417.36,-1145.83"/>
<polyline fill="none" stroke="#000000" points="622.75,-1145.83 622.75,-1122.71"/>
<polyline fill="none" stroke="#000000" points="622.75,-1145.83 625.64,-1148.71"/>
<text text-anchor="middle" x="521.5" y="-1131.41" font-family="Meiryo UI" font-size="14.00">int32_t* x0_9 = __errno()</text>
</g>
<!-- 215&#45;&gt;216 -->
<g id="edge5" class="edge">
<title>215&#45;&gt;216</title>
<path fill="none" stroke="#000000" d="M592.53,-1185.74C579.26,-1176.58 562.71,-1165.16 548.93,-1155.65"/>
<polygon fill="#000000" stroke="#000000" points="550.93,-1152.78 540.71,-1149.97 546.95,-1158.54 550.93,-1152.78"/>
<text text-anchor="middle" x="587.5" y="-1161.41" font-family="Meiryo UI" font-size="14.00">Yes</text>
</g>
<!-- 221 -->
<g id="node10" class="node">
<title>221</title>
<polygon fill="#ffffff" stroke="#000000" points="796.93,-1148.71 696.96,-1148.71 694.07,-1145.83 694.07,-1122.71 794.04,-1122.71 796.93,-1125.6 796.93,-1148.71"/>
<polyline fill="none" stroke="#000000" points="794.04,-1145.83 694.07,-1145.83"/>
<polyline fill="none" stroke="#000000" points="794.04,-1145.83 794.04,-1122.71"/>
<polyline fill="none" stroke="#000000" points="794.04,-1145.83 796.93,-1148.71"/>
<text text-anchor="middle" x="745.5" y="-1131.41" font-family="Meiryo UI" font-size="14.00">fprintf()</text>
</g>
<!-- 215&#45;&gt;221 -->
<g id="edge6" class="edge">
<title>215&#45;&gt;221</title>
<path fill="none" stroke="#000000" d="M647.73,-1186.41C666.82,-1176.71 691.26,-1164.29 710.93,-1154.29"/>
<polygon fill="#000000" stroke="#000000" points="712.34,-1157.5 719.66,-1149.85 709.16,-1151.26 712.34,-1157.5"/>
<text text-anchor="middle" x="712.88" y="-1161.41" font-family="Meiryo UI" font-size="14.00">No</text>
</g>
<!-- 217 -->
<g id="node7" class="node">
<title>217</title>
<polygon fill="#ffffff" stroke="#000000" points="655,-1105.71 2.89,-1105.71 0,-1102.83 0,-1079.71 652.11,-1079.71 655,-1082.6 655,-1105.71"/>
<polyline fill="none" stroke="#000000" points="652.11,-1102.83 0,-1102.83"/>
<polyline fill="none" stroke="#000000" points="652.11,-1102.83 652.11,-1079.71"/>
<polyline fill="none" stroke="#000000" points="652.11,-1102.83 655,-1105.71"/>
<text text-anchor="middle" x="327.5" y="-1088.41" font-family="Meiryo UI" font-size="14.00">__android_log_print(6, &quot;KeyEvent&quot;, &quot;fopen() failed &#45;&#45; %d(%s)\n&quot;, *x0_9, strerror(*x0_9))</text>
</g>
<!-- 216&#45;&gt;217 -->
<g id="edge7" class="edge">
<title>216&#45;&gt;217</title>
<path fill="none" stroke="#000000" d="M462.5,-1122.25C442.09,-1117.93 419.02,-1113.06 397.79,-1108.57"/>
<polygon fill="#000000" stroke="#000000" points="398.54,-1105.15 388.03,-1106.51 397.09,-1112 398.54,-1105.15"/>
</g>
<!-- 218 -->
<g id="node8" class="node">
<title>218</title>
<polygon fill="#ffffff" stroke="#000000" points="601.38,-1062.71 56.51,-1062.71 53.62,-1059.83 53.62,-1036.71 598.49,-1036.71 601.38,-1039.6 601.38,-1062.71"/>
<polyline fill="none" stroke="#000000" points="598.49,-1059.83 53.62,-1059.83"/>
<polyline fill="none" stroke="#000000" points="598.49,-1059.83 598.49,-1036.71"/>
<polyline fill="none" stroke="#000000" points="598.49,-1059.83 601.38,-1062.71"/>
<text text-anchor="middle" x="327.5" y="-1045.41" font-family="Meiryo UI" font-size="14.00">__android_log_print(6, &quot;KeyEvent&quot;, &quot;write_recovery_command() failed\n&quot;)</text>
</g>
<!-- 217&#45;&gt;218 -->
<g id="edge8" class="edge">
<title>217&#45;&gt;218</title>
<path fill="none" stroke="#000000" d="M327.5,-1079.63C327.5,-1078.01 327.5,-1076.3 327.5,-1074.56"/>
<polygon fill="#000000" stroke="#000000" points="331,-1074.65 327.5,-1064.65 324,-1074.65 331,-1074.65"/>
</g>
<!-- 219 -->
<g id="node9" class="node">
<title>219</title>
<polygon fill="#ffffff" stroke="#000000" points="411.59,-985.71 243.41,-985.71 243.41,-959.71 411.59,-959.71 411.59,-985.71"/>
<text text-anchor="middle" x="327.5" y="-968.41" font-family="Meiryo UI" font-size="14.00">result = 0xffffffff</text>
</g>
<!-- 218&#45;&gt;219 -->
<g id="edge9" class="edge">
<title>218&#45;&gt;219</title>
<path fill="none" stroke="#000000" d="M327.5,-1036.33C327.5,-1025.8 327.5,-1010.38 327.5,-997.47"/>
<polygon fill="#000000" stroke="#000000" points="331,-997.63 327.5,-987.63 324,-997.63 331,-997.63"/>
</g>
<!-- 238 -->
<g id="node29" class="node">
<title>238</title>
<ellipse fill="#000000" stroke="#000000" cx="348.5" cy="-251.71" rx="5.14" ry="5.14"/>
</g>
<!-- 219&#45;&gt;238 -->
<g id="edge10" class="edge">
<title>219&#45;&gt;238</title>
<path fill="none" stroke="#000000" d="M327.5,-959.27C327.5,-948.33 327.5,-931.96 327.5,-917.71 327.5,-917.71 327.5,-917.71 327.5,-285.86 327.5,-277.65 332.15,-269.83 337.07,-263.85"/>
<polygon fill="#000000" stroke="#000000" points="339.38,-266.5 343.79,-256.87 334.34,-261.64 339.38,-266.5"/>
</g>
<!-- 222 -->
<g id="node11" class="node">
<title>222</title>
<polygon fill="#ffffff" stroke="#000000" points="865.93,-1105.71 693.96,-1105.71 691.07,-1102.83 691.07,-1079.71 863.04,-1079.71 865.93,-1082.6 865.93,-1105.71"/>
<polyline fill="none" stroke="#000000" points="863.04,-1102.83 691.07,-1102.83"/>
<polyline fill="none" stroke="#000000" points="863.04,-1102.83 863.04,-1079.71"/>
<polyline fill="none" stroke="#000000" points="863.04,-1102.83 865.93,-1105.71"/>
<text text-anchor="middle" x="778.5" y="-1088.41" font-family="Meiryo UI" font-size="14.00">fclose(recovery_cmd)</text>
</g>
<!-- 221&#45;&gt;222 -->
<g id="edge11" class="edge">
<title>221&#45;&gt;222</title>
<path fill="none" stroke="#000000" d="M755.22,-1122.63C757.18,-1120.2 759.3,-1117.57 761.43,-1114.93"/>
<polygon fill="#000000" stroke="#000000" points="764.01,-1117.3 767.55,-1107.31 758.56,-1112.91 764.01,-1117.3"/>
</g>
<!-- 223 -->
<g id="node12" class="node">
<title>223</title>
<polygon fill="#ffffff" stroke="#000000" points="829.93,-1062.71 729.96,-1062.71 727.07,-1059.83 727.07,-1036.71 827.04,-1036.71 829.93,-1039.6 829.93,-1062.71"/>
<polyline fill="none" stroke="#000000" points="827.04,-1059.83 727.07,-1059.83"/>
<polyline fill="none" stroke="#000000" points="827.04,-1059.83 827.04,-1036.71"/>
<polyline fill="none" stroke="#000000" points="827.04,-1059.83 829.93,-1062.71"/>
<text text-anchor="middle" x="778.5" y="-1045.41" font-family="Meiryo UI" font-size="14.00">sync()</text>
</g>
<!-- 222&#45;&gt;223 -->
<g id="edge12" class="edge">
<title>222&#45;&gt;223</title>
<path fill="none" stroke="#000000" d="M778.5,-1079.63C778.5,-1078.01 778.5,-1076.3 778.5,-1074.56"/>
<polygon fill="#000000" stroke="#000000" points="782,-1074.65 778.5,-1064.65 775,-1074.65 782,-1074.65"/>
</g>
<!-- 224 -->
<g id="node13" class="node">
<title>224</title>
<polygon fill="#ffffff" stroke="#000000" points="865.93,-1019.71 691.07,-1019.71 691.07,-993.71 865.93,-993.71 865.93,-1019.71"/>
<text text-anchor="middle" x="778.5" y="-1002.41" font-family="Meiryo UI" font-size="14.00">int64_t var_48_1 = 0</text>
</g>
<!-- 223&#45;&gt;224 -->
<g id="edge13" class="edge">
<title>223&#45;&gt;224</title>
<path fill="none" stroke="#000000" d="M778.5,-1036.63C778.5,-1035.01 778.5,-1033.3 778.5,-1031.56"/>
<polygon fill="#000000" stroke="#000000" points="782,-1031.65 778.5,-1021.65 775,-1031.65 782,-1031.65"/>
</g>
<!-- 225 -->
<g id="node14" class="node">
<title>225</title>
<polygon fill="#ffffff" stroke="#000000" points="865.93,-951.71 691.07,-951.71 691.07,-925.71 865.93,-925.71 865.93,-951.71"/>
<text text-anchor="middle" x="778.5" y="-934.41" font-family="Meiryo UI" font-size="14.00">int64_t var_40_1 = 0</text>
</g>
<!-- 224&#45;&gt;225 -->
<g id="edge14" class="edge">
<title>224&#45;&gt;225</title>
<path fill="none" stroke="#000000" d="M778.5,-993.3C778.5,-984.91 778.5,-973.57 778.5,-963.48"/>
<polygon fill="#000000" stroke="#000000" points="782,-963.59 778.5,-953.59 775,-963.59 782,-963.59"/>
</g>
<!-- 226 -->
<g id="node15" class="node">
<title>226</title>
<polygon fill="#ffffff" stroke="#000000" points="859.24,-908.71 697.76,-908.71 697.76,-882.71 859.24,-882.71 859.24,-908.71"/>
<text text-anchor="middle" x="778.5" y="-891.41" font-family="Meiryo UI" font-size="14.00">int64_t var_58 = 0</text>
</g>
<!-- 225&#45;&gt;226 -->
<g id="edge15" class="edge">
<title>225&#45;&gt;226</title>
<path fill="none" stroke="#000000" d="M778.5,-925.63C778.5,-924.01 778.5,-922.3 778.5,-920.56"/>
<polygon fill="#000000" stroke="#000000" points="782,-920.65 778.5,-910.65 775,-920.65 782,-920.65"/>
</g>
<!-- 227 -->
<g id="node16" class="node">
<title>227</title>
<polygon fill="#ffffff" stroke="#000000" points="865.93,-865.71 691.07,-865.71 691.07,-839.71 865.93,-839.71 865.93,-865.71"/>
<text text-anchor="middle" x="778.5" y="-848.41" font-family="Meiryo UI" font-size="14.00">int64_t var_50_1 = 0</text>
</g>
<!-- 226&#45;&gt;227 -->
<g id="edge16" class="edge">
<title>226&#45;&gt;227</title>
<path fill="none" stroke="#000000" d="M778.5,-882.63C778.5,-881.01 778.5,-879.3 778.5,-877.56"/>
<polygon fill="#000000" stroke="#000000" points="782,-877.65 778.5,-867.65 775,-877.65 782,-877.65"/>
</g>
<!-- 228 -->
<g id="node17" class="node">
<title>228</title>
<polygon fill="#ffffff" stroke="#000000" points="1064,-822.71 495.89,-822.71 493,-819.83 493,-796.71 1061.11,-796.71 1064,-799.6 1064,-822.71"/>
<polyline fill="none" stroke="#000000" points="1061.11,-819.83 493,-819.83"/>
<polyline fill="none" stroke="#000000" points="1061.11,-819.83 1061.11,-796.71"/>
<polyline fill="none" stroke="#000000" points="1061.11,-819.83 1064,-822.71"/>
<text text-anchor="middle" x="778.5" y="-805.41" font-family="Meiryo UI" font-size="14.00">int32_t set_reboot_recovery = property_set(&quot;sys.powerctl&quot;, &quot;reboot,recovery&quot;)</text>
</g>
<!-- 227&#45;&gt;228 -->
<g id="edge17" class="edge">
<title>227&#45;&gt;228</title>
<path fill="none" stroke="#000000" d="M778.5,-839.63C778.5,-838.01 778.5,-836.3 778.5,-834.56"/>
<polygon fill="#000000" stroke="#000000" points="782,-834.65 778.5,-824.65 775,-834.65 782,-834.65"/>
</g>
<!-- 229 -->
<g id="node18" class="node">
<title>229</title>
<polygon fill="#ffffaa" stroke="#000000" points="839.19,-779.71 717.81,-779.71 717.81,-753.71 839.19,-753.71 839.19,-779.71"/>
<text text-anchor="middle" x="778.5" y="-762.41" font-family="Meiryo UI" font-size="14.00">int32_t x0_4</text>
</g>
<!-- 228&#45;&gt;229 -->
<g id="edge18" class="edge">
<title>228&#45;&gt;229</title>
<path fill="none" stroke="#000000" d="M778.5,-796.63C778.5,-795.01 778.5,-793.3 778.5,-791.56"/>
<polygon fill="#000000" stroke="#000000" points="782,-791.65 778.5,-781.65 775,-791.65 782,-791.65"/>
</g>
<!-- 230 -->
<g id="node19" class="node">
<title>230</title>
<polygon fill="#ffffff" stroke="#000000" points="778.5,-736.71 595.57,-716.14 778.5,-695.57 961.43,-716.14 778.5,-736.71"/>
<text text-anchor="middle" x="778.5" y="-711.84" font-family="Meiryo UI" font-size="14.00">set_reboot_recovery == 0</text>
</g>
<!-- 229&#45;&gt;230 -->
<g id="edge19" class="edge">
<title>229&#45;&gt;230</title>
<path fill="none" stroke="#000000" d="M778.5,-753.46C778.5,-751.91 778.5,-750.28 778.5,-748.6"/>
<polygon fill="#000000" stroke="#000000" points="782,-748.66 778.5,-738.66 775,-748.66 782,-748.66"/>
</g>
<!-- 231 -->
<g id="node20" class="node">
<title>231</title>
<polygon fill="#ffffff" stroke="#000000" points="912.62,-661.57 531.26,-661.57 528.38,-658.68 528.38,-635.57 909.74,-635.57 912.62,-638.46 912.62,-661.57"/>
<polyline fill="none" stroke="#000000" points="909.74,-658.68 528.38,-658.68"/>
<polyline fill="none" stroke="#000000" points="909.74,-658.68 909.74,-635.57"/>
<polyline fill="none" stroke="#000000" points="909.74,-658.68 912.62,-661.57"/>
<text text-anchor="middle" x="720.5" y="-644.27" font-family="Meiryo UI" font-size="14.00">property_get(&quot;sys.powerctl&quot;, &amp;var_58, &amp;data_2ea3)</text>
</g>
<!-- 230&#45;&gt;231 -->
<g id="edge20" class="edge">
<title>230&#45;&gt;231</title>
<path fill="none" stroke="#000000" d="M762.65,-697.23C755.28,-688.89 746.48,-678.94 738.82,-670.29"/>
<polygon fill="#000000" stroke="#000000" points="741.63,-668.17 732.38,-663 736.38,-672.81 741.63,-668.17"/>
<text text-anchor="middle" x="764.5" y="-674.27" font-family="Meiryo UI" font-size="14.00">Yes</text>
</g>
<!-- 233 -->
<g id="node22" class="node">
<title>233</title>
<ellipse fill="#000000" stroke="#000000" cx="938.5" cy="-553.43" rx="5.14" ry="5.14"/>
</g>
<!-- 230&#45;&gt;233 -->
<g id="edge21" class="edge">
<title>230&#45;&gt;233</title>
<path fill="none" stroke="#000000" d="M860.49,-704.35C886.85,-696.7 913.58,-683.68 930.5,-661.57 950.97,-634.83 946.55,-592.52 942.16,-569.9"/>
<polygon fill="#000000" stroke="#000000" points="945.58,-569.15 939.99,-560.15 938.75,-570.67 945.58,-569.15"/>
<text text-anchor="middle" x="954.88" y="-614.27" font-family="Meiryo UI" font-size="14.00">No</text>
</g>
<!-- 232 -->
<g id="node21" class="node">
<title>232</title>
<polygon fill="#ffffff" stroke="#000000" points="904.38,-601.57 581.51,-601.57 578.62,-598.68 578.62,-575.57 901.49,-575.57 904.38,-578.46 904.38,-601.57"/>
<polyline fill="none" stroke="#000000" points="901.49,-598.68 578.62,-598.68"/>
<polyline fill="none" stroke="#000000" points="901.49,-598.68 901.49,-575.57"/>
<polyline fill="none" stroke="#000000" points="901.49,-598.68 904.38,-601.57"/>
<text text-anchor="middle" x="741.5" y="-584.27" font-family="Meiryo UI" font-size="14.00">x0_4 = strcmp(&quot;reboot,recovery&quot;, &amp;var_58)</text>
</g>
<!-- 231&#45;&gt;232 -->
<g id="edge22" class="edge">
<title>231&#45;&gt;232</title>
<path fill="none" stroke="#000000" d="M724.95,-635.27C727.35,-628.66 730.38,-620.29 733.19,-612.52"/>
<polygon fill="#000000" stroke="#000000" points="736.42,-613.87 736.54,-603.28 729.84,-611.49 736.42,-613.87"/>
</g>
<!-- 232&#45;&gt;233 -->
<g id="edge23" class="edge">
<title>232&#45;&gt;233</title>
<path fill="none" stroke="#000000" d="M815.7,-575.09C854.72,-568.52 899.17,-561.05 922.41,-557.14"/>
<polygon fill="#000000" stroke="#000000" points="922.66,-560.64 931.95,-555.53 921.5,-553.74 922.66,-560.64"/>
</g>
<!-- 752 -->
<g id="node23" class="node">
<title>752</title>
<polygon fill="#ffffff" stroke="#000000" points="938.5,-531.29 460.64,-510.71 938.5,-490.14 1416.36,-510.71 938.5,-531.29"/>
<text text-anchor="middle" x="938.5" y="-506.41" font-family="Meiryo UI" font-size="14.00">(set_reboot_recovery != 0 || (set_reboot_recovery == 0 &amp;&amp; x0_4 != 0))</text>
</g>
<!-- 233&#45;&gt;752 -->
<g id="edge24" class="edge">
<title>233&#45;&gt;752</title>
<path fill="none" stroke="#000000" d="M938.5,-548.07C938.5,-546.56 938.5,-544.74 938.5,-542.72"/>
<polygon fill="#000000" stroke="#000000" points="942,-543.09 938.5,-533.09 935,-543.09 942,-543.09"/>
</g>
<!-- 234 -->
<g id="node24" class="node">
<title>234</title>
<polygon fill="#ffffff" stroke="#000000" points="1036.38,-456.14 773.51,-456.14 770.62,-453.25 770.62,-430.14 1033.49,-430.14 1036.38,-433.03 1036.38,-456.14"/>
<polyline fill="none" stroke="#000000" points="1033.49,-453.25 770.62,-453.25"/>
<polyline fill="none" stroke="#000000" points="1033.49,-453.25 1033.49,-430.14"/>
<polyline fill="none" stroke="#000000" points="1033.49,-453.25 1036.38,-456.14"/>
<text text-anchor="middle" x="903.5" y="-438.84" font-family="Meiryo UI" font-size="14.00">int32_t* error_number = __errno()</text>
</g>
<!-- 752&#45;&gt;234 -->
<g id="edge25" class="edge">
<title>752&#45;&gt;234</title>
<path fill="none" stroke="#000000" d="M928.19,-490.4C924.14,-482.81 919.47,-474.06 915.29,-466.23"/>
<polygon fill="#000000" stroke="#000000" points="918.51,-464.82 910.71,-457.65 912.33,-468.12 918.51,-464.82"/>
<text text-anchor="middle" x="934.5" y="-468.84" font-family="Meiryo UI" font-size="14.00">Yes</text>
</g>
<!-- 237 -->
<g id="node27" class="node">
<title>237</title>
<ellipse fill="#000000" stroke="#000000" cx="847.5" cy="-322" rx="5.14" ry="5.14"/>
</g>
<!-- 752&#45;&gt;237 -->
<g id="edge26" class="edge">
<title>752&#45;&gt;237</title>
<path fill="none" stroke="#000000" d="M1134.12,-498.08C1253.96,-488.21 1384.5,-471.24 1384.5,-444.14 1384.5,-444.14 1384.5,-444.14 1384.5,-356.14 1384.5,-329.41 954.81,-323.98 864.16,-323.14"/>
<polygon fill="#000000" stroke="#000000" points="864.36,-319.64 854.33,-323.05 864.3,-326.64 864.36,-319.64"/>
<text text-anchor="middle" x="1393.88" y="-395.84" font-family="Meiryo UI" font-size="14.00">No</text>
</g>
<!-- 235 -->
<g id="node25" class="node">
<title>235</title>
<polygon fill="#ffffff" stroke="#000000" points="1312.62,-413.14 385.26,-413.14 382.38,-410.25 382.38,-387.14 1309.74,-387.14 1312.62,-390.03 1312.62,-413.14"/>
<polyline fill="none" stroke="#000000" points="1309.74,-410.25 382.38,-410.25"/>
<polyline fill="none" stroke="#000000" points="1309.74,-410.25 1309.74,-387.14"/>
<polyline fill="none" stroke="#000000" points="1309.74,-410.25 1312.62,-413.14"/>
<text text-anchor="middle" x="847.5" y="-395.84" font-family="Meiryo UI" font-size="14.00">__android_log_print(6, &quot;KeyEvent&quot;, &quot;property_set_verified() failed &#45;…&quot;, &quot;sys.powerctl&quot;, *error_number, strerror(*error_number))</text>
</g>
<!-- 234&#45;&gt;235 -->
<g id="edge27" class="edge">
<title>234&#45;&gt;235</title>
<path fill="none" stroke="#000000" d="M886.7,-429.84C882.49,-426.76 877.88,-423.38 873.34,-420.06"/>
<polygon fill="#000000" stroke="#000000" points="875.65,-417.41 865.51,-414.33 871.51,-423.06 875.65,-417.41"/>
</g>
<!-- 236 -->
<g id="node26" class="node">
<title>236</title>
<polygon fill="#ffffff" stroke="#000000" points="898.93,-370.14 798.96,-370.14 796.07,-367.25 796.07,-344.14 896.04,-344.14 898.93,-347.03 898.93,-370.14"/>
<polyline fill="none" stroke="#000000" points="896.04,-367.25 796.07,-367.25"/>
<polyline fill="none" stroke="#000000" points="896.04,-367.25 896.04,-344.14"/>
<polyline fill="none" stroke="#000000" points="896.04,-367.25 898.93,-370.14"/>
<text text-anchor="middle" x="847.5" y="-352.84" font-family="Meiryo UI" font-size="14.00">execl()</text>
</g>
<!-- 235&#45;&gt;236 -->
<g id="edge28" class="edge">
<title>235&#45;&gt;236</title>
<path fill="none" stroke="#000000" d="M847.5,-387.06C847.5,-385.44 847.5,-383.73 847.5,-381.99"/>
<polygon fill="#000000" stroke="#000000" points="851,-382.08 847.5,-372.08 844,-382.08 851,-382.08"/>
</g>
<!-- 236&#45;&gt;237 -->
<g id="edge29" class="edge">
<title>236&#45;&gt;237</title>
<path fill="none" stroke="#000000" d="M847.5,-343.8C847.5,-342.19 847.5,-340.51 847.5,-338.85"/>
<polygon fill="#000000" stroke="#000000" points="851,-338.93 847.5,-328.93 844,-338.93 851,-338.93"/>
</g>
<!-- 753 -->
<g id="node28" class="node">
<title>753</title>
<polygon fill="#ffffff" stroke="#000000" points="695.5,-299.86 587.5,-299.86 587.5,-273.86 695.5,-273.86 695.5,-299.86"/>
<text text-anchor="middle" x="641.5" y="-282.56" font-family="Meiryo UI" font-size="14.00">result = 0</text>
</g>
<!-- 237&#45;&gt;753 -->
<g id="edge30" class="edge">
<title>237&#45;&gt;753</title>
<path fill="none" stroke="#000000" d="M842.41,-320.18C823.86,-317.2 758.32,-306.65 707.08,-298.41"/>
<polygon fill="#000000" stroke="#000000" points="707.65,-294.95 697.22,-296.82 706.54,-301.87 707.65,-294.95"/>
</g>
<!-- 753&#45;&gt;238 -->
<g id="edge31" class="edge">
<title>753&#45;&gt;238</title>
<path fill="none" stroke="#000000" d="M587.08,-279.7C519.27,-272.03 407.22,-259.36 365.15,-254.6"/>
<polygon fill="#000000" stroke="#000000" points="365.56,-251.12 355.23,-253.48 364.78,-258.08 365.56,-251.12"/>
</g>
<!-- 754 -->
<g id="node30" class="node">
<title>754</title>
<polygon fill="#ffffff" stroke="#000000" points="348.5,-229.57 197.3,-209 348.5,-188.43 499.7,-209 348.5,-229.57"/>
<text text-anchor="middle" x="348.5" y="-204.7" font-family="Meiryo UI" font-size="14.00">(x21 &#45; x21) != 0</text>
</g>
<!-- 238&#45;&gt;754 -->
<g id="edge32" class="edge">
<title>238&#45;&gt;754</title>
<path fill="none" stroke="#000000" d="M348.5,-246.36C348.5,-244.85 348.5,-243.03 348.5,-241.01"/>
<polygon fill="#000000" stroke="#000000" points="352,-241.37 348.5,-231.37 345,-241.37 352,-241.37"/>
</g>
<!-- 239 -->
<g id="node31" class="node">
<title>239</title>
<polygon fill="#ffffff" stroke="#000000" points="352.24,-154.43 193.65,-154.43 190.76,-151.54 190.76,-128.43 349.35,-128.43 352.24,-131.32 352.24,-154.43"/>
<polyline fill="none" stroke="#000000" points="349.35,-151.54 190.76,-151.54"/>
<polyline fill="none" stroke="#000000" points="349.35,-151.54 349.35,-128.43"/>
<polyline fill="none" stroke="#000000" points="349.35,-151.54 352.24,-154.43"/>
<text text-anchor="middle" x="271.5" y="-137.13" font-family="Meiryo UI" font-size="14.00">__stack_chk_fail()</text>
</g>
<!-- 754&#45;&gt;239 -->
<g id="edge33" class="edge">
<title>754&#45;&gt;239</title>
<path fill="none" stroke="#000000" d="M328.27,-190.77C317.83,-181.88 305.05,-171 294.26,-161.81"/>
<polygon fill="#000000" stroke="#000000" points="296.8,-159.37 286.92,-155.56 292.26,-164.7 296.8,-159.37"/>
<text text-anchor="middle" x="327.5" y="-167.13" font-family="Meiryo UI" font-size="14.00">Yes</text>
</g>
<!-- 240 -->
<g id="node32" class="node">
<title>240</title>
<ellipse fill="#000000" stroke="#000000" cx="347.5" cy="-106.29" rx="5.14" ry="5.14"/>
</g>
<!-- 754&#45;&gt;240 -->
<g id="edge34" class="edge">
<title>754&#45;&gt;240</title>
<path fill="none" stroke="#000000" d="M360.42,-189.8C369.61,-173.33 379.37,-148.64 370.5,-128.43 368.4,-123.65 364.63,-119.47 360.74,-116.13"/>
<polygon fill="#000000" stroke="#000000" points="363.1,-113.51 352.94,-110.51 359.01,-119.19 363.1,-113.51"/>
<text text-anchor="middle" x="383.88" y="-137.13" font-family="Meiryo UI" font-size="14.00">No</text>
</g>
<!-- 239&#45;&gt;240 -->
<g id="edge35" class="edge">
<title>239&#45;&gt;240</title>
<path fill="none" stroke="#000000" d="M299.8,-128.09C310.83,-123.28 323.02,-117.96 332.32,-113.91"/>
<polygon fill="#000000" stroke="#000000" points="333.67,-117.14 341.43,-109.93 330.87,-110.72 333.67,-117.14"/>
</g>
<!-- 755 -->
<g id="node33" class="node">
<title>755</title>
<polygon fill="#ffffff" stroke="#000000" points="411.53,-84.14 283.47,-84.14 283.47,-58.14 411.53,-58.14 411.53,-84.14"/>
<text text-anchor="middle" x="347.5" y="-66.84" font-family="Meiryo UI" font-size="14.00">return result</text>
</g>
<!-- 240&#45;&gt;755 -->
<g id="edge36" class="edge">
<title>240&#45;&gt;755</title>
<path fill="none" stroke="#000000" d="M347.5,-100.68C347.5,-99.23 347.5,-97.53 347.5,-95.69"/>
<polygon fill="#000000" stroke="#000000" points="351,-95.93 347.5,-85.93 344,-95.93 351,-95.93"/>
</g>
<!-- 241 -->
<g id="node34" class="node">
<title>241</title>
<ellipse fill="#ffffff" stroke="#000000" cx="347.5" cy="-20.57" rx="72" ry="20.57"/>
<text text-anchor="middle" x="347.5" y="-16.27" font-family="Meiryo UI" font-size="14.00">END</text>
</g>
<!-- 755&#45;&gt;241 -->
<g id="edge37" class="edge">
<title>755&#45;&gt;241</title>
<path fill="none" stroke="#000000" d="M347.5,-57.89C347.5,-56.34 347.5,-54.71 347.5,-53.02"/>
<polygon fill="#000000" stroke="#000000" points="351,-53.09 347.5,-43.09 344,-53.09 351,-53.09"/>
</g>
</g>
</svg>
