<?xml version="1.0" encoding="UTF-8" standalone="no"?>
<!DOCTYPE svg PUBLIC "-//W3C//DTD SVG 1.1//EN"
 "http://www.w3.org/Graphics/SVG/1.1/DTD/svg11.dtd">
<!-- Generated by graphviz version 9.0.0 (20230911.1827)
 -->
<!-- Title: graph_name Pages: 1 -->
<svg width="691pt" height="153pt"
 viewBox="0.00 0.00 691.42 153.37" xmlns="http://www.w3.org/2000/svg" xmlns:xlink="http://www.w3.org/1999/xlink">
<g id="graph0" class="graph" transform="scale(1 1) rotate(0) translate(4 149.37)">
<title>graph_name</title>
<polygon fill="#f2f2f2" stroke="none" points="-4,4 -4,-149.37 687.42,-149.37 687.42,4 -4,4"/>
<!-- 93 -->
<g id="node1" class="node">
<title>93</title>
<ellipse fill="#ffffff" stroke="#000000" cx="341.71" cy="-114.26" rx="341.71" ry="31.11"/>
<text text-anchor="middle" x="341.71" y="-118.96" font-family="Meiryo UI" font-size="14.00">START</text>
<text text-anchor="middle" x="341.71" y="-100.96" font-family="Meiryo UI" font-size="14.00">int64_t send(int32_t arg1, int64_t arg2, size_t arg3, int32_t arg4)</text>
</g>
<!-- 94 -->
<g id="node2" class="node">
<title>94</title>
<polygon fill="#ffffff" stroke="#000000" points="479.28,-75.14 207.03,-75.14 204.14,-72.25 204.14,-49.14 476.39,-49.14 479.28,-52.03 479.28,-75.14"/>
<polyline fill="none" stroke="#000000" points="476.39,-72.25 204.14,-72.25"/>
<polyline fill="none" stroke="#000000" points="476.39,-72.25 476.39,-49.14"/>
<polyline fill="none" stroke="#000000" points="476.39,-72.25 479.28,-75.14"/>
<text text-anchor="middle" x="341.71" y="-57.84" font-family="Meiryo UI" font-size="14.00">return send(arg1, arg2, arg3, arg4)</text>
</g>
<!-- 93&#45;&gt;94 -->
<g id="edge1" class="edge">
<title>93&#45;&gt;94</title>
<path fill="none" stroke="#000000" d="M341.71,-82.66C341.71,-82.5 341.71,-82.34 341.71,-82.17"/>
<polygon fill="#000000" stroke="#000000" points="345.21,-86.72 341.71,-76.72 338.21,-86.72 345.21,-86.72"/>
</g>
<!-- 95 -->
<g id="node3" class="node">
<title>95</title>
<ellipse fill="#ffffff" stroke="#000000" cx="341.71" cy="-20.57" rx="72" ry="20.57"/>
<text text-anchor="middle" x="341.71" y="-16.27" font-family="Meiryo UI" font-size="14.00">END</text>
</g>
<!-- 94&#45;&gt;95 -->
<g id="edge2" class="edge">
<title>94&#45;&gt;95</title>
<path fill="none" stroke="#000000" d="M341.71,-49.06C341.71,-48.91 341.71,-48.76 341.71,-48.61"/>
<polygon fill="#000000" stroke="#000000" points="345.21,-53.12 341.71,-43.12 338.21,-53.12 345.21,-53.12"/>
</g>
<!-- 911 -->
<g id="node4" class="node">
<title>911</title>
<polygon fill="#bbccff" stroke="none" points="618.14,-75.14 515.28,-75.14 515.28,-49.14 618.14,-49.14 618.14,-75.14"/>
<text text-anchor="start" x="523.28" y="-57.84" font-family="Meiryo UI" font-size="14.00">tailcall</text>
</g>
<!-- 94&#45;&gt;911 -->
<g id="edge3" class="edge">
<title>94&#45;&gt;911</title>
<path fill="none" stroke="#aaaaff" d="M479.7,-62.14C491.59,-62.14 503.49,-62.14 515.39,-62.14"/>
</g>
</g>
</svg>
