<?xml version="1.0" encoding="UTF-8" standalone="no"?>
<!DOCTYPE svg PUBLIC "-//W3C//DTD SVG 1.1//EN"
 "http://www.w3.org/Graphics/SVG/1.1/DTD/svg11.dtd">
<!-- Generated by graphviz version 9.0.0 (20230911.1827)
 -->
<!-- Title: graph_name Pages: 1 -->
<svg width="512pt" height="747pt"
 viewBox="0.00 0.00 511.50 746.80" xmlns="http://www.w3.org/2000/svg" xmlns:xlink="http://www.w3.org/1999/xlink">
<g id="graph0" class="graph" transform="scale(1 1) rotate(0) translate(4 742.8)">
<title>graph_name</title>
<polygon fill="#f2f2f2" stroke="none" points="-4,4 -4,-742.8 507.5,-742.8 507.5,4 -4,4"/>
<!-- 291 -->
<g id="node1" class="node">
<title>291</title>
<ellipse fill="#ffffff" stroke="#000000" cx="251.75" cy="-707.68" rx="167.23" ry="31.11"/>
<text text-anchor="middle" x="251.75" y="-712.38" font-family="Meiryo UI" font-size="14.00">START</text>
<text text-anchor="middle" x="251.75" y="-694.38" font-family="Meiryo UI" font-size="14.00">int64_t set_shutdownreceiver()</text>
</g>
<!-- 292 -->
<g id="node2" class="node">
<title>292</title>
<polygon fill="#ffffff" stroke="#000000" points="383.12,-659.57 120.38,-659.57 120.38,-633.57 383.12,-633.57 383.12,-659.57"/>
<text text-anchor="middle" x="251.75" y="-642.27" font-family="Meiryo UI" font-size="14.00">int64_t x19 = *__stack_chk_guard</text>
</g>
<!-- 291&#45;&gt;292 -->
<g id="edge1" class="edge">
<title>291&#45;&gt;292</title>
<path fill="none" stroke="#000000" d="M251.75,-676.09C251.75,-674.47 251.75,-672.86 251.75,-671.27"/>
<polygon fill="#000000" stroke="#000000" points="255.25,-671.39 251.75,-661.39 248.25,-671.39 255.25,-671.39"/>
</g>
<!-- 293 -->
<g id="node3" class="node">
<title>293</title>
<polygon fill="#ffffff" stroke="#000000" points="332.49,-616.57 171.01,-616.57 171.01,-590.57 332.49,-590.57 332.49,-616.57"/>
<text text-anchor="middle" x="251.75" y="-599.27" font-family="Meiryo UI" font-size="14.00">int64_t var_38 = 0</text>
</g>
<!-- 292&#45;&gt;293 -->
<g id="edge2" class="edge">
<title>292&#45;&gt;293</title>
<path fill="none" stroke="#000000" d="M251.75,-633.49C251.75,-631.87 251.75,-630.16 251.75,-628.42"/>
<polygon fill="#000000" stroke="#000000" points="255.25,-628.5 251.75,-618.5 248.25,-628.5 255.25,-628.5"/>
</g>
<!-- 294 -->
<g id="node4" class="node">
<title>294</title>
<polygon fill="#ffffff" stroke="#000000" points="332.49,-573.57 171.01,-573.57 171.01,-547.57 332.49,-547.57 332.49,-573.57"/>
<text text-anchor="middle" x="251.75" y="-556.27" font-family="Meiryo UI" font-size="14.00">int64_t var_30 = 0</text>
</g>
<!-- 293&#45;&gt;294 -->
<g id="edge3" class="edge">
<title>293&#45;&gt;294</title>
<path fill="none" stroke="#000000" d="M251.75,-590.49C251.75,-588.87 251.75,-587.16 251.75,-585.42"/>
<polygon fill="#000000" stroke="#000000" points="255.25,-585.5 251.75,-575.5 248.25,-585.5 255.25,-585.5"/>
</g>
<!-- 295 -->
<g id="node5" class="node">
<title>295</title>
<polygon fill="#ffffff" stroke="#000000" points="332.49,-530.57 171.01,-530.57 171.01,-504.57 332.49,-504.57 332.49,-530.57"/>
<text text-anchor="middle" x="251.75" y="-513.27" font-family="Meiryo UI" font-size="14.00">int64_t var_48 = 0</text>
</g>
<!-- 294&#45;&gt;295 -->
<g id="edge4" class="edge">
<title>294&#45;&gt;295</title>
<path fill="none" stroke="#000000" d="M251.75,-547.49C251.75,-545.87 251.75,-544.16 251.75,-542.42"/>
<polygon fill="#000000" stroke="#000000" points="255.25,-542.5 251.75,-532.5 248.25,-542.5 255.25,-542.5"/>
</g>
<!-- 296 -->
<g id="node6" class="node">
<title>296</title>
<polygon fill="#ffffff" stroke="#000000" points="332.49,-487.57 171.01,-487.57 171.01,-461.57 332.49,-461.57 332.49,-487.57"/>
<text text-anchor="middle" x="251.75" y="-470.27" font-family="Meiryo UI" font-size="14.00">int64_t var_40 = 0</text>
</g>
<!-- 295&#45;&gt;296 -->
<g id="edge5" class="edge">
<title>295&#45;&gt;296</title>
<path fill="none" stroke="#000000" d="M251.75,-504.49C251.75,-502.87 251.75,-501.16 251.75,-499.42"/>
<polygon fill="#000000" stroke="#000000" points="255.25,-499.5 251.75,-489.5 248.25,-499.5 255.25,-499.5"/>
</g>
<!-- 297 -->
<g id="node7" class="node">
<title>297</title>
<polygon fill="#ffffff" stroke="#000000" points="356.88,-444.57 146.62,-444.57 146.62,-418.57 356.88,-418.57 356.88,-444.57"/>
<text text-anchor="middle" x="251.75" y="-427.27" font-family="Meiryo UI" font-size="14.00">int64_t var_40_1 = 0x1cb0</text>
</g>
<!-- 296&#45;&gt;297 -->
<g id="edge6" class="edge">
<title>296&#45;&gt;297</title>
<path fill="none" stroke="#000000" d="M251.75,-461.49C251.75,-459.87 251.75,-458.16 251.75,-456.42"/>
<polygon fill="#000000" stroke="#000000" points="255.25,-456.5 251.75,-446.5 248.25,-456.5 255.25,-456.5"/>
</g>
<!-- 298 -->
<g id="node8" class="node">
<title>298</title>
<polygon fill="#ffffff" stroke="#000000" points="349.21,-401.57 157.18,-401.57 154.29,-398.68 154.29,-375.57 346.32,-375.57 349.21,-378.46 349.21,-401.57"/>
<polyline fill="none" stroke="#000000" points="346.32,-398.68 154.29,-398.68"/>
<polyline fill="none" stroke="#000000" points="346.32,-398.68 346.32,-375.57"/>
<polyline fill="none" stroke="#000000" points="346.32,-398.68 349.21,-401.57"/>
<text text-anchor="middle" x="251.75" y="-384.27" font-family="Meiryo UI" font-size="14.00">sigaddset(&amp;var_38, 0xf)</text>
</g>
<!-- 297&#45;&gt;298 -->
<g id="edge7" class="edge">
<title>297&#45;&gt;298</title>
<path fill="none" stroke="#000000" d="M251.75,-418.49C251.75,-416.87 251.75,-415.16 251.75,-413.42"/>
<polygon fill="#000000" stroke="#000000" points="255.25,-413.5 251.75,-403.5 248.25,-413.5 255.25,-413.5"/>
</g>
<!-- 299 -->
<g id="node9" class="node">
<title>299</title>
<polygon fill="#ffffff" stroke="#000000" points="379.29,-358.57 127.1,-358.57 124.21,-355.68 124.21,-332.57 376.4,-332.57 379.29,-335.46 379.29,-358.57"/>
<polyline fill="none" stroke="#000000" points="376.4,-355.68 124.21,-355.68"/>
<polyline fill="none" stroke="#000000" points="376.4,-355.68 376.4,-332.57"/>
<polyline fill="none" stroke="#000000" points="376.4,-355.68 379.29,-358.57"/>
<text text-anchor="middle" x="251.75" y="-341.27" font-family="Meiryo UI" font-size="14.00">sigaction(0xf, &amp;var_48, nullptr)</text>
</g>
<!-- 298&#45;&gt;299 -->
<g id="edge8" class="edge">
<title>298&#45;&gt;299</title>
<path fill="none" stroke="#000000" d="M251.75,-375.49C251.75,-373.87 251.75,-372.16 251.75,-370.42"/>
<polygon fill="#000000" stroke="#000000" points="255.25,-370.5 251.75,-360.5 248.25,-370.5 255.25,-370.5"/>
</g>
<!-- 300 -->
<g id="node10" class="node">
<title>300</title>
<polygon fill="#ffffff" stroke="#000000" points="372.61,-315.57 133.78,-315.57 130.89,-312.68 130.89,-289.57 369.72,-289.57 372.61,-292.46 372.61,-315.57"/>
<polyline fill="none" stroke="#000000" points="369.72,-312.68 130.89,-312.68"/>
<polyline fill="none" stroke="#000000" points="369.72,-312.68 369.72,-289.57"/>
<polyline fill="none" stroke="#000000" points="369.72,-312.68 372.61,-315.57"/>
<text text-anchor="middle" x="251.75" y="-298.27" font-family="Meiryo UI" font-size="14.00">sigaction(2, &amp;var_48, nullptr)</text>
</g>
<!-- 299&#45;&gt;300 -->
<g id="edge9" class="edge">
<title>299&#45;&gt;300</title>
<path fill="none" stroke="#000000" d="M251.75,-332.49C251.75,-330.87 251.75,-329.16 251.75,-327.42"/>
<polygon fill="#000000" stroke="#000000" points="255.25,-327.5 251.75,-317.5 248.25,-327.5 255.25,-327.5"/>
</g>
<!-- 301 -->
<g id="node11" class="node">
<title>301</title>
<polygon fill="#ffffff" stroke="#000000" points="503.5,-272.57 2.89,-272.57 0,-269.68 0,-246.57 500.61,-246.57 503.5,-249.46 503.5,-272.57"/>
<polyline fill="none" stroke="#000000" points="500.61,-269.68 0,-269.68"/>
<polyline fill="none" stroke="#000000" points="500.61,-269.68 500.61,-246.57"/>
<polyline fill="none" stroke="#000000" points="500.61,-269.68 503.5,-272.57"/>
<text text-anchor="middle" x="251.75" y="-255.27" font-family="Meiryo UI" font-size="14.00">int64_t result = property_set(&quot;ro.infr.shutdownreceiver&quot;, &quot;keyevent&quot;)</text>
</g>
<!-- 300&#45;&gt;301 -->
<g id="edge10" class="edge">
<title>300&#45;&gt;301</title>
<path fill="none" stroke="#000000" d="M251.75,-289.49C251.75,-287.87 251.75,-286.16 251.75,-284.42"/>
<polygon fill="#000000" stroke="#000000" points="255.25,-284.5 251.75,-274.5 248.25,-284.5 255.25,-284.5"/>
</g>
<!-- 302 -->
<g id="node12" class="node">
<title>302</title>
<polygon fill="#ffffff" stroke="#000000" points="251.75,-229.57 100.55,-209 251.75,-188.43 402.95,-209 251.75,-229.57"/>
<text text-anchor="middle" x="251.75" y="-204.7" font-family="Meiryo UI" font-size="14.00">(x19 &#45; x19) != 0</text>
</g>
<!-- 301&#45;&gt;302 -->
<g id="edge11" class="edge">
<title>301&#45;&gt;302</title>
<path fill="none" stroke="#000000" d="M251.75,-246.31C251.75,-244.77 251.75,-243.14 251.75,-241.45"/>
<polygon fill="#000000" stroke="#000000" points="255.25,-241.51 251.75,-231.51 248.25,-241.51 255.25,-241.51"/>
</g>
<!-- 303 -->
<g id="node13" class="node">
<title>303</title>
<polygon fill="#ffffff" stroke="#000000" points="255.49,-154.43 96.9,-154.43 94.01,-151.54 94.01,-128.43 252.6,-128.43 255.49,-131.32 255.49,-154.43"/>
<polyline fill="none" stroke="#000000" points="252.6,-151.54 94.01,-151.54"/>
<polyline fill="none" stroke="#000000" points="252.6,-151.54 252.6,-128.43"/>
<polyline fill="none" stroke="#000000" points="252.6,-151.54 255.49,-154.43"/>
<text text-anchor="middle" x="174.75" y="-137.13" font-family="Meiryo UI" font-size="14.00">__stack_chk_fail()</text>
</g>
<!-- 302&#45;&gt;303 -->
<g id="edge12" class="edge">
<title>302&#45;&gt;303</title>
<path fill="none" stroke="#000000" d="M231.52,-190.77C221.08,-181.88 208.3,-171 197.51,-161.81"/>
<polygon fill="#000000" stroke="#000000" points="200.05,-159.37 190.17,-155.56 195.51,-164.7 200.05,-159.37"/>
<text text-anchor="middle" x="230.75" y="-167.13" font-family="Meiryo UI" font-size="14.00">Yes</text>
</g>
<!-- 304 -->
<g id="node14" class="node">
<title>304</title>
<ellipse fill="#000000" stroke="#000000" cx="250.75" cy="-106.29" rx="5.14" ry="5.14"/>
</g>
<!-- 302&#45;&gt;304 -->
<g id="edge13" class="edge">
<title>302&#45;&gt;304</title>
<path fill="none" stroke="#000000" d="M263.67,-189.8C272.86,-173.33 282.62,-148.64 273.75,-128.43 271.65,-123.65 267.88,-119.47 263.99,-116.13"/>
<polygon fill="#000000" stroke="#000000" points="266.35,-113.51 256.19,-110.51 262.26,-119.19 266.35,-113.51"/>
<text text-anchor="middle" x="287.12" y="-137.13" font-family="Meiryo UI" font-size="14.00">No</text>
</g>
<!-- 303&#45;&gt;304 -->
<g id="edge14" class="edge">
<title>303&#45;&gt;304</title>
<path fill="none" stroke="#000000" d="M203.05,-128.09C214.08,-123.28 226.27,-117.96 235.57,-113.91"/>
<polygon fill="#000000" stroke="#000000" points="236.92,-117.14 244.68,-109.93 234.12,-110.72 236.92,-117.14"/>
</g>
<!-- 763 -->
<g id="node15" class="node">
<title>763</title>
<polygon fill="#ffffff" stroke="#000000" points="314.78,-84.14 186.72,-84.14 186.72,-58.14 314.78,-58.14 314.78,-84.14"/>
<text text-anchor="middle" x="250.75" y="-66.84" font-family="Meiryo UI" font-size="14.00">return result</text>
</g>
<!-- 304&#45;&gt;763 -->
<g id="edge15" class="edge">
<title>304&#45;&gt;763</title>
<path fill="none" stroke="#000000" d="M250.75,-100.68C250.75,-99.23 250.75,-97.53 250.75,-95.69"/>
<polygon fill="#000000" stroke="#000000" points="254.25,-95.93 250.75,-85.93 247.25,-95.93 254.25,-95.93"/>
</g>
<!-- 305 -->
<g id="node16" class="node">
<title>305</title>
<ellipse fill="#ffffff" stroke="#000000" cx="250.75" cy="-20.57" rx="72" ry="20.57"/>
<text text-anchor="middle" x="250.75" y="-16.27" font-family="Meiryo UI" font-size="14.00">END</text>
</g>
<!-- 763&#45;&gt;305 -->
<g id="edge16" class="edge">
<title>763&#45;&gt;305</title>
<path fill="none" stroke="#000000" d="M250.75,-57.89C250.75,-56.34 250.75,-54.71 250.75,-53.02"/>
<polygon fill="#000000" stroke="#000000" points="254.25,-53.09 250.75,-43.09 247.25,-53.09 254.25,-53.09"/>
</g>
</g>
</svg>
