<?xml version="1.0" encoding="UTF-8" standalone="no"?>
<!DOCTYPE svg PUBLIC "-//W3C//DTD SVG 1.1//EN"
 "http://www.w3.org/Graphics/SVG/1.1/DTD/svg11.dtd">
<!-- Generated by graphviz version 9.0.0 (20230911.1827)
 -->
<!-- Title: graph_name Pages: 1 -->
<svg width="791pt" height="153pt"
 viewBox="0.00 0.00 791.12 153.37" xmlns="http://www.w3.org/2000/svg" xmlns:xlink="http://www.w3.org/1999/xlink">
<g id="graph0" class="graph" transform="scale(1 1) rotate(0) translate(4 149.37)">
<title>graph_name</title>
<polygon fill="#f2f2f2" stroke="none" points="-4,4 -4,-149.37 787.12,-149.37 787.12,4 -4,4"/>
<!-- 87 -->
<g id="node1" class="node">
<title>87</title>
<ellipse fill="#ffffff" stroke="#000000" cx="391.56" cy="-114.26" rx="391.56" ry="31.11"/>
<text text-anchor="middle" x="391.56" y="-118.96" font-family="Meiryo UI" font-size="14.00">START</text>
<text text-anchor="middle" x="391.56" y="-100.96" font-family="Meiryo UI" font-size="14.00">int64_t sigaction(int32_t arg1, struct sigaction* arg2, struct sigaction* arg3)</text>
</g>
<!-- 88 -->
<g id="node2" class="node">
<title>88</title>
<polygon fill="#ffffff" stroke="#000000" points="525.79,-75.14 260.22,-75.14 257.33,-72.25 257.33,-49.14 522.9,-49.14 525.79,-52.03 525.79,-75.14"/>
<polyline fill="none" stroke="#000000" points="522.9,-72.25 257.33,-72.25"/>
<polyline fill="none" stroke="#000000" points="522.9,-72.25 522.9,-49.14"/>
<polyline fill="none" stroke="#000000" points="522.9,-72.25 525.79,-75.14"/>
<text text-anchor="middle" x="391.56" y="-57.84" font-family="Meiryo UI" font-size="14.00">return sigaction(arg1, arg2, arg3)</text>
</g>
<!-- 87&#45;&gt;88 -->
<g id="edge1" class="edge">
<title>87&#45;&gt;88</title>
<path fill="none" stroke="#000000" d="M391.56,-82.66C391.56,-82.5 391.56,-82.34 391.56,-82.17"/>
<polygon fill="#000000" stroke="#000000" points="395.06,-86.72 391.56,-76.72 388.06,-86.72 395.06,-86.72"/>
</g>
<!-- 89 -->
<g id="node3" class="node">
<title>89</title>
<ellipse fill="#ffffff" stroke="#000000" cx="391.56" cy="-20.57" rx="72" ry="20.57"/>
<text text-anchor="middle" x="391.56" y="-16.27" font-family="Meiryo UI" font-size="14.00">END</text>
</g>
<!-- 88&#45;&gt;89 -->
<g id="edge2" class="edge">
<title>88&#45;&gt;89</title>
<path fill="none" stroke="#000000" d="M391.56,-49.06C391.56,-48.91 391.56,-48.76 391.56,-48.61"/>
<polygon fill="#000000" stroke="#000000" points="395.06,-53.12 391.56,-43.12 388.06,-53.12 395.06,-53.12"/>
</g>
<!-- 905 -->
<g id="node4" class="node">
<title>905</title>
<polygon fill="#bbccff" stroke="none" points="664.99,-75.14 562.13,-75.14 562.13,-49.14 664.99,-49.14 664.99,-75.14"/>
<text text-anchor="start" x="570.13" y="-57.84" font-family="Meiryo UI" font-size="14.00">tailcall</text>
</g>
<!-- 88&#45;&gt;905 -->
<g id="edge3" class="edge">
<title>88&#45;&gt;905</title>
<path fill="none" stroke="#aaaaff" d="M525.97,-62.14C538.06,-62.14 550.15,-62.14 562.24,-62.14"/>
</g>
</g>
</svg>
