<?xml version="1.0" encoding="UTF-8" standalone="no"?>
<!DOCTYPE svg PUBLIC "-//W3C//DTD SVG 1.1//EN"
 "http://www.w3.org/Graphics/SVG/1.1/DTD/svg11.dtd">
<!-- Generated by graphviz version 9.0.0 (20230911.1827)
 -->
<!-- Title: graph_name Pages: 1 -->
<svg width="506pt" height="153pt"
 viewBox="0.00 0.00 505.56 153.37" xmlns="http://www.w3.org/2000/svg" xmlns:xlink="http://www.w3.org/1999/xlink">
<g id="graph0" class="graph" transform="scale(1 1) rotate(0) translate(4 149.37)">
<title>graph_name</title>
<polygon fill="#f2f2f2" stroke="none" points="-4,4 -4,-149.37 501.56,-149.37 501.56,4 -4,4"/>
<!-- 84 -->
<g id="node1" class="node">
<title>84</title>
<ellipse fill="#ffffff" stroke="#000000" cx="244.13" cy="-114.26" rx="244.13" ry="31.11"/>
<text text-anchor="middle" x="244.13" y="-118.96" font-family="Meiryo UI" font-size="14.00">START</text>
<text text-anchor="middle" x="244.13" y="-100.96" font-family="Meiryo UI" font-size="14.00">int64_t sigaddset(sigset_t* arg1, int32_t arg2)</text>
</g>
<!-- 85 -->
<g id="node2" class="node">
<title>85</title>
<polygon fill="#ffffff" stroke="#000000" points="358.3,-75.14 132.85,-75.14 129.96,-72.25 129.96,-49.14 355.41,-49.14 358.3,-52.03 358.3,-75.14"/>
<polyline fill="none" stroke="#000000" points="355.41,-72.25 129.96,-72.25"/>
<polyline fill="none" stroke="#000000" points="355.41,-72.25 355.41,-49.14"/>
<polyline fill="none" stroke="#000000" points="355.41,-72.25 358.3,-75.14"/>
<text text-anchor="middle" x="244.13" y="-57.84" font-family="Meiryo UI" font-size="14.00">return sigaddset(arg1, arg2)</text>
</g>
<!-- 84&#45;&gt;85 -->
<g id="edge1" class="edge">
<title>84&#45;&gt;85</title>
<path fill="none" stroke="#000000" d="M244.13,-82.66C244.13,-82.5 244.13,-82.34 244.13,-82.17"/>
<polygon fill="#000000" stroke="#000000" points="247.63,-86.72 244.13,-76.72 240.63,-86.72 247.63,-86.72"/>
</g>
<!-- 86 -->
<g id="node3" class="node">
<title>86</title>
<ellipse fill="#ffffff" stroke="#000000" cx="244.13" cy="-20.57" rx="72" ry="20.57"/>
<text text-anchor="middle" x="244.13" y="-16.27" font-family="Meiryo UI" font-size="14.00">END</text>
</g>
<!-- 85&#45;&gt;86 -->
<g id="edge2" class="edge">
<title>85&#45;&gt;86</title>
<path fill="none" stroke="#000000" d="M244.13,-49.06C244.13,-48.91 244.13,-48.76 244.13,-48.61"/>
<polygon fill="#000000" stroke="#000000" points="247.63,-53.12 244.13,-43.12 240.63,-53.12 247.63,-53.12"/>
</g>
<!-- 902 -->
<g id="node4" class="node">
<title>902</title>
<polygon fill="#bbccff" stroke="none" points="497.56,-75.14 394.7,-75.14 394.7,-49.14 497.56,-49.14 497.56,-75.14"/>
<text text-anchor="start" x="402.7" y="-57.84" font-family="Meiryo UI" font-size="14.00">tailcall</text>
</g>
<!-- 85&#45;&gt;902 -->
<g id="edge3" class="edge">
<title>85&#45;&gt;902</title>
<path fill="none" stroke="#aaaaff" d="M358.54,-62.14C370.63,-62.14 382.72,-62.14 394.81,-62.14"/>
</g>
</g>
</svg>
