<?xml version="1.0" encoding="UTF-8" standalone="no"?>
<!DOCTYPE svg PUBLIC "-//W3C//DTD SVG 1.1//EN"
 "http://www.w3.org/Graphics/SVG/1.1/DTD/svg11.dtd">
<!-- Generated by graphviz version 9.0.0 (20230911.1827)
 -->
<!-- Title: graph_name Pages: 1 -->
<svg width="438pt" height="153pt"
 viewBox="0.00 0.00 438.13 153.37" xmlns="http://www.w3.org/2000/svg" xmlns:xlink="http://www.w3.org/1999/xlink">
<g id="graph0" class="graph" transform="scale(1 1) rotate(0) translate(4 149.37)">
<title>graph_name</title>
<polygon fill="#f2f2f2" stroke="none" points="-4,4 -4,-149.37 434.13,-149.37 434.13,4 -4,4"/>
<!-- 12 -->
<g id="node1" class="node">
<title>12</title>
<ellipse fill="#ffffff" stroke="#000000" cx="166.7" cy="-114.26" rx="166.7" ry="31.11"/>
<text text-anchor="middle" x="166.7" y="-118.96" font-family="Meiryo UI" font-size="14.00">START</text>
<text text-anchor="middle" x="166.7" y="-100.96" font-family="Meiryo UI" font-size="14.00">int64_t SpecialCharacterFilter()</text>
</g>
<!-- 13 -->
<g id="node2" class="node">
<title>13</title>
<polygon fill="#ffffff" stroke="#000000" points="290.9,-75.14 45.39,-75.14 42.5,-72.25 42.5,-49.14 288.01,-49.14 290.9,-52.03 290.9,-75.14"/>
<polyline fill="none" stroke="#000000" points="288.01,-72.25 42.5,-72.25"/>
<polyline fill="none" stroke="#000000" points="288.01,-72.25 288.01,-49.14"/>
<polyline fill="none" stroke="#000000" points="288.01,-72.25 290.9,-75.14"/>
<text text-anchor="middle" x="166.7" y="-57.84" font-family="Meiryo UI" font-size="14.00">return SpecialCharacterFilter()</text>
</g>
<!-- 12&#45;&gt;13 -->
<g id="edge1" class="edge">
<title>12&#45;&gt;13</title>
<path fill="none" stroke="#000000" d="M166.7,-82.66C166.7,-82.5 166.7,-82.34 166.7,-82.17"/>
<polygon fill="#000000" stroke="#000000" points="170.2,-86.72 166.7,-76.72 163.2,-86.72 170.2,-86.72"/>
</g>
<!-- 14 -->
<g id="node3" class="node">
<title>14</title>
<ellipse fill="#ffffff" stroke="#000000" cx="166.7" cy="-20.57" rx="72" ry="20.57"/>
<text text-anchor="middle" x="166.7" y="-16.27" font-family="Meiryo UI" font-size="14.00">END</text>
</g>
<!-- 13&#45;&gt;14 -->
<g id="edge2" class="edge">
<title>13&#45;&gt;14</title>
<path fill="none" stroke="#000000" d="M166.7,-49.06C166.7,-48.91 166.7,-48.76 166.7,-48.61"/>
<polygon fill="#000000" stroke="#000000" points="170.2,-53.12 166.7,-43.12 163.2,-53.12 170.2,-53.12"/>
</g>
<!-- 830 -->
<g id="node4" class="node">
<title>830</title>
<polygon fill="#bbccff" stroke="none" points="430.13,-75.14 327.27,-75.14 327.27,-49.14 430.13,-49.14 430.13,-75.14"/>
<text text-anchor="start" x="335.27" y="-57.84" font-family="Meiryo UI" font-size="14.00">tailcall</text>
</g>
<!-- 13&#45;&gt;830 -->
<g id="edge3" class="edge">
<title>13&#45;&gt;830</title>
<path fill="none" stroke="#aaaaff" d="M291.33,-62.14C303.39,-62.14 315.45,-62.14 327.51,-62.14"/>
</g>
</g>
</svg>
