<?xml version="1.0" encoding="UTF-8" standalone="no"?>
<!DOCTYPE svg PUBLIC "-//W3C//DTD SVG 1.1//EN"
 "http://www.w3.org/Graphics/SVG/1.1/DTD/svg11.dtd">
<!-- Generated by graphviz version 9.0.0 (20230911.1827)
 -->
<!-- Title: graph_name Pages: 1 -->
<svg width="312pt" height="153pt"
 viewBox="0.00 0.00 312.06 153.37" xmlns="http://www.w3.org/2000/svg" xmlns:xlink="http://www.w3.org/1999/xlink">
<g id="graph0" class="graph" transform="scale(1 1) rotate(0) translate(4 149.37)">
<title>graph_name</title>
<polygon fill="#f2f2f2" stroke="none" points="-4,4 -4,-149.37 308.06,-149.37 308.06,4 -4,4"/>
<!-- 48 -->
<g id="node1" class="node">
<title>48</title>
<ellipse fill="#ffffff" stroke="#000000" cx="94.63" cy="-114.26" rx="94.63" ry="31.11"/>
<text text-anchor="middle" x="94.63" y="-118.96" font-family="Meiryo UI" font-size="14.00">START</text>
<text text-anchor="middle" x="94.63" y="-100.96" font-family="Meiryo UI" font-size="14.00">int64_t strcmp()</text>
</g>
<!-- 49 -->
<g id="node2" class="node">
<title>49</title>
<polygon fill="#ffffff" stroke="#000000" points="165.34,-75.14 26.8,-75.14 23.91,-72.25 23.91,-49.14 162.45,-49.14 165.34,-52.03 165.34,-75.14"/>
<polyline fill="none" stroke="#000000" points="162.45,-72.25 23.91,-72.25"/>
<polyline fill="none" stroke="#000000" points="162.45,-72.25 162.45,-49.14"/>
<polyline fill="none" stroke="#000000" points="162.45,-72.25 165.34,-75.14"/>
<text text-anchor="middle" x="94.63" y="-57.84" font-family="Meiryo UI" font-size="14.00">return strcmp()</text>
</g>
<!-- 48&#45;&gt;49 -->
<g id="edge1" class="edge">
<title>48&#45;&gt;49</title>
<path fill="none" stroke="#000000" d="M94.63,-82.66C94.63,-82.5 94.63,-82.34 94.63,-82.17"/>
<polygon fill="#000000" stroke="#000000" points="98.13,-86.72 94.63,-76.72 91.13,-86.72 98.13,-86.72"/>
</g>
<!-- 50 -->
<g id="node3" class="node">
<title>50</title>
<ellipse fill="#ffffff" stroke="#000000" cx="94.63" cy="-20.57" rx="72" ry="20.57"/>
<text text-anchor="middle" x="94.63" y="-16.27" font-family="Meiryo UI" font-size="14.00">END</text>
</g>
<!-- 49&#45;&gt;50 -->
<g id="edge2" class="edge">
<title>49&#45;&gt;50</title>
<path fill="none" stroke="#000000" d="M94.63,-49.06C94.63,-48.91 94.63,-48.76 94.63,-48.61"/>
<polygon fill="#000000" stroke="#000000" points="98.13,-53.12 94.63,-43.12 91.13,-53.12 98.13,-53.12"/>
</g>
<!-- 866 -->
<g id="node4" class="node">
<title>866</title>
<polygon fill="#bbccff" stroke="none" points="304.06,-75.14 201.2,-75.14 201.2,-49.14 304.06,-49.14 304.06,-75.14"/>
<text text-anchor="start" x="209.2" y="-57.84" font-family="Meiryo UI" font-size="14.00">tailcall</text>
</g>
<!-- 49&#45;&gt;866 -->
<g id="edge3" class="edge">
<title>49&#45;&gt;866</title>
<path fill="none" stroke="#aaaaff" d="M165.61,-62.14C177.5,-62.14 189.4,-62.14 201.3,-62.14"/>
</g>
</g>
</svg>
