<?xml version="1.0" encoding="UTF-8" standalone="no"?>
<!DOCTYPE svg PUBLIC "-//W3C//DTD SVG 1.1//EN"
 "http://www.w3.org/Graphics/SVG/1.1/DTD/svg11.dtd">
<!-- Generated by graphviz version 9.0.0 (20230911.1827)
 -->
<!-- Title: graph_name Pages: 1 -->
<svg width="376pt" height="153pt"
 viewBox="0.00 0.00 375.86 153.37" xmlns="http://www.w3.org/2000/svg" xmlns:xlink="http://www.w3.org/1999/xlink">
<g id="graph0" class="graph" transform="scale(1 1) rotate(0) translate(4 149.37)">
<title>graph_name</title>
<polygon fill="#f2f2f2" stroke="none" points="-4,4 -4,-149.37 371.86,-149.37 371.86,4 -4,4"/>
<!-- 126 -->
<g id="node1" class="node">
<title>126</title>
<ellipse fill="#ffffff" stroke="#000000" cx="144.43" cy="-114.26" rx="144.43" ry="31.11"/>
<text text-anchor="middle" x="144.43" y="-118.96" font-family="Meiryo UI" font-size="14.00">START</text>
<text text-anchor="middle" x="144.43" y="-100.96" font-family="Meiryo UI" font-size="14.00">int64_t strdup(char* arg1)</text>
</g>
<!-- 127 -->
<g id="node2" class="node">
<title>127</title>
<polygon fill="#ffffff" stroke="#000000" points="228.51,-75.14 63.23,-75.14 60.34,-72.25 60.34,-49.14 225.62,-49.14 228.51,-52.03 228.51,-75.14"/>
<polyline fill="none" stroke="#000000" points="225.62,-72.25 60.34,-72.25"/>
<polyline fill="none" stroke="#000000" points="225.62,-72.25 225.62,-49.14"/>
<polyline fill="none" stroke="#000000" points="225.62,-72.25 228.51,-75.14"/>
<text text-anchor="middle" x="144.43" y="-57.84" font-family="Meiryo UI" font-size="14.00">return strdup(arg1)</text>
</g>
<!-- 126&#45;&gt;127 -->
<g id="edge1" class="edge">
<title>126&#45;&gt;127</title>
<path fill="none" stroke="#000000" d="M144.43,-82.66C144.43,-82.5 144.43,-82.34 144.43,-82.17"/>
<polygon fill="#000000" stroke="#000000" points="147.93,-86.72 144.43,-76.72 140.93,-86.72 147.93,-86.72"/>
</g>
<!-- 128 -->
<g id="node3" class="node">
<title>128</title>
<ellipse fill="#ffffff" stroke="#000000" cx="144.43" cy="-20.57" rx="72" ry="20.57"/>
<text text-anchor="middle" x="144.43" y="-16.27" font-family="Meiryo UI" font-size="14.00">END</text>
</g>
<!-- 127&#45;&gt;128 -->
<g id="edge2" class="edge">
<title>127&#45;&gt;128</title>
<path fill="none" stroke="#000000" d="M144.43,-49.06C144.43,-48.91 144.43,-48.76 144.43,-48.61"/>
<polygon fill="#000000" stroke="#000000" points="147.93,-53.12 144.43,-43.12 140.93,-53.12 147.93,-53.12"/>
</g>
<!-- 944 -->
<g id="node4" class="node">
<title>944</title>
<polygon fill="#bbccff" stroke="none" points="367.86,-75.14 265,-75.14 265,-49.14 367.86,-49.14 367.86,-75.14"/>
<text text-anchor="start" x="273" y="-57.84" font-family="Meiryo UI" font-size="14.00">tailcall</text>
</g>
<!-- 127&#45;&gt;944 -->
<g id="edge3" class="edge">
<title>127&#45;&gt;944</title>
<path fill="none" stroke="#aaaaff" d="M228.75,-62.14C240.85,-62.14 252.95,-62.14 265.05,-62.14"/>
</g>
</g>
</svg>
