<?xml version="1.0" encoding="UTF-8" standalone="no"?>
<!DOCTYPE svg PUBLIC "-//W3C//DTD SVG 1.1//EN"
 "http://www.w3.org/Graphics/SVG/1.1/DTD/svg11.dtd">
<!-- Generated by graphviz version 9.0.0 (20230911.1827)
 -->
<!-- Title: graph_name Pages: 1 -->
<svg width="395pt" height="153pt"
 viewBox="0.00 0.00 394.58 153.37" xmlns="http://www.w3.org/2000/svg" xmlns:xlink="http://www.w3.org/1999/xlink">
<g id="graph0" class="graph" transform="scale(1 1) rotate(0) translate(4 149.37)">
<title>graph_name</title>
<polygon fill="#f2f2f2" stroke="none" points="-4,4 -4,-149.37 390.58,-149.37 390.58,4 -4,4"/>
<!-- 54 -->
<g id="node1" class="node">
<title>54</title>
<ellipse fill="#ffffff" stroke="#000000" cx="157.15" cy="-114.26" rx="157.15" ry="31.11"/>
<text text-anchor="middle" x="157.15" y="-118.96" font-family="Meiryo UI" font-size="14.00">START</text>
<text text-anchor="middle" x="157.15" y="-100.96" font-family="Meiryo UI" font-size="14.00">int64_t strerror(int32_t arg1)</text>
</g>
<!-- 55 -->
<g id="node2" class="node">
<title>55</title>
<polygon fill="#ffffff" stroke="#000000" points="247.93,-75.14 69.27,-75.14 66.38,-72.25 66.38,-49.14 245.04,-49.14 247.93,-52.03 247.93,-75.14"/>
<polyline fill="none" stroke="#000000" points="245.04,-72.25 66.38,-72.25"/>
<polyline fill="none" stroke="#000000" points="245.04,-72.25 245.04,-49.14"/>
<polyline fill="none" stroke="#000000" points="245.04,-72.25 247.93,-75.14"/>
<text text-anchor="middle" x="157.15" y="-57.84" font-family="Meiryo UI" font-size="14.00">return strerror(arg1)</text>
</g>
<!-- 54&#45;&gt;55 -->
<g id="edge1" class="edge">
<title>54&#45;&gt;55</title>
<path fill="none" stroke="#000000" d="M157.15,-82.66C157.15,-82.5 157.15,-82.34 157.15,-82.17"/>
<polygon fill="#000000" stroke="#000000" points="160.65,-86.72 157.15,-76.72 153.65,-86.72 160.65,-86.72"/>
</g>
<!-- 56 -->
<g id="node3" class="node">
<title>56</title>
<ellipse fill="#ffffff" stroke="#000000" cx="157.15" cy="-20.57" rx="72" ry="20.57"/>
<text text-anchor="middle" x="157.15" y="-16.27" font-family="Meiryo UI" font-size="14.00">END</text>
</g>
<!-- 55&#45;&gt;56 -->
<g id="edge2" class="edge">
<title>55&#45;&gt;56</title>
<path fill="none" stroke="#000000" d="M157.15,-49.06C157.15,-48.91 157.15,-48.76 157.15,-48.61"/>
<polygon fill="#000000" stroke="#000000" points="160.65,-53.12 157.15,-43.12 153.65,-53.12 160.65,-53.12"/>
</g>
<!-- 872 -->
<g id="node4" class="node">
<title>872</title>
<polygon fill="#bbccff" stroke="none" points="386.58,-75.14 283.73,-75.14 283.73,-49.14 386.58,-49.14 386.58,-75.14"/>
<text text-anchor="start" x="291.73" y="-57.84" font-family="Meiryo UI" font-size="14.00">tailcall</text>
</g>
<!-- 55&#45;&gt;872 -->
<g id="edge3" class="edge">
<title>55&#45;&gt;872</title>
<path fill="none" stroke="#aaaaff" d="M248.24,-62.14C260.12,-62.14 272.01,-62.14 283.89,-62.14"/>
</g>
</g>
</svg>
