<?xml version="1.0" encoding="UTF-8" standalone="no"?>
<!DOCTYPE svg PUBLIC "-//W3C//DTD SVG 1.1//EN"
 "http://www.w3.org/Graphics/SVG/1.1/DTD/svg11.dtd">
<!-- Generated by graphviz version 9.0.0 (20230911.1827)
 -->
<!-- Title: graph_name Pages: 1 -->
<svg width="551pt" height="153pt"
 viewBox="0.00 0.00 551.41 153.37" xmlns="http://www.w3.org/2000/svg" xmlns:xlink="http://www.w3.org/1999/xlink">
<g id="graph0" class="graph" transform="scale(1 1) rotate(0) translate(4 149.37)">
<title>graph_name</title>
<polygon fill="#f2f2f2" stroke="none" points="-4,4 -4,-149.37 547.41,-149.37 547.41,4 -4,4"/>
<!-- 132 -->
<g id="node1" class="node">
<title>132</title>
<ellipse fill="#ffffff" stroke="#000000" cx="271.71" cy="-114.26" rx="271.71" ry="31.11"/>
<text text-anchor="middle" x="271.71" y="-118.96" font-family="Meiryo UI" font-size="14.00">START</text>
<text text-anchor="middle" x="271.71" y="-100.96" font-family="Meiryo UI" font-size="14.00">int64_t strncpy(char* arg1, char* arg2, size_t arg3)</text>
</g>
<!-- 133 -->
<g id="node2" class="node">
<title>133</title>
<polygon fill="#ffffff" stroke="#000000" points="399.25,-75.14 147.05,-75.14 144.16,-72.25 144.16,-49.14 396.36,-49.14 399.25,-52.03 399.25,-75.14"/>
<polyline fill="none" stroke="#000000" points="396.36,-72.25 144.16,-72.25"/>
<polyline fill="none" stroke="#000000" points="396.36,-72.25 396.36,-49.14"/>
<polyline fill="none" stroke="#000000" points="396.36,-72.25 399.25,-75.14"/>
<text text-anchor="middle" x="271.71" y="-57.84" font-family="Meiryo UI" font-size="14.00">return strncpy(arg1, arg2, arg3)</text>
</g>
<!-- 132&#45;&gt;133 -->
<g id="edge1" class="edge">
<title>132&#45;&gt;133</title>
<path fill="none" stroke="#000000" d="M271.71,-82.66C271.71,-82.5 271.71,-82.34 271.71,-82.17"/>
<polygon fill="#000000" stroke="#000000" points="275.21,-86.72 271.71,-76.72 268.21,-86.72 275.21,-86.72"/>
</g>
<!-- 134 -->
<g id="node3" class="node">
<title>134</title>
<ellipse fill="#ffffff" stroke="#000000" cx="271.71" cy="-20.57" rx="72" ry="20.57"/>
<text text-anchor="middle" x="271.71" y="-16.27" font-family="Meiryo UI" font-size="14.00">END</text>
</g>
<!-- 133&#45;&gt;134 -->
<g id="edge2" class="edge">
<title>133&#45;&gt;134</title>
<path fill="none" stroke="#000000" d="M271.71,-49.06C271.71,-48.91 271.71,-48.76 271.71,-48.61"/>
<polygon fill="#000000" stroke="#000000" points="275.21,-53.12 271.71,-43.12 268.21,-53.12 275.21,-53.12"/>
</g>
<!-- 950 -->
<g id="node4" class="node">
<title>950</title>
<polygon fill="#bbccff" stroke="none" points="538.13,-75.14 435.28,-75.14 435.28,-49.14 538.13,-49.14 538.13,-75.14"/>
<text text-anchor="start" x="443.28" y="-57.84" font-family="Meiryo UI" font-size="14.00">tailcall</text>
</g>
<!-- 133&#45;&gt;950 -->
<g id="edge3" class="edge">
<title>133&#45;&gt;950</title>
<path fill="none" stroke="#aaaaff" d="M399.36,-62.14C411.42,-62.14 423.47,-62.14 435.53,-62.14"/>
</g>
</g>
</svg>
