<?xml version="1.0" encoding="UTF-8" standalone="no"?>
<!DOCTYPE svg PUBLIC "-//W3C//DTD SVG 1.1//EN"
 "http://www.w3.org/Graphics/SVG/1.1/DTD/svg11.dtd">
<!-- Generated by graphviz version 9.0.0 (20230911.1827)
 -->
<!-- Title: graph_name Pages: 1 -->
<svg width="450pt" height="153pt"
 viewBox="0.00 0.00 450.48 153.37" xmlns="http://www.w3.org/2000/svg" xmlns:xlink="http://www.w3.org/1999/xlink">
<g id="graph0" class="graph" transform="scale(1 1) rotate(0) translate(4 149.37)">
<title>graph_name</title>
<polygon fill="#f2f2f2" stroke="none" points="-4,4 -4,-149.37 446.48,-149.37 446.48,4 -4,4"/>
<!-- 81 -->
<g id="node1" class="node">
<title>81</title>
<ellipse fill="#ffffff" stroke="#000000" cx="199.05" cy="-114.26" rx="199.05" ry="31.11"/>
<text text-anchor="middle" x="199.05" y="-118.96" font-family="Meiryo UI" font-size="14.00">START</text>
<text text-anchor="middle" x="199.05" y="-100.96" font-family="Meiryo UI" font-size="14.00">int64_t strstr(char* arg1, char* arg2)</text>
</g>
<!-- 82 -->
<g id="node2" class="node">
<title>82</title>
<polygon fill="#ffffff" stroke="#000000" points="303.19,-75.14 97.8,-75.14 94.91,-72.25 94.91,-49.14 300.3,-49.14 303.19,-52.03 303.19,-75.14"/>
<polyline fill="none" stroke="#000000" points="300.3,-72.25 94.91,-72.25"/>
<polyline fill="none" stroke="#000000" points="300.3,-72.25 300.3,-49.14"/>
<polyline fill="none" stroke="#000000" points="300.3,-72.25 303.19,-75.14"/>
<text text-anchor="middle" x="199.05" y="-57.84" font-family="Meiryo UI" font-size="14.00">return strstr(arg1, arg2)</text>
</g>
<!-- 81&#45;&gt;82 -->
<g id="edge1" class="edge">
<title>81&#45;&gt;82</title>
<path fill="none" stroke="#000000" d="M199.05,-82.66C199.05,-82.5 199.05,-82.34 199.05,-82.17"/>
<polygon fill="#000000" stroke="#000000" points="202.55,-86.72 199.05,-76.72 195.55,-86.72 202.55,-86.72"/>
</g>
<!-- 83 -->
<g id="node3" class="node">
<title>83</title>
<ellipse fill="#ffffff" stroke="#000000" cx="199.05" cy="-20.57" rx="72" ry="20.57"/>
<text text-anchor="middle" x="199.05" y="-16.27" font-family="Meiryo UI" font-size="14.00">END</text>
</g>
<!-- 82&#45;&gt;83 -->
<g id="edge2" class="edge">
<title>82&#45;&gt;83</title>
<path fill="none" stroke="#000000" d="M199.05,-49.06C199.05,-48.91 199.05,-48.76 199.05,-48.61"/>
<polygon fill="#000000" stroke="#000000" points="202.55,-53.12 199.05,-43.12 195.55,-53.12 202.55,-53.12"/>
</g>
<!-- 899 -->
<g id="node4" class="node">
<title>899</title>
<polygon fill="#bbccff" stroke="none" points="442.48,-75.14 339.62,-75.14 339.62,-49.14 442.48,-49.14 442.48,-75.14"/>
<text text-anchor="start" x="347.62" y="-57.84" font-family="Meiryo UI" font-size="14.00">tailcall</text>
</g>
<!-- 82&#45;&gt;899 -->
<g id="edge3" class="edge">
<title>82&#45;&gt;899</title>
<path fill="none" stroke="#aaaaff" d="M303.68,-62.14C315.74,-62.14 327.79,-62.14 339.85,-62.14"/>
</g>
</g>
</svg>
