<?xml version="1.0" encoding="UTF-8" standalone="no"?>
<!DOCTYPE svg PUBLIC "-//W3C//DTD SVG 1.1//EN"
 "http://www.w3.org/Graphics/SVG/1.1/DTD/svg11.dtd">
<!-- Generated by graphviz version 9.0.0 (20230911.1827)
 -->
<!-- Title: graph_name Pages: 1 -->
<svg width="555pt" height="153pt"
 viewBox="0.00 0.00 554.59 153.37" xmlns="http://www.w3.org/2000/svg" xmlns:xlink="http://www.w3.org/1999/xlink">
<g id="graph0" class="graph" transform="scale(1 1) rotate(0) translate(4 149.37)">
<title>graph_name</title>
<polygon fill="#f2f2f2" stroke="none" points="-4,4 -4,-149.37 550.59,-149.37 550.59,4 -4,4"/>
<!-- 108 -->
<g id="node1" class="node">
<title>108</title>
<ellipse fill="#ffffff" stroke="#000000" cx="273.3" cy="-114.26" rx="273.3" ry="31.11"/>
<text text-anchor="middle" x="273.3" y="-118.96" font-family="Meiryo UI" font-size="14.00">START</text>
<text text-anchor="middle" x="273.3" y="-100.96" font-family="Meiryo UI" font-size="14.00">int64_t strtol(char* arg1, char** arg2, int32_t arg3)</text>
</g>
<!-- 109 -->
<g id="node2" class="node">
<title>109</title>
<polygon fill="#ffffff" stroke="#000000" points="397.5,-75.14 151.99,-75.14 149.1,-72.25 149.1,-49.14 394.61,-49.14 397.5,-52.03 397.5,-75.14"/>
<polyline fill="none" stroke="#000000" points="394.61,-72.25 149.1,-72.25"/>
<polyline fill="none" stroke="#000000" points="394.61,-72.25 394.61,-49.14"/>
<polyline fill="none" stroke="#000000" points="394.61,-72.25 397.5,-75.14"/>
<text text-anchor="middle" x="273.3" y="-57.84" font-family="Meiryo UI" font-size="14.00">return strtol(arg1, arg2, arg3)</text>
</g>
<!-- 108&#45;&gt;109 -->
<g id="edge1" class="edge">
<title>108&#45;&gt;109</title>
<path fill="none" stroke="#000000" d="M273.3,-82.66C273.3,-82.5 273.3,-82.34 273.3,-82.17"/>
<polygon fill="#000000" stroke="#000000" points="276.8,-86.72 273.3,-76.72 269.8,-86.72 276.8,-86.72"/>
</g>
<!-- 110 -->
<g id="node3" class="node">
<title>110</title>
<ellipse fill="#ffffff" stroke="#000000" cx="273.3" cy="-20.57" rx="72" ry="20.57"/>
<text text-anchor="middle" x="273.3" y="-16.27" font-family="Meiryo UI" font-size="14.00">END</text>
</g>
<!-- 109&#45;&gt;110 -->
<g id="edge2" class="edge">
<title>109&#45;&gt;110</title>
<path fill="none" stroke="#000000" d="M273.3,-49.06C273.3,-48.91 273.3,-48.76 273.3,-48.61"/>
<polygon fill="#000000" stroke="#000000" points="276.8,-53.12 273.3,-43.12 269.8,-53.12 276.8,-53.12"/>
</g>
<!-- 926 -->
<g id="node4" class="node">
<title>926</title>
<polygon fill="#bbccff" stroke="none" points="536.73,-75.14 433.87,-75.14 433.87,-49.14 536.73,-49.14 536.73,-75.14"/>
<text text-anchor="start" x="441.87" y="-57.84" font-family="Meiryo UI" font-size="14.00">tailcall</text>
</g>
<!-- 109&#45;&gt;926 -->
<g id="edge3" class="edge">
<title>109&#45;&gt;926</title>
<path fill="none" stroke="#aaaaff" d="M397.93,-62.14C409.99,-62.14 422.05,-62.14 434.11,-62.14"/>
</g>
</g>
</svg>
