<?xml version="1.0" encoding="UTF-8" standalone="no"?>
<!DOCTYPE svg PUBLIC "-//W3C//DTD SVG 1.1//EN"
 "http://www.w3.org/Graphics/SVG/1.1/DTD/svg11.dtd">
<!-- Generated by graphviz version 9.0.0 (20230911.1827)
 -->
<!-- Title: graph_name Pages: 1 -->
<svg width="342pt" height="153pt"
 viewBox="0.00 0.00 342.00 153.37" xmlns="http://www.w3.org/2000/svg" xmlns:xlink="http://www.w3.org/1999/xlink">
<g id="graph0" class="graph" transform="scale(1 1) rotate(0) translate(4 149.37)">
<title>graph_name</title>
<polygon fill="#f2f2f2" stroke="none" points="-4,4 -4,-149.37 338,-149.37 338,4 -4,4"/>
<!-- 175 -->
<g id="node1" class="node">
<title>175</title>
<ellipse fill="#ffffff" stroke="#000000" cx="167" cy="-114.26" rx="159.81" ry="31.11"/>
<text text-anchor="middle" x="167" y="-118.96" font-family="Meiryo UI" font-size="14.00">START</text>
<text text-anchor="middle" x="167" y="-100.96" font-family="Meiryo UI" font-size="14.00">int64_t sub_184c(void* arg1)</text>
</g>
<!-- 176 -->
<g id="node2" class="node">
<title>176</title>
<polygon fill="#ffffff" stroke="#000000" points="334,-75.14 2.89,-75.14 0,-72.25 0,-49.14 331.11,-49.14 334,-52.03 334,-75.14"/>
<polyline fill="none" stroke="#000000" points="331.11,-72.25 0,-72.25"/>
<polyline fill="none" stroke="#000000" points="331.11,-72.25 331.11,-49.14"/>
<polyline fill="none" stroke="#000000" points="331.11,-72.25 334,-75.14"/>
<text text-anchor="middle" x="167" y="-57.84" font-family="Meiryo UI" font-size="14.00">return __cxa_atexit(func, arg1, &amp;data_5000)</text>
</g>
<!-- 175&#45;&gt;176 -->
<g id="edge1" class="edge">
<title>175&#45;&gt;176</title>
<path fill="none" stroke="#000000" d="M167,-82.66C167,-82.5 167,-82.34 167,-82.17"/>
<polygon fill="#000000" stroke="#000000" points="170.5,-86.72 167,-76.72 163.5,-86.72 170.5,-86.72"/>
</g>
<!-- 177 -->
<g id="node3" class="node">
<title>177</title>
<ellipse fill="#ffffff" stroke="#000000" cx="167" cy="-20.57" rx="72" ry="20.57"/>
<text text-anchor="middle" x="167" y="-16.27" font-family="Meiryo UI" font-size="14.00">END</text>
</g>
<!-- 176&#45;&gt;177 -->
<g id="edge2" class="edge">
<title>176&#45;&gt;177</title>
<path fill="none" stroke="#000000" d="M167,-49.06C167,-48.91 167,-48.76 167,-48.61"/>
<polygon fill="#000000" stroke="#000000" points="170.5,-53.12 167,-43.12 163.5,-53.12 170.5,-53.12"/>
</g>
</g>
</svg>
