<?xml version="1.0" encoding="UTF-8" standalone="no"?>
<!DOCTYPE svg PUBLIC "-//W3C//DTD SVG 1.1//EN"
 "http://www.w3.org/Graphics/SVG/1.1/DTD/svg11.dtd">
<!-- Generated by graphviz version 9.0.0 (20230911.1827)
 -->
<!-- Title: graph_name Pages: 1 -->
<svg width="3220pt" height="2619pt"
 viewBox="0.00 0.00 3219.82 2618.51" xmlns="http://www.w3.org/2000/svg" xmlns:xlink="http://www.w3.org/1999/xlink">
<g id="graph0" class="graph" transform="scale(1 1) rotate(0) translate(4 2614.51)">
<title>graph_name</title>
<polygon fill="#f2f2f2" stroke="none" points="-4,4 -4,-2614.51 3215.82,-2614.51 3215.82,4 -4,4"/>
<!-- 427 -->
<g id="node1" class="node">
<title>427</title>
<ellipse fill="#ffffff" stroke="#000000" cx="2654.48" cy="-2579.4" rx="91.92" ry="31.11"/>
<text text-anchor="middle" x="2654.48" y="-2584.1" font-family="Meiryo UI" font-size="14.00">START</text>
<text text-anchor="middle" x="2654.48" y="-2566.1" font-family="Meiryo UI" font-size="14.00">void sub_228c()</text>
</g>
<!-- 428 -->
<g id="node2" class="node">
<title>428</title>
<polygon fill="#ffffff" stroke="#000000" points="2785.85,-2531.29 2523.1,-2531.29 2523.1,-2505.29 2785.85,-2505.29 2785.85,-2531.29"/>
<text text-anchor="middle" x="2654.48" y="-2513.99" font-family="Meiryo UI" font-size="14.00">int64_t x19 = *__stack_chk_guard</text>
</g>
<!-- 427&#45;&gt;428 -->
<g id="edge1" class="edge">
<title>427&#45;&gt;428</title>
<path fill="none" stroke="#000000" d="M2654.48,-2547.8C2654.48,-2546.19 2654.48,-2544.57 2654.48,-2542.99"/>
<polygon fill="#000000" stroke="#000000" points="2657.98,-2543.1 2654.48,-2533.1 2650.98,-2543.1 2657.98,-2543.1"/>
</g>
<!-- 429 -->
<g id="node3" class="node">
<title>429</title>
<polygon fill="#ffffaa" stroke="#000000" points="2715.16,-2488.29 2593.79,-2488.29 2593.79,-2462.29 2715.16,-2462.29 2715.16,-2488.29"/>
<text text-anchor="middle" x="2654.48" y="-2470.99" font-family="Meiryo UI" font-size="14.00">int32_t x9_5</text>
</g>
<!-- 428&#45;&gt;429 -->
<g id="edge2" class="edge">
<title>428&#45;&gt;429</title>
<path fill="none" stroke="#000000" d="M2654.48,-2505.21C2654.48,-2503.58 2654.48,-2501.87 2654.48,-2500.13"/>
<polygon fill="#000000" stroke="#000000" points="2657.98,-2500.22 2654.48,-2490.22 2650.98,-2500.22 2657.98,-2500.22"/>
</g>
<!-- 430 -->
<g id="node4" class="node">
<title>430</title>
<polygon fill="#ffffff" stroke="#000000" points="2654.48,-2445.29 2272.42,-2424.71 2654.48,-2404.14 3036.54,-2424.71 2654.48,-2445.29"/>
<text text-anchor="middle" x="2654.48" y="-2420.41" font-family="Meiryo UI" font-size="14.00">(key_vol_down_pressed == 1 &amp;&amp; (data_5027 &amp; 1) == 0)</text>
</g>
<!-- 429&#45;&gt;430 -->
<g id="edge3" class="edge">
<title>429&#45;&gt;430</title>
<path fill="none" stroke="#000000" d="M2654.48,-2462.03C2654.48,-2460.48 2654.48,-2458.85 2654.48,-2457.17"/>
<polygon fill="#000000" stroke="#000000" points="2657.98,-2457.23 2654.48,-2447.23 2650.98,-2457.23 2657.98,-2457.23"/>
</g>
<!-- 431 -->
<g id="node5" class="node">
<title>431</title>
<polygon fill="#ffffff" stroke="#000000" points="2677.48,-2370.14 2475.48,-2370.14 2475.48,-2344.14 2677.48,-2344.14 2677.48,-2370.14"/>
<text text-anchor="middle" x="2576.48" y="-2352.84" font-family="Meiryo UI" font-size="14.00">int32_t x9_4 = data_5018</text>
</g>
<!-- 430&#45;&gt;431 -->
<g id="edge4" class="edge">
<title>430&#45;&gt;431</title>
<path fill="none" stroke="#000000" d="M2632.34,-2405.1C2622.16,-2396.55 2610.1,-2386.4 2599.79,-2377.74"/>
<polygon fill="#000000" stroke="#000000" points="2602.34,-2375.31 2592.43,-2371.55 2597.83,-2380.67 2602.34,-2375.31"/>
<text text-anchor="middle" x="2632.48" y="-2382.84" font-family="Meiryo UI" font-size="14.00">Yes</text>
</g>
<!-- 437 -->
<g id="node11" class="node">
<title>437</title>
<ellipse fill="#000000" stroke="#000000" cx="2624.48" cy="-2090" rx="5.14" ry="5.14"/>
</g>
<!-- 430&#45;&gt;437 -->
<g id="edge5" class="edge">
<title>430&#45;&gt;437</title>
<path fill="none" stroke="#000000" d="M2696.68,-2406.1C2715.05,-2395.37 2732.48,-2379.55 2732.48,-2358.14 2732.48,-2358.14 2732.48,-2358.14 2732.48,-2124.14 2732.48,-2105.26 2671.4,-2096.04 2641.11,-2092.62"/>
<polygon fill="#000000" stroke="#000000" points="2641.5,-2089.14 2631.19,-2091.6 2640.78,-2096.11 2641.5,-2089.14"/>
<text text-anchor="middle" x="2741.85" y="-2236.84" font-family="Meiryo UI" font-size="14.00">No</text>
</g>
<!-- 432 -->
<g id="node6" class="node">
<title>432</title>
<polygon fill="#ffffff" stroke="#000000" points="2638.51,-2327.14 2510.45,-2327.14 2510.45,-2301.14 2638.51,-2301.14 2638.51,-2327.14"/>
<text text-anchor="middle" x="2574.48" y="-2309.84" font-family="Meiryo UI" font-size="14.00">data_5027 = 1</text>
</g>
<!-- 431&#45;&gt;432 -->
<g id="edge6" class="edge">
<title>431&#45;&gt;432</title>
<path fill="none" stroke="#000000" d="M2575.89,-2344.06C2575.81,-2342.44 2575.73,-2340.73 2575.64,-2338.99"/>
<polygon fill="#000000" stroke="#000000" points="2579.14,-2338.89 2575.16,-2329.07 2572.15,-2339.23 2579.14,-2338.89"/>
</g>
<!-- 433 -->
<g id="node7" class="node">
<title>433</title>
<polygon fill="#ffffff" stroke="#000000" points="2676.23,-2284.14 2466.73,-2284.14 2466.73,-2258.14 2676.23,-2258.14 2676.23,-2284.14"/>
<text text-anchor="middle" x="2571.48" y="-2266.84" font-family="Meiryo UI" font-size="14.00">int32_t x13_1 = data_501c</text>
</g>
<!-- 432&#45;&gt;433 -->
<g id="edge7" class="edge">
<title>432&#45;&gt;433</title>
<path fill="none" stroke="#000000" d="M2573.6,-2301.06C2573.48,-2299.44 2573.35,-2297.73 2573.22,-2295.99"/>
<polygon fill="#000000" stroke="#000000" points="2576.72,-2295.79 2572.5,-2286.07 2569.74,-2296.3 2576.72,-2295.79"/>
</g>
<!-- 434 -->
<g id="node8" class="node">
<title>434</title>
<polygon fill="#ffffff" stroke="#000000" points="2643.88,-2224.14 2489.08,-2224.14 2489.08,-2198.14 2643.88,-2198.14 2643.88,-2224.14"/>
<text text-anchor="middle" x="2566.48" y="-2206.84" font-family="Meiryo UI" font-size="14.00">x9_5 = (x9_4 + 1)</text>
</g>
<!-- 433&#45;&gt;434 -->
<g id="edge8" class="edge">
<title>433&#45;&gt;434</title>
<path fill="none" stroke="#000000" d="M2570.42,-2257.84C2569.86,-2251.38 2569.16,-2243.25 2568.5,-2235.64"/>
<polygon fill="#000000" stroke="#000000" points="2572.01,-2235.6 2567.67,-2225.93 2565.04,-2236.2 2572.01,-2235.6"/>
</g>
<!-- 435 -->
<g id="node9" class="node">
<title>435</title>
<polygon fill="#ffffff" stroke="#000000" points="2619.54,-2181.14 2471.42,-2181.14 2471.42,-2155.14 2619.54,-2155.14 2619.54,-2181.14"/>
<text text-anchor="middle" x="2545.48" y="-2163.84" font-family="Meiryo UI" font-size="14.00">data_5018 = x9_5</text>
</g>
<!-- 434&#45;&gt;435 -->
<g id="edge9" class="edge">
<title>434&#45;&gt;435</title>
<path fill="none" stroke="#000000" d="M2560.29,-2198.06C2559.25,-2196.03 2558.14,-2193.87 2557.02,-2191.68"/>
<polygon fill="#000000" stroke="#000000" points="2560.2,-2190.21 2552.53,-2182.91 2553.97,-2193.41 2560.2,-2190.21"/>
</g>
<!-- 436 -->
<g id="node10" class="node">
<title>436</title>
<polygon fill="#ffffff" stroke="#000000" points="2677.48,-2138.14 2355.48,-2138.14 2355.48,-2112.14 2677.48,-2112.14 2677.48,-2138.14"/>
<text text-anchor="middle" x="2516.48" y="-2120.84" font-family="Meiryo UI" font-size="14.00">data_501c = ((1 &lt;&lt; (x9_4 &lt;&lt; 2)) | x13_1)</text>
</g>
<!-- 435&#45;&gt;436 -->
<g id="edge10" class="edge">
<title>435&#45;&gt;436</title>
<path fill="none" stroke="#000000" d="M2536.94,-2155.06C2535.33,-2152.79 2533.6,-2150.35 2531.86,-2147.88"/>
<polygon fill="#000000" stroke="#000000" points="2534.77,-2145.94 2526.14,-2139.8 2529.05,-2149.98 2534.77,-2145.94"/>
</g>
<!-- 436&#45;&gt;437 -->
<g id="edge11" class="edge">
<title>436&#45;&gt;437</title>
<path fill="none" stroke="#000000" d="M2557,-2111.71C2575.14,-2106.14 2595.46,-2099.91 2609.01,-2095.75"/>
<polygon fill="#000000" stroke="#000000" points="2609.66,-2099.21 2618.2,-2092.93 2607.61,-2092.52 2609.66,-2099.21"/>
</g>
<!-- 780 -->
<g id="node12" class="node">
<title>780</title>
<polygon fill="#ffffff" stroke="#000000" points="2624.48,-2067.86 2037.13,-2047.29 2624.48,-2026.71 3211.82,-2047.29 2624.48,-2067.86"/>
<text text-anchor="middle" x="2624.48" y="-2042.99" font-family="Meiryo UI" font-size="14.00">(key_vol_down_pressed != 1 || (key_vol_down_pressed == 1 &amp;&amp; (data_5027 &amp; 1) != 0))</text>
</g>
<!-- 437&#45;&gt;780 -->
<g id="edge12" class="edge">
<title>437&#45;&gt;780</title>
<path fill="none" stroke="#000000" d="M2624.48,-2084.64C2624.48,-2083.14 2624.48,-2081.31 2624.48,-2079.29"/>
<polygon fill="#000000" stroke="#000000" points="2627.98,-2079.66 2624.48,-2069.66 2620.98,-2079.66 2627.98,-2079.66"/>
</g>
<!-- 438 -->
<g id="node13" class="node">
<title>438</title>
<polygon fill="#ffffaa" stroke="#000000" points="2571.51,-1992.71 2443.45,-1992.71 2443.45,-1966.71 2571.51,-1966.71 2571.51,-1992.71"/>
<text text-anchor="middle" x="2507.48" y="-1975.41" font-family="Meiryo UI" font-size="14.00">int32_t x11_1</text>
</g>
<!-- 780&#45;&gt;438 -->
<g id="edge13" class="edge">
<title>780&#45;&gt;438</title>
<path fill="none" stroke="#000000" d="M2590.95,-2027.5C2574.78,-2018.43 2555.47,-2007.61 2539.5,-1998.66"/>
<polygon fill="#000000" stroke="#000000" points="2541.3,-1995.66 2530.87,-1993.82 2537.88,-2001.76 2541.3,-1995.66"/>
<text text-anchor="middle" x="2585.48" y="-2005.41" font-family="Meiryo UI" font-size="14.00">Yes</text>
</g>
<!-- 454 -->
<g id="node32" class="node">
<title>454</title>
<ellipse fill="#000000" stroke="#000000" cx="1577.48" cy="-1006" rx="5.14" ry="5.14"/>
</g>
<!-- 780&#45;&gt;454 -->
<g id="edge14" class="edge">
<title>780&#45;&gt;454</title>
<path fill="none" stroke="#000000" d="M2701.54,-2029C2723.45,-2019.25 2741.48,-2004.12 2741.48,-1980.71 2741.48,-1980.71 2741.48,-1980.71 2741.48,-1040.14 2741.48,-1010.09 1736.85,-1007.27 1594.24,-1007.02"/>
<polygon fill="#000000" stroke="#000000" points="1594.45,-1003.52 1584.44,-1007.01 1594.44,-1010.52 1594.45,-1003.52"/>
<text text-anchor="middle" x="2750.85" y="-1481.84" font-family="Meiryo UI" font-size="14.00">No</text>
</g>
<!-- 439 -->
<g id="node14" class="node">
<title>439</title>
<polygon fill="#ffffff" stroke="#000000" points="2227.48,-1949.71 1834.47,-1929.14 2227.48,-1908.57 2620.49,-1929.14 2227.48,-1949.71"/>
<text text-anchor="middle" x="2227.48" y="-1924.84" font-family="Meiryo UI" font-size="14.00">(key_play_pause_pressed == 1 &amp;&amp; (data_5027 &amp; 1) == 0)</text>
</g>
<!-- 438&#45;&gt;439 -->
<g id="edge15" class="edge">
<title>438&#45;&gt;439</title>
<path fill="none" stroke="#000000" d="M2443.24,-1967.57C2409,-1961.63 2366.11,-1954.19 2327.61,-1947.51"/>
<polygon fill="#000000" stroke="#000000" points="2328.29,-1944.08 2317.84,-1945.82 2327.09,-1950.98 2328.29,-1944.08"/>
</g>
<!-- 440 -->
<g id="node15" class="node">
<title>440</title>
<polygon fill="#ffffff" stroke="#000000" points="2155.91,-1874.57 2053.05,-1874.57 2053.05,-1848.57 2155.91,-1848.57 2155.91,-1874.57"/>
<text text-anchor="middle" x="2104.48" y="-1857.27" font-family="Meiryo UI" font-size="14.00">x11_1 = 2</text>
</g>
<!-- 439&#45;&gt;440 -->
<g id="edge16" class="edge">
<title>439&#45;&gt;440</title>
<path fill="none" stroke="#000000" d="M2193.06,-1909.92C2187.2,-1906.8 2181.16,-1903.6 2175.48,-1900.57 2163.07,-1893.96 2149.46,-1886.68 2137.5,-1880.28"/>
<polygon fill="#000000" stroke="#000000" points="2139.29,-1877.27 2128.82,-1875.63 2135.99,-1883.44 2139.29,-1877.27"/>
<text text-anchor="middle" x="2187.48" y="-1887.27" font-family="Meiryo UI" font-size="14.00">Yes</text>
</g>
<!-- 441 -->
<g id="node16" class="node">
<title>441</title>
<ellipse fill="#000000" stroke="#000000" cx="2104.48" cy="-1826.43" rx="5.14" ry="5.14"/>
</g>
<!-- 439&#45;&gt;441 -->
<g id="edge17" class="edge">
<title>439&#45;&gt;441</title>
<path fill="none" stroke="#000000" d="M2219.76,-1908.64C2211.31,-1890.03 2195.91,-1862.77 2173.48,-1848.57 2157.11,-1838.21 2135.33,-1832.65 2120.66,-1829.87"/>
<polygon fill="#000000" stroke="#000000" points="2121.47,-1826.46 2111.03,-1828.29 2120.33,-1833.37 2121.47,-1826.46"/>
<text text-anchor="middle" x="2208.85" y="-1857.27" font-family="Meiryo UI" font-size="14.00">No</text>
</g>
<!-- 440&#45;&gt;441 -->
<g id="edge18" class="edge">
<title>440&#45;&gt;441</title>
<path fill="none" stroke="#000000" d="M2104.48,-1848.23C2104.48,-1846.62 2104.48,-1844.94 2104.48,-1843.28"/>
<polygon fill="#000000" stroke="#000000" points="2107.98,-1843.36 2104.48,-1833.36 2100.98,-1843.36 2107.98,-1843.36"/>
</g>
<!-- 781 -->
<g id="node17" class="node">
<title>781</title>
<polygon fill="#ffffff" stroke="#000000" points="1991.48,-1804.29 1382.24,-1783.71 1991.48,-1763.14 2600.72,-1783.71 1991.48,-1804.29"/>
<text text-anchor="middle" x="1991.48" y="-1779.41" font-family="Meiryo UI" font-size="14.00">(key_play_pause_pressed != 1 || (key_play_pause_pressed == 1 &amp;&amp; (data_5027 &amp; 1) != 0))</text>
</g>
<!-- 441&#45;&gt;781 -->
<g id="edge19" class="edge">
<title>441&#45;&gt;781</title>
<path fill="none" stroke="#000000" d="M2099.62,-1823.68C2091.1,-1820.61 2072.52,-1813.91 2053.12,-1806.92"/>
<polygon fill="#000000" stroke="#000000" points="2054.34,-1803.64 2043.74,-1803.54 2051.96,-1810.23 2054.34,-1803.64"/>
</g>
<!-- 442 -->
<g id="node18" class="node">
<title>442</title>
<polygon fill="#ffffff" stroke="#000000" points="1509.48,-1729.14 1082.26,-1708.57 1509.48,-1688 1936.7,-1708.57 1509.48,-1729.14"/>
<text text-anchor="middle" x="1509.48" y="-1704.27" font-family="Meiryo UI" font-size="14.00">(data_5021 != 1 || (data_5021 == 1 &amp;&amp; (data_5027 &amp; 1) != 0))</text>
</g>
<!-- 781&#45;&gt;442 -->
<g id="edge20" class="edge">
<title>781&#45;&gt;442</title>
<path fill="none" stroke="#000000" d="M1883.31,-1766.3C1805.11,-1754.43 1699.77,-1738.45 1620.84,-1726.47"/>
<polygon fill="#000000" stroke="#000000" points="1621.8,-1723.08 1611.38,-1725.04 1620.75,-1730 1621.8,-1723.08"/>
<text text-anchor="middle" x="1820.48" y="-1741.84" font-family="Meiryo UI" font-size="14.00">Yes</text>
</g>
<!-- 447 -->
<g id="node24" class="node">
<title>447</title>
<ellipse fill="#000000" stroke="#000000" cx="1562.48" cy="-1383.43" rx="5.14" ry="5.14"/>
</g>
<!-- 781&#45;&gt;447 -->
<g id="edge21" class="edge">
<title>781&#45;&gt;447</title>
<path fill="none" stroke="#000000" d="M1991.48,-1762.85C1991.48,-1748.14 1991.48,-1727.6 1991.48,-1709.57 1991.48,-1709.57 1991.48,-1709.57 1991.48,-1417.57 1991.48,-1396.52 1658.72,-1386.84 1579.34,-1384.83"/>
<polygon fill="#000000" stroke="#000000" points="1579.5,-1381.34 1569.42,-1384.59 1579.33,-1388.33 1579.5,-1381.34"/>
<text text-anchor="middle" x="2000.85" y="-1546.7" font-family="Meiryo UI" font-size="14.00">No</text>
</g>
<!-- 443 -->
<g id="node19" class="node">
<title>443</title>
<polygon fill="#ffffff" stroke="#000000" points="1518.54,-1654 1370.42,-1654 1370.42,-1628 1518.54,-1628 1518.54,-1654"/>
<text text-anchor="middle" x="1444.48" y="-1636.7" font-family="Meiryo UI" font-size="14.00">x9_5 = data_5018</text>
</g>
<!-- 442&#45;&gt;443 -->
<g id="edge22" class="edge">
<title>442&#45;&gt;443</title>
<path fill="none" stroke="#000000" d="M1490.68,-1688.61C1482.55,-1680.41 1473.03,-1670.8 1464.75,-1662.44"/>
<polygon fill="#000000" stroke="#000000" points="1467.27,-1660.02 1457.74,-1655.38 1462.29,-1664.94 1467.27,-1660.02"/>
<text text-anchor="middle" x="1493.48" y="-1666.7" font-family="Meiryo UI" font-size="14.00">Yes</text>
</g>
<!-- 445 -->
<g id="node21" class="node">
<title>445</title>
<ellipse fill="#000000" stroke="#000000" cx="1552.48" cy="-1528.86" rx="5.14" ry="5.14"/>
</g>
<!-- 442&#45;&gt;445 -->
<g id="edge23" class="edge">
<title>442&#45;&gt;445</title>
<path fill="none" stroke="#000000" d="M1521.28,-1688.15C1526.76,-1678.26 1532.85,-1665.85 1536.48,-1654 1548.03,-1616.32 1551.25,-1569.71 1552.14,-1545.74"/>
<polygon fill="#000000" stroke="#000000" points="1555.64,-1545.86 1552.4,-1535.77 1548.64,-1545.67 1555.64,-1545.86"/>
<text text-anchor="middle" x="1556.85" y="-1606.7" font-family="Meiryo UI" font-size="14.00">No</text>
</g>
<!-- 444 -->
<g id="node20" class="node">
<title>444</title>
<polygon fill="#ffffff" stroke="#000000" points="1516.51,-1594 1388.45,-1594 1388.45,-1568 1516.51,-1568 1516.51,-1594"/>
<text text-anchor="middle" x="1452.48" y="-1576.7" font-family="Meiryo UI" font-size="14.00">data_5027 = 0</text>
</g>
<!-- 443&#45;&gt;444 -->
<g id="edge24" class="edge">
<title>443&#45;&gt;444</title>
<path fill="none" stroke="#000000" d="M1446.18,-1627.7C1447.07,-1621.24 1448.19,-1613.1 1449.24,-1605.49"/>
<polygon fill="#000000" stroke="#000000" points="1452.68,-1606.17 1450.58,-1595.78 1445.74,-1605.21 1452.68,-1606.17"/>
</g>
<!-- 444&#45;&gt;445 -->
<g id="edge25" class="edge">
<title>444&#45;&gt;445</title>
<path fill="none" stroke="#000000" d="M1477.2,-1567.61C1496.37,-1557.99 1522.28,-1545 1538.16,-1537.04"/>
<polygon fill="#000000" stroke="#000000" points="1539.35,-1540.36 1546.72,-1532.75 1536.21,-1534.1 1539.35,-1540.36"/>
</g>
<!-- 782 -->
<g id="node22" class="node">
<title>782</title>
<polygon fill="#ffffff" stroke="#000000" points="1552.48,-1506.71 1250.48,-1486.14 1552.48,-1465.57 1854.48,-1486.14 1552.48,-1506.71"/>
<text text-anchor="middle" x="1552.48" y="-1481.84" font-family="Meiryo UI" font-size="14.00">(data_5021 == 1 &amp;&amp; (data_5027 &amp; 1) == 0)</text>
</g>
<!-- 445&#45;&gt;782 -->
<g id="edge26" class="edge">
<title>445&#45;&gt;782</title>
<path fill="none" stroke="#000000" d="M1552.48,-1523.5C1552.48,-1521.99 1552.48,-1520.17 1552.48,-1518.15"/>
<polygon fill="#000000" stroke="#000000" points="1555.98,-1518.51 1552.48,-1508.51 1548.98,-1518.51 1555.98,-1518.51"/>
</g>
<!-- 446 -->
<g id="node23" class="node">
<title>446</title>
<polygon fill="#ffffff" stroke="#000000" points="1511.91,-1431.57 1409.05,-1431.57 1409.05,-1405.57 1511.91,-1405.57 1511.91,-1431.57"/>
<text text-anchor="middle" x="1460.48" y="-1414.27" font-family="Meiryo UI" font-size="14.00">x11_1 = 3</text>
</g>
<!-- 782&#45;&gt;446 -->
<g id="edge27" class="edge">
<title>782&#45;&gt;446</title>
<path fill="none" stroke="#000000" d="M1526.85,-1466.88C1514.4,-1458 1499.44,-1447.34 1486.88,-1438.39"/>
<polygon fill="#000000" stroke="#000000" points="1489.24,-1435.77 1479.06,-1432.82 1485.17,-1441.47 1489.24,-1435.77"/>
<text text-anchor="middle" x="1524.48" y="-1444.27" font-family="Meiryo UI" font-size="14.00">Yes</text>
</g>
<!-- 782&#45;&gt;447 -->
<g id="edge28" class="edge">
<title>782&#45;&gt;447</title>
<path fill="none" stroke="#000000" d="M1554.45,-1465.24C1556.34,-1446.25 1559.15,-1417.98 1560.89,-1400.41"/>
<polygon fill="#000000" stroke="#000000" points="1564.37,-1400.79 1561.88,-1390.49 1557.41,-1400.1 1564.37,-1400.79"/>
<text text-anchor="middle" x="1569.85" y="-1414.27" font-family="Meiryo UI" font-size="14.00">No</text>
</g>
<!-- 446&#45;&gt;447 -->
<g id="edge29" class="edge">
<title>446&#45;&gt;447</title>
<path fill="none" stroke="#000000" d="M1498.75,-1405.14C1515.36,-1399.74 1533.9,-1393.71 1546.68,-1389.56"/>
<polygon fill="#000000" stroke="#000000" points="1547.73,-1392.9 1556.16,-1386.48 1545.56,-1386.24 1547.73,-1392.9"/>
</g>
<!-- 783 -->
<g id="node25" class="node">
<title>783</title>
<polygon fill="#ffffff" stroke="#000000" points="1343.48,-1361.29 0,-1340.71 1343.48,-1320.14 2686.96,-1340.71 1343.48,-1361.29"/>
<text text-anchor="middle" x="1343.48" y="-1336.41" font-family="Meiryo UI" font-size="14.00">((key_play_pause_pressed == 1 &amp;&amp; (data_5027 &amp; 1) == 0) || (((key_play_pause_pressed != 1 || (key_play_pause_pressed == 1 &amp;&amp; (data_5027 &amp; 1) != 0)) &amp;&amp; data_5021 == 1) &amp;&amp; (data_5027 &amp; 1) == 0))</text>
</g>
<!-- 447&#45;&gt;783 -->
<g id="edge30" class="edge">
<title>447&#45;&gt;783</title>
<path fill="none" stroke="#000000" d="M1557.49,-1381.5C1542.97,-1378.8 1498.89,-1370.61 1454.48,-1362.35"/>
<polygon fill="#000000" stroke="#000000" points="1455.16,-1358.92 1444.69,-1360.53 1453.88,-1365.8 1455.16,-1358.92"/>
</g>
<!-- 448 -->
<g id="node26" class="node">
<title>448</title>
<polygon fill="#ffffff" stroke="#000000" points="1444.48,-1286.14 1242.48,-1286.14 1242.48,-1260.14 1444.48,-1260.14 1444.48,-1286.14"/>
<text text-anchor="middle" x="1343.48" y="-1268.84" font-family="Meiryo UI" font-size="14.00">int32_t x9_6 = data_5018</text>
</g>
<!-- 783&#45;&gt;448 -->
<g id="edge31" class="edge">
<title>783&#45;&gt;448</title>
<path fill="none" stroke="#000000" d="M1343.48,-1319.68C1343.48,-1312.82 1343.48,-1305.07 1343.48,-1297.94"/>
<polygon fill="#000000" stroke="#000000" points="1346.98,-1297.95 1343.48,-1287.95 1339.98,-1297.95 1346.98,-1297.95"/>
<text text-anchor="middle" x="1355.48" y="-1298.84" font-family="Meiryo UI" font-size="14.00">Yes</text>
</g>
<!-- 783&#45;&gt;454 -->
<g id="edge32" class="edge">
<title>783&#45;&gt;454</title>
<path fill="none" stroke="#000000" d="M1489.01,-1321.87C1536.6,-1311.87 1577.48,-1296.71 1577.48,-1274.14 1577.48,-1274.14 1577.48,-1274.14 1577.48,-1040.14 1577.48,-1034.48 1577.48,-1028.27 1577.48,-1022.77"/>
<polygon fill="#000000" stroke="#000000" points="1580.98,-1022.8 1577.48,-1012.8 1573.98,-1022.8 1580.98,-1022.8"/>
<text text-anchor="middle" x="1586.85" y="-1152.84" font-family="Meiryo UI" font-size="14.00">No</text>
</g>
<!-- 449 -->
<g id="node27" class="node">
<title>449</title>
<polygon fill="#ffffff" stroke="#000000" points="1407.51,-1243.14 1279.45,-1243.14 1279.45,-1217.14 1407.51,-1217.14 1407.51,-1243.14"/>
<text text-anchor="middle" x="1343.48" y="-1225.84" font-family="Meiryo UI" font-size="14.00">data_5027 = 1</text>
</g>
<!-- 448&#45;&gt;449 -->
<g id="edge33" class="edge">
<title>448&#45;&gt;449</title>
<path fill="none" stroke="#000000" d="M1343.48,-1260.06C1343.48,-1258.44 1343.48,-1256.73 1343.48,-1254.99"/>
<polygon fill="#000000" stroke="#000000" points="1346.98,-1255.08 1343.48,-1245.08 1339.98,-1255.08 1346.98,-1255.08"/>
</g>
<!-- 450 -->
<g id="node28" class="node">
<title>450</title>
<polygon fill="#ffffff" stroke="#000000" points="1448.23,-1200.14 1238.73,-1200.14 1238.73,-1174.14 1448.23,-1174.14 1448.23,-1200.14"/>
<text text-anchor="middle" x="1343.48" y="-1182.84" font-family="Meiryo UI" font-size="14.00">int32_t x14_3 = data_501c</text>
</g>
<!-- 449&#45;&gt;450 -->
<g id="edge34" class="edge">
<title>449&#45;&gt;450</title>
<path fill="none" stroke="#000000" d="M1343.48,-1217.06C1343.48,-1215.44 1343.48,-1213.73 1343.48,-1211.99"/>
<polygon fill="#000000" stroke="#000000" points="1346.98,-1212.08 1343.48,-1202.08 1339.98,-1212.08 1346.98,-1212.08"/>
</g>
<!-- 451 -->
<g id="node29" class="node">
<title>451</title>
<polygon fill="#ffffff" stroke="#000000" points="1420.88,-1140.14 1266.08,-1140.14 1266.08,-1114.14 1420.88,-1114.14 1420.88,-1140.14"/>
<text text-anchor="middle" x="1343.48" y="-1122.84" font-family="Meiryo UI" font-size="14.00">x9_5 = (x9_6 + 1)</text>
</g>
<!-- 450&#45;&gt;451 -->
<g id="edge35" class="edge">
<title>450&#45;&gt;451</title>
<path fill="none" stroke="#000000" d="M1343.48,-1173.84C1343.48,-1167.46 1343.48,-1159.44 1343.48,-1151.91"/>
<polygon fill="#000000" stroke="#000000" points="1346.98,-1151.94 1343.48,-1141.94 1339.98,-1151.94 1346.98,-1151.94"/>
</g>
<!-- 452 -->
<g id="node30" class="node">
<title>452</title>
<polygon fill="#ffffff" stroke="#000000" points="1417.54,-1097.14 1269.42,-1097.14 1269.42,-1071.14 1417.54,-1071.14 1417.54,-1097.14"/>
<text text-anchor="middle" x="1343.48" y="-1079.84" font-family="Meiryo UI" font-size="14.00">data_5018 = x9_5</text>
</g>
<!-- 451&#45;&gt;452 -->
<g id="edge36" class="edge">
<title>451&#45;&gt;452</title>
<path fill="none" stroke="#000000" d="M1343.48,-1114.06C1343.48,-1112.44 1343.48,-1110.73 1343.48,-1108.99"/>
<polygon fill="#000000" stroke="#000000" points="1346.98,-1109.08 1343.48,-1099.08 1339.98,-1109.08 1346.98,-1109.08"/>
</g>
<!-- 453 -->
<g id="node31" class="node">
<title>453</title>
<polygon fill="#ffffff" stroke="#000000" points="1522.1,-1054.14 1164.85,-1054.14 1164.85,-1028.14 1522.1,-1028.14 1522.1,-1054.14"/>
<text text-anchor="middle" x="1343.48" y="-1036.84" font-family="Meiryo UI" font-size="14.00">data_501c = ((x11_1 &lt;&lt; (x9_6 &lt;&lt; 2)) | x14_3)</text>
</g>
<!-- 452&#45;&gt;453 -->
<g id="edge37" class="edge">
<title>452&#45;&gt;453</title>
<path fill="none" stroke="#000000" d="M1343.48,-1071.06C1343.48,-1069.44 1343.48,-1067.73 1343.48,-1065.99"/>
<polygon fill="#000000" stroke="#000000" points="1346.98,-1066.08 1343.48,-1056.08 1339.98,-1066.08 1346.98,-1066.08"/>
</g>
<!-- 453&#45;&gt;454 -->
<g id="edge38" class="edge">
<title>453&#45;&gt;454</title>
<path fill="none" stroke="#000000" d="M1431.61,-1027.66C1479.71,-1020.85 1534.76,-1013.05 1561.38,-1009.28"/>
<polygon fill="#000000" stroke="#000000" points="1561.62,-1012.78 1571.03,-1007.91 1560.63,-1005.85 1561.62,-1012.78"/>
</g>
<!-- 784 -->
<g id="node33" class="node">
<title>784</title>
<polygon fill="#ffffff" stroke="#000000" points="1577.48,-983.86 1448.91,-963.29 1577.48,-942.71 1706.05,-963.29 1577.48,-983.86"/>
<text text-anchor="middle" x="1577.48" y="-958.99" font-family="Meiryo UI" font-size="14.00">x9_5 == 8</text>
</g>
<!-- 454&#45;&gt;784 -->
<g id="edge39" class="edge">
<title>454&#45;&gt;784</title>
<path fill="none" stroke="#000000" d="M1577.48,-1000.64C1577.48,-999.14 1577.48,-997.31 1577.48,-995.29"/>
<polygon fill="#000000" stroke="#000000" points="1580.98,-995.66 1577.48,-985.66 1573.98,-995.66 1580.98,-995.66"/>
</g>
<!-- 455 -->
<g id="node34" class="node">
<title>455</title>
<polygon fill="#ffffaa" stroke="#000000" points="1568.88,-908.71 1414.08,-908.71 1414.08,-882.71 1568.88,-882.71 1568.88,-908.71"/>
<text text-anchor="middle" x="1491.48" y="-891.41" font-family="Meiryo UI" font-size="14.00">void product_name</text>
</g>
<!-- 784&#45;&gt;455 -->
<g id="edge40" class="edge">
<title>784&#45;&gt;455</title>
<path fill="none" stroke="#000000" d="M1555.78,-945.74C1543.88,-936.67 1529.08,-925.38 1516.67,-915.92"/>
<polygon fill="#000000" stroke="#000000" points="1519.02,-913.31 1508.95,-910.03 1514.78,-918.88 1519.02,-913.31"/>
<text text-anchor="middle" x="1552.48" y="-921.41" font-family="Meiryo UI" font-size="14.00">Yes</text>
</g>
<!-- 470 -->
<g id="node50" class="node">
<title>470</title>
<ellipse fill="#000000" stroke="#000000" cx="1603.48" cy="-208.71" rx="5.14" ry="5.14"/>
</g>
<!-- 784&#45;&gt;470 -->
<g id="edge41" class="edge">
<title>784&#45;&gt;470</title>
<path fill="none" stroke="#000000" d="M1617.96,-948.71C1640.27,-938.41 1663.48,-921.69 1663.48,-896.71 1663.48,-896.71 1663.48,-896.71 1663.48,-242.86 1663.48,-222.85 1637.59,-214.82 1619.82,-211.67"/>
<polygon fill="#000000" stroke="#000000" points="1620.48,-208.23 1610.09,-210.33 1619.52,-215.17 1620.48,-208.23"/>
<text text-anchor="middle" x="1672.85" y="-566.41" font-family="Meiryo UI" font-size="14.00">No</text>
</g>
<!-- 456 -->
<g id="node35" class="node">
<title>456</title>
<polygon fill="#ffffff" stroke="#000000" points="1607.23,-865.71 1142.62,-865.71 1139.73,-862.83 1139.73,-839.71 1604.34,-839.71 1607.23,-842.6 1607.23,-865.71"/>
<polyline fill="none" stroke="#000000" points="1604.34,-862.83 1139.73,-862.83"/>
<polyline fill="none" stroke="#000000" points="1604.34,-862.83 1604.34,-839.71"/>
<polyline fill="none" stroke="#000000" points="1604.34,-862.83 1607.23,-865.71"/>
<text text-anchor="middle" x="1373.48" y="-848.41" font-family="Meiryo UI" font-size="14.00">property_get(&quot;ro.product.name&quot;, &amp;product_name, &amp;data_2ea3)</text>
</g>
<!-- 455&#45;&gt;456 -->
<g id="edge42" class="edge">
<title>455&#45;&gt;456</title>
<path fill="none" stroke="#000000" d="M1455.76,-882.3C1444.43,-878.37 1431.75,-873.96 1419.8,-869.81"/>
<polygon fill="#000000" stroke="#000000" points="1421.11,-866.56 1410.51,-866.58 1418.81,-873.17 1421.11,-866.56"/>
</g>
<!-- 457 -->
<g id="node36" class="node">
<title>457</title>
<polygon fill="#ffffff" stroke="#000000" points="1448.28,-822.71 1246.68,-822.71 1246.68,-796.71 1448.28,-796.71 1448.28,-822.71"/>
<text text-anchor="middle" x="1347.48" y="-805.41" font-family="Meiryo UI" font-size="14.00">int32_t x8_3 = data_501c</text>
</g>
<!-- 456&#45;&gt;457 -->
<g id="edge43" class="edge">
<title>456&#45;&gt;457</title>
<path fill="none" stroke="#000000" d="M1365.82,-839.63C1364.43,-837.44 1362.94,-835.09 1361.43,-832.72"/>
<polygon fill="#000000" stroke="#000000" points="1364.48,-830.98 1356.17,-824.41 1358.57,-834.73 1364.48,-830.98"/>
</g>
<!-- 458 -->
<g id="node37" class="node">
<title>458</title>
<polygon fill="#ffffaa" stroke="#000000" points="1389.16,-779.71 1267.79,-779.71 1267.79,-753.71 1389.16,-753.71 1389.16,-779.71"/>
<text text-anchor="middle" x="1328.48" y="-762.41" font-family="Meiryo UI" font-size="14.00">int32_t x9_7</text>
</g>
<!-- 457&#45;&gt;458 -->
<g id="edge44" class="edge">
<title>457&#45;&gt;458</title>
<path fill="none" stroke="#000000" d="M1341.88,-796.63C1340.98,-794.69 1340.02,-792.61 1339.04,-790.51"/>
<polygon fill="#000000" stroke="#000000" points="1342.25,-789.11 1334.87,-781.51 1335.9,-792.05 1342.25,-789.11"/>
</g>
<!-- 459 -->
<g id="node38" class="node">
<title>459</title>
<polygon fill="#ffffff" stroke="#000000" points="1323.48,-736.71 1038.59,-716.14 1323.48,-695.57 1608.37,-716.14 1323.48,-736.71"/>
<text text-anchor="middle" x="1323.48" y="-711.84" font-family="Meiryo UI" font-size="14.00">strcmp(&amp;product_name, &quot;if_s700n&quot;) == 0</text>
</g>
<!-- 458&#45;&gt;459 -->
<g id="edge45" class="edge">
<title>458&#45;&gt;459</title>
<path fill="none" stroke="#000000" d="M1327.22,-753.46C1327.04,-751.72 1326.85,-749.87 1326.65,-747.96"/>
<polygon fill="#000000" stroke="#000000" points="1330.16,-747.86 1325.65,-738.27 1323.2,-748.58 1330.16,-747.86"/>
</g>
<!-- 460 -->
<g id="node39" class="node">
<title>460</title>
<polygon fill="#ffffff" stroke="#000000" points="1375.85,-661.57 1215.1,-661.57 1215.1,-635.57 1375.85,-635.57 1375.85,-661.57"/>
<text text-anchor="middle" x="1295.48" y="-644.27" font-family="Meiryo UI" font-size="14.00">x9_7 = 0x13312123</text>
</g>
<!-- 459&#45;&gt;460 -->
<g id="edge46" class="edge">
<title>459&#45;&gt;460</title>
<path fill="none" stroke="#000000" d="M1315.23,-695.82C1312.06,-688.41 1308.43,-679.89 1305.14,-672.2"/>
<polygon fill="#000000" stroke="#000000" points="1308.42,-670.96 1301.27,-663.13 1301.98,-673.7 1308.42,-670.96"/>
<text text-anchor="middle" x="1323.48" y="-674.27" font-family="Meiryo UI" font-size="14.00">Yes</text>
</g>
<!-- 462 -->
<g id="node40" class="node">
<title>462</title>
<polygon fill="#ffffff" stroke="#000000" points="1514.91,-661.57 1412.05,-661.57 1412.05,-635.57 1514.91,-635.57 1514.91,-661.57"/>
<text text-anchor="middle" x="1463.48" y="-644.27" font-family="Meiryo UI" font-size="14.00">x9_7 = 0</text>
</g>
<!-- 459&#45;&gt;462 -->
<g id="edge47" class="edge">
<title>459&#45;&gt;462</title>
<path fill="none" stroke="#000000" d="M1360.26,-697.91C1380.82,-688.29 1406.36,-676.33 1426.88,-666.71"/>
<polygon fill="#000000" stroke="#000000" points="1428.17,-669.97 1435.74,-662.56 1425.2,-663.64 1428.17,-669.97"/>
<text text-anchor="middle" x="1427.85" y="-674.27" font-family="Meiryo UI" font-size="14.00">No</text>
</g>
<!-- 463 -->
<g id="node41" class="node">
<title>463</title>
<ellipse fill="#000000" stroke="#000000" cx="1443.48" cy="-613.43" rx="5.14" ry="5.14"/>
</g>
<!-- 460&#45;&gt;463 -->
<g id="edge48" class="edge">
<title>460&#45;&gt;463</title>
<path fill="none" stroke="#000000" d="M1351.01,-635.14C1378.33,-629.02 1409.25,-622.09 1427.51,-618"/>
<polygon fill="#000000" stroke="#000000" points="1428.07,-621.47 1437.07,-615.86 1426.54,-614.63 1428.07,-621.47"/>
</g>
<!-- 462&#45;&gt;463 -->
<g id="edge49" class="edge">
<title>462&#45;&gt;463</title>
<path fill="none" stroke="#000000" d="M1456.03,-635.23C1454.61,-632.87 1453.11,-630.39 1451.67,-628"/>
<polygon fill="#000000" stroke="#000000" points="1454.71,-626.27 1446.55,-619.51 1448.72,-629.88 1454.71,-626.27"/>
</g>
<!-- 785 -->
<g id="node42" class="node">
<title>785</title>
<polygon fill="#ffffff" stroke="#000000" points="1443.48,-591.29 1305.65,-570.71 1443.48,-550.14 1581.31,-570.71 1443.48,-591.29"/>
<text text-anchor="middle" x="1443.48" y="-566.41" font-family="Meiryo UI" font-size="14.00">x8_3 == x9_7</text>
</g>
<!-- 463&#45;&gt;785 -->
<g id="edge50" class="edge">
<title>463&#45;&gt;785</title>
<path fill="none" stroke="#000000" d="M1443.48,-608.07C1443.48,-606.56 1443.48,-604.74 1443.48,-602.72"/>
<polygon fill="#000000" stroke="#000000" points="1446.98,-603.09 1443.48,-593.09 1439.98,-603.09 1446.98,-603.09"/>
</g>
<!-- 464 -->
<g id="node43" class="node">
<title>464</title>
<polygon fill="#ffffaa" stroke="#000000" points="1443.51,-516.14 1315.45,-516.14 1315.45,-490.14 1443.51,-490.14 1443.51,-516.14"/>
<text text-anchor="middle" x="1379.48" y="-498.84" font-family="Meiryo UI" font-size="14.00">char infr_usb</text>
</g>
<!-- 785&#45;&gt;464 -->
<g id="edge51" class="edge">
<title>785&#45;&gt;464</title>
<path fill="none" stroke="#000000" d="M1426.66,-552.49C1418.24,-543.86 1408,-533.36 1399.21,-524.36"/>
<polygon fill="#000000" stroke="#000000" points="1401.88,-522.08 1392.39,-517.37 1396.87,-526.97 1401.88,-522.08"/>
<text text-anchor="middle" x="1427.48" y="-528.84" font-family="Meiryo UI" font-size="14.00">Yes</text>
</g>
<!-- 468 -->
<g id="node47" class="node">
<title>468</title>
<ellipse fill="#000000" stroke="#000000" cx="1544.48" cy="-322" rx="5.14" ry="5.14"/>
</g>
<!-- 785&#45;&gt;468 -->
<g id="edge52" class="edge">
<title>785&#45;&gt;468</title>
<path fill="none" stroke="#000000" d="M1509.8,-559.68C1540.16,-550.93 1569.48,-534.6 1569.48,-504.14 1569.48,-504.14 1569.48,-504.14 1569.48,-356.14 1569.48,-346.85 1563.13,-338.5 1556.83,-332.51"/>
<polygon fill="#000000" stroke="#000000" points="1559.51,-330.18 1549.56,-326.54 1555.07,-335.59 1559.51,-330.18"/>
<text text-anchor="middle" x="1578.85" y="-425.84" font-family="Meiryo UI" font-size="14.00">No</text>
</g>
<!-- 465 -->
<g id="node44" class="node">
<title>465</title>
<polygon fill="#ffffff" stroke="#000000" points="1514.14,-473.14 1181.71,-473.14 1178.82,-470.25 1178.82,-447.14 1511.25,-447.14 1514.14,-450.03 1514.14,-473.14"/>
<polyline fill="none" stroke="#000000" points="1511.25,-470.25 1178.82,-470.25"/>
<polyline fill="none" stroke="#000000" points="1511.25,-470.25 1511.25,-447.14"/>
<polyline fill="none" stroke="#000000" points="1511.25,-470.25 1514.14,-473.14"/>
<text text-anchor="middle" x="1346.48" y="-455.84" font-family="Meiryo UI" font-size="14.00">property_get(&quot;sys.infr.usb&quot;, &amp;infr_usb, &quot;0&quot;)</text>
</g>
<!-- 464&#45;&gt;465 -->
<g id="edge53" class="edge">
<title>464&#45;&gt;465</title>
<path fill="none" stroke="#000000" d="M1369.76,-490.06C1367.8,-487.63 1365.68,-485 1363.55,-482.36"/>
<polygon fill="#000000" stroke="#000000" points="1366.42,-480.34 1357.42,-474.74 1360.97,-484.73 1366.42,-480.34"/>
</g>
<!-- 466 -->
<g id="node45" class="node">
<title>466</title>
<polygon fill="#ffffff" stroke="#000000" points="1501.99,-413.14 1266.96,-413.14 1266.96,-387.14 1501.99,-387.14 1501.99,-413.14"/>
<text text-anchor="middle" x="1384.48" y="-395.84" font-family="Meiryo UI" font-size="14.00">is_infr_usb_enable = infr_usb</text>
</g>
<!-- 465&#45;&gt;466 -->
<g id="edge54" class="edge">
<title>465&#45;&gt;466</title>
<path fill="none" stroke="#000000" d="M1354.54,-446.84C1359.07,-439.92 1364.87,-431.08 1370.15,-423.01"/>
<polygon fill="#000000" stroke="#000000" points="1373.05,-424.97 1375.6,-414.69 1367.19,-421.14 1373.05,-424.97"/>
</g>
<!-- 467 -->
<g id="node46" class="node">
<title>467</title>
<polygon fill="#ffffff" stroke="#000000" points="1501.85,-370.14 1370,-370.14 1367.11,-367.25 1367.11,-344.14 1498.96,-344.14 1501.85,-347.03 1501.85,-370.14"/>
<polyline fill="none" stroke="#000000" points="1498.96,-367.25 1367.11,-367.25"/>
<polyline fill="none" stroke="#000000" points="1498.96,-367.25 1498.96,-344.14"/>
<polyline fill="none" stroke="#000000" points="1498.96,-367.25 1501.85,-370.14"/>
<text text-anchor="middle" x="1434.48" y="-352.84" font-family="Meiryo UI" font-size="14.00">property_set()</text>
</g>
<!-- 466&#45;&gt;467 -->
<g id="edge55" class="edge">
<title>466&#45;&gt;467</title>
<path fill="none" stroke="#000000" d="M1399.48,-386.84C1403.04,-383.92 1406.92,-380.74 1410.77,-377.59"/>
<polygon fill="#000000" stroke="#000000" points="1412.8,-380.44 1418.32,-371.4 1408.37,-375.03 1412.8,-380.44"/>
</g>
<!-- 467&#45;&gt;468 -->
<g id="edge56" class="edge">
<title>467&#45;&gt;468</title>
<path fill="none" stroke="#000000" d="M1475.75,-343.71C1494.23,-338.14 1514.92,-331.91 1528.72,-327.75"/>
<polygon fill="#000000" stroke="#000000" points="1529.54,-331.16 1538.1,-324.92 1527.52,-324.45 1529.54,-331.16"/>
</g>
<!-- 786 -->
<g id="node48" class="node">
<title>786</title>
<polygon fill="#ffffff" stroke="#000000" points="1608.51,-299.86 1480.45,-299.86 1480.45,-273.86 1608.51,-273.86 1608.51,-299.86"/>
<text text-anchor="middle" x="1544.48" y="-282.56" font-family="Meiryo UI" font-size="14.00">data_501c = 0</text>
</g>
<!-- 468&#45;&gt;786 -->
<g id="edge57" class="edge">
<title>468&#45;&gt;786</title>
<path fill="none" stroke="#000000" d="M1544.48,-316.39C1544.48,-314.95 1544.48,-313.25 1544.48,-311.4"/>
<polygon fill="#000000" stroke="#000000" points="1547.98,-311.65 1544.48,-301.65 1540.98,-311.65 1547.98,-311.65"/>
</g>
<!-- 469 -->
<g id="node49" class="node">
<title>469</title>
<polygon fill="#ffffff" stroke="#000000" points="1608.51,-256.86 1480.45,-256.86 1480.45,-230.86 1608.51,-230.86 1608.51,-256.86"/>
<text text-anchor="middle" x="1544.48" y="-239.56" font-family="Meiryo UI" font-size="14.00">data_5018 = 0</text>
</g>
<!-- 786&#45;&gt;469 -->
<g id="edge58" class="edge">
<title>786&#45;&gt;469</title>
<path fill="none" stroke="#000000" d="M1544.48,-273.78C1544.48,-272.15 1544.48,-270.44 1544.48,-268.7"/>
<polygon fill="#000000" stroke="#000000" points="1547.98,-268.79 1544.48,-258.79 1540.98,-268.79 1547.98,-268.79"/>
</g>
<!-- 469&#45;&gt;470 -->
<g id="edge59" class="edge">
<title>469&#45;&gt;470</title>
<path fill="none" stroke="#000000" d="M1566.45,-230.52C1574.08,-226.23 1582.43,-221.54 1589.26,-217.7"/>
<polygon fill="#000000" stroke="#000000" points="1590.88,-220.81 1597.88,-212.86 1587.45,-214.71 1590.88,-220.81"/>
</g>
<!-- 787 -->
<g id="node51" class="node">
<title>787</title>
<polygon fill="#ffffff" stroke="#000000" points="1603.48,-186.57 1452.28,-166 1603.48,-145.43 1754.68,-166 1603.48,-186.57"/>
<text text-anchor="middle" x="1603.48" y="-161.7" font-family="Meiryo UI" font-size="14.00">(x19 &#45; x19) != 0</text>
</g>
<!-- 470&#45;&gt;787 -->
<g id="edge60" class="edge">
<title>470&#45;&gt;787</title>
<path fill="none" stroke="#000000" d="M1603.48,-203.36C1603.48,-201.85 1603.48,-200.03 1603.48,-198.01"/>
<polygon fill="#000000" stroke="#000000" points="1606.98,-198.37 1603.48,-188.37 1599.98,-198.37 1606.98,-198.37"/>
</g>
<!-- 471 -->
<g id="node52" class="node">
<title>471</title>
<polygon fill="#ffffff" stroke="#000000" points="1607.22,-111.43 1448.63,-111.43 1445.74,-108.54 1445.74,-85.43 1604.33,-85.43 1607.22,-88.32 1607.22,-111.43"/>
<polyline fill="none" stroke="#000000" points="1604.33,-108.54 1445.74,-108.54"/>
<polyline fill="none" stroke="#000000" points="1604.33,-108.54 1604.33,-85.43"/>
<polyline fill="none" stroke="#000000" points="1604.33,-108.54 1607.22,-111.43"/>
<text text-anchor="middle" x="1526.48" y="-94.13" font-family="Meiryo UI" font-size="14.00">__stack_chk_fail()</text>
</g>
<!-- 787&#45;&gt;471 -->
<g id="edge61" class="edge">
<title>787&#45;&gt;471</title>
<path fill="none" stroke="#000000" d="M1583.25,-147.77C1572.8,-138.88 1560.03,-128 1549.24,-118.81"/>
<polygon fill="#000000" stroke="#000000" points="1551.78,-116.37 1541.89,-112.56 1547.24,-121.7 1551.78,-116.37"/>
<text text-anchor="middle" x="1582.48" y="-124.13" font-family="Meiryo UI" font-size="14.00">Yes</text>
</g>
<!-- 472 -->
<g id="node53" class="node">
<title>472</title>
<ellipse fill="#000000" stroke="#000000" cx="1602.48" cy="-63.29" rx="5.14" ry="5.14"/>
</g>
<!-- 787&#45;&gt;472 -->
<g id="edge62" class="edge">
<title>787&#45;&gt;472</title>
<path fill="none" stroke="#000000" d="M1615.4,-146.8C1624.59,-130.33 1634.35,-105.64 1625.48,-85.43 1623.38,-80.65 1619.61,-76.47 1615.72,-73.13"/>
<polygon fill="#000000" stroke="#000000" points="1618.08,-70.51 1607.92,-67.51 1613.99,-76.19 1618.08,-70.51"/>
<text text-anchor="middle" x="1638.85" y="-94.13" font-family="Meiryo UI" font-size="14.00">No</text>
</g>
<!-- 471&#45;&gt;472 -->
<g id="edge63" class="edge">
<title>471&#45;&gt;472</title>
<path fill="none" stroke="#000000" d="M1554.78,-85.09C1565.8,-80.28 1578,-74.96 1587.3,-70.91"/>
<polygon fill="#000000" stroke="#000000" points="1588.65,-74.14 1596.41,-66.93 1585.85,-67.72 1588.65,-74.14"/>
</g>
<!-- 788 -->
<g id="node54" class="node">
<title>788</title>
<ellipse fill="#ffffff" stroke="#000000" cx="1602.48" cy="-20.57" rx="72" ry="20.57"/>
<text text-anchor="middle" x="1602.48" y="-16.27" font-family="Meiryo UI" font-size="14.00">END</text>
</g>
<!-- 472&#45;&gt;788 -->
<g id="edge64" class="edge">
<title>472&#45;&gt;788</title>
<path fill="none" stroke="#000000" d="M1602.48,-57.93C1602.48,-56.42 1602.48,-54.6 1602.48,-52.58"/>
<polygon fill="#000000" stroke="#000000" points="1605.98,-52.94 1602.48,-42.94 1598.98,-52.94 1605.98,-52.94"/>
</g>
</g>
</svg>
