<?xml version="1.0" encoding="UTF-8" standalone="no"?>
<!DOCTYPE svg PUBLIC "-//W3C//DTD SVG 1.1//EN"
 "http://www.w3.org/Graphics/SVG/1.1/DTD/svg11.dtd">
<!-- Generated by graphviz version 9.0.0 (20230911.1827)
 -->
<!-- Title: graph_name Pages: 1 -->
<svg width="445pt" height="255pt"
 viewBox="0.00 0.00 445.35 255.37" xmlns="http://www.w3.org/2000/svg" xmlns:xlink="http://www.w3.org/1999/xlink">
<g id="graph0" class="graph" transform="scale(1 1) rotate(0) translate(4 251.37)">
<title>graph_name</title>
<polygon fill="#f2f2f2" stroke="none" points="-4,4 -4,-251.37 441.35,-251.37 441.35,4 -4,4"/>
<!-- 162 -->
<g id="node1" class="node">
<title>162</title>
<ellipse fill="#ffffff" stroke="#000000" cx="218.67" cy="-216.26" rx="218.67" ry="31.11"/>
<text text-anchor="middle" x="218.67" y="-220.96" font-family="Meiryo UI" font-size="14.00">START</text>
<text text-anchor="middle" x="218.67" y="-202.96" font-family="Meiryo UI" font-size="14.00">int64_t sub_17c8(void* arg1) __noreturn</text>
</g>
<!-- 163 -->
<g id="node2" class="node">
<title>163</title>
<polygon fill="#ffffff" stroke="#000000" points="316.13,-177.14 121.22,-177.14 121.22,-151.14 316.13,-151.14 316.13,-177.14"/>
<text text-anchor="middle" x="218.67" y="-159.84" font-family="Meiryo UI" font-size="14.00">int64_t var_18 = 0x4b28</text>
</g>
<!-- 162&#45;&gt;163 -->
<g id="edge1" class="edge">
<title>162&#45;&gt;163</title>
<path fill="none" stroke="#000000" d="M218.67,-184.66C218.67,-184.5 218.67,-184.34 218.67,-184.17"/>
<polygon fill="#000000" stroke="#000000" points="222.17,-188.72 218.67,-178.72 215.17,-188.72 222.17,-188.72"/>
</g>
<!-- 164 -->
<g id="node3" class="node">
<title>164</title>
<polygon fill="#ffffff" stroke="#000000" points="316.13,-143.14 121.22,-143.14 121.22,-117.14 316.13,-117.14 316.13,-143.14"/>
<text text-anchor="middle" x="218.67" y="-125.84" font-family="Meiryo UI" font-size="14.00">int64_t var_10 = 0x4b38</text>
</g>
<!-- 163&#45;&gt;164 -->
<g id="edge2" class="edge">
<title>163&#45;&gt;164</title>
<path fill="none" stroke="#000000" d="M218.67,-150.86C218.67,-150.71 218.67,-150.56 218.67,-150.41"/>
<polygon fill="#000000" stroke="#000000" points="222.17,-155.06 218.67,-145.06 215.17,-155.06 222.17,-155.06"/>
</g>
<!-- 165 -->
<g id="node4" class="node">
<title>165</title>
<polygon fill="#ffffff" stroke="#000000" points="312.79,-109.14 124.56,-109.14 124.56,-83.14 312.79,-83.14 312.79,-109.14"/>
<text text-anchor="middle" x="218.67" y="-91.84" font-family="Meiryo UI" font-size="14.00">int64_t var_8 = 0x4b48</text>
</g>
<!-- 164&#45;&gt;165 -->
<g id="edge3" class="edge">
<title>164&#45;&gt;165</title>
<path fill="none" stroke="#000000" d="M218.67,-116.86C218.67,-116.71 218.67,-116.56 218.67,-116.41"/>
<polygon fill="#000000" stroke="#000000" points="222.17,-121.06 218.67,-111.06 215.17,-121.06 222.17,-121.06"/>
</g>
<!-- 166 -->
<g id="node5" class="node">
<title>166</title>
<polygon fill="#ffffff" stroke="#000000" points="376.3,-75.14 63.93,-75.14 61.04,-72.25 61.04,-49.14 373.41,-49.14 376.3,-52.03 376.3,-75.14"/>
<polyline fill="none" stroke="#000000" points="373.41,-72.25 61.04,-72.25"/>
<polyline fill="none" stroke="#000000" points="373.41,-72.25 373.41,-49.14"/>
<polyline fill="none" stroke="#000000" points="373.41,-72.25 376.3,-75.14"/>
<text text-anchor="middle" x="218.67" y="-57.84" font-family="Meiryo UI" font-size="14.00">__libc_init(arg1, nullptr, main, &amp;var_18)</text>
</g>
<!-- 165&#45;&gt;166 -->
<g id="edge4" class="edge">
<title>165&#45;&gt;166</title>
<path fill="none" stroke="#000000" d="M218.67,-82.86C218.67,-82.71 218.67,-82.56 218.67,-82.41"/>
<polygon fill="#000000" stroke="#000000" points="222.17,-87.06 218.67,-77.06 215.17,-87.06 222.17,-87.06"/>
</g>
<!-- 167 -->
<g id="node6" class="node">
<title>167</title>
<ellipse fill="#ffffff" stroke="#000000" cx="218.67" cy="-20.57" rx="72" ry="20.57"/>
<text text-anchor="middle" x="218.67" y="-16.27" font-family="Meiryo UI" font-size="14.00">END</text>
</g>
<!-- 166&#45;&gt;167 -->
<g id="edge5" class="edge">
<title>166&#45;&gt;167</title>
<path fill="none" stroke="#000000" d="M218.67,-49.06C218.67,-48.91 218.67,-48.76 218.67,-48.61"/>
<polygon fill="#000000" stroke="#000000" points="222.17,-53.12 218.67,-43.12 215.17,-53.12 222.17,-53.12"/>
</g>
<!-- 984 -->
<g id="node7" class="node">
<title>984</title>
<polygon fill="#bbccff" stroke="none" points="429.1,-33.57 326.24,-33.57 326.24,-7.57 429.1,-7.57 429.1,-33.57"/>
<text text-anchor="start" x="334.24" y="-16.27" font-family="Meiryo UI" font-size="14.00">no return</text>
</g>
<!-- 167&#45;&gt;984 -->
<g id="edge6" class="edge">
<title>167&#45;&gt;984</title>
<path fill="none" stroke="#aaaaff" d="M291.03,-20.57C302.88,-20.57 314.72,-20.57 326.57,-20.57"/>
</g>
</g>
</svg>
