<?xml version="1.0" encoding="UTF-8" standalone="no"?>
<!DOCTYPE svg PUBLIC "-//W3C//DTD SVG 1.1//EN"
 "http://www.w3.org/Graphics/SVG/1.1/DTD/svg11.dtd">
<!-- Generated by graphviz version 9.0.0 (20230911.1827)
 -->
<!-- Title: graph_name Pages: 1 -->
<svg width="377pt" height="119pt"
 viewBox="0.00 0.00 377.46 119.37" xmlns="http://www.w3.org/2000/svg" xmlns:xlink="http://www.w3.org/1999/xlink">
<g id="graph0" class="graph" transform="scale(1 1) rotate(0) translate(4 115.37)">
<title>graph_name</title>
<polygon fill="#f2f2f2" stroke="none" points="-4,4 -4,-115.37 373.46,-115.37 373.46,4 -4,4"/>
<!-- 1 -->
<g id="node1" class="node">
<title>1</title>
<ellipse fill="#ffffff" stroke="#000000" cx="107.83" cy="-80.26" rx="107.83" ry="31.11"/>
<text text-anchor="middle" x="107.83" y="-84.96" font-family="Meiryo UI" font-size="14.00">START</text>
<text text-anchor="middle" x="107.83" y="-66.96" font-family="Meiryo UI" font-size="14.00">int64_t sub_1458()</text>
</g>
<!-- 2 -->
<g id="node2" class="node">
<title>2</title>
<ellipse fill="#ffffff" stroke="#000000" cx="107.83" cy="-20.57" rx="72" ry="20.57"/>
<text text-anchor="middle" x="107.83" y="-16.27" font-family="Meiryo UI" font-size="14.00">END</text>
</g>
<!-- 1&#45;&gt;2 -->
<g id="edge1" class="edge">
<title>1&#45;&gt;2</title>
<path fill="none" stroke="#000000" d="M107.83,-48.72C107.83,-48.57 107.83,-48.41 107.83,-48.26"/>
<polygon fill="#000000" stroke="#000000" points="111.33,-52.9 107.83,-42.9 104.33,-52.9 111.33,-52.9"/>
</g>
<!-- 819 -->
<g id="node3" class="node">
<title>819</title>
<polygon fill="#bbccff" stroke="none" points="369.46,-33.57 216.21,-33.57 216.21,-7.57 369.46,-7.57 369.46,-33.57"/>
<text text-anchor="start" x="224.21" y="-16.27" font-family="Meiryo UI" font-size="14.00">jump &#45;&gt; data_4e50</text>
</g>
<!-- 2&#45;&gt;819 -->
<g id="edge2" class="edge">
<title>2&#45;&gt;819</title>
<path fill="none" stroke="#aaaaff" d="M180.1,-20.57C192.14,-20.57 204.17,-20.57 216.21,-20.57"/>
</g>
</g>
</svg>
