<?xml version="1.0" encoding="UTF-8" standalone="no"?>
<!DOCTYPE svg PUBLIC "-//W3C//DTD SVG 1.1//EN"
 "http://www.w3.org/Graphics/SVG/1.1/DTD/svg11.dtd">
<!-- Generated by graphviz version 9.0.0 (20230911.1827)
 -->
<!-- Title: graph_name Pages: 1 -->
<svg width="1291pt" height="1493pt"
 viewBox="0.00 0.00 1291.29 1493.23" xmlns="http://www.w3.org/2000/svg" xmlns:xlink="http://www.w3.org/1999/xlink">
<g id="graph0" class="graph" transform="scale(1 1) rotate(0) translate(4 1489.23)">
<title>graph_name</title>
<polygon fill="#f2f2f2" stroke="none" points="-4,4 -4,-1489.23 1287.29,-1489.23 1287.29,4 -4,4"/>
<!-- 242 -->
<g id="node1" class="node">
<title>242</title>
<ellipse fill="#ffffff" stroke="#000000" cx="582.29" cy="-1454.11" rx="169.35" ry="31.11"/>
<text text-anchor="middle" x="582.29" y="-1458.81" font-family="Meiryo UI" font-size="14.00">START</text>
<text text-anchor="middle" x="582.29" y="-1440.81" font-family="Meiryo UI" font-size="14.00">int64_t sub_1b40(int32_t arg1)</text>
</g>
<!-- 243 -->
<g id="node2" class="node">
<title>243</title>
<polygon fill="#ffffff" stroke="#000000" points="713.66,-1406 450.91,-1406 450.91,-1380 713.66,-1380 713.66,-1406"/>
<text text-anchor="middle" x="582.29" y="-1388.7" font-family="Meiryo UI" font-size="14.00">int64_t x22 = *__stack_chk_guard</text>
</g>
<!-- 242&#45;&gt;243 -->
<g id="edge1" class="edge">
<title>242&#45;&gt;243</title>
<path fill="none" stroke="#000000" d="M582.29,-1422.52C582.29,-1420.9 582.29,-1419.29 582.29,-1417.7"/>
<polygon fill="#000000" stroke="#000000" points="585.79,-1417.82 582.29,-1407.82 578.79,-1417.82 585.79,-1417.82"/>
</g>
<!-- 244 -->
<g id="node3" class="node">
<title>244</title>
<polygon fill="#ffffff" stroke="#000000" points="656.34,-1363 511.12,-1363 508.23,-1360.11 508.23,-1337 653.45,-1337 656.34,-1339.89 656.34,-1363"/>
<polyline fill="none" stroke="#000000" points="653.45,-1360.11 508.23,-1360.11"/>
<polyline fill="none" stroke="#000000" points="653.45,-1360.11 653.45,-1337"/>
<polyline fill="none" stroke="#000000" points="653.45,-1360.11 656.34,-1363"/>
<text text-anchor="middle" x="582.29" y="-1345.7" font-family="Meiryo UI" font-size="14.00">__snprintf_chk()</text>
</g>
<!-- 243&#45;&gt;244 -->
<g id="edge2" class="edge">
<title>243&#45;&gt;244</title>
<path fill="none" stroke="#000000" d="M582.29,-1379.92C582.29,-1378.3 582.29,-1376.59 582.29,-1374.84"/>
<polygon fill="#000000" stroke="#000000" points="585.79,-1374.93 582.29,-1364.93 578.79,-1374.93 585.79,-1374.93"/>
</g>
<!-- 245 -->
<g id="node4" class="node">
<title>245</title>
<polygon fill="#ffffff" stroke="#000000" points="745.54,-1320 421.92,-1320 419.04,-1317.11 419.04,-1294 742.65,-1294 745.54,-1296.89 745.54,-1320"/>
<polyline fill="none" stroke="#000000" points="742.65,-1317.11 419.04,-1317.11"/>
<polyline fill="none" stroke="#000000" points="742.65,-1317.11 742.65,-1294"/>
<polyline fill="none" stroke="#000000" points="742.65,-1317.11 745.54,-1320"/>
<text text-anchor="middle" x="582.29" y="-1302.7" font-family="Meiryo UI" font-size="14.00">int64_t mixer_open_result = mixer_open(0)</text>
</g>
<!-- 244&#45;&gt;245 -->
<g id="edge3" class="edge">
<title>244&#45;&gt;245</title>
<path fill="none" stroke="#000000" d="M582.29,-1336.92C582.29,-1335.3 582.29,-1333.59 582.29,-1331.84"/>
<polygon fill="#000000" stroke="#000000" points="585.79,-1331.93 582.29,-1321.93 578.79,-1331.93 585.79,-1331.93"/>
</g>
<!-- 246 -->
<g id="node5" class="node">
<title>246</title>
<polygon fill="#ffffff" stroke="#000000" points="582.29,-1277 410.99,-1256.43 582.29,-1235.86 753.59,-1256.43 582.29,-1277"/>
<text text-anchor="middle" x="582.29" y="-1252.13" font-family="Meiryo UI" font-size="14.00">mixer_open_result == 0</text>
</g>
<!-- 245&#45;&gt;246 -->
<g id="edge4" class="edge">
<title>245&#45;&gt;246</title>
<path fill="none" stroke="#000000" d="M582.29,-1293.74C582.29,-1292.2 582.29,-1290.57 582.29,-1288.88"/>
<polygon fill="#000000" stroke="#000000" points="585.79,-1288.94 582.29,-1278.94 578.79,-1288.94 585.79,-1288.94"/>
</g>
<!-- 247 -->
<g id="node6" class="node">
<title>247</title>
<polygon fill="#ffffff" stroke="#000000" points="575.69,-1201.86 420.89,-1201.86 420.89,-1175.86 575.69,-1175.86 575.69,-1201.86"/>
<text text-anchor="middle" x="498.29" y="-1184.56" font-family="Meiryo UI" font-size="14.00">int32_t x20_1 = 0</text>
</g>
<!-- 246&#45;&gt;247 -->
<g id="edge5" class="edge">
<title>246&#45;&gt;247</title>
<path fill="none" stroke="#000000" d="M560.22,-1238.2C548.79,-1229.28 534.79,-1218.35 523,-1209.15"/>
<polygon fill="#000000" stroke="#000000" points="525.34,-1206.53 515.3,-1203.14 521.03,-1212.05 525.34,-1206.53"/>
<text text-anchor="middle" x="557.29" y="-1214.56" font-family="Meiryo UI" font-size="14.00">Yes</text>
</g>
<!-- 257 -->
<g id="node17" class="node">
<title>257</title>
<ellipse fill="#000000" stroke="#000000" cx="553.29" cy="-712.29" rx="5.14" ry="5.14"/>
</g>
<!-- 246&#45;&gt;257 -->
<g id="edge6" class="edge">
<title>246&#45;&gt;257</title>
<path fill="none" stroke="#000000" d="M624.29,-1240.4C645.29,-1229.93 666.29,-1213.54 666.29,-1189.86 666.29,-1189.86 666.29,-1189.86 666.29,-746.43 666.29,-726.57 601.22,-717.77 569.84,-714.67"/>
<polygon fill="#000000" stroke="#000000" points="570.52,-711.22 560.24,-713.82 569.89,-718.19 570.52,-711.22"/>
<text text-anchor="middle" x="675.66" y="-984.56" font-family="Meiryo UI" font-size="14.00">No</text>
</g>
<!-- 248 -->
<g id="node7" class="node">
<title>248</title>
<polygon fill="#a0f0bf" stroke="#000000" points="578.89,-1158.86 203.68,-1158.86 175.29,-1134.86 607.29,-1134.86 578.89,-1158.86"/>
<text text-anchor="middle" x="391.29" y="-1142.56" font-family="Meiryo UI" font-size="14.00">do</text>
</g>
<!-- 247&#45;&gt;248 -->
<g id="edge7" class="edge">
<title>247&#45;&gt;248</title>
<path fill="none" stroke="#000000" d="M465.02,-1175.42C454.71,-1171.57 443.23,-1167.28 432.45,-1163.25"/>
<polygon fill="#000000" stroke="#000000" points="433.99,-1160.09 423.4,-1159.86 431.54,-1166.64 433.99,-1160.09"/>
</g>
<!-- 249 -->
<g id="node8" class="node">
<title>249</title>
<polygon fill="#ffffff" stroke="#000000" points="610.79,-1117.86 150.67,-1117.86 147.79,-1114.97 147.79,-1091.86 607.9,-1091.86 610.79,-1094.75 610.79,-1117.86"/>
<polyline fill="none" stroke="#000000" points="607.9,-1114.97 147.79,-1114.97"/>
<polyline fill="none" stroke="#000000" points="607.9,-1114.97 607.9,-1091.86"/>
<polyline fill="none" stroke="#000000" points="607.9,-1114.97 610.79,-1117.86"/>
<text text-anchor="middle" x="379.29" y="-1100.56" font-family="Meiryo UI" font-size="14.00">__android_log_print(6, 0, &quot;mixer open error try &#45;&#45; %d&quot;, x20_1)</text>
</g>
<!-- 248&#45;&gt;249 -->
<g id="edge8" class="edge">
<title>248&#45;&gt;249</title>
<path fill="none" stroke="#000000" d="M387.88,-1134.5C387.36,-1132.76 386.8,-1130.9 386.23,-1129.01"/>
<polygon fill="#000000" stroke="#000000" points="389.66,-1128.24 383.43,-1119.67 382.95,-1130.26 389.66,-1128.24"/>
</g>
<!-- 250 -->
<g id="node9" class="node">
<title>250</title>
<polygon fill="#ffffff" stroke="#000000" points="450,-1074.86 311.46,-1074.86 308.57,-1071.97 308.57,-1048.86 447.11,-1048.86 450,-1051.75 450,-1074.86"/>
<polyline fill="none" stroke="#000000" points="447.11,-1071.97 308.57,-1071.97"/>
<polyline fill="none" stroke="#000000" points="447.11,-1071.97 447.11,-1048.86"/>
<polyline fill="none" stroke="#000000" points="447.11,-1071.97 450,-1074.86"/>
<text text-anchor="middle" x="379.29" y="-1057.56" font-family="Meiryo UI" font-size="14.00">usleep(0x7a120)</text>
</g>
<!-- 249&#45;&gt;250 -->
<g id="edge9" class="edge">
<title>249&#45;&gt;250</title>
<path fill="none" stroke="#000000" d="M379.29,-1091.78C379.29,-1090.15 379.29,-1088.44 379.29,-1086.7"/>
<polygon fill="#000000" stroke="#000000" points="382.79,-1086.79 379.29,-1076.79 375.79,-1086.79 382.79,-1086.79"/>
</g>
<!-- 251 -->
<g id="node10" class="node">
<title>251</title>
<polygon fill="#ffffff" stroke="#000000" points="515.16,-1031.86 246.3,-1031.86 243.41,-1028.97 243.41,-1005.86 512.27,-1005.86 515.16,-1008.75 515.16,-1031.86"/>
<polyline fill="none" stroke="#000000" points="512.27,-1028.97 243.41,-1028.97"/>
<polyline fill="none" stroke="#000000" points="512.27,-1028.97 512.27,-1005.86"/>
<polyline fill="none" stroke="#000000" points="512.27,-1028.97 515.16,-1031.86"/>
<text text-anchor="middle" x="379.29" y="-1014.56" font-family="Meiryo UI" font-size="14.00">mixer_open_result = mixer_open(0)</text>
</g>
<!-- 250&#45;&gt;251 -->
<g id="edge10" class="edge">
<title>250&#45;&gt;251</title>
<path fill="none" stroke="#000000" d="M379.29,-1048.78C379.29,-1047.15 379.29,-1045.44 379.29,-1043.7"/>
<polygon fill="#000000" stroke="#000000" points="382.79,-1043.79 379.29,-1033.79 375.79,-1043.79 382.79,-1043.79"/>
</g>
<!-- 252 -->
<g id="node11" class="node">
<title>252</title>
<polygon fill="#ffffff" stroke="#000000" points="379.29,-971.86 208.03,-951.29 379.29,-930.71 550.54,-951.29 379.29,-971.86"/>
<text text-anchor="middle" x="379.29" y="-946.99" font-family="Meiryo UI" font-size="14.00">mixer_open_result != 0</text>
</g>
<!-- 251&#45;&gt;252 -->
<g id="edge11" class="edge">
<title>251&#45;&gt;252</title>
<path fill="none" stroke="#000000" d="M379.29,-1005.52C379.29,-999.32 379.29,-991.48 379.29,-983.74"/>
<polygon fill="#000000" stroke="#000000" points="382.79,-983.81 379.29,-973.81 375.79,-983.81 382.79,-983.81"/>
</g>
<!-- 253 -->
<g id="node12" class="node">
<title>253</title>
<polygon fill="#ffffff" stroke="#000000" points="204.71,-862.71 101.86,-862.71 101.86,-836.71 204.71,-836.71 204.71,-862.71"/>
<text text-anchor="middle" x="153.29" y="-845.41" font-family="Meiryo UI" font-size="14.00">break</text>
</g>
<!-- 252&#45;&gt;253 -->
<g id="edge12" class="edge">
<title>252&#45;&gt;253</title>
<path fill="none" stroke="#000000" d="M343.72,-934.62C302.44,-916.43 234.6,-886.54 192.01,-867.78"/>
<polygon fill="#000000" stroke="#000000" points="193.45,-864.58 182.88,-863.75 190.62,-870.99 193.45,-864.58"/>
<text text-anchor="middle" x="326.29" y="-909.41" font-family="Meiryo UI" font-size="14.00">Yes</text>
</g>
<!-- 254 -->
<g id="node13" class="node">
<title>254</title>
<polygon fill="#ffffff" stroke="#000000" points="469.37,-896.71 301.2,-896.71 301.2,-870.71 469.37,-870.71 469.37,-896.71"/>
<text text-anchor="middle" x="385.29" y="-879.41" font-family="Meiryo UI" font-size="14.00">x20_1 = (x20_1 + 1)</text>
</g>
<!-- 252&#45;&gt;254 -->
<g id="edge13" class="edge">
<title>252&#45;&gt;254</title>
<path fill="none" stroke="#000000" d="M381.09,-930.61C381.72,-923.65 382.45,-915.75 383.11,-908.48"/>
<polygon fill="#000000" stroke="#000000" points="386.58,-908.93 384.01,-898.65 379.61,-908.29 386.58,-908.93"/>
<text text-anchor="middle" x="393.66" y="-909.41" font-family="Meiryo UI" font-size="14.00">No</text>
</g>
<!-- 256 -->
<g id="node15" class="node">
<title>256</title>
<ellipse fill="#000000" stroke="#000000" cx="395.29" cy="-782.57" rx="5.14" ry="5.14"/>
</g>
<!-- 253&#45;&gt;256 -->
<g id="edge14" class="edge">
<title>253&#45;&gt;256</title>
<path fill="none" stroke="#000000" d="M151.84,-836.37C151.42,-826.33 152.69,-812.57 161.29,-804.71 177.28,-790.09 327.98,-785.18 378.71,-783.93"/>
<polygon fill="#000000" stroke="#000000" points="378.53,-787.43 388.45,-783.71 378.37,-780.44 378.53,-787.43"/>
</g>
<!-- 255 -->
<g id="node14" class="node">
<title>255</title>
<polygon fill="#a0f0bf" stroke="#000000" points="611.29,-828.71 179.29,-828.71 207.68,-804.71 582.89,-804.71 611.29,-828.71"/>
<text text-anchor="middle" x="395.29" y="-812.41" font-family="Meiryo UI" font-size="14.00">while (x20_1 &lt; 0xa)</text>
</g>
<!-- 254&#45;&gt;255 -->
<g id="edge15" class="edge">
<title>254&#45;&gt;255</title>
<path fill="none" stroke="#000000" d="M387.17,-870.49C388.47,-862.02 390.24,-850.49 391.8,-840.36"/>
<polygon fill="#000000" stroke="#000000" points="395.26,-840.93 393.32,-830.51 388.34,-839.86 395.26,-840.93"/>
</g>
<!-- 255&#45;&gt;256 -->
<g id="edge16" class="edge">
<title>255&#45;&gt;256</title>
<path fill="none" stroke="#000000" d="M395.29,-804.47C395.29,-802.88 395.29,-801.23 395.29,-799.57"/>
<polygon fill="#000000" stroke="#000000" points="398.79,-799.58 395.29,-789.58 391.79,-799.58 398.79,-799.58"/>
</g>
<!-- 756 -->
<g id="node16" class="node">
<title>756</title>
<polygon fill="#ffffff" stroke="#000000" points="600.29,-760.43 261.17,-760.43 258.29,-757.54 258.29,-734.43 597.4,-734.43 600.29,-737.32 600.29,-760.43"/>
<polyline fill="none" stroke="#000000" points="597.4,-757.54 258.29,-757.54"/>
<polyline fill="none" stroke="#000000" points="597.4,-757.54 597.4,-734.43"/>
<polyline fill="none" stroke="#000000" points="597.4,-757.54 600.29,-760.43"/>
<text text-anchor="middle" x="429.29" y="-743.13" font-family="Meiryo UI" font-size="14.00">__android_log_print(6, 0, &quot;mixer open error&quot;)</text>
</g>
<!-- 256&#45;&gt;756 -->
<g id="edge17" class="edge">
<title>256&#45;&gt;756</title>
<path fill="none" stroke="#000000" d="M398.67,-778.27C401.14,-775.86 404.73,-772.37 408.58,-768.62"/>
<polygon fill="#000000" stroke="#000000" points="410.78,-771.35 415.5,-761.87 405.9,-766.34 410.78,-771.35"/>
</g>
<!-- 756&#45;&gt;257 -->
<g id="edge18" class="edge">
<title>756&#45;&gt;257</title>
<path fill="none" stroke="#000000" d="M475.81,-733.99C497.5,-728.2 521.88,-721.68 537.4,-717.53"/>
<polygon fill="#000000" stroke="#000000" points="538.25,-720.93 547,-714.96 536.44,-714.17 538.25,-720.93"/>
</g>
<!-- 757 -->
<g id="node18" class="node">
<title>757</title>
<polygon fill="#ffffaa" stroke="#000000" points="610.63,-690.14 495.94,-690.14 495.94,-664.14 610.63,-664.14 610.63,-690.14"/>
<text text-anchor="middle" x="553.29" y="-672.84" font-family="Meiryo UI" font-size="14.00">void var_9c</text>
</g>
<!-- 257&#45;&gt;757 -->
<g id="edge19" class="edge">
<title>257&#45;&gt;757</title>
<path fill="none" stroke="#000000" d="M553.29,-706.68C553.29,-705.23 553.29,-703.53 553.29,-701.69"/>
<polygon fill="#000000" stroke="#000000" points="556.79,-701.93 553.29,-691.93 549.79,-701.93 556.79,-701.93"/>
</g>
<!-- 258 -->
<g id="node19" class="node">
<title>258</title>
<polygon fill="#ffffff" stroke="#000000" points="807.66,-647.14 301.8,-647.14 298.91,-644.25 298.91,-621.14 804.77,-621.14 807.66,-624.03 807.66,-647.14"/>
<polyline fill="none" stroke="#000000" points="804.77,-644.25 298.91,-644.25"/>
<polyline fill="none" stroke="#000000" points="804.77,-644.25 804.77,-621.14"/>
<polyline fill="none" stroke="#000000" points="804.77,-644.25 807.66,-647.14"/>
<text text-anchor="middle" x="553.29" y="-629.84" font-family="Meiryo UI" font-size="14.00">int64_t x0_3 = mixer_get_ctl_by_name(mixer_open_result, &amp;var_9c)</text>
</g>
<!-- 757&#45;&gt;258 -->
<g id="edge20" class="edge">
<title>757&#45;&gt;258</title>
<path fill="none" stroke="#000000" d="M553.29,-664.06C553.29,-662.44 553.29,-660.73 553.29,-658.99"/>
<polygon fill="#000000" stroke="#000000" points="556.79,-659.08 553.29,-649.08 549.79,-659.08 556.79,-659.08"/>
</g>
<!-- 259 -->
<g id="node20" class="node">
<title>259</title>
<polygon fill="#ffffaa" stroke="#000000" points="620.66,-604.14 485.91,-604.14 485.91,-578.14 620.66,-578.14 620.66,-604.14"/>
<text text-anchor="middle" x="553.29" y="-586.84" font-family="Meiryo UI" font-size="14.00">int64_t result</text>
</g>
<!-- 258&#45;&gt;259 -->
<g id="edge21" class="edge">
<title>258&#45;&gt;259</title>
<path fill="none" stroke="#000000" d="M553.29,-621.06C553.29,-619.44 553.29,-617.73 553.29,-615.99"/>
<polygon fill="#000000" stroke="#000000" points="556.79,-616.08 553.29,-606.08 549.79,-616.08 556.79,-616.08"/>
</g>
<!-- 260 -->
<g id="node21" class="node">
<title>260</title>
<polygon fill="#ffffff" stroke="#000000" points="553.29,-561.14 424.71,-540.57 553.29,-520 681.86,-540.57 553.29,-561.14"/>
<text text-anchor="middle" x="553.29" y="-536.27" font-family="Meiryo UI" font-size="14.00">x0_3 == 0</text>
</g>
<!-- 259&#45;&gt;260 -->
<g id="edge22" class="edge">
<title>259&#45;&gt;260</title>
<path fill="none" stroke="#000000" d="M553.29,-577.89C553.29,-576.34 553.29,-574.71 553.29,-573.02"/>
<polygon fill="#000000" stroke="#000000" points="556.79,-573.09 553.29,-563.09 549.79,-573.09 556.79,-573.09"/>
</g>
<!-- 261 -->
<g id="node22" class="node">
<title>261</title>
<polygon fill="#ffffff" stroke="#000000" points="542.57,-478.43 2.89,-478.43 0,-475.54 0,-452.43 539.68,-452.43 542.57,-455.32 542.57,-478.43"/>
<polyline fill="none" stroke="#000000" points="539.68,-475.54 0,-475.54"/>
<polyline fill="none" stroke="#000000" points="539.68,-475.54 539.68,-452.43"/>
<polyline fill="none" stroke="#000000" points="539.68,-475.54 542.57,-478.43"/>
<text text-anchor="middle" x="271.29" y="-461.13" font-family="Meiryo UI" font-size="14.00">__android_log_print(6, 0, &quot;%s: could not get %s ctl&quot;, &quot;mix_off&quot;, &amp;var_9c)</text>
</g>
<!-- 260&#45;&gt;261 -->
<g id="edge23" class="edge">
<title>260&#45;&gt;261</title>
<path fill="none" stroke="#000000" d="M505.45,-527.16C457.14,-514.63 382.41,-495.25 330.42,-481.77"/>
<polygon fill="#000000" stroke="#000000" points="331.38,-478.4 320.82,-479.28 329.62,-485.18 331.38,-478.4"/>
<text text-anchor="middle" x="457.29" y="-498.7" font-family="Meiryo UI" font-size="14.00">Yes</text>
</g>
<!-- 264 -->
<g id="node25" class="node">
<title>264</title>
<polygon fill="#ffffff" stroke="#000000" points="836.29,-486 578.77,-465.43 836.29,-444.86 1093.8,-465.43 836.29,-486"/>
<text text-anchor="middle" x="836.29" y="-461.13" font-family="Meiryo UI" font-size="14.00">mixer_ctl_set_value(x0_3, 0, 0) == 0</text>
</g>
<!-- 260&#45;&gt;264 -->
<g id="edge24" class="edge">
<title>260&#45;&gt;264</title>
<path fill="none" stroke="#000000" d="M600.97,-527.25C646.17,-515.56 714.62,-497.87 766.06,-484.58"/>
<polygon fill="#000000" stroke="#000000" points="766.82,-488 775.63,-482.11 765.07,-481.22 766.82,-488"/>
<text text-anchor="middle" x="737.66" y="-498.7" font-family="Meiryo UI" font-size="14.00">No</text>
</g>
<!-- 262 -->
<g id="node23" class="node">
<title>262</title>
<polygon fill="#ffffff" stroke="#000000" points="392.54,-410.86 152.92,-410.86 150.04,-407.97 150.04,-384.86 389.65,-384.86 392.54,-387.75 392.54,-410.86"/>
<polyline fill="none" stroke="#000000" points="389.65,-407.97 150.04,-407.97"/>
<polyline fill="none" stroke="#000000" points="389.65,-407.97 389.65,-384.86"/>
<polyline fill="none" stroke="#000000" points="389.65,-407.97 392.54,-410.86"/>
<text text-anchor="middle" x="271.29" y="-393.56" font-family="Meiryo UI" font-size="14.00">mixer_close(mixer_open_result)</text>
</g>
<!-- 261&#45;&gt;262 -->
<g id="edge25" class="edge">
<title>261&#45;&gt;262</title>
<path fill="none" stroke="#000000" d="M271.29,-452.1C271.29,-443.76 271.29,-432.49 271.29,-422.47"/>
<polygon fill="#000000" stroke="#000000" points="274.79,-422.65 271.29,-412.65 267.79,-422.65 274.79,-422.65"/>
</g>
<!-- 263 -->
<g id="node24" class="node">
<title>263</title>
<polygon fill="#ffffff" stroke="#000000" points="457.37,-333.86 289.2,-333.86 289.2,-307.86 457.37,-307.86 457.37,-333.86"/>
<text text-anchor="middle" x="373.29" y="-316.56" font-family="Meiryo UI" font-size="14.00">result = 0xffffffea</text>
</g>
<!-- 262&#45;&gt;263 -->
<g id="edge26" class="edge">
<title>262&#45;&gt;263</title>
<path fill="none" stroke="#000000" d="M288.13,-384.47C304.22,-372.64 328.71,-354.63 347.31,-340.96"/>
<polygon fill="#000000" stroke="#000000" points="349.21,-343.9 355.2,-335.16 345.07,-338.26 349.21,-343.9"/>
</g>
<!-- 271 -->
<g id="node31" class="node">
<title>271</title>
<ellipse fill="#000000" stroke="#000000" cx="550.29" cy="-251.71" rx="5.14" ry="5.14"/>
</g>
<!-- 263&#45;&gt;271 -->
<g id="edge27" class="edge">
<title>263&#45;&gt;271</title>
<path fill="none" stroke="#000000" d="M406.16,-307.39C444.48,-292.85 506.2,-269.44 534.81,-258.59"/>
<polygon fill="#000000" stroke="#000000" points="535.89,-261.92 544,-255.1 533.41,-255.37 535.89,-261.92"/>
</g>
<!-- 265 -->
<g id="node26" class="node">
<title>265</title>
<polygon fill="#ffffff" stroke="#000000" points="671.54,-410.86 431.92,-410.86 429.04,-407.97 429.04,-384.86 668.65,-384.86 671.54,-387.75 671.54,-410.86"/>
<polyline fill="none" stroke="#000000" points="668.65,-407.97 429.04,-407.97"/>
<polyline fill="none" stroke="#000000" points="668.65,-407.97 668.65,-384.86"/>
<polyline fill="none" stroke="#000000" points="668.65,-407.97 671.54,-410.86"/>
<text text-anchor="middle" x="550.29" y="-393.56" font-family="Meiryo UI" font-size="14.00">mixer_close(mixer_open_result)</text>
</g>
<!-- 264&#45;&gt;265 -->
<g id="edge28" class="edge">
<title>264&#45;&gt;265</title>
<path fill="none" stroke="#000000" d="M771.39,-449.55C724.8,-438.87 662.25,-424.53 615.57,-413.83"/>
<polygon fill="#000000" stroke="#000000" points="616.37,-410.42 605.84,-411.6 614.81,-417.24 616.37,-410.42"/>
<text text-anchor="middle" x="722.29" y="-423.56" font-family="Meiryo UI" font-size="14.00">Yes</text>
</g>
<!-- 268 -->
<g id="node28" class="node">
<title>268</title>
<polygon fill="#ffffff" stroke="#000000" points="1283.29,-410.86 710.17,-410.86 707.29,-407.97 707.29,-384.86 1280.4,-384.86 1283.29,-387.75 1283.29,-410.86"/>
<polyline fill="none" stroke="#000000" points="1280.4,-407.97 707.29,-407.97"/>
<polyline fill="none" stroke="#000000" points="1280.4,-407.97 1280.4,-384.86"/>
<polyline fill="none" stroke="#000000" points="1280.4,-407.97 1283.29,-410.86"/>
<text text-anchor="middle" x="995.29" y="-393.56" font-family="Meiryo UI" font-size="14.00">__android_log_print(6, 0, &quot;error setting value %d on %s &quot;, &quot;mix_off&quot;, &amp;var_9c)</text>
</g>
<!-- 264&#45;&gt;268 -->
<g id="edge29" class="edge">
<title>264&#45;&gt;268</title>
<path fill="none" stroke="#000000" d="M876.82,-447.71C900.68,-437.87 930.75,-425.47 954.63,-415.62"/>
<polygon fill="#000000" stroke="#000000" points="955.81,-418.92 963.72,-411.87 953.14,-412.45 955.81,-418.92"/>
<text text-anchor="middle" x="952.66" y="-423.56" font-family="Meiryo UI" font-size="14.00">No</text>
</g>
<!-- 266 -->
<g id="node27" class="node">
<title>266</title>
<polygon fill="#ffffff" stroke="#000000" points="604.29,-333.86 496.29,-333.86 496.29,-307.86 604.29,-307.86 604.29,-333.86"/>
<text text-anchor="middle" x="550.29" y="-316.56" font-family="Meiryo UI" font-size="14.00">result = 0</text>
</g>
<!-- 265&#45;&gt;266 -->
<g id="edge30" class="edge">
<title>265&#45;&gt;266</title>
<path fill="none" stroke="#000000" d="M550.29,-384.47C550.29,-373.94 550.29,-358.52 550.29,-345.62"/>
<polygon fill="#000000" stroke="#000000" points="553.79,-345.77 550.29,-335.77 546.79,-345.77 553.79,-345.77"/>
</g>
<!-- 266&#45;&gt;271 -->
<g id="edge31" class="edge">
<title>266&#45;&gt;271</title>
<path fill="none" stroke="#000000" d="M550.29,-307.54C550.29,-296.54 550.29,-280.36 550.29,-268.43"/>
<polygon fill="#000000" stroke="#000000" points="553.79,-268.78 550.29,-258.78 546.79,-268.78 553.79,-268.78"/>
</g>
<!-- 269 -->
<g id="node29" class="node">
<title>269</title>
<polygon fill="#ffffff" stroke="#000000" points="981.54,-367.86 741.92,-367.86 739.04,-364.97 739.04,-341.86 978.65,-341.86 981.54,-344.75 981.54,-367.86"/>
<polyline fill="none" stroke="#000000" points="978.65,-364.97 739.04,-364.97"/>
<polyline fill="none" stroke="#000000" points="978.65,-364.97 978.65,-341.86"/>
<polyline fill="none" stroke="#000000" points="978.65,-364.97 981.54,-367.86"/>
<text text-anchor="middle" x="860.29" y="-350.56" font-family="Meiryo UI" font-size="14.00">mixer_close(mixer_open_result)</text>
</g>
<!-- 268&#45;&gt;269 -->
<g id="edge32" class="edge">
<title>268&#45;&gt;269</title>
<path fill="none" stroke="#000000" d="M954.41,-384.44C941.07,-380.39 926.06,-375.83 912.02,-371.57"/>
<polygon fill="#000000" stroke="#000000" points="913.05,-368.22 902.47,-368.67 911.02,-374.92 913.05,-368.22"/>
</g>
<!-- 270 -->
<g id="node30" class="node">
<title>270</title>
<polygon fill="#ffffff" stroke="#000000" points="782.37,-299.86 614.2,-299.86 614.2,-273.86 782.37,-273.86 782.37,-299.86"/>
<text text-anchor="middle" x="698.29" y="-282.56" font-family="Meiryo UI" font-size="14.00">result = 0xffffffff</text>
</g>
<!-- 269&#45;&gt;270 -->
<g id="edge33" class="edge">
<title>269&#45;&gt;270</title>
<path fill="none" stroke="#000000" d="M829.81,-341.44C804.21,-331.01 767.4,-316.02 739.23,-304.54"/>
<polygon fill="#000000" stroke="#000000" points="740.88,-301.43 730.3,-300.9 738.24,-307.91 740.88,-301.43"/>
</g>
<!-- 270&#45;&gt;271 -->
<g id="edge34" class="edge">
<title>270&#45;&gt;271</title>
<path fill="none" stroke="#000000" d="M642.75,-273.42C615.43,-267.3 584.52,-260.38 566.25,-256.29"/>
<polygon fill="#000000" stroke="#000000" points="567.22,-252.92 556.7,-254.15 565.69,-259.75 567.22,-252.92"/>
</g>
<!-- 758 -->
<g id="node32" class="node">
<title>758</title>
<polygon fill="#ffffff" stroke="#000000" points="550.29,-229.57 399.09,-209 550.29,-188.43 701.49,-209 550.29,-229.57"/>
<text text-anchor="middle" x="550.29" y="-204.7" font-family="Meiryo UI" font-size="14.00">(x22 &#45; x22) != 0</text>
</g>
<!-- 271&#45;&gt;758 -->
<g id="edge35" class="edge">
<title>271&#45;&gt;758</title>
<path fill="none" stroke="#000000" d="M550.29,-246.36C550.29,-244.85 550.29,-243.03 550.29,-241.01"/>
<polygon fill="#000000" stroke="#000000" points="553.79,-241.37 550.29,-231.37 546.79,-241.37 553.79,-241.37"/>
</g>
<!-- 272 -->
<g id="node33" class="node">
<title>272</title>
<polygon fill="#ffffff" stroke="#000000" points="554.03,-154.43 395.43,-154.43 392.54,-151.54 392.54,-128.43 551.14,-128.43 554.03,-131.32 554.03,-154.43"/>
<polyline fill="none" stroke="#000000" points="551.14,-151.54 392.54,-151.54"/>
<polyline fill="none" stroke="#000000" points="551.14,-151.54 551.14,-128.43"/>
<polyline fill="none" stroke="#000000" points="551.14,-151.54 554.03,-154.43"/>
<text text-anchor="middle" x="473.29" y="-137.13" font-family="Meiryo UI" font-size="14.00">__stack_chk_fail()</text>
</g>
<!-- 758&#45;&gt;272 -->
<g id="edge36" class="edge">
<title>758&#45;&gt;272</title>
<path fill="none" stroke="#000000" d="M530.05,-190.77C519.61,-181.88 506.83,-171 496.05,-161.81"/>
<polygon fill="#000000" stroke="#000000" points="498.58,-159.37 488.7,-155.56 494.05,-164.7 498.58,-159.37"/>
<text text-anchor="middle" x="528.29" y="-167.13" font-family="Meiryo UI" font-size="14.00">Yes</text>
</g>
<!-- 273 -->
<g id="node34" class="node">
<title>273</title>
<ellipse fill="#000000" stroke="#000000" cx="549.29" cy="-106.29" rx="5.14" ry="5.14"/>
</g>
<!-- 758&#45;&gt;273 -->
<g id="edge37" class="edge">
<title>758&#45;&gt;273</title>
<path fill="none" stroke="#000000" d="M562.21,-189.8C571.4,-173.33 581.16,-148.64 572.29,-128.43 570.19,-123.65 566.42,-119.47 562.53,-116.13"/>
<polygon fill="#000000" stroke="#000000" points="564.89,-113.51 554.72,-110.51 560.8,-119.19 564.89,-113.51"/>
<text text-anchor="middle" x="584.66" y="-137.13" font-family="Meiryo UI" font-size="14.00">No</text>
</g>
<!-- 272&#45;&gt;273 -->
<g id="edge38" class="edge">
<title>272&#45;&gt;273</title>
<path fill="none" stroke="#000000" d="M501.59,-128.09C512.61,-123.28 524.8,-117.96 534.1,-113.91"/>
<polygon fill="#000000" stroke="#000000" points="535.45,-117.14 543.22,-109.93 532.65,-110.72 535.45,-117.14"/>
</g>
<!-- 759 -->
<g id="node35" class="node">
<title>759</title>
<polygon fill="#ffffff" stroke="#000000" points="613.31,-84.14 485.26,-84.14 485.26,-58.14 613.31,-58.14 613.31,-84.14"/>
<text text-anchor="middle" x="549.29" y="-66.84" font-family="Meiryo UI" font-size="14.00">return result</text>
</g>
<!-- 273&#45;&gt;759 -->
<g id="edge39" class="edge">
<title>273&#45;&gt;759</title>
<path fill="none" stroke="#000000" d="M549.29,-100.68C549.29,-99.23 549.29,-97.53 549.29,-95.69"/>
<polygon fill="#000000" stroke="#000000" points="552.79,-95.93 549.29,-85.93 545.79,-95.93 552.79,-95.93"/>
</g>
<!-- 274 -->
<g id="node36" class="node">
<title>274</title>
<ellipse fill="#ffffff" stroke="#000000" cx="549.29" cy="-20.57" rx="72" ry="20.57"/>
<text text-anchor="middle" x="549.29" y="-16.27" font-family="Meiryo UI" font-size="14.00">END</text>
</g>
<!-- 759&#45;&gt;274 -->
<g id="edge40" class="edge">
<title>759&#45;&gt;274</title>
<path fill="none" stroke="#000000" d="M549.29,-57.89C549.29,-56.34 549.29,-54.71 549.29,-53.02"/>
<polygon fill="#000000" stroke="#000000" points="552.79,-53.09 549.29,-43.09 545.79,-53.09 552.79,-53.09"/>
</g>
</g>
</svg>
