<?xml version="1.0" encoding="UTF-8" standalone="no"?>
<!DOCTYPE svg PUBLIC "-//W3C//DTD SVG 1.1//EN"
 "http://www.w3.org/Graphics/SVG/1.1/DTD/svg11.dtd">
<!-- Generated by graphviz version 9.0.0 (20230911.1827)
 -->
<!-- Title: graph_name Pages: 1 -->
<svg width="752pt" height="1321pt"
 viewBox="0.00 0.00 752.11 1320.65" xmlns="http://www.w3.org/2000/svg" xmlns:xlink="http://www.w3.org/1999/xlink">
<g id="graph0" class="graph" transform="scale(1 1) rotate(0) translate(4 1316.65)">
<title>graph_name</title>
<polygon fill="#f2f2f2" stroke="none" points="-4,4 -4,-1316.65 748.11,-1316.65 748.11,4 -4,4"/>
<!-- 181 -->
<g id="node1" class="node">
<title>181</title>
<ellipse fill="#ffffff" stroke="#000000" cx="392" cy="-1281.54" rx="169.35" ry="31.11"/>
<text text-anchor="middle" x="392" y="-1286.24" font-family="Meiryo UI" font-size="14.00">START</text>
<text text-anchor="middle" x="392" y="-1268.24" font-family="Meiryo UI" font-size="14.00">int64_t sub_18b8(int32_t arg1)</text>
</g>
<!-- 182 -->
<g id="node2" class="node">
<title>182</title>
<polygon fill="#ffffff" stroke="#000000" points="523.38,-1233.43 260.62,-1233.43 260.62,-1207.43 523.38,-1207.43 523.38,-1233.43"/>
<text text-anchor="middle" x="392" y="-1216.13" font-family="Meiryo UI" font-size="14.00">int64_t x21 = *__stack_chk_guard</text>
</g>
<!-- 181&#45;&gt;182 -->
<g id="edge1" class="edge">
<title>181&#45;&gt;182</title>
<path fill="none" stroke="#000000" d="M392,-1249.95C392,-1248.33 392,-1246.72 392,-1245.13"/>
<polygon fill="#000000" stroke="#000000" points="395.5,-1245.25 392,-1235.25 388.5,-1245.25 395.5,-1245.25"/>
</g>
<!-- 183 -->
<g id="node3" class="node">
<title>183</title>
<polygon fill="#ffffff" stroke="#000000" points="550,-1190.43 234,-1190.43 234,-1164.43 550,-1164.43 550,-1190.43"/>
<text text-anchor="middle" x="392" y="-1173.13" font-family="Meiryo UI" font-size="14.00">int128_t var_51 = (*&quot;n&#45;1/timer_reset&quot;)[0]</text>
</g>
<!-- 182&#45;&gt;183 -->
<g id="edge2" class="edge">
<title>182&#45;&gt;183</title>
<path fill="none" stroke="#000000" d="M392,-1207.35C392,-1205.73 392,-1204.02 392,-1202.27"/>
<polygon fill="#000000" stroke="#000000" points="395.5,-1202.36 392,-1192.36 388.5,-1202.36 395.5,-1202.36"/>
</g>
<!-- 184 -->
<g id="node4" class="node">
<title>184</title>
<polygon fill="#ffffff" stroke="#000000" points="624.62,-1147.43 159.38,-1147.43 159.38,-1121.43 624.62,-1121.43 624.62,-1147.43"/>
<text text-anchor="middle" x="392" y="-1130.13" font-family="Meiryo UI" font-size="14.00">int128_t var_70 = (*&quot;/sys/devices/soc.0/qpnp&#45;power&#45;on…&quot;)[0]</text>
</g>
<!-- 183&#45;&gt;184 -->
<g id="edge3" class="edge">
<title>183&#45;&gt;184</title>
<path fill="none" stroke="#000000" d="M392,-1164.35C392,-1162.73 392,-1161.02 392,-1159.27"/>
<polygon fill="#000000" stroke="#000000" points="395.5,-1159.36 392,-1149.36 388.5,-1159.36 395.5,-1159.36"/>
</g>
<!-- 185 -->
<g id="node5" class="node">
<title>185</title>
<polygon fill="#ffffff" stroke="#000000" points="610.38,-1104.43 173.62,-1104.43 173.62,-1078.43 610.38,-1078.43 610.38,-1104.43"/>
<text text-anchor="middle" x="392" y="-1087.13" font-family="Meiryo UI" font-size="14.00">int128_t var_60 = (*&quot;.0/qpnp&#45;power&#45;on&#45;1/timer_reset&quot;)[0]</text>
</g>
<!-- 184&#45;&gt;185 -->
<g id="edge4" class="edge">
<title>184&#45;&gt;185</title>
<path fill="none" stroke="#000000" d="M392,-1121.35C392,-1119.73 392,-1118.02 392,-1116.27"/>
<polygon fill="#000000" stroke="#000000" points="395.5,-1116.36 392,-1106.36 388.5,-1116.36 395.5,-1116.36"/>
</g>
<!-- 186 -->
<g id="node6" class="node">
<title>186</title>
<polygon fill="#ffffff" stroke="#000000" points="472.74,-1061.43 311.26,-1061.43 311.26,-1035.43 472.74,-1035.43 472.74,-1061.43"/>
<text text-anchor="middle" x="392" y="-1044.13" font-family="Meiryo UI" font-size="14.00">int64_t var_79 = 0</text>
</g>
<!-- 185&#45;&gt;186 -->
<g id="edge5" class="edge">
<title>185&#45;&gt;186</title>
<path fill="none" stroke="#000000" d="M392,-1078.35C392,-1076.73 392,-1075.02 392,-1073.27"/>
<polygon fill="#000000" stroke="#000000" points="395.5,-1073.36 392,-1063.36 388.5,-1073.36 395.5,-1073.36"/>
</g>
<!-- 187 -->
<g id="node7" class="node">
<title>187</title>
<polygon fill="#ffffff" stroke="#000000" points="472.74,-1018.43 311.26,-1018.43 311.26,-992.43 472.74,-992.43 472.74,-1018.43"/>
<text text-anchor="middle" x="392" y="-1001.13" font-family="Meiryo UI" font-size="14.00">int64_t var_88 = 0</text>
</g>
<!-- 186&#45;&gt;187 -->
<g id="edge6" class="edge">
<title>186&#45;&gt;187</title>
<path fill="none" stroke="#000000" d="M392,-1035.35C392,-1033.73 392,-1032.02 392,-1030.27"/>
<polygon fill="#000000" stroke="#000000" points="395.5,-1030.36 392,-1020.36 388.5,-1030.36 395.5,-1030.36"/>
</g>
<!-- 188 -->
<g id="node8" class="node">
<title>188</title>
<polygon fill="#ffffff" stroke="#000000" points="472.74,-975.43 311.26,-975.43 311.26,-949.43 472.74,-949.43 472.74,-975.43"/>
<text text-anchor="middle" x="392" y="-958.13" font-family="Meiryo UI" font-size="14.00">int64_t var_80 = 0</text>
</g>
<!-- 187&#45;&gt;188 -->
<g id="edge7" class="edge">
<title>187&#45;&gt;188</title>
<path fill="none" stroke="#000000" d="M392,-992.35C392,-990.73 392,-989.02 392,-987.27"/>
<polygon fill="#000000" stroke="#000000" points="395.5,-987.36 392,-977.36 388.5,-987.36 395.5,-987.36"/>
</g>
<!-- 189 -->
<g id="node9" class="node">
<title>189</title>
<polygon fill="#ffffff" stroke="#000000" points="472.74,-932.43 311.26,-932.43 311.26,-906.43 472.74,-906.43 472.74,-932.43"/>
<text text-anchor="middle" x="392" y="-915.13" font-family="Meiryo UI" font-size="14.00">int64_t var_98 = 0</text>
</g>
<!-- 188&#45;&gt;189 -->
<g id="edge8" class="edge">
<title>188&#45;&gt;189</title>
<path fill="none" stroke="#000000" d="M392,-949.35C392,-947.73 392,-946.02 392,-944.27"/>
<polygon fill="#000000" stroke="#000000" points="395.5,-944.36 392,-934.36 388.5,-944.36 395.5,-944.36"/>
</g>
<!-- 190 -->
<g id="node10" class="node">
<title>190</title>
<polygon fill="#ffffff" stroke="#000000" points="472.74,-889.43 311.26,-889.43 311.26,-863.43 472.74,-863.43 472.74,-889.43"/>
<text text-anchor="middle" x="392" y="-872.13" font-family="Meiryo UI" font-size="14.00">int64_t var_90 = 0</text>
</g>
<!-- 189&#45;&gt;190 -->
<g id="edge9" class="edge">
<title>189&#45;&gt;190</title>
<path fill="none" stroke="#000000" d="M392,-906.35C392,-904.73 392,-903.02 392,-901.27"/>
<polygon fill="#000000" stroke="#000000" points="395.5,-901.36 392,-891.36 388.5,-901.36 395.5,-901.36"/>
</g>
<!-- 191 -->
<g id="node11" class="node">
<title>191</title>
<polygon fill="#ffffff" stroke="#000000" points="472.74,-846.43 311.26,-846.43 311.26,-820.43 472.74,-820.43 472.74,-846.43"/>
<text text-anchor="middle" x="392" y="-829.13" font-family="Meiryo UI" font-size="14.00">int64_t var_a0 = 0</text>
</g>
<!-- 190&#45;&gt;191 -->
<g id="edge10" class="edge">
<title>190&#45;&gt;191</title>
<path fill="none" stroke="#000000" d="M392,-863.35C392,-861.73 392,-860.02 392,-858.27"/>
<polygon fill="#000000" stroke="#000000" points="395.5,-858.36 392,-848.36 388.5,-858.36 395.5,-858.36"/>
</g>
<!-- 192 -->
<g id="node12" class="node">
<title>192</title>
<polygon fill="#ffffff" stroke="#000000" points="567.25,-803.43 219.64,-803.43 216.75,-800.54 216.75,-777.43 564.36,-777.43 567.25,-780.32 567.25,-803.43"/>
<polyline fill="none" stroke="#000000" points="564.36,-800.54 216.75,-800.54"/>
<polyline fill="none" stroke="#000000" points="564.36,-800.54 564.36,-777.43"/>
<polyline fill="none" stroke="#000000" points="564.36,-800.54 567.25,-803.43"/>
<text text-anchor="middle" x="392" y="-786.13" font-family="Meiryo UI" font-size="14.00">SpecialCharacterFilter(&amp;var_70, &amp;var_a0, 0x2f)</text>
</g>
<!-- 191&#45;&gt;192 -->
<g id="edge11" class="edge">
<title>191&#45;&gt;192</title>
<path fill="none" stroke="#000000" d="M392,-820.35C392,-818.73 392,-817.02 392,-815.27"/>
<polygon fill="#000000" stroke="#000000" points="395.5,-815.36 392,-805.36 388.5,-815.36 395.5,-815.36"/>
</g>
<!-- 193 -->
<g id="node13" class="node">
<title>193</title>
<polygon fill="#ffffff" stroke="#000000" points="482.77,-760.43 304.12,-760.43 301.23,-757.54 301.23,-734.43 479.88,-734.43 482.77,-737.32 482.77,-760.43"/>
<polyline fill="none" stroke="#000000" points="479.88,-757.54 301.23,-757.54"/>
<polyline fill="none" stroke="#000000" points="479.88,-757.54 479.88,-734.43"/>
<polyline fill="none" stroke="#000000" points="479.88,-757.54 482.77,-760.43"/>
<text text-anchor="middle" x="392" y="-743.13" font-family="Meiryo UI" font-size="14.00">int32_t x0_1 = open()</text>
</g>
<!-- 192&#45;&gt;193 -->
<g id="edge12" class="edge">
<title>192&#45;&gt;193</title>
<path fill="none" stroke="#000000" d="M392,-777.35C392,-775.73 392,-774.02 392,-772.27"/>
<polygon fill="#000000" stroke="#000000" points="395.5,-772.36 392,-762.36 388.5,-772.36 395.5,-772.36"/>
</g>
<!-- 194 -->
<g id="node14" class="node">
<title>194</title>
<polygon fill="#ffffaa" stroke="#000000" points="452.69,-717.43 331.31,-717.43 331.31,-691.43 452.69,-691.43 452.69,-717.43"/>
<text text-anchor="middle" x="392" y="-700.13" font-family="Meiryo UI" font-size="14.00">int64_t x0_2</text>
</g>
<!-- 193&#45;&gt;194 -->
<g id="edge13" class="edge">
<title>193&#45;&gt;194</title>
<path fill="none" stroke="#000000" d="M392,-734.35C392,-732.73 392,-731.02 392,-729.27"/>
<polygon fill="#000000" stroke="#000000" points="395.5,-729.36 392,-719.36 388.5,-729.36 395.5,-729.36"/>
</g>
<!-- 195 -->
<g id="node15" class="node">
<title>195</title>
<polygon fill="#ffffff" stroke="#000000" points="392,-674.43 203.59,-653.86 392,-633.29 580.41,-653.86 392,-674.43"/>
<text text-anchor="middle" x="392" y="-649.56" font-family="Meiryo UI" font-size="14.00">(x0_1 &amp; 0x80000000) != 0</text>
</g>
<!-- 194&#45;&gt;195 -->
<g id="edge14" class="edge">
<title>194&#45;&gt;195</title>
<path fill="none" stroke="#000000" d="M392,-691.17C392,-689.63 392,-687.99 392,-686.31"/>
<polygon fill="#000000" stroke="#000000" points="395.5,-686.37 392,-676.37 388.5,-686.37 395.5,-686.37"/>
</g>
<!-- 196 -->
<g id="node16" class="node">
<title>196</title>
<polygon fill="#ffffff" stroke="#000000" points="550,-565.29 2.89,-565.29 0,-562.4 0,-539.29 547.11,-539.29 550,-542.17 550,-565.29"/>
<polyline fill="none" stroke="#000000" points="547.11,-562.4 0,-562.4"/>
<polyline fill="none" stroke="#000000" points="547.11,-562.4 547.11,-539.29"/>
<polyline fill="none" stroke="#000000" points="547.11,-562.4 550,-565.29"/>
<text text-anchor="middle" x="275" y="-547.99" font-family="Meiryo UI" font-size="14.00">x0_2 = __android_log_print(6, &quot;KeyEvent&quot;, &quot;Factory Reset File open Error&quot;)</text>
</g>
<!-- 195&#45;&gt;196 -->
<g id="edge15" class="edge">
<title>195&#45;&gt;196</title>
<path fill="none" stroke="#000000" d="M371.35,-635.28C350.89,-617.87 319.61,-591.25 298.28,-573.1"/>
<polygon fill="#000000" stroke="#000000" points="300.57,-570.45 290.69,-566.63 296.03,-575.78 300.57,-570.45"/>
<text text-anchor="middle" x="370" y="-611.99" font-family="Meiryo UI" font-size="14.00">Yes</text>
</g>
<!-- 198 -->
<g id="node17" class="node">
<title>198</title>
<polygon fill="#ffffaa" stroke="#000000" points="605.06,-599.29 456.94,-599.29 456.94,-573.29 605.06,-573.29 605.06,-599.29"/>
<text text-anchor="middle" x="531" y="-581.99" font-family="Meiryo UI" font-size="14.00">char* const x1_2</text>
</g>
<!-- 195&#45;&gt;198 -->
<g id="edge16" class="edge">
<title>195&#45;&gt;198</title>
<path fill="none" stroke="#000000" d="M426.36,-636.65C447.13,-626.85 473.58,-614.37 494.69,-604.41"/>
<polygon fill="#000000" stroke="#000000" points="495.96,-607.68 503.51,-600.25 492.98,-601.35 495.96,-607.68"/>
<text text-anchor="middle" x="496.38" y="-611.99" font-family="Meiryo UI" font-size="14.00">No</text>
</g>
<!-- 207 -->
<g id="node26" class="node">
<title>207</title>
<ellipse fill="#000000" stroke="#000000" cx="296" cy="-251.71" rx="5.14" ry="5.14"/>
</g>
<!-- 196&#45;&gt;207 -->
<g id="edge17" class="edge">
<title>196&#45;&gt;207</title>
<path fill="none" stroke="#000000" d="M275,-538.99C275,-523.77 275,-497.04 275,-474.14 275,-474.14 275,-474.14 275,-285.86 275,-277.65 279.65,-269.83 284.57,-263.85"/>
<polygon fill="#000000" stroke="#000000" points="286.88,-266.5 291.29,-256.87 281.84,-261.64 286.88,-266.5"/>
</g>
<!-- 199 -->
<g id="node18" class="node">
<title>199</title>
<polygon fill="#ffffff" stroke="#000000" points="574,-531.29 426.14,-510.71 574,-490.14 721.86,-510.71 574,-531.29"/>
<text text-anchor="middle" x="574" y="-506.41" font-family="Meiryo UI" font-size="14.00">(arg1 &amp; 1) == 0</text>
</g>
<!-- 198&#45;&gt;199 -->
<g id="edge18" class="edge">
<title>198&#45;&gt;199</title>
<path fill="none" stroke="#000000" d="M544.9,-572.8C547.11,-570.44 549.24,-567.89 551,-565.29 555.96,-557.97 560.21,-549.41 563.66,-541.31"/>
<polygon fill="#000000" stroke="#000000" points="566.87,-542.7 567.3,-532.11 560.36,-540.12 566.87,-542.7"/>
</g>
<!-- 200 -->
<g id="node19" class="node">
<title>200</title>
<polygon fill="#ffffff" stroke="#000000" points="520.11,-456.14 334.77,-456.14 331.89,-453.25 331.89,-430.14 517.23,-430.14 520.11,-433.03 520.11,-456.14"/>
<polyline fill="none" stroke="#000000" points="517.23,-453.25 331.89,-453.25"/>
<polyline fill="none" stroke="#000000" points="517.23,-453.25 517.23,-430.14"/>
<polyline fill="none" stroke="#000000" points="517.23,-453.25 520.11,-456.14"/>
<text text-anchor="middle" x="426" y="-438.84" font-family="Meiryo UI" font-size="14.00">__android_log_print(4)</text>
</g>
<!-- 199&#45;&gt;200 -->
<g id="edge19" class="edge">
<title>199&#45;&gt;200</title>
<path fill="none" stroke="#000000" d="M539.67,-494.51C517.16,-484.53 487.7,-471.48 464.41,-461.16"/>
<polygon fill="#000000" stroke="#000000" points="466.13,-458.09 455.57,-457.24 463.29,-464.49 466.13,-458.09"/>
<text text-anchor="middle" x="521" y="-468.84" font-family="Meiryo UI" font-size="14.00">Yes</text>
</g>
<!-- 203 -->
<g id="node21" class="node">
<title>203</title>
<polygon fill="#ffffff" stroke="#000000" points="744.11,-456.14 558.77,-456.14 555.89,-453.25 555.89,-430.14 741.23,-430.14 744.11,-433.03 744.11,-456.14"/>
<polyline fill="none" stroke="#000000" points="741.23,-453.25 555.89,-453.25"/>
<polyline fill="none" stroke="#000000" points="741.23,-453.25 741.23,-430.14"/>
<polyline fill="none" stroke="#000000" points="741.23,-453.25 744.11,-456.14"/>
<text text-anchor="middle" x="650" y="-438.84" font-family="Meiryo UI" font-size="14.00">__android_log_print(4)</text>
</g>
<!-- 199&#45;&gt;203 -->
<g id="edge20" class="edge">
<title>199&#45;&gt;203</title>
<path fill="none" stroke="#000000" d="M593.97,-492.49C604.17,-483.68 616.64,-472.93 627.21,-463.8"/>
<polygon fill="#000000" stroke="#000000" points="629.49,-466.46 634.78,-457.28 624.92,-461.16 629.49,-466.46"/>
<text text-anchor="middle" x="634.38" y="-468.84" font-family="Meiryo UI" font-size="14.00">No</text>
</g>
<!-- 201 -->
<g id="node20" class="node">
<title>201</title>
<polygon fill="#ffffff" stroke="#000000" points="493,-413.14 385,-413.14 385,-387.14 493,-387.14 493,-413.14"/>
<text text-anchor="middle" x="439" y="-395.84" font-family="Meiryo UI" font-size="14.00">x1_2 = &quot;0&quot;</text>
</g>
<!-- 200&#45;&gt;201 -->
<g id="edge21" class="edge">
<title>200&#45;&gt;201</title>
<path fill="none" stroke="#000000" d="M429.83,-430.06C430.4,-428.28 431,-426.39 431.61,-424.46"/>
<polygon fill="#000000" stroke="#000000" points="434.92,-425.6 434.6,-415.01 428.25,-423.48 434.92,-425.6"/>
</g>
<!-- 205 -->
<g id="node23" class="node">
<title>205</title>
<ellipse fill="#000000" stroke="#000000" cx="448" cy="-365" rx="5.14" ry="5.14"/>
</g>
<!-- 201&#45;&gt;205 -->
<g id="edge22" class="edge">
<title>201&#45;&gt;205</title>
<path fill="none" stroke="#000000" d="M442.35,-386.8C442.84,-385.01 443.35,-383.14 443.85,-381.3"/>
<polygon fill="#000000" stroke="#000000" points="447.16,-382.44 446.4,-371.87 440.41,-380.61 447.16,-382.44"/>
</g>
<!-- 204 -->
<g id="node22" class="node">
<title>204</title>
<polygon fill="#ffffff" stroke="#000000" points="671,-413.14 563,-413.14 563,-387.14 671,-387.14 671,-413.14"/>
<text text-anchor="middle" x="617" y="-395.84" font-family="Meiryo UI" font-size="14.00">x1_2 = &quot;1&quot;</text>
</g>
<!-- 203&#45;&gt;204 -->
<g id="edge23" class="edge">
<title>203&#45;&gt;204</title>
<path fill="none" stroke="#000000" d="M640.28,-430.06C638.32,-427.63 636.2,-425 634.07,-422.36"/>
<polygon fill="#000000" stroke="#000000" points="636.94,-420.34 627.95,-414.74 631.49,-424.73 636.94,-420.34"/>
</g>
<!-- 204&#45;&gt;205 -->
<g id="edge24" class="edge">
<title>204&#45;&gt;205</title>
<path fill="none" stroke="#000000" d="M562.6,-388.47C528.4,-381.77 486.63,-373.58 464.16,-369.17"/>
<polygon fill="#000000" stroke="#000000" points="464.88,-365.74 454.39,-367.25 463.53,-372.61 464.88,-365.74"/>
</g>
<!-- 749 -->
<g id="node24" class="node">
<title>749</title>
<polygon fill="#ffffff" stroke="#000000" points="565.51,-342.86 333.37,-342.86 330.49,-339.97 330.49,-316.86 562.63,-316.86 565.51,-319.75 565.51,-342.86"/>
<polyline fill="none" stroke="#000000" points="562.63,-339.97 330.49,-339.97"/>
<polyline fill="none" stroke="#000000" points="562.63,-339.97 562.63,-316.86"/>
<polyline fill="none" stroke="#000000" points="562.63,-339.97 565.51,-342.86"/>
<text text-anchor="middle" x="448" y="-325.56" font-family="Meiryo UI" font-size="14.00">__write_chk(x0_1, x1_2, 1, 2)</text>
</g>
<!-- 205&#45;&gt;749 -->
<g id="edge25" class="edge">
<title>205&#45;&gt;749</title>
<path fill="none" stroke="#000000" d="M448,-359.39C448,-357.95 448,-356.25 448,-354.4"/>
<polygon fill="#000000" stroke="#000000" points="451.5,-354.65 448,-344.65 444.5,-354.65 451.5,-354.65"/>
</g>
<!-- 206 -->
<g id="node25" class="node">
<title>206</title>
<polygon fill="#ffffff" stroke="#000000" points="509.74,-299.86 351.15,-299.86 348.26,-296.97 348.26,-273.86 506.85,-273.86 509.74,-276.75 509.74,-299.86"/>
<polyline fill="none" stroke="#000000" points="506.85,-296.97 348.26,-296.97"/>
<polyline fill="none" stroke="#000000" points="506.85,-296.97 506.85,-273.86"/>
<polyline fill="none" stroke="#000000" points="506.85,-296.97 509.74,-299.86"/>
<text text-anchor="middle" x="429" y="-282.56" font-family="Meiryo UI" font-size="14.00">x0_2 = close(x0_1)</text>
</g>
<!-- 749&#45;&gt;206 -->
<g id="edge26" class="edge">
<title>749&#45;&gt;206</title>
<path fill="none" stroke="#000000" d="M442.4,-316.78C441.5,-314.83 440.54,-312.76 439.56,-310.65"/>
<polygon fill="#000000" stroke="#000000" points="442.77,-309.25 435.39,-301.65 436.42,-312.19 442.77,-309.25"/>
</g>
<!-- 206&#45;&gt;207 -->
<g id="edge27" class="edge">
<title>206&#45;&gt;207</title>
<path fill="none" stroke="#000000" d="M379.1,-273.42C355.13,-267.45 328.1,-260.71 311.56,-256.59"/>
<polygon fill="#000000" stroke="#000000" points="312.81,-253.3 302.26,-254.28 311.12,-260.09 312.81,-253.3"/>
</g>
<!-- 750 -->
<g id="node27" class="node">
<title>750</title>
<polygon fill="#ffffff" stroke="#000000" points="296,-229.57 144.8,-209 296,-188.43 447.2,-209 296,-229.57"/>
<text text-anchor="middle" x="296" y="-204.7" font-family="Meiryo UI" font-size="14.00">(x21 &#45; x21) != 0</text>
</g>
<!-- 207&#45;&gt;750 -->
<g id="edge28" class="edge">
<title>207&#45;&gt;750</title>
<path fill="none" stroke="#000000" d="M296,-246.36C296,-244.85 296,-243.03 296,-241.01"/>
<polygon fill="#000000" stroke="#000000" points="299.5,-241.37 296,-231.37 292.5,-241.37 299.5,-241.37"/>
</g>
<!-- 208 -->
<g id="node28" class="node">
<title>208</title>
<polygon fill="#ffffff" stroke="#000000" points="299.74,-154.43 141.15,-154.43 138.26,-151.54 138.26,-128.43 296.85,-128.43 299.74,-131.32 299.74,-154.43"/>
<polyline fill="none" stroke="#000000" points="296.85,-151.54 138.26,-151.54"/>
<polyline fill="none" stroke="#000000" points="296.85,-151.54 296.85,-128.43"/>
<polyline fill="none" stroke="#000000" points="296.85,-151.54 299.74,-154.43"/>
<text text-anchor="middle" x="219" y="-137.13" font-family="Meiryo UI" font-size="14.00">__stack_chk_fail()</text>
</g>
<!-- 750&#45;&gt;208 -->
<g id="edge29" class="edge">
<title>750&#45;&gt;208</title>
<path fill="none" stroke="#000000" d="M275.77,-190.77C265.33,-181.88 252.55,-171 241.76,-161.81"/>
<polygon fill="#000000" stroke="#000000" points="244.3,-159.37 234.42,-155.56 239.76,-164.7 244.3,-159.37"/>
<text text-anchor="middle" x="275" y="-167.13" font-family="Meiryo UI" font-size="14.00">Yes</text>
</g>
<!-- 209 -->
<g id="node29" class="node">
<title>209</title>
<ellipse fill="#000000" stroke="#000000" cx="295" cy="-106.29" rx="5.14" ry="5.14"/>
</g>
<!-- 750&#45;&gt;209 -->
<g id="edge30" class="edge">
<title>750&#45;&gt;209</title>
<path fill="none" stroke="#000000" d="M307.92,-189.8C317.11,-173.33 326.87,-148.64 318,-128.43 315.9,-123.65 312.13,-119.47 308.24,-116.13"/>
<polygon fill="#000000" stroke="#000000" points="310.6,-113.51 300.44,-110.51 306.51,-119.19 310.6,-113.51"/>
<text text-anchor="middle" x="331.38" y="-137.13" font-family="Meiryo UI" font-size="14.00">No</text>
</g>
<!-- 208&#45;&gt;209 -->
<g id="edge31" class="edge">
<title>208&#45;&gt;209</title>
<path fill="none" stroke="#000000" d="M247.3,-128.09C258.33,-123.28 270.52,-117.96 279.82,-113.91"/>
<polygon fill="#000000" stroke="#000000" points="281.17,-117.14 288.93,-109.93 278.37,-110.72 281.17,-117.14"/>
</g>
<!-- 751 -->
<g id="node30" class="node">
<title>751</title>
<polygon fill="#ffffff" stroke="#000000" points="352.34,-84.14 237.66,-84.14 237.66,-58.14 352.34,-58.14 352.34,-84.14"/>
<text text-anchor="middle" x="295" y="-66.84" font-family="Meiryo UI" font-size="14.00">return x0_2</text>
</g>
<!-- 209&#45;&gt;751 -->
<g id="edge32" class="edge">
<title>209&#45;&gt;751</title>
<path fill="none" stroke="#000000" d="M295,-100.68C295,-99.23 295,-97.53 295,-95.69"/>
<polygon fill="#000000" stroke="#000000" points="298.5,-95.93 295,-85.93 291.5,-95.93 298.5,-95.93"/>
</g>
<!-- 210 -->
<g id="node31" class="node">
<title>210</title>
<ellipse fill="#ffffff" stroke="#000000" cx="295" cy="-20.57" rx="72" ry="20.57"/>
<text text-anchor="middle" x="295" y="-16.27" font-family="Meiryo UI" font-size="14.00">END</text>
</g>
<!-- 751&#45;&gt;210 -->
<g id="edge33" class="edge">
<title>751&#45;&gt;210</title>
<path fill="none" stroke="#000000" d="M295,-57.89C295,-56.34 295,-54.71 295,-53.02"/>
<polygon fill="#000000" stroke="#000000" points="298.5,-53.09 295,-43.09 291.5,-53.09 298.5,-53.09"/>
</g>
</g>
</svg>
