<?xml version="1.0" encoding="UTF-8" standalone="no"?>
<!DOCTYPE svg PUBLIC "-//W3C//DTD SVG 1.1//EN"
 "http://www.w3.org/Graphics/SVG/1.1/DTD/svg11.dtd">
<!-- Generated by graphviz version 9.0.0 (20230911.1827)
 -->
<!-- Title: graph_name Pages: 1 -->
<svg width="9790pt" height="2481pt"
 viewBox="0.00 0.00 9790.24 2481.37" xmlns="http://www.w3.org/2000/svg" xmlns:xlink="http://www.w3.org/1999/xlink">
<g id="graph0" class="graph" transform="scale(1 1) rotate(0) translate(4 2477.37)">
<title>graph_name</title>
<polygon fill="#f2f2f2" stroke="none" points="-4,4 -4,-2477.37 9786.24,-2477.37 9786.24,4 -4,4"/>
<!-- 382 -->
<g id="node1" class="node">
<title>382</title>
<ellipse fill="#ffffff" stroke="#000000" cx="2473.92" cy="-2442.26" rx="107.83" ry="31.11"/>
<text text-anchor="middle" x="2473.92" y="-2446.96" font-family="Meiryo UI" font-size="14.00">START</text>
<text text-anchor="middle" x="2473.92" y="-2428.96" font-family="Meiryo UI" font-size="14.00">int64_t sub_2108()</text>
</g>
<!-- 383 -->
<g id="node2" class="node">
<title>383</title>
<polygon fill="#ffffff" stroke="#000000" points="2602.3,-2394.14 2345.55,-2394.14 2345.55,-2368.14 2602.3,-2368.14 2602.3,-2394.14"/>
<text text-anchor="middle" x="2473.92" y="-2376.84" font-family="Meiryo UI" font-size="14.00">uint32_t x8 = key_power_pressed</text>
</g>
<!-- 382&#45;&gt;383 -->
<g id="edge1" class="edge">
<title>382&#45;&gt;383</title>
<path fill="none" stroke="#000000" d="M2473.92,-2410.66C2473.92,-2409.04 2473.92,-2407.43 2473.92,-2405.84"/>
<polygon fill="#000000" stroke="#000000" points="2477.42,-2405.96 2473.92,-2395.96 2470.42,-2405.96 2477.42,-2405.96"/>
</g>
<!-- 384 -->
<g id="node3" class="node">
<title>384</title>
<polygon fill="#ffffff" stroke="#000000" points="2473.92,-2351.14 1272.09,-2330.57 2473.92,-2310 3675.75,-2330.57 2473.92,-2351.14"/>
<text text-anchor="middle" x="2473.92" y="-2326.27" font-family="Meiryo UI" font-size="14.00">(((((x8 == 1 &amp;&amp; data_5021 == 1) &amp;&amp; (key_play_pause_pressed &amp; 1) == 0) &amp;&amp; (key_vol_up_pressed &amp; 1) == 0) &amp;&amp; (key_vol_down_pressed &amp; 1) == 0) &amp;&amp; (is_factory_reset &amp; 1) == 0)</text>
</g>
<!-- 383&#45;&gt;384 -->
<g id="edge2" class="edge">
<title>383&#45;&gt;384</title>
<path fill="none" stroke="#000000" d="M2473.92,-2367.89C2473.92,-2366.34 2473.92,-2364.71 2473.92,-2363.02"/>
<polygon fill="#000000" stroke="#000000" points="2477.42,-2363.09 2473.92,-2353.09 2470.42,-2363.09 2477.42,-2363.09"/>
</g>
<!-- 385 -->
<g id="node4" class="node">
<title>385</title>
<polygon fill="#ffffff" stroke="#000000" points="2481.35,-2276 2306.49,-2276 2306.49,-2250 2481.35,-2250 2481.35,-2276"/>
<text text-anchor="middle" x="2393.92" y="-2258.7" font-family="Meiryo UI" font-size="14.00">is_factory_reset = 1</text>
</g>
<!-- 384&#45;&gt;385 -->
<g id="edge3" class="edge">
<title>384&#45;&gt;385</title>
<path fill="none" stroke="#000000" d="M2450.35,-2310.25C2440.05,-2301.81 2427.98,-2291.92 2417.66,-2283.46"/>
<polygon fill="#000000" stroke="#000000" points="2419.89,-2280.76 2409.94,-2277.13 2415.46,-2286.18 2419.89,-2280.76"/>
<text text-anchor="middle" x="2450.92" y="-2288.7" font-family="Meiryo UI" font-size="14.00">Yes</text>
</g>
<!-- 386 -->
<g id="node5" class="node">
<title>386</title>
<ellipse fill="#000000" stroke="#000000" cx="2512.92" cy="-2227.86" rx="5.14" ry="5.14"/>
</g>
<!-- 384&#45;&gt;386 -->
<g id="edge4" class="edge">
<title>384&#45;&gt;386</title>
<path fill="none" stroke="#000000" d="M2484.02,-2309.78C2488.88,-2299.8 2494.59,-2287.42 2498.92,-2276 2502.87,-2265.58 2506.44,-2253.54 2508.98,-2244.23"/>
<polygon fill="#000000" stroke="#000000" points="2512.29,-2245.37 2511.44,-2234.81 2505.52,-2243.6 2512.29,-2245.37"/>
<text text-anchor="middle" x="2517.3" y="-2258.7" font-family="Meiryo UI" font-size="14.00">No</text>
</g>
<!-- 385&#45;&gt;386 -->
<g id="edge5" class="edge">
<title>385&#45;&gt;386</title>
<path fill="none" stroke="#000000" d="M2438.57,-2249.56C2459.18,-2243.83 2482.33,-2237.38 2497.24,-2233.23"/>
<polygon fill="#000000" stroke="#000000" points="2497.8,-2236.7 2506.49,-2230.65 2495.92,-2229.96 2497.8,-2236.7"/>
</g>
<!-- 771 -->
<g id="node6" class="node">
<title>771</title>
<polygon fill="#ffffff" stroke="#000000" points="2512.92,-2205.71 0,-2185.14 2512.92,-2164.57 5025.84,-2185.14 2512.92,-2205.71"/>
<text text-anchor="middle" x="2512.92" y="-2180.84" font-family="Meiryo UI" font-size="14.00">((((x8 != 1 || (x8 == 1 &amp;&amp; data_5021 != 1)) || ((x8 == 1 &amp;&amp; data_5021 == 1) &amp;&amp; (key_play_pause_pressed &amp; 1) != 0)) || (((x8 == 1 &amp;&amp; data_5021 == 1) &amp;&amp; (key_play_pause_pressed &amp; 1) == 0) &amp;&amp; (key_vol_up_pressed &amp; 1) != 0)) || ((((x8 == 1 &amp;&amp; data_5021 == 1) &amp;&amp; (key_play_pause_pressed &amp; 1) == 0) &amp;&amp; (key_vol_up_pressed &amp; 1) == 0) &amp;&amp; (key_vol_down_pressed &amp; 1) != 0))</text>
</g>
<!-- 386&#45;&gt;771 -->
<g id="edge6" class="edge">
<title>386&#45;&gt;771</title>
<path fill="none" stroke="#000000" d="M2512.92,-2222.5C2512.92,-2220.99 2512.92,-2219.17 2512.92,-2217.15"/>
<polygon fill="#000000" stroke="#000000" points="2516.42,-2217.51 2512.92,-2207.51 2509.42,-2217.51 2516.42,-2217.51"/>
</g>
<!-- 387 -->
<g id="node7" class="node">
<title>387</title>
<polygon fill="#ffffff" stroke="#000000" points="2400.92,-2130.57 2233.01,-2110 2400.92,-2089.43 2568.84,-2110 2400.92,-2130.57"/>
<text text-anchor="middle" x="2400.92" y="-2105.7" font-family="Meiryo UI" font-size="14.00">is_factory_reset != 1</text>
</g>
<!-- 771&#45;&gt;387 -->
<g id="edge7" class="edge">
<title>771&#45;&gt;387</title>
<path fill="none" stroke="#000000" d="M2482.61,-2164.35C2468.26,-2154.98 2451.04,-2143.73 2436.12,-2133.99"/>
<polygon fill="#000000" stroke="#000000" points="2438.25,-2131.2 2427.96,-2128.66 2434.42,-2137.06 2438.25,-2131.2"/>
<text text-anchor="middle" x="2482.92" y="-2143.27" font-family="Meiryo UI" font-size="14.00">Yes</text>
</g>
<!-- 416 -->
<g id="node41" class="node">
<title>416</title>
<ellipse fill="#000000" stroke="#000000" cx="2623.92" cy="-1967.14" rx="5.14" ry="5.14"/>
</g>
<!-- 771&#45;&gt;416 -->
<g id="edge8" class="edge">
<title>771&#45;&gt;416</title>
<path fill="none" stroke="#000000" d="M2550.59,-2164.47C2563.91,-2155.75 2577.83,-2144.33 2586.92,-2130.57 2617.9,-2083.7 2623.17,-2014.44 2623.91,-1983.75"/>
<polygon fill="#000000" stroke="#000000" points="2627.41,-1984.13 2623.99,-1974.1 2620.41,-1984.07 2627.41,-1984.13"/>
<text text-anchor="middle" x="2622.3" y="-2068.13" font-family="Meiryo UI" font-size="14.00">No</text>
</g>
<!-- 388 -->
<g id="node8" class="node">
<title>388</title>
<polygon fill="#ffffff" stroke="#ff0000" points="2316.64,-2006.29 2175.21,-2006.29 2175.21,-1980.29 2316.64,-1980.29 2316.64,-2006.29"/>
<text text-anchor="middle" x="2245.92" y="-1988.99" font-family="Meiryo UI" font-size="14.00">goto label_21c0</text>
</g>
<!-- 387&#45;&gt;388 -->
<g id="edge9" class="edge">
<title>387&#45;&gt;388</title>
<path fill="none" stroke="#000000" d="M2353.2,-2094.78C2330.07,-2086.14 2303.02,-2073.29 2282.92,-2055.43 2271.01,-2044.85 2261.74,-2029.5 2255.46,-2016.83"/>
<polygon fill="#000000" stroke="#000000" points="2258.73,-2015.55 2251.35,-2007.94 2252.37,-2018.49 2258.73,-2015.55"/>
<text text-anchor="middle" x="2332.92" y="-2068.13" font-family="Meiryo UI" font-size="14.00">Yes</text>
</g>
<!-- 389 -->
<g id="node9" class="node">
<title>389</title>
<polygon fill="#ffffff" stroke="#000000" points="2429.92,-2055.43 2301.35,-2034.86 2429.92,-2014.29 2558.49,-2034.86 2429.92,-2055.43"/>
<text text-anchor="middle" x="2429.92" y="-2030.56" font-family="Meiryo UI" font-size="14.00">x8 == 0</text>
</g>
<!-- 387&#45;&gt;389 -->
<g id="edge10" class="edge">
<title>387&#45;&gt;389</title>
<path fill="none" stroke="#000000" d="M2408.39,-2090.16C2411.4,-2082.57 2414.94,-2073.63 2418.28,-2065.22"/>
<polygon fill="#000000" stroke="#000000" points="2421.49,-2066.62 2421.92,-2056.04 2414.98,-2064.04 2421.49,-2066.62"/>
<text text-anchor="middle" x="2428.3" y="-2068.13" font-family="Meiryo UI" font-size="14.00">No</text>
</g>
<!-- 392 -->
<g id="node13" class="node">
<title>392</title>
<ellipse fill="#000000" stroke="#000000" cx="2530.92" cy="-1358.86" rx="5.14" ry="5.14"/>
</g>
<!-- 388&#45;&gt;392 -->
<g id="edge11" class="edge">
<title>388&#45;&gt;392</title>
<path fill="none" stroke="#000000" d="M2246.9,-1979.88C2247.41,-1972.39 2247.92,-1962.65 2247.92,-1954 2247.92,-1954 2247.92,-1954 2247.92,-1393 2247.92,-1366.04 2453.17,-1360.96 2514.08,-1360.05"/>
<polygon fill="#000000" stroke="#000000" points="2514.05,-1363.55 2524.01,-1359.92 2513.96,-1356.55 2514.05,-1363.55"/>
</g>
<!-- 390 -->
<g id="node10" class="node">
<title>390</title>
<ellipse fill="#000000" stroke="#000000" cx="2530.92" cy="-1472.14" rx="5.14" ry="5.14"/>
</g>
<!-- 389&#45;&gt;390 -->
<g id="edge12" class="edge">
<title>389&#45;&gt;390</title>
<path fill="none" stroke="#000000" d="M2388.03,-2020.62C2364.94,-2010.43 2340.92,-1993.69 2340.92,-1968.14 2340.92,-1968.14 2340.92,-1968.14 2340.92,-1531.29 2340.92,-1485.17 2389.76,-1498.56 2433.92,-1485.29 2461.26,-1477.07 2494.54,-1474.41 2514.16,-1473.55"/>
<polygon fill="#000000" stroke="#000000" points="2514.14,-1477.05 2524.02,-1473.24 2513.92,-1470.06 2514.14,-1477.05"/>
<text text-anchor="middle" x="2352.92" y="-1769.84" font-family="Meiryo UI" font-size="14.00">Yes</text>
</g>
<!-- 389&#45;&gt;416 -->
<g id="edge13" class="edge">
<title>389&#45;&gt;416</title>
<path fill="none" stroke="#000000" d="M2465.9,-2019.68C2495.52,-2008.28 2538.73,-1992.24 2577.17,-1980.29 2587.29,-1977.14 2598.8,-1974.14 2607.87,-1971.91"/>
<polygon fill="#000000" stroke="#000000" points="2608.58,-1975.34 2617.49,-1969.62 2606.95,-1968.53 2608.58,-1975.34"/>
<text text-anchor="middle" x="2586.3" y="-1988.99" font-family="Meiryo UI" font-size="14.00">No</text>
</g>
<!-- 772 -->
<g id="node11" class="node">
<title>772</title>
<polygon fill="#ffffff" stroke="#ff0000" points="2588.26,-1450 2473.58,-1450 2473.58,-1424 2588.26,-1424 2588.26,-1450"/>
<text text-anchor="middle" x="2530.92" y="-1432.7" font-family="Meiryo UI" font-size="14.00">label_21b4:</text>
</g>
<!-- 390&#45;&gt;772 -->
<g id="edge14" class="edge">
<title>390&#45;&gt;772</title>
<path fill="none" stroke="#000000" d="M2530.92,-1466.53C2530.92,-1465.09 2530.92,-1463.39 2530.92,-1461.55"/>
<polygon fill="#000000" stroke="#000000" points="2534.42,-1461.79 2530.92,-1451.79 2527.42,-1461.79 2534.42,-1461.79"/>
</g>
<!-- 391 -->
<g id="node12" class="node">
<title>391</title>
<polygon fill="#ffffff" stroke="#000000" points="2618.35,-1407 2443.49,-1407 2443.49,-1381 2618.35,-1381 2618.35,-1407"/>
<text text-anchor="middle" x="2530.92" y="-1389.7" font-family="Meiryo UI" font-size="14.00">is_factory_reset = 0</text>
</g>
<!-- 772&#45;&gt;391 -->
<g id="edge15" class="edge">
<title>772&#45;&gt;391</title>
<path fill="none" stroke="#000000" d="M2530.92,-1423.92C2530.92,-1422.3 2530.92,-1420.59 2530.92,-1418.84"/>
<polygon fill="#000000" stroke="#000000" points="2534.42,-1418.93 2530.92,-1408.93 2527.42,-1418.93 2534.42,-1418.93"/>
</g>
<!-- 391&#45;&gt;392 -->
<g id="edge16" class="edge">
<title>391&#45;&gt;392</title>
<path fill="none" stroke="#000000" d="M2530.92,-1380.66C2530.92,-1379.04 2530.92,-1377.37 2530.92,-1375.71"/>
<polygon fill="#000000" stroke="#000000" points="2534.42,-1375.78 2530.92,-1365.78 2527.42,-1375.78 2534.42,-1375.78"/>
</g>
<!-- 773 -->
<g id="node14" class="node">
<title>773</title>
<polygon fill="#ffffff" stroke="#ff0000" points="3736.26,-1336.71 3621.58,-1336.71 3621.58,-1310.71 3736.26,-1310.71 3736.26,-1336.71"/>
<text text-anchor="middle" x="3678.92" y="-1319.41" font-family="Meiryo UI" font-size="14.00">label_21c0:</text>
</g>
<!-- 392&#45;&gt;773 -->
<g id="edge17" class="edge">
<title>392&#45;&gt;773</title>
<path fill="none" stroke="#000000" d="M2536.3,-1357.7C2607.85,-1355.64 3373.68,-1333.53 3609.92,-1326.71"/>
<polygon fill="#000000" stroke="#000000" points="3610.02,-1330.2 3619.92,-1326.42 3609.82,-1323.21 3610.02,-1330.2"/>
</g>
<!-- 393 -->
<g id="node15" class="node">
<title>393</title>
<polygon fill="#ffffff" stroke="#000000" points="4683.67,-1293.71 4396.17,-1293.71 4396.17,-1267.71 4683.67,-1267.71 4683.67,-1293.71"/>
<text text-anchor="middle" x="4539.92" y="-1276.41" font-family="Meiryo UI" font-size="14.00">uint32_t x9_10 = key_vol_up_pressed</text>
</g>
<!-- 773&#45;&gt;393 -->
<g id="edge18" class="edge">
<title>773&#45;&gt;393</title>
<path fill="none" stroke="#000000" d="M3736.75,-1319.96C3867.62,-1313.73 4190.15,-1298.37 4384.35,-1289.12"/>
<polygon fill="#000000" stroke="#000000" points="4384.47,-1292.62 4394.29,-1288.65 4384.14,-1285.63 4384.47,-1292.62"/>
</g>
<!-- 394 -->
<g id="node16" class="node">
<title>394</title>
<polygon fill="#ffffff" stroke="#000000" points="4856.92,-1250.71 4654.92,-1250.71 4654.92,-1224.71 4856.92,-1224.71 4856.92,-1250.71"/>
<text text-anchor="middle" x="4755.92" y="-1233.41" font-family="Meiryo UI" font-size="14.00">uint32_t x11 = data_5026</text>
</g>
<!-- 393&#45;&gt;394 -->
<g id="edge19" class="edge">
<title>393&#45;&gt;394</title>
<path fill="none" stroke="#000000" d="M4605.61,-1267.25C4628.75,-1262.85 4654.98,-1257.88 4678.97,-1253.32"/>
<polygon fill="#000000" stroke="#000000" points="4679.52,-1256.78 4688.69,-1251.48 4678.21,-1249.9 4679.52,-1256.78"/>
</g>
<!-- 395 -->
<g id="node17" class="node">
<title>395</title>
<polygon fill="#ffffff" stroke="#000000" points="4809.92,-1207.71 4678.78,-1187.14 4809.92,-1166.57 4941.06,-1187.14 4809.92,-1207.71"/>
<text text-anchor="middle" x="4809.92" y="-1182.84" font-family="Meiryo UI" font-size="14.00">x9_10 != 1</text>
</g>
<!-- 394&#45;&gt;395 -->
<g id="edge20" class="edge">
<title>394&#45;&gt;395</title>
<path fill="none" stroke="#000000" d="M4769.55,-1224.46C4773.51,-1220.9 4777.98,-1216.87 4782.47,-1212.83"/>
<polygon fill="#000000" stroke="#000000" points="4784.78,-1215.47 4789.87,-1206.18 4780.1,-1210.26 4784.78,-1215.47"/>
</g>
<!-- 396 -->
<g id="node18" class="node">
<title>396</title>
<polygon fill="#ffffff" stroke="#000000" points="4809.92,-1132.57 4681.35,-1112 4809.92,-1091.43 4938.49,-1112 4809.92,-1132.57"/>
<text text-anchor="middle" x="4809.92" y="-1107.7" font-family="Meiryo UI" font-size="14.00">x11 != 0</text>
</g>
<!-- 395&#45;&gt;396 -->
<g id="edge21" class="edge">
<title>395&#45;&gt;396</title>
<path fill="none" stroke="#000000" d="M4809.92,-1166.16C4809.92,-1159.38 4809.92,-1151.65 4809.92,-1144.21"/>
<polygon fill="#000000" stroke="#000000" points="4813.42,-1144.48 4809.92,-1134.48 4806.42,-1144.48 4813.42,-1144.48"/>
<text text-anchor="middle" x="4821.92" y="-1145.27" font-family="Meiryo UI" font-size="14.00">Yes</text>
</g>
<!-- 401 -->
<g id="node23" class="node">
<title>401</title>
<polygon fill="#ffffff" stroke="#000000" points="5009.92,-954.43 4865.41,-933.86 5009.92,-913.29 5154.44,-933.86 5009.92,-954.43"/>
<text text-anchor="middle" x="5009.92" y="-929.56" font-family="Meiryo UI" font-size="14.00">(x11 &amp; 1) == 0</text>
</g>
<!-- 395&#45;&gt;401 -->
<g id="edge22" class="edge">
<title>395&#45;&gt;401</title>
<path fill="none" stroke="#000000" d="M4869.09,-1175.38C4925.51,-1163.37 5001.92,-1141.8 5001.92,-1113 5001.92,-1113 5001.92,-1113 5001.92,-1000.43 5001.92,-988.97 5003.14,-976.48 5004.62,-965.49"/>
<polygon fill="#000000" stroke="#000000" points="5008.06,-966.2 5006.07,-955.79 5001.14,-965.16 5008.06,-966.2"/>
<text text-anchor="middle" x="5011.3" y="-1040.13" font-family="Meiryo UI" font-size="14.00">No</text>
</g>
<!-- 397 -->
<g id="node19" class="node">
<title>397</title>
<polygon fill="#ffffff" stroke="#000000" points="4754.95,-1057.43 4626.89,-1057.43 4626.89,-1031.43 4754.95,-1031.43 4754.95,-1057.43"/>
<text text-anchor="middle" x="4690.92" y="-1040.13" font-family="Meiryo UI" font-size="14.00">data_5026 = 0</text>
</g>
<!-- 396&#45;&gt;397 -->
<g id="edge23" class="edge">
<title>396&#45;&gt;397</title>
<path fill="none" stroke="#000000" d="M4780.69,-1095.69C4773.24,-1091.74 4765.27,-1087.46 4757.92,-1083.43 4746.25,-1077.03 4733.53,-1069.86 4722.34,-1063.49"/>
<polygon fill="#000000" stroke="#000000" points="4724.29,-1060.58 4713.87,-1058.66 4720.82,-1066.66 4724.29,-1060.58"/>
<text text-anchor="middle" x="4769.92" y="-1070.13" font-family="Meiryo UI" font-size="14.00">Yes</text>
</g>
<!-- 403 -->
<g id="node25" class="node">
<title>403</title>
<ellipse fill="#000000" stroke="#000000" cx="4928.92" cy="-831.14" rx="5.14" ry="5.14"/>
</g>
<!-- 396&#45;&gt;403 -->
<g id="edge24" class="edge">
<title>396&#45;&gt;403</title>
<path fill="none" stroke="#000000" d="M4809.92,-1091.2C4809.92,-1078.19 4809.92,-1060.8 4809.92,-1045.43 4809.92,-1045.43 4809.92,-1045.43 4809.92,-865.29 4809.92,-844.27 4879.67,-836.01 4912.37,-833.29"/>
<polygon fill="#000000" stroke="#000000" points="4912.28,-836.8 4921.99,-832.57 4911.76,-829.82 4912.28,-836.8"/>
<text text-anchor="middle" x="4819.3" y="-967.13" font-family="Meiryo UI" font-size="14.00">No</text>
</g>
<!-- 398 -->
<g id="node20" class="node">
<title>398</title>
<polygon fill="#ffffff" stroke="#000000" points="4754.95,-1014.43 4626.89,-1014.43 4626.89,-988.43 4754.95,-988.43 4754.95,-1014.43"/>
<text text-anchor="middle" x="4690.92" y="-997.13" font-family="Meiryo UI" font-size="14.00">data_5027 = 0</text>
</g>
<!-- 397&#45;&gt;398 -->
<g id="edge25" class="edge">
<title>397&#45;&gt;398</title>
<path fill="none" stroke="#000000" d="M4690.92,-1031.35C4690.92,-1029.73 4690.92,-1028.02 4690.92,-1026.27"/>
<polygon fill="#000000" stroke="#000000" points="4694.42,-1026.36 4690.92,-1016.36 4687.42,-1026.36 4694.42,-1026.36"/>
</g>
<!-- 399 -->
<g id="node21" class="node">
<title>399</title>
<polygon fill="#ffffff" stroke="#000000" points="4754.95,-946.86 4626.89,-946.86 4626.89,-920.86 4754.95,-920.86 4754.95,-946.86"/>
<text text-anchor="middle" x="4690.92" y="-929.56" font-family="Meiryo UI" font-size="14.00">data_5018 = 0</text>
</g>
<!-- 398&#45;&gt;399 -->
<g id="edge26" class="edge">
<title>398&#45;&gt;399</title>
<path fill="none" stroke="#000000" d="M4690.92,-988.1C4690.92,-979.76 4690.92,-968.49 4690.92,-958.47"/>
<polygon fill="#000000" stroke="#000000" points="4694.42,-958.65 4690.92,-948.65 4687.42,-958.65 4694.42,-958.65"/>
</g>
<!-- 400 -->
<g id="node22" class="node">
<title>400</title>
<polygon fill="#ffffff" stroke="#000000" points="4754.95,-879.29 4626.89,-879.29 4626.89,-853.29 4754.95,-853.29 4754.95,-879.29"/>
<text text-anchor="middle" x="4690.92" y="-861.99" font-family="Meiryo UI" font-size="14.00">data_501c = 0</text>
</g>
<!-- 399&#45;&gt;400 -->
<g id="edge27" class="edge">
<title>399&#45;&gt;400</title>
<path fill="none" stroke="#000000" d="M4690.92,-920.52C4690.92,-912.19 4690.92,-900.92 4690.92,-890.89"/>
<polygon fill="#000000" stroke="#000000" points="4694.42,-891.08 4690.92,-881.08 4687.42,-891.08 4694.42,-891.08"/>
</g>
<!-- 400&#45;&gt;403 -->
<g id="edge28" class="edge">
<title>400&#45;&gt;403</title>
<path fill="none" stroke="#000000" d="M4738.84,-852.86C4752.67,-849.65 4767.82,-846.48 4781.92,-844.29 4828.89,-836.97 4885.04,-833.88 4912.36,-832.73"/>
<polygon fill="#000000" stroke="#000000" points="4912.18,-836.24 4922.04,-832.36 4911.91,-829.25 4912.18,-836.24"/>
</g>
<!-- 402 -->
<g id="node24" class="node">
<title>402</title>
<polygon fill="#ffffff" stroke="#000000" points="4992.95,-879.29 4864.89,-879.29 4864.89,-853.29 4992.95,-853.29 4992.95,-879.29"/>
<text text-anchor="middle" x="4928.92" y="-861.99" font-family="Meiryo UI" font-size="14.00">data_5026 = 1</text>
</g>
<!-- 401&#45;&gt;402 -->
<g id="edge29" class="edge">
<title>401&#45;&gt;402</title>
<path fill="none" stroke="#000000" d="M4989.06,-915.97C4978.04,-907.05 4964.46,-896.05 4952.99,-886.77"/>
<polygon fill="#000000" stroke="#000000" points="4955.49,-884.29 4945.51,-880.72 4951.08,-889.73 4955.49,-884.29"/>
<text text-anchor="middle" x="4985.92" y="-891.99" font-family="Meiryo UI" font-size="14.00">Yes</text>
</g>
<!-- 401&#45;&gt;403 -->
<g id="edge30" class="edge">
<title>401&#45;&gt;403</title>
<path fill="none" stroke="#000000" d="M5016.3,-913.72C5020.86,-896.14 5024.12,-870.32 5010.92,-853.29 5002.94,-842.99 4966.71,-836.82 4945.17,-833.99"/>
<polygon fill="#000000" stroke="#000000" points="4945.89,-830.55 4935.54,-832.84 4945.06,-837.5 4945.89,-830.55"/>
<text text-anchor="middle" x="5029.3" y="-861.99" font-family="Meiryo UI" font-size="14.00">No</text>
</g>
<!-- 402&#45;&gt;403 -->
<g id="edge31" class="edge">
<title>402&#45;&gt;403</title>
<path fill="none" stroke="#000000" d="M4928.92,-852.94C4928.92,-851.33 4928.92,-849.66 4928.92,-847.99"/>
<polygon fill="#000000" stroke="#000000" points="4932.42,-848.07 4928.92,-838.07 4925.42,-848.07 4932.42,-848.07"/>
</g>
<!-- 774 -->
<g id="node26" class="node">
<title>774</title>
<polygon fill="#ffffff" stroke="#000000" points="5047.92,-809 4827.92,-809 4827.92,-783 5047.92,-783 5047.92,-809"/>
<text text-anchor="middle" x="4937.92" y="-791.7" font-family="Meiryo UI" font-size="14.00">uint32_t x10_2 = data_5021</text>
</g>
<!-- 403&#45;&gt;774 -->
<g id="edge32" class="edge">
<title>403&#45;&gt;774</title>
<path fill="none" stroke="#000000" d="M4930.1,-825.81C4930.52,-824.26 4931.03,-822.38 4931.58,-820.34"/>
<polygon fill="#000000" stroke="#000000" points="4934.89,-821.51 4934.14,-810.94 4928.14,-819.67 4934.89,-821.51"/>
</g>
<!-- 404 -->
<g id="node27" class="node">
<title>404</title>
<polygon fill="#ffffff" stroke="#000000" points="4943.92,-766 4407.21,-745.43 4943.92,-724.86 5480.63,-745.43 4943.92,-766"/>
<text text-anchor="middle" x="4943.92" y="-741.13" font-family="Meiryo UI" font-size="14.00">((x10_2 == 1 &amp;&amp; key_play_pause_pressed == 1) &amp;&amp; (is_demo_mode &amp; 1) == 0)</text>
</g>
<!-- 774&#45;&gt;404 -->
<g id="edge33" class="edge">
<title>774&#45;&gt;404</title>
<path fill="none" stroke="#000000" d="M4939.44,-782.74C4939.65,-781 4939.88,-779.16 4940.11,-777.25"/>
<polygon fill="#000000" stroke="#000000" points="4943.56,-777.91 4941.31,-767.56 4936.61,-777.05 4943.56,-777.91"/>
</g>
<!-- 405 -->
<g id="node28" class="node">
<title>405</title>
<polygon fill="#ffffff" stroke="#000000" points="5019.8,-690.86 4868.05,-690.86 4868.05,-664.86 5019.8,-664.86 5019.8,-690.86"/>
<text text-anchor="middle" x="4943.92" y="-673.56" font-family="Meiryo UI" font-size="14.00">is_demo_mode = 1</text>
</g>
<!-- 404&#45;&gt;405 -->
<g id="edge34" class="edge">
<title>404&#45;&gt;405</title>
<path fill="none" stroke="#000000" d="M4943.92,-724.4C4943.92,-717.53 4943.92,-709.79 4943.92,-702.65"/>
<polygon fill="#000000" stroke="#000000" points="4947.42,-702.67 4943.92,-692.67 4940.42,-702.67 4947.42,-702.67"/>
<text text-anchor="middle" x="4955.92" y="-703.56" font-family="Meiryo UI" font-size="14.00">Yes</text>
</g>
<!-- 406 -->
<g id="node29" class="node">
<title>406</title>
<ellipse fill="#000000" stroke="#000000" cx="5091.92" cy="-642.71" rx="5.14" ry="5.14"/>
</g>
<!-- 404&#45;&gt;406 -->
<g id="edge35" class="edge">
<title>404&#45;&gt;406</title>
<path fill="none" stroke="#000000" d="M4980.22,-725.95C4998.11,-716.29 5019.7,-703.81 5037.92,-690.86 5053.6,-679.71 5070.04,-664.84 5080.6,-654.8"/>
<polygon fill="#000000" stroke="#000000" points="5082.87,-657.47 5087.62,-647.99 5078,-652.44 5082.87,-657.47"/>
<text text-anchor="middle" x="5078.3" y="-673.56" font-family="Meiryo UI" font-size="14.00">No</text>
</g>
<!-- 405&#45;&gt;406 -->
<g id="edge36" class="edge">
<title>405&#45;&gt;406</title>
<path fill="none" stroke="#000000" d="M4999.45,-664.42C5026.78,-658.3 5057.69,-651.38 5075.95,-647.29"/>
<polygon fill="#000000" stroke="#000000" points="5076.52,-650.75 5085.51,-645.15 5074.99,-643.92 5076.52,-650.75"/>
</g>
<!-- 775 -->
<g id="node30" class="node">
<title>775</title>
<polygon fill="#ffffff" stroke="#000000" points="5093.92,-620.57 4154.86,-600 5093.92,-579.43 6032.99,-600 5093.92,-620.57"/>
<text text-anchor="middle" x="5093.92" y="-595.7" font-family="Meiryo UI" font-size="14.00">(((x10_2 != 1 || (x10_2 == 1 &amp;&amp; key_play_pause_pressed != 1)) &amp;&amp; is_demo_mode == 1) || (x10_2 == 1 &amp;&amp; key_play_pause_pressed == 1))</text>
</g>
<!-- 406&#45;&gt;775 -->
<g id="edge37" class="edge">
<title>406&#45;&gt;775</title>
<path fill="none" stroke="#000000" d="M5092.14,-637.36C5092.21,-635.85 5092.3,-634.03 5092.4,-632.01"/>
<polygon fill="#000000" stroke="#000000" points="5095.88,-632.53 5092.87,-622.37 5088.89,-632.19 5095.88,-632.53"/>
</g>
<!-- 407 -->
<g id="node31" class="node">
<title>407</title>
<polygon fill="#ffffff" stroke="#000000" points="5093.92,-545.43 4892.51,-524.86 5093.92,-504.29 5295.33,-524.86 5093.92,-545.43"/>
<text text-anchor="middle" x="5093.92" y="-520.56" font-family="Meiryo UI" font-size="14.00">((x8 | (x10_2 ^ 1)) &amp; 1) != 0</text>
</g>
<!-- 775&#45;&gt;407 -->
<g id="edge38" class="edge">
<title>775&#45;&gt;407</title>
<path fill="none" stroke="#000000" d="M5093.92,-579.01C5093.92,-572.24 5093.92,-564.5 5093.92,-557.07"/>
<polygon fill="#000000" stroke="#000000" points="5097.42,-557.33 5093.92,-547.33 5090.42,-557.33 5097.42,-557.33"/>
<text text-anchor="middle" x="5105.92" y="-558.13" font-family="Meiryo UI" font-size="14.00">Yes</text>
</g>
<!-- 415 -->
<g id="node39" class="node">
<title>415</title>
<ellipse fill="#000000" stroke="#000000" cx="5588.92" cy="-133.57" rx="5.14" ry="5.14"/>
</g>
<!-- 775&#45;&gt;415 -->
<g id="edge39" class="edge">
<title>775&#45;&gt;415</title>
<path fill="none" stroke="#000000" d="M5425.7,-586.22C5568.77,-576.08 5703.92,-557.99 5703.92,-525.86 5703.92,-525.86 5703.92,-525.86 5703.92,-167.71 5703.92,-147.44 5637.11,-138.82 5605.34,-135.86"/>
<polygon fill="#000000" stroke="#000000" points="5605.93,-132.4 5595.67,-135.05 5605.34,-139.38 5605.93,-132.4"/>
<text text-anchor="middle" x="5713.3" y="-294.7" font-family="Meiryo UI" font-size="14.00">No</text>
</g>
<!-- 408 -->
<g id="node32" class="node">
<title>408</title>
<ellipse fill="#000000" stroke="#000000" cx="5223.92" cy="-263.86" rx="5.14" ry="5.14"/>
</g>
<!-- 407&#45;&gt;408 -->
<g id="edge40" class="edge">
<title>407&#45;&gt;408</title>
<path fill="none" stroke="#000000" d="M5011.26,-512.28C4948.14,-501.03 4871.92,-481.15 4871.92,-450.71 4871.92,-450.71 4871.92,-450.71 4871.92,-298 4871.92,-263.9 5137.08,-264.03 5207.12,-264.65"/>
<polygon fill="#000000" stroke="#000000" points="5206.84,-268.15 5216.88,-264.76 5206.92,-261.15 5206.84,-268.15"/>
<text text-anchor="middle" x="4883.92" y="-370.27" font-family="Meiryo UI" font-size="14.00">Yes</text>
</g>
<!-- 411 -->
<g id="node35" class="node">
<title>411</title>
<polygon fill="#ffffff" stroke="#000000" points="5287.92,-470.29 4927.08,-449.71 5287.92,-429.14 5648.77,-449.71 5287.92,-470.29"/>
<text text-anchor="middle" x="5287.92" y="-445.41" font-family="Meiryo UI" font-size="14.00">(((x9_10 | (!key_play_pause_pressed)) &amp; 1) &amp; 1) != 0</text>
</g>
<!-- 407&#45;&gt;411 -->
<g id="edge41" class="edge">
<title>407&#45;&gt;411</title>
<path fill="none" stroke="#000000" d="M5135.54,-508.17C5163.53,-497.61 5200.76,-483.58 5231.42,-472.02"/>
<polygon fill="#000000" stroke="#000000" points="5232.42,-475.38 5240.54,-468.58 5229.95,-468.83 5232.42,-475.38"/>
<text text-anchor="middle" x="5223.3" y="-482.99" font-family="Meiryo UI" font-size="14.00">No</text>
</g>
<!-- 776 -->
<g id="node33" class="node">
<title>776</title>
<polygon fill="#ffffff" stroke="#ff0000" points="5301.26,-224.71 5186.58,-224.71 5186.58,-198.71 5301.26,-198.71 5301.26,-224.71"/>
<text text-anchor="middle" x="5243.92" y="-207.41" font-family="Meiryo UI" font-size="14.00">label_2284:</text>
</g>
<!-- 408&#45;&gt;776 -->
<g id="edge42" class="edge">
<title>408&#45;&gt;776</title>
<path fill="none" stroke="#000000" d="M5225.63,-258.58C5227.7,-253.39 5231.35,-244.22 5234.86,-235.44"/>
<polygon fill="#000000" stroke="#000000" points="5238.06,-236.85 5238.52,-226.27 5231.56,-234.26 5238.06,-236.85"/>
</g>
<!-- 409 -->
<g id="node34" class="node">
<title>409</title>
<polygon fill="#ffffff" stroke="#000000" points="5448.8,-181.71 5297.05,-181.71 5297.05,-155.71 5448.8,-155.71 5448.8,-181.71"/>
<text text-anchor="middle" x="5372.92" y="-164.41" font-family="Meiryo UI" font-size="14.00">is_demo_mode = 0</text>
</g>
<!-- 776&#45;&gt;409 -->
<g id="edge43" class="edge">
<title>776&#45;&gt;409</title>
<path fill="none" stroke="#000000" d="M5282.98,-198.3C5295.61,-194.29 5309.79,-189.78 5323.09,-185.55"/>
<polygon fill="#000000" stroke="#000000" points="5324.09,-188.91 5332.56,-182.54 5321.97,-182.24 5324.09,-188.91"/>
</g>
<!-- 409&#45;&gt;415 -->
<g id="edge44" class="edge">
<title>409&#45;&gt;415</title>
<path fill="none" stroke="#000000" d="M5444.58,-155.25C5462.01,-152.33 5480.62,-149.32 5497.92,-146.71 5523.79,-142.82 5553.9,-138.92 5572.18,-136.63"/>
<polygon fill="#000000" stroke="#000000" points="5572.58,-140.11 5582.08,-135.41 5571.72,-133.16 5572.58,-140.11"/>
</g>
<!-- 412 -->
<g id="node36" class="node">
<title>412</title>
<polygon fill="#ffffff" stroke="#ff0000" points="5280.64,-346 5139.21,-346 5139.21,-320 5280.64,-320 5280.64,-346"/>
<text text-anchor="middle" x="5209.92" y="-328.7" font-family="Meiryo UI" font-size="14.00">goto label_2284</text>
</g>
<!-- 411&#45;&gt;412 -->
<g id="edge45" class="edge">
<title>411&#45;&gt;412</title>
<path fill="none" stroke="#000000" d="M5262.02,-430.32C5250.47,-420.95 5237.55,-408.68 5228.92,-395.14 5221.57,-383.61 5216.9,-369.05 5214.03,-357.03"/>
<polygon fill="#000000" stroke="#000000" points="5217.52,-356.61 5212.03,-347.54 5210.67,-358.05 5217.52,-356.61"/>
<text text-anchor="middle" x="5262.92" y="-407.84" font-family="Meiryo UI" font-size="14.00">Yes</text>
</g>
<!-- 413 -->
<g id="node37" class="node">
<title>413</title>
<polygon fill="#ffffff" stroke="#000000" points="5447.92,-395.14 5247.2,-374.57 5447.92,-354 5648.65,-374.57 5447.92,-395.14"/>
<text text-anchor="middle" x="5447.92" y="-370.27" font-family="Meiryo UI" font-size="14.00">key_vol_down_pressed == 1</text>
</g>
<!-- 411&#45;&gt;413 -->
<g id="edge46" class="edge">
<title>411&#45;&gt;413</title>
<path fill="none" stroke="#000000" d="M5326.65,-431.01C5349.37,-420.62 5378.21,-407.44 5402.06,-396.54"/>
<polygon fill="#000000" stroke="#000000" points="5403.27,-399.83 5410.91,-392.49 5400.36,-393.47 5403.27,-399.83"/>
<text text-anchor="middle" x="5396.3" y="-407.84" font-family="Meiryo UI" font-size="14.00">No</text>
</g>
<!-- 412&#45;&gt;408 -->
<g id="edge47" class="edge">
<title>412&#45;&gt;408</title>
<path fill="none" stroke="#000000" d="M5212.49,-319.68C5214.78,-308.68 5218.16,-292.5 5220.65,-280.57"/>
<polygon fill="#000000" stroke="#000000" points="5224.05,-281.39 5222.66,-270.89 5217.2,-279.96 5224.05,-281.39"/>
</g>
<!-- 414 -->
<g id="node38" class="node">
<title>414</title>
<polygon fill="#ffffff" stroke="#ff0000" points="5446.64,-312 5305.21,-312 5305.21,-286 5446.64,-286 5446.64,-312"/>
<text text-anchor="middle" x="5375.92" y="-294.7" font-family="Meiryo UI" font-size="14.00">goto label_2284</text>
</g>
<!-- 413&#45;&gt;414 -->
<g id="edge48" class="edge">
<title>413&#45;&gt;414</title>
<path fill="none" stroke="#000000" d="M5430.12,-355.39C5419.74,-344.78 5406.62,-331.36 5395.88,-320.4"/>
<polygon fill="#000000" stroke="#000000" points="5398.44,-318 5388.94,-313.31 5393.44,-322.9 5398.44,-318"/>
<text text-anchor="middle" x="5431.92" y="-328.7" font-family="Meiryo UI" font-size="14.00">Yes</text>
</g>
<!-- 413&#45;&gt;415 -->
<g id="edge49" class="edge">
<title>413&#45;&gt;415</title>
<path fill="none" stroke="#000000" d="M5482.82,-357.19C5503.58,-344.78 5525.92,-325.5 5525.92,-300 5525.92,-300 5525.92,-300 5525.92,-167.71 5525.92,-146.73 5553.64,-139 5572.3,-136.18"/>
<polygon fill="#000000" stroke="#000000" points="5572.51,-139.68 5582.05,-135.06 5571.71,-132.72 5572.51,-139.68"/>
<text text-anchor="middle" x="5535.3" y="-237.41" font-family="Meiryo UI" font-size="14.00">No</text>
</g>
<!-- 414&#45;&gt;408 -->
<g id="edge50" class="edge">
<title>414&#45;&gt;408</title>
<path fill="none" stroke="#000000" d="M5318.89,-285.56C5290.69,-279.42 5258.77,-272.46 5240.05,-268.37"/>
<polygon fill="#000000" stroke="#000000" points="5240.98,-265 5230.47,-266.28 5239.49,-271.83 5240.98,-265"/>
</g>
<!-- 777 -->
<g id="node40" class="node">
<title>777</title>
<polygon fill="#ffffff" stroke="#000000" points="5908.35,-111.43 5805.49,-111.43 5805.49,-85.43 5908.35,-85.43 5908.35,-111.43"/>
<text text-anchor="middle" x="5856.92" y="-94.13" font-family="Meiryo UI" font-size="14.00">return </text>
</g>
<!-- 415&#45;&gt;777 -->
<g id="edge51" class="edge">
<title>415&#45;&gt;777</title>
<path fill="none" stroke="#000000" d="M5594.04,-131.94C5618.37,-128.93 5724.14,-115.85 5793.88,-107.22"/>
<polygon fill="#000000" stroke="#000000" points="5794.17,-110.72 5803.67,-106.01 5793.32,-103.77 5794.17,-110.72"/>
</g>
<!-- 426 -->
<g id="node52" class="node">
<title>426</title>
<ellipse fill="#000000" stroke="#000000" cx="6034.92" cy="-63.29" rx="5.14" ry="5.14"/>
</g>
<!-- 777&#45;&gt;426 -->
<g id="edge52" class="edge">
<title>777&#45;&gt;426</title>
<path fill="none" stroke="#000000" d="M5908.41,-87.84C5945.83,-80.87 5994.09,-71.89 6018.79,-67.29"/>
<polygon fill="#000000" stroke="#000000" points="6019.19,-70.77 6028.38,-65.5 6017.91,-63.89 6019.19,-70.77"/>
</g>
<!-- 778 -->
<g id="node42" class="node">
<title>778</title>
<polygon fill="#ffffff" stroke="#000000" points="6088.92,-1945 2395.61,-1924.43 6088.92,-1903.86 9782.24,-1924.43 6088.92,-1945"/>
<text text-anchor="middle" x="6088.92" y="-1920.13" font-family="Meiryo UI" font-size="14.00">(((((x8 == 1 &amp;&amp; data_5021 == 1) &amp;&amp; (key_play_pause_pressed &amp; 1) == 0) &amp;&amp; (key_vol_up_pressed &amp; 1) == 0) &amp;&amp; (key_vol_down_pressed &amp; 1) == 0) || (((((x8 != 1 || (x8 == 1 &amp;&amp; data_5021 != 1)) || ((x8 == 1 &amp;&amp; data_5021 == 1) &amp;&amp; (key_play_pause_pressed &amp; 1) != 0)) || (((x8 == 1 &amp;&amp; data_5021 == 1) &amp;&amp; (key_play_pause_pressed &amp; 1) == 0) &amp;&amp; (key_vol_up_pressed &amp; 1) != 0)) || ((((x8 == 1 &amp;&amp; data_5021 == 1) &amp;&amp; (key_play_pause_pressed &amp; 1) == 0) &amp;&amp; (key_vol_up_pressed &amp; 1) == 0) &amp;&amp; (key_vol_down_pressed &amp; 1) != 0)) &amp;&amp; is_factory_reset == 1))</text>
</g>
<!-- 416&#45;&gt;778 -->
<g id="edge53" class="edge">
<title>416&#45;&gt;778</title>
<path fill="none" stroke="#000000" d="M2629.09,-1966.08C2718.49,-1965.03 3950.27,-1950.56 4918.91,-1939.18"/>
<polygon fill="#000000" stroke="#000000" points="4918.82,-1942.68 4928.78,-1939.06 4918.74,-1935.68 4918.82,-1942.68"/>
</g>
<!-- 417 -->
<g id="node43" class="node">
<title>417</title>
<polygon fill="#ffffff" stroke="#000000" points="2765.92,-1869.86 2621.41,-1849.29 2765.92,-1828.71 2910.44,-1849.29 2765.92,-1869.86"/>
<text text-anchor="middle" x="2765.92" y="-1844.99" font-family="Meiryo UI" font-size="14.00">data_5021 != 1</text>
</g>
<!-- 778&#45;&gt;417 -->
<g id="edge54" class="edge">
<title>778&#45;&gt;417</title>
<path fill="none" stroke="#000000" d="M5361.22,-1907.41C4552.38,-1889.61 3306.33,-1862.18 2899.43,-1853.22"/>
<polygon fill="#000000" stroke="#000000" points="2899.52,-1849.73 2889.44,-1853 2899.37,-1856.72 2899.52,-1849.73"/>
<text text-anchor="middle" x="4833.92" y="-1882.56" font-family="Meiryo UI" font-size="14.00">Yes</text>
</g>
<!-- 778&#45;&gt;426 -->
<g id="edge55" class="edge">
<title>778&#45;&gt;426</title>
<path fill="none" stroke="#000000" d="M6088.5,-1903.56C6088.23,-1888.85 6087.92,-1868.32 6087.92,-1850.29 6087.92,-1850.29 6087.92,-1850.29 6087.92,-97.43 6087.92,-79.96 6066.98,-71.36 6051.42,-67.38"/>
<polygon fill="#000000" stroke="#000000" points="6052.18,-63.96 6041.68,-65.34 6050.75,-70.81 6052.18,-63.96"/>
<text text-anchor="middle" x="6097.3" y="-929.56" font-family="Meiryo UI" font-size="14.00">No</text>
</g>
<!-- 418 -->
<g id="node44" class="node">
<title>418</title>
<polygon fill="#ffffff" stroke="#ff0000" points="2506.64,-1745.57 2365.21,-1745.57 2365.21,-1719.57 2506.64,-1719.57 2506.64,-1745.57"/>
<text text-anchor="middle" x="2435.92" y="-1728.27" font-family="Meiryo UI" font-size="14.00">goto label_21b4</text>
</g>
<!-- 417&#45;&gt;418 -->
<g id="edge56" class="edge">
<title>417&#45;&gt;418</title>
<path fill="none" stroke="#000000" d="M2674.53,-1841.28C2622.62,-1834.49 2557.67,-1821.1 2504.92,-1794.71 2485.19,-1784.85 2466.71,-1767.88 2453.85,-1754.33"/>
<polygon fill="#000000" stroke="#000000" points="2456.6,-1752.15 2447.27,-1747.13 2451.44,-1756.87 2456.6,-1752.15"/>
<text text-anchor="middle" x="2583.92" y="-1807.41" font-family="Meiryo UI" font-size="14.00">Yes</text>
</g>
<!-- 419 -->
<g id="node45" class="node">
<title>419</title>
<polygon fill="#ffffff" stroke="#000000" points="2765.92,-1794.71 2522.77,-1774.14 2765.92,-1753.57 3009.07,-1774.14 2765.92,-1794.71"/>
<text text-anchor="middle" x="2765.92" y="-1769.84" font-family="Meiryo UI" font-size="14.00">(key_play_pause_pressed &amp; 1) != 0</text>
</g>
<!-- 417&#45;&gt;419 -->
<g id="edge57" class="edge">
<title>417&#45;&gt;419</title>
<path fill="none" stroke="#000000" d="M2765.92,-1828.3C2765.92,-1821.53 2765.92,-1813.79 2765.92,-1806.36"/>
<polygon fill="#000000" stroke="#000000" points="2769.42,-1806.62 2765.92,-1796.62 2762.42,-1806.62 2769.42,-1806.62"/>
<text text-anchor="middle" x="2775.3" y="-1807.41" font-family="Meiryo UI" font-size="14.00">No</text>
</g>
<!-- 418&#45;&gt;390 -->
<g id="edge58" class="edge">
<title>418&#45;&gt;390</title>
<path fill="none" stroke="#000000" d="M2435.92,-1719.2C2435.92,-1703.29 2435.92,-1674.8 2435.92,-1650.43 2435.92,-1650.43 2435.92,-1650.43 2435.92,-1531.29 2435.92,-1494.89 2487.27,-1480.59 2514.46,-1475.56"/>
<polygon fill="#000000" stroke="#000000" points="2514.73,-1479.06 2524.05,-1474.02 2513.62,-1472.15 2514.73,-1479.06"/>
</g>
<!-- 420 -->
<g id="node46" class="node">
<title>420</title>
<polygon fill="#ffffff" stroke="#ff0000" points="2601.64,-1662.43 2460.21,-1662.43 2460.21,-1636.43 2601.64,-1636.43 2601.64,-1662.43"/>
<text text-anchor="middle" x="2530.92" y="-1645.13" font-family="Meiryo UI" font-size="14.00">goto label_21b4</text>
</g>
<!-- 419&#45;&gt;420 -->
<g id="edge59" class="edge">
<title>419&#45;&gt;420</title>
<path fill="none" stroke="#000000" d="M2697.64,-1758.88C2662.01,-1749.3 2618.9,-1734.2 2584.92,-1711.57 2569.24,-1701.12 2555.27,-1685.01 2545.47,-1671.95"/>
<polygon fill="#000000" stroke="#000000" points="2548.38,-1670.02 2539.71,-1663.94 2542.7,-1674.1 2548.38,-1670.02"/>
<text text-anchor="middle" x="2662.92" y="-1728.27" font-family="Meiryo UI" font-size="14.00">Yes</text>
</g>
<!-- 421 -->
<g id="node47" class="node">
<title>421</title>
<polygon fill="#ffffff" stroke="#000000" points="2816.92,-1711.57 2603.2,-1691 2816.92,-1670.43 3030.65,-1691 2816.92,-1711.57"/>
<text text-anchor="middle" x="2816.92" y="-1686.7" font-family="Meiryo UI" font-size="14.00">(key_vol_up_pressed &amp; 1) != 0</text>
</g>
<!-- 419&#45;&gt;421 -->
<g id="edge60" class="edge">
<title>419&#45;&gt;421</title>
<path fill="none" stroke="#000000" d="M2777.75,-1754.32C2784.12,-1744.18 2792.11,-1731.47 2799.21,-1720.18"/>
<polygon fill="#000000" stroke="#000000" points="2801.99,-1722.33 2804.35,-1712 2796.07,-1718.6 2801.99,-1722.33"/>
<text text-anchor="middle" x="2808.3" y="-1728.27" font-family="Meiryo UI" font-size="14.00">No</text>
</g>
<!-- 420&#45;&gt;390 -->
<g id="edge61" class="edge">
<title>420&#45;&gt;390</title>
<path fill="none" stroke="#000000" d="M2530.92,-1636.1C2530.92,-1605.01 2530.92,-1523.4 2530.92,-1488.9"/>
<polygon fill="#000000" stroke="#000000" points="2534.42,-1489.09 2530.92,-1479.09 2527.42,-1489.09 2534.42,-1489.09"/>
</g>
<!-- 422 -->
<g id="node48" class="node">
<title>422</title>
<polygon fill="#ffffff" stroke="#ff0000" points="2700.64,-1579.29 2559.21,-1579.29 2559.21,-1553.29 2700.64,-1553.29 2700.64,-1579.29"/>
<text text-anchor="middle" x="2629.92" y="-1561.99" font-family="Meiryo UI" font-size="14.00">goto label_21b4</text>
</g>
<!-- 421&#45;&gt;422 -->
<g id="edge62" class="edge">
<title>421&#45;&gt;422</title>
<path fill="none" stroke="#000000" d="M2763.02,-1675.25C2733.86,-1665.37 2698.5,-1650.15 2671.92,-1628.43 2658.99,-1617.86 2648.38,-1602.31 2641.06,-1589.53"/>
<polygon fill="#000000" stroke="#000000" points="2644.26,-1588.09 2636.43,-1580.96 2638.1,-1591.42 2644.26,-1588.09"/>
<text text-anchor="middle" x="2738.92" y="-1645.13" font-family="Meiryo UI" font-size="14.00">Yes</text>
</g>
<!-- 423 -->
<g id="node49" class="node">
<title>423</title>
<polygon fill="#ffffff" stroke="#000000" points="2890.92,-1628.43 2690.2,-1607.86 2890.92,-1587.29 3091.65,-1607.86 2890.92,-1628.43"/>
<text text-anchor="middle" x="2890.92" y="-1603.56" font-family="Meiryo UI" font-size="14.00">key_vol_down_pressed == 1</text>
</g>
<!-- 421&#45;&gt;423 -->
<g id="edge63" class="edge">
<title>421&#45;&gt;423</title>
<path fill="none" stroke="#000000" d="M2833.71,-1671.59C2843.46,-1660.9 2855.9,-1647.26 2866.69,-1635.42"/>
<polygon fill="#000000" stroke="#000000" points="2869.02,-1638.06 2873.18,-1628.32 2863.85,-1633.35 2869.02,-1638.06"/>
<text text-anchor="middle" x="2873.3" y="-1645.13" font-family="Meiryo UI" font-size="14.00">No</text>
</g>
<!-- 422&#45;&gt;390 -->
<g id="edge64" class="edge">
<title>422&#45;&gt;390</title>
<path fill="none" stroke="#000000" d="M2621.62,-1552.93C2609.56,-1535.78 2585.69,-1504.68 2558.92,-1485.29 2555.12,-1482.53 2550.59,-1480.22 2546.29,-1478.39"/>
<polygon fill="#000000" stroke="#000000" points="2547.62,-1475.15 2537.03,-1475 2545.21,-1481.72 2547.62,-1475.15"/>
</g>
<!-- 424 -->
<g id="node50" class="node">
<title>424</title>
<polygon fill="#ffffff" stroke="#ff0000" points="2823.64,-1545.29 2682.21,-1545.29 2682.21,-1519.29 2823.64,-1519.29 2823.64,-1545.29"/>
<text text-anchor="middle" x="2752.92" y="-1527.99" font-family="Meiryo UI" font-size="14.00">goto label_21b4</text>
</g>
<!-- 423&#45;&gt;424 -->
<g id="edge65" class="edge">
<title>423&#45;&gt;424</title>
<path fill="none" stroke="#000000" d="M2843.63,-1591.75C2834.24,-1588.12 2824.61,-1583.93 2815.92,-1579.29 2801.93,-1571.8 2787.55,-1561.52 2776.06,-1552.59"/>
<polygon fill="#000000" stroke="#000000" points="2778.35,-1549.93 2768.35,-1546.43 2773.98,-1555.4 2778.35,-1549.93"/>
<text text-anchor="middle" x="2827.92" y="-1561.99" font-family="Meiryo UI" font-size="14.00">Yes</text>
</g>
<!-- 425 -->
<g id="node51" class="node">
<title>425</title>
<polygon fill="#ffffff" stroke="#ff0000" points="2931.64,-1511.29 2790.21,-1511.29 2790.21,-1485.29 2931.64,-1485.29 2931.64,-1511.29"/>
<text text-anchor="middle" x="2860.92" y="-1493.99" font-family="Meiryo UI" font-size="14.00">goto label_21c0</text>
</g>
<!-- 423&#45;&gt;425 -->
<g id="edge66" class="edge">
<title>423&#45;&gt;425</title>
<path fill="none" stroke="#000000" d="M2885.56,-1587.63C2880.48,-1569.41 2872.84,-1542.02 2867.42,-1522.58"/>
<polygon fill="#000000" stroke="#000000" points="2870.83,-1521.8 2864.78,-1513.11 2864.09,-1523.68 2870.83,-1521.8"/>
<text text-anchor="middle" x="2891.3" y="-1561.99" font-family="Meiryo UI" font-size="14.00">No</text>
</g>
<!-- 424&#45;&gt;390 -->
<g id="edge67" class="edge">
<title>424&#45;&gt;390</title>
<path fill="none" stroke="#000000" d="M2729.15,-1518.98C2707.33,-1508.27 2673.79,-1493.24 2642.92,-1485.29 2609.83,-1476.76 2569.73,-1474.22 2547.61,-1473.46"/>
<polygon fill="#000000" stroke="#000000" points="2547.75,-1469.96 2537.66,-1473.22 2547.58,-1476.96 2547.75,-1469.96"/>
</g>
<!-- 425&#45;&gt;392 -->
<g id="edge68" class="edge">
<title>425&#45;&gt;392</title>
<path fill="none" stroke="#000000" d="M2791.9,-1484.82C2768.86,-1478.64 2748.92,-1470.1 2748.92,-1459 2748.92,-1459 2748.92,-1459 2748.92,-1393 2748.92,-1372.66 2598.69,-1363.25 2547.65,-1360.64"/>
<polygon fill="#000000" stroke="#000000" points="2547.98,-1357.15 2537.82,-1360.16 2547.64,-1364.14 2547.98,-1357.15"/>
</g>
<!-- 779 -->
<g id="node53" class="node">
<title>779</title>
<ellipse fill="#ffffff" stroke="#000000" cx="6034.92" cy="-20.57" rx="72" ry="20.57"/>
<text text-anchor="middle" x="6034.92" y="-16.27" font-family="Meiryo UI" font-size="14.00">END</text>
</g>
<!-- 426&#45;&gt;779 -->
<g id="edge69" class="edge">
<title>426&#45;&gt;779</title>
<path fill="none" stroke="#000000" d="M6034.92,-57.93C6034.92,-56.42 6034.92,-54.6 6034.92,-52.58"/>
<polygon fill="#000000" stroke="#000000" points="6038.42,-52.94 6034.92,-42.94 6031.42,-52.94 6038.42,-52.94"/>
</g>
</g>
</svg>
