<?xml version="1.0" encoding="UTF-8" standalone="no"?>
<!DOCTYPE svg PUBLIC "-//W3C//DTD SVG 1.1//EN"
 "http://www.w3.org/Graphics/SVG/1.1/DTD/svg11.dtd">
<!-- Generated by graphviz version 9.0.0 (20230911.1827)
 -->
<!-- Title: graph_name Pages: 1 -->
<svg width="1113pt" height="597pt"
 viewBox="0.00 0.00 1112.77 596.94" xmlns="http://www.w3.org/2000/svg" xmlns:xlink="http://www.w3.org/1999/xlink">
<g id="graph0" class="graph" transform="scale(1 1) rotate(0) translate(4 592.94)">
<title>graph_name</title>
<polygon fill="#f2f2f2" stroke="none" points="-4,4 -4,-592.94 1108.77,-592.94 1108.77,4 -4,4"/>
<!-- 327 -->
<g id="node1" class="node">
<title>327</title>
<ellipse fill="#ffffff" stroke="#000000" cx="449.12" cy="-557.83" rx="237.23" ry="31.11"/>
<text text-anchor="middle" x="449.12" y="-562.53" font-family="Meiryo UI" font-size="14.00">START</text>
<text text-anchor="middle" x="449.12" y="-544.53" font-family="Meiryo UI" font-size="14.00">int64_t sub_1ed8(int32_t arg1, int32_t arg2)</text>
</g>
<!-- 328 -->
<g id="node2" class="node">
<title>328</title>
<polygon fill="#ffffff" stroke="#000000" points="546.58,-509.71 354.56,-509.71 351.67,-506.83 351.67,-483.71 543.69,-483.71 546.58,-486.6 546.58,-509.71"/>
<polyline fill="none" stroke="#000000" points="543.69,-506.83 351.67,-506.83"/>
<polyline fill="none" stroke="#000000" points="543.69,-506.83 543.69,-483.71"/>
<polyline fill="none" stroke="#000000" points="543.69,-506.83 546.58,-509.71"/>
<text text-anchor="middle" x="449.12" y="-492.41" font-family="Meiryo UI" font-size="14.00">int32_t* x0 = malloc(4)</text>
</g>
<!-- 327&#45;&gt;328 -->
<g id="edge1" class="edge">
<title>327&#45;&gt;328</title>
<path fill="none" stroke="#000000" d="M449.12,-526.23C449.12,-524.62 449.12,-523 449.12,-521.41"/>
<polygon fill="#000000" stroke="#000000" points="452.63,-521.53 449.13,-511.53 445.63,-521.53 452.63,-521.53"/>
</g>
<!-- 329 -->
<g id="node3" class="node">
<title>329</title>
<polygon fill="#ffffaa" stroke="#000000" points="516.5,-466.71 381.75,-466.71 381.75,-440.71 516.5,-440.71 516.5,-466.71"/>
<text text-anchor="middle" x="449.12" y="-449.41" font-family="Meiryo UI" font-size="14.00">int64_t result</text>
</g>
<!-- 328&#45;&gt;329 -->
<g id="edge2" class="edge">
<title>328&#45;&gt;329</title>
<path fill="none" stroke="#000000" d="M449.12,-483.63C449.12,-482.01 449.12,-480.3 449.12,-478.56"/>
<polygon fill="#000000" stroke="#000000" points="452.63,-478.65 449.13,-468.65 445.63,-478.65 452.63,-478.65"/>
</g>
<!-- 330 -->
<g id="node4" class="node">
<title>330</title>
<polygon fill="#ffffff" stroke="#000000" points="449.12,-423.71 320.55,-403.14 449.12,-382.57 577.7,-403.14 449.12,-423.71"/>
<text text-anchor="middle" x="449.12" y="-398.84" font-family="Meiryo UI" font-size="14.00">x0 == 0</text>
</g>
<!-- 329&#45;&gt;330 -->
<g id="edge3" class="edge">
<title>329&#45;&gt;330</title>
<path fill="none" stroke="#000000" d="M449.12,-440.46C449.12,-438.91 449.12,-437.28 449.12,-435.6"/>
<polygon fill="#000000" stroke="#000000" points="452.63,-435.66 449.13,-425.66 445.63,-435.66 452.63,-435.66"/>
</g>
<!-- 331 -->
<g id="node5" class="node">
<title>331</title>
<polygon fill="#ffffff" stroke="#000000" points="540.25,-348.57 2.89,-348.57 0,-345.68 0,-322.57 537.36,-322.57 540.25,-325.46 540.25,-348.57"/>
<polyline fill="none" stroke="#000000" points="537.36,-345.68 0,-345.68"/>
<polyline fill="none" stroke="#000000" points="537.36,-345.68 537.36,-322.57"/>
<polyline fill="none" stroke="#000000" points="537.36,-345.68 540.25,-348.57"/>
<text text-anchor="middle" x="270.12" y="-331.27" font-family="Meiryo UI" font-size="14.00">__android_log_print(6, &quot;KeyEvent&quot;, &quot;notify_keyword_detected: buffer …&quot;)</text>
</g>
<!-- 330&#45;&gt;331 -->
<g id="edge4" class="edge">
<title>330&#45;&gt;331</title>
<path fill="none" stroke="#000000" d="M411.16,-388.24C382.92,-377.89 344.29,-363.74 314.6,-352.86"/>
<polygon fill="#000000" stroke="#000000" points="316.12,-349.69 305.52,-349.54 313.71,-356.26 316.12,-349.69"/>
<text text-anchor="middle" x="383.12" y="-361.27" font-family="Meiryo UI" font-size="14.00">Yes</text>
</g>
<!-- 334 -->
<g id="node7" class="node">
<title>334</title>
<polygon fill="#ffffff" stroke="#000000" points="712.12,-348.57 604.12,-348.57 604.12,-322.57 712.12,-322.57 712.12,-348.57"/>
<text text-anchor="middle" x="658.12" y="-331.27" font-family="Meiryo UI" font-size="14.00">*x0 = arg2</text>
</g>
<!-- 330&#45;&gt;334 -->
<g id="edge5" class="edge">
<title>330&#45;&gt;334</title>
<path fill="none" stroke="#000000" d="M491.42,-388.87C525.04,-378.33 572.16,-363.54 607.73,-352.38"/>
<polygon fill="#000000" stroke="#000000" points="608.43,-355.83 616.93,-349.5 606.34,-349.15 608.43,-355.83"/>
<text text-anchor="middle" x="599.5" y="-361.27" font-family="Meiryo UI" font-size="14.00">No</text>
</g>
<!-- 332 -->
<g id="node6" class="node">
<title>332</title>
<polygon fill="#ffffff" stroke="#000000" points="418.21,-256.43 250.04,-256.43 250.04,-230.43 418.21,-230.43 418.21,-256.43"/>
<text text-anchor="middle" x="334.12" y="-239.13" font-family="Meiryo UI" font-size="14.00">result = 0xffffffff</text>
</g>
<!-- 331&#45;&gt;332 -->
<g id="edge6" class="edge">
<title>331&#45;&gt;332</title>
<path fill="none" stroke="#000000" d="M259.68,-322.1C256.25,-317.25 252.88,-311.45 251.12,-305.57 245.9,-288.05 239.81,-278.79 251.12,-264.43 251.76,-263.63 252.56,-262.85 253.52,-262.11"/>
<polygon fill="#000000" stroke="#000000" points="254.89,-265.34 262.15,-257.61 251.66,-259.13 254.89,-265.34"/>
</g>
<!-- 340 -->
<g id="node12" class="node">
<title>340</title>
<ellipse fill="#000000" stroke="#000000" cx="578.12" cy="-106.29" rx="5.14" ry="5.14"/>
</g>
<!-- 332&#45;&gt;340 -->
<g id="edge7" class="edge">
<title>332&#45;&gt;340</title>
<path fill="none" stroke="#000000" d="M355.89,-230.16C383.89,-214.4 434.05,-186.23 477.12,-162.43 507.97,-145.38 544.25,-125.65 563.84,-115.02"/>
<polygon fill="#000000" stroke="#000000" points="565.43,-118.15 572.55,-110.3 562.09,-111.99 565.43,-118.15"/>
</g>
<!-- 335 -->
<g id="node8" class="node">
<title>335</title>
<polygon fill="#ffffff" stroke="#000000" points="687.12,-305.57 269.48,-285 687.12,-264.43 1104.77,-285 687.12,-305.57"/>
<text text-anchor="middle" x="687.12" y="-280.7" font-family="Meiryo UI" font-size="14.00">(notify_keyevent_client_cmd(x0, 4, arg1) &amp; 0x80000000) != 0</text>
</g>
<!-- 334&#45;&gt;335 -->
<g id="edge8" class="edge">
<title>334&#45;&gt;335</title>
<path fill="none" stroke="#000000" d="M665.44,-322.31C666.79,-320.05 668.26,-317.6 669.76,-315.08"/>
<polygon fill="#000000" stroke="#000000" points="672.73,-316.93 674.86,-306.55 666.72,-313.34 672.73,-316.93"/>
</g>
<!-- 336 -->
<g id="node9" class="node">
<title>336</title>
<polygon fill="#ffffff" stroke="#000000" points="663.21,-188.43 495.04,-188.43 495.04,-162.43 663.21,-162.43 663.21,-188.43"/>
<text text-anchor="middle" x="579.12" y="-171.13" font-family="Meiryo UI" font-size="14.00">result = 0xffffffff</text>
</g>
<!-- 335&#45;&gt;336 -->
<g id="edge9" class="edge">
<title>335&#45;&gt;336</title>
<path fill="none" stroke="#000000" d="M664.25,-265.19C660.83,-262.29 657.36,-259.3 654.12,-256.43 637.67,-241.81 633.26,-238.4 618.12,-222.43 610.67,-214.56 602.87,-205.54 596.22,-197.58"/>
<polygon fill="#000000" stroke="#000000" points="599.05,-195.52 589.99,-190.02 593.65,-199.97 599.05,-195.52"/>
<text text-anchor="middle" x="666.12" y="-239.13" font-family="Meiryo UI" font-size="14.00">Yes</text>
</g>
<!-- 338 -->
<g id="node10" class="node">
<title>338</title>
<polygon fill="#ffffff" stroke="#000000" points="738.55,-222.43 638.59,-222.43 635.7,-219.54 635.7,-196.43 735.66,-196.43 738.55,-199.32 738.55,-222.43"/>
<polyline fill="none" stroke="#000000" points="735.66,-219.54 635.7,-219.54"/>
<polyline fill="none" stroke="#000000" points="735.66,-219.54 735.66,-196.43"/>
<polyline fill="none" stroke="#000000" points="735.66,-219.54 738.55,-222.43"/>
<text text-anchor="middle" x="687.12" y="-205.13" font-family="Meiryo UI" font-size="14.00">free(x0)</text>
</g>
<!-- 335&#45;&gt;338 -->
<g id="edge10" class="edge">
<title>335&#45;&gt;338</title>
<path fill="none" stroke="#000000" d="M687.12,-264.28C687.12,-254.95 687.12,-243.72 687.12,-233.95"/>
<polygon fill="#000000" stroke="#000000" points="690.63,-234.1 687.13,-224.1 683.63,-234.1 690.63,-234.1"/>
<text text-anchor="middle" x="696.5" y="-239.13" font-family="Meiryo UI" font-size="14.00">No</text>
</g>
<!-- 336&#45;&gt;340 -->
<g id="edge11" class="edge">
<title>336&#45;&gt;340</title>
<path fill="none" stroke="#000000" d="M578.94,-162.11C578.78,-151.11 578.54,-134.93 578.36,-123"/>
<polygon fill="#000000" stroke="#000000" points="581.86,-123.29 578.22,-113.35 574.86,-123.4 581.86,-123.29"/>
</g>
<!-- 339 -->
<g id="node11" class="node">
<title>339</title>
<polygon fill="#ffffff" stroke="#000000" points="741.12,-154.43 633.12,-154.43 633.12,-128.43 741.12,-128.43 741.12,-154.43"/>
<text text-anchor="middle" x="687.12" y="-137.13" font-family="Meiryo UI" font-size="14.00">result = 0</text>
</g>
<!-- 338&#45;&gt;339 -->
<g id="edge12" class="edge">
<title>338&#45;&gt;339</title>
<path fill="none" stroke="#000000" d="M687.12,-196.01C687.12,-187.63 687.12,-176.28 687.12,-166.19"/>
<polygon fill="#000000" stroke="#000000" points="690.63,-166.3 687.13,-156.3 683.63,-166.3 690.63,-166.3"/>
</g>
<!-- 339&#45;&gt;340 -->
<g id="edge13" class="edge">
<title>339&#45;&gt;340</title>
<path fill="none" stroke="#000000" d="M646.23,-127.99C627.92,-122.43 607.42,-116.19 593.74,-112.03"/>
<polygon fill="#000000" stroke="#000000" points="595.04,-108.77 584.45,-109.21 593,-115.47 595.04,-108.77"/>
</g>
<!-- 766 -->
<g id="node13" class="node">
<title>766</title>
<polygon fill="#ffffff" stroke="#000000" points="642.15,-84.14 514.1,-84.14 514.1,-58.14 642.15,-58.14 642.15,-84.14"/>
<text text-anchor="middle" x="578.12" y="-66.84" font-family="Meiryo UI" font-size="14.00">return result</text>
</g>
<!-- 340&#45;&gt;766 -->
<g id="edge14" class="edge">
<title>340&#45;&gt;766</title>
<path fill="none" stroke="#000000" d="M578.12,-100.68C578.12,-99.23 578.12,-97.53 578.12,-95.69"/>
<polygon fill="#000000" stroke="#000000" points="581.63,-95.93 578.13,-85.93 574.63,-95.93 581.63,-95.93"/>
</g>
<!-- 341 -->
<g id="node14" class="node">
<title>341</title>
<ellipse fill="#ffffff" stroke="#000000" cx="578.12" cy="-20.57" rx="72" ry="20.57"/>
<text text-anchor="middle" x="578.12" y="-16.27" font-family="Meiryo UI" font-size="14.00">END</text>
</g>
<!-- 766&#45;&gt;341 -->
<g id="edge15" class="edge">
<title>766&#45;&gt;341</title>
<path fill="none" stroke="#000000" d="M578.12,-57.89C578.12,-56.34 578.12,-54.71 578.12,-53.02"/>
<polygon fill="#000000" stroke="#000000" points="581.63,-53.09 578.13,-43.09 574.63,-53.09 581.63,-53.09"/>
</g>
</g>
</svg>
