<?xml version="1.0" encoding="UTF-8" standalone="no"?>
<!DOCTYPE svg PUBLIC "-//W3C//DTD SVG 1.1//EN"
 "http://www.w3.org/Graphics/SVG/1.1/DTD/svg11.dtd">
<!-- Generated by graphviz version 9.0.0 (20230911.1827)
 -->
<!-- Title: graph_name Pages: 1 -->
<svg width="298pt" height="153pt"
 viewBox="0.00 0.00 298.37 153.37" xmlns="http://www.w3.org/2000/svg" xmlns:xlink="http://www.w3.org/1999/xlink">
<g id="graph0" class="graph" transform="scale(1 1) rotate(0) translate(4 149.37)">
<title>graph_name</title>
<polygon fill="#f2f2f2" stroke="none" points="-4,4 -4,-149.37 294.37,-149.37 294.37,4 -4,4"/>
<!-- 39 -->
<g id="node1" class="node">
<title>39</title>
<ellipse fill="#ffffff" stroke="#000000" cx="87.94" cy="-114.26" rx="87.94" ry="31.11"/>
<text text-anchor="middle" x="87.94" y="-118.96" font-family="Meiryo UI" font-size="14.00">START</text>
<text text-anchor="middle" x="87.94" y="-100.96" font-family="Meiryo UI" font-size="14.00">int64_t sync()</text>
</g>
<!-- 40 -->
<g id="node2" class="node">
<title>40</title>
<polygon fill="#ffffff" stroke="#000000" points="151.97,-75.14 26.8,-75.14 23.91,-72.25 23.91,-49.14 149.08,-49.14 151.97,-52.03 151.97,-75.14"/>
<polyline fill="none" stroke="#000000" points="149.08,-72.25 23.91,-72.25"/>
<polyline fill="none" stroke="#000000" points="149.08,-72.25 149.08,-49.14"/>
<polyline fill="none" stroke="#000000" points="149.08,-72.25 151.97,-75.14"/>
<text text-anchor="middle" x="87.94" y="-57.84" font-family="Meiryo UI" font-size="14.00">return sync()</text>
</g>
<!-- 39&#45;&gt;40 -->
<g id="edge1" class="edge">
<title>39&#45;&gt;40</title>
<path fill="none" stroke="#000000" d="M87.94,-82.66C87.94,-82.5 87.94,-82.34 87.94,-82.17"/>
<polygon fill="#000000" stroke="#000000" points="91.44,-86.72 87.94,-76.72 84.44,-86.72 91.44,-86.72"/>
</g>
<!-- 41 -->
<g id="node3" class="node">
<title>41</title>
<ellipse fill="#ffffff" stroke="#000000" cx="87.94" cy="-20.57" rx="72" ry="20.57"/>
<text text-anchor="middle" x="87.94" y="-16.27" font-family="Meiryo UI" font-size="14.00">END</text>
</g>
<!-- 40&#45;&gt;41 -->
<g id="edge2" class="edge">
<title>40&#45;&gt;41</title>
<path fill="none" stroke="#000000" d="M87.94,-49.06C87.94,-48.91 87.94,-48.76 87.94,-48.61"/>
<polygon fill="#000000" stroke="#000000" points="91.44,-53.12 87.94,-43.12 84.44,-53.12 91.44,-53.12"/>
</g>
<!-- 857 -->
<g id="node4" class="node">
<title>857</title>
<polygon fill="#bbccff" stroke="none" points="290.37,-75.14 187.51,-75.14 187.51,-49.14 290.37,-49.14 290.37,-75.14"/>
<text text-anchor="start" x="195.51" y="-57.84" font-family="Meiryo UI" font-size="14.00">tailcall</text>
</g>
<!-- 40&#45;&gt;857 -->
<g id="edge3" class="edge">
<title>40&#45;&gt;857</title>
<path fill="none" stroke="#aaaaff" d="M152.24,-62.14C164.09,-62.14 175.94,-62.14 187.8,-62.14"/>
</g>
</g>
</svg>
