<?xml version="1.0" encoding="UTF-8" standalone="no"?>
<!DOCTYPE svg PUBLIC "-//W3C//DTD SVG 1.1//EN"
 "http://www.w3.org/Graphics/SVG/1.1/DTD/svg11.dtd">
<!-- Generated by graphviz version 9.0.0 (20230911.1827)
 -->
<!-- Title: graph_name Pages: 1 -->
<svg width="403pt" height="153pt"
 viewBox="0.00 0.00 403.43 153.37" xmlns="http://www.w3.org/2000/svg" xmlns:xlink="http://www.w3.org/1999/xlink">
<g id="graph0" class="graph" transform="scale(1 1) rotate(0) translate(4 149.37)">
<title>graph_name</title>
<polygon fill="#f2f2f2" stroke="none" points="-4,4 -4,-149.37 399.43,-149.37 399.43,4 -4,4"/>
<!-- 66 -->
<g id="node1" class="node">
<title>66</title>
<ellipse fill="#ffffff" stroke="#000000" cx="172" cy="-114.26" rx="172" ry="31.11"/>
<text text-anchor="middle" x="172" y="-118.96" font-family="Meiryo UI" font-size="14.00">START</text>
<text text-anchor="middle" x="172" y="-100.96" font-family="Meiryo UI" font-size="14.00">int64_t usleep(useconds_t arg1)</text>
</g>
<!-- 67 -->
<g id="node2" class="node">
<title>67</title>
<polygon fill="#ffffff" stroke="#000000" points="256.09,-75.14 90.81,-75.14 87.92,-72.25 87.92,-49.14 253.2,-49.14 256.09,-52.03 256.09,-75.14"/>
<polyline fill="none" stroke="#000000" points="253.2,-72.25 87.92,-72.25"/>
<polyline fill="none" stroke="#000000" points="253.2,-72.25 253.2,-49.14"/>
<polyline fill="none" stroke="#000000" points="253.2,-72.25 256.09,-75.14"/>
<text text-anchor="middle" x="172" y="-57.84" font-family="Meiryo UI" font-size="14.00">return usleep(arg1)</text>
</g>
<!-- 66&#45;&gt;67 -->
<g id="edge1" class="edge">
<title>66&#45;&gt;67</title>
<path fill="none" stroke="#000000" d="M172,-82.66C172,-82.5 172,-82.34 172,-82.17"/>
<polygon fill="#000000" stroke="#000000" points="175.5,-86.72 172,-76.72 168.5,-86.72 175.5,-86.72"/>
</g>
<!-- 68 -->
<g id="node3" class="node">
<title>68</title>
<ellipse fill="#ffffff" stroke="#000000" cx="172" cy="-20.57" rx="72" ry="20.57"/>
<text text-anchor="middle" x="172" y="-16.27" font-family="Meiryo UI" font-size="14.00">END</text>
</g>
<!-- 67&#45;&gt;68 -->
<g id="edge2" class="edge">
<title>67&#45;&gt;68</title>
<path fill="none" stroke="#000000" d="M172,-49.06C172,-48.91 172,-48.76 172,-48.61"/>
<polygon fill="#000000" stroke="#000000" points="175.5,-53.12 172,-43.12 168.5,-53.12 175.5,-53.12"/>
</g>
<!-- 884 -->
<g id="node4" class="node">
<title>884</title>
<polygon fill="#bbccff" stroke="none" points="395.43,-75.14 292.58,-75.14 292.58,-49.14 395.43,-49.14 395.43,-75.14"/>
<text text-anchor="start" x="300.58" y="-57.84" font-family="Meiryo UI" font-size="14.00">tailcall</text>
</g>
<!-- 67&#45;&gt;884 -->
<g id="edge3" class="edge">
<title>67&#45;&gt;884</title>
<path fill="none" stroke="#aaaaff" d="M256.32,-62.14C268.43,-62.14 280.53,-62.14 292.63,-62.14"/>
</g>
</g>
</svg>
